<?xml version="1.0" encoding="utf-8" standalone="no"?>
<!DOCTYPE svg PUBLIC "-//W3C//DTD SVG 1.1//EN"
  "http://www.w3.org/Graphics/SVG/1.1/DTD/svg11.dtd">
<svg xmlns:xlink="http://www.w3.org/1999/xlink" width="1008pt" height="1008pt" viewBox="0 0 1008 1008" xmlns="http://www.w3.org/2000/svg" version="1.1">
 <metadata>
  <rdf:RDF xmlns:dc="http://purl.org/dc/elements/1.1/" xmlns:cc="http://creativecommons.org/ns#" xmlns:rdf="http://www.w3.org/1999/02/22-rdf-syntax-ns#">
   <cc:Work>
    <dc:type rdf:resource="http://purl.org/dc/dcmitype/StillImage"/>
    <dc:date>2026-04-04T10:18:57.614093</dc:date>
    <dc:format>image/svg+xml</dc:format>
    <dc:creator>
     <cc:Agent>
      <dc:title>Matplotlib v3.10.0, https://matplotlib.org/</dc:title>
     </cc:Agent>
    </dc:creator>
   </cc:Work>
  </rdf:RDF>
 </metadata>
 <defs>
  <style type="text/css">*{stroke-linejoin: round; stroke-linecap: butt}</style>
 </defs>
 <g id="figure_1">
  <g id="patch_1">
   <path d="M 0 1008 
L 1008 1008 
L 1008 0 
L 0 0 
z
" style="fill: #ffffff"/>
  </g>
  <g id="axes_1">
   <g id="patch_2">
    <path d="M 45.29 466.30375 
L 495.45 466.30375 
L 495.45 43.926 
L 45.29 43.926 
z
" style="fill: #ffffff"/>
   </g>
   <g id="patch_3">
    <path d="M 67.798 466.30375 
L 247.862 466.30375 
L 247.862 369.699749 
L 67.798 369.699749 
z
" clip-path="url(#p5d46637245)" style="fill: #2d8e6f"/>
   </g>
   <g id="patch_4">
    <path d="M 292.878 466.30375 
L 472.942 466.30375 
L 472.942 86.839645 
L 292.878 86.839645 
z
" clip-path="url(#p5d46637245)" style="fill: #cf5e5d"/>
   </g>
   <g id="matplotlib.axis_1">
    <g id="xtick_1">
     <g id="line2d_1">
      <defs>
       <path id="md3303891e8" d="M 0 0 
L 0 3.5 
" style="stroke: #000000; stroke-width: 0.8"/>
      </defs>
      <g>
       <use xlink:href="#md3303891e8" x="157.83" y="466.30375" style="stroke: #000000; stroke-width: 0.8"/>
      </g>
     </g>
     <g id="text_1">
      <!-- Мужской -->
      <g transform="translate(133.97375 480.902188) scale(0.1 -0.1)">
       <defs>
        <path id="DejaVuSans-41c" d="M 628 4666 
L 1569 4666 
L 2759 1491 
L 3956 4666 
L 4897 4666 
L 4897 0 
L 4281 0 
L 4281 4097 
L 3078 897 
L 2444 897 
L 1241 4097 
L 1241 0 
L 628 0 
L 628 4666 
z
" transform="scale(0.015625)"/>
        <path id="DejaVuSans-443" d="M 2059 -325 
Q 1816 -950 1584 -1140 
Q 1353 -1331 966 -1331 
L 506 -1331 
L 506 -850 
L 844 -850 
Q 1081 -850 1212 -737 
Q 1344 -625 1503 -206 
L 1606 56 
L 191 3500 
L 800 3500 
L 1894 763 
L 2988 3500 
L 3597 3500 
L 2059 -325 
z
" transform="scale(0.015625)"/>
        <path id="DejaVuSans-436" d="M 2597 3500 
L 3169 3500 
L 3169 1856 
L 4697 3500 
L 5366 3500 
L 4109 2153 
L 5547 0 
L 4931 0 
L 3753 1769 
L 3169 1141 
L 3169 0 
L 2597 0 
L 2597 1141 
L 2013 1769 
L 834 0 
L 219 0 
L 1656 2153 
L 400 3500 
L 1069 3500 
L 2597 1856 
L 2597 3500 
z
" transform="scale(0.015625)"/>
        <path id="DejaVuSans-441" d="M 3122 3366 
L 3122 2828 
Q 2878 2963 2633 3030 
Q 2388 3097 2138 3097 
Q 1578 3097 1268 2742 
Q 959 2388 959 1747 
Q 959 1106 1268 751 
Q 1578 397 2138 397 
Q 2388 397 2633 464 
Q 2878 531 3122 666 
L 3122 134 
Q 2881 22 2623 -34 
Q 2366 -91 2075 -91 
Q 1284 -91 818 406 
Q 353 903 353 1747 
Q 353 2603 823 3093 
Q 1294 3584 2113 3584 
Q 2378 3584 2631 3529 
Q 2884 3475 3122 3366 
z
" transform="scale(0.015625)"/>
        <path id="DejaVuSans-43a" d="M 581 3500 
L 1153 3500 
L 1153 1856 
L 2775 3500 
L 3481 3500 
L 2144 2147 
L 3653 0 
L 3009 0 
L 1769 1766 
L 1153 1141 
L 1153 0 
L 581 0 
L 581 3500 
z
" transform="scale(0.015625)"/>
        <path id="DejaVuSans-43e" d="M 1959 3097 
Q 1497 3097 1228 2736 
Q 959 2375 959 1747 
Q 959 1119 1226 758 
Q 1494 397 1959 397 
Q 2419 397 2687 759 
Q 2956 1122 2956 1747 
Q 2956 2369 2687 2733 
Q 2419 3097 1959 3097 
z
M 1959 3584 
Q 2709 3584 3137 3096 
Q 3566 2609 3566 1747 
Q 3566 888 3137 398 
Q 2709 -91 1959 -91 
Q 1206 -91 779 398 
Q 353 888 353 1747 
Q 353 2609 779 3096 
Q 1206 3584 1959 3584 
z
" transform="scale(0.015625)"/>
        <path id="DejaVuSans-439" d="M 3578 3500 
L 3578 0 
L 3006 0 
L 3006 2809 
L 1319 0 
L 581 0 
L 581 3500 
L 1153 3500 
L 1153 697 
L 2838 3500 
L 3578 3500 
z
M 1102 4833 
L 1471 4833 
Q 1505 4599 1656 4481 
Q 1808 4364 2080 4364 
Q 2349 4364 2499 4480 
Q 2649 4596 2689 4833 
L 3058 4833 
Q 3027 4386 2780 4161 
Q 2533 3936 2080 3936 
Q 1627 3936 1380 4161 
Q 1133 4386 1102 4833 
z
" transform="scale(0.015625)"/>
       </defs>
       <use xlink:href="#DejaVuSans-41c"/>
       <use xlink:href="#DejaVuSans-443" transform="translate(86.279297 0)"/>
       <use xlink:href="#DejaVuSans-436" transform="translate(145.458984 0)"/>
       <use xlink:href="#DejaVuSans-441" transform="translate(235.546875 0)"/>
       <use xlink:href="#DejaVuSans-43a" transform="translate(290.527344 0)"/>
       <use xlink:href="#DejaVuSans-43e" transform="translate(350.927734 0)"/>
       <use xlink:href="#DejaVuSans-439" transform="translate(412.109375 0)"/>
      </g>
     </g>
    </g>
    <g id="xtick_2">
     <g id="line2d_2">
      <g>
       <use xlink:href="#md3303891e8" x="382.91" y="466.30375" style="stroke: #000000; stroke-width: 0.8"/>
      </g>
     </g>
     <g id="text_2">
      <!-- Женский -->
      <g transform="translate(358.910781 480.902188) scale(0.1 -0.1)">
       <defs>
        <path id="DejaVuSans-416" d="M 3131 4666 
L 3763 4666 
L 3763 2359 
L 5894 4666 
L 6659 4666 
L 4956 2825 
L 6769 0 
L 6109 0 
L 4569 2403 
L 3763 1531 
L 3763 0 
L 3131 0 
L 3131 1531 
L 2325 2403 
L 784 0 
L 125 0 
L 1938 2825 
L 234 4666 
L 1000 4666 
L 3131 2359 
L 3131 4666 
z
" transform="scale(0.015625)"/>
        <path id="DejaVuSans-435" d="M 3597 1894 
L 3597 1613 
L 953 1613 
Q 991 1019 1311 708 
Q 1631 397 2203 397 
Q 2534 397 2845 478 
Q 3156 559 3463 722 
L 3463 178 
Q 3153 47 2828 -22 
Q 2503 -91 2169 -91 
Q 1331 -91 842 396 
Q 353 884 353 1716 
Q 353 2575 817 3079 
Q 1281 3584 2069 3584 
Q 2775 3584 3186 3129 
Q 3597 2675 3597 1894 
z
M 3022 2063 
Q 3016 2534 2758 2815 
Q 2500 3097 2075 3097 
Q 1594 3097 1305 2825 
Q 1016 2553 972 2059 
L 3022 2063 
z
" transform="scale(0.015625)"/>
        <path id="DejaVuSans-43d" d="M 581 3500 
L 1159 3500 
L 1159 2072 
L 3025 2072 
L 3025 3500 
L 3603 3500 
L 3603 0 
L 3025 0 
L 3025 1613 
L 1159 1613 
L 1159 0 
L 581 0 
L 581 3500 
z
" transform="scale(0.015625)"/>
        <path id="DejaVuSans-438" d="M 3578 3500 
L 3578 0 
L 3006 0 
L 3006 2809 
L 1319 0 
L 581 0 
L 581 3500 
L 1153 3500 
L 1153 697 
L 2838 3500 
L 3578 3500 
z
" transform="scale(0.015625)"/>
       </defs>
       <use xlink:href="#DejaVuSans-416"/>
       <use xlink:href="#DejaVuSans-435" transform="translate(107.714844 0)"/>
       <use xlink:href="#DejaVuSans-43d" transform="translate(169.238281 0)"/>
       <use xlink:href="#DejaVuSans-441" transform="translate(234.619141 0)"/>
       <use xlink:href="#DejaVuSans-43a" transform="translate(289.599609 0)"/>
       <use xlink:href="#DejaVuSans-438" transform="translate(350 0)"/>
       <use xlink:href="#DejaVuSans-439" transform="translate(414.990234 0)"/>
      </g>
     </g>
    </g>
    <g id="text_3">
     <!-- Пол -->
     <g transform="translate(259.352813 495.340156) scale(0.11 -0.11)">
      <defs>
       <path id="DejaVuSans-41f" d="M 4184 4666 
L 4184 0 
L 3553 0 
L 3553 4134 
L 1259 4134 
L 1259 0 
L 628 0 
L 628 4666 
L 4184 4666 
z
" transform="scale(0.015625)"/>
       <path id="DejaVuSans-43b" d="M 238 0 
L 238 478 
Q 806 566 981 959 
Q 1194 1513 1194 2928 
L 1194 3500 
L 3559 3500 
L 3559 0 
L 2984 0 
L 2984 3041 
L 1769 3041 
L 1769 2694 
Q 1769 1344 1494 738 
Q 1200 91 238 0 
z
" transform="scale(0.015625)"/>
      </defs>
      <use xlink:href="#DejaVuSans-41f"/>
      <use xlink:href="#DejaVuSans-43e" transform="translate(75.195312 0)"/>
      <use xlink:href="#DejaVuSans-43b" transform="translate(136.376953 0)"/>
     </g>
    </g>
   </g>
   <g id="matplotlib.axis_2">
    <g id="ytick_1">
     <g id="line2d_3">
      <defs>
       <path id="mba97fd1025" d="M 0 0 
L -3.5 0 
" style="stroke: #000000; stroke-width: 0.8"/>
      </defs>
      <g>
       <use xlink:href="#mba97fd1025" x="45.29" y="466.30375" style="stroke: #000000; stroke-width: 0.8"/>
      </g>
     </g>
     <g id="text_4">
      <!-- 0 -->
      <g transform="translate(31.9275 470.102969) scale(0.1 -0.1)">
       <defs>
        <path id="DejaVuSans-30" d="M 2034 4250 
Q 1547 4250 1301 3770 
Q 1056 3291 1056 2328 
Q 1056 1369 1301 889 
Q 1547 409 2034 409 
Q 2525 409 2770 889 
Q 3016 1369 3016 2328 
Q 3016 3291 2770 3770 
Q 2525 4250 2034 4250 
z
M 2034 4750 
Q 2819 4750 3233 4129 
Q 3647 3509 3647 2328 
Q 3647 1150 3233 529 
Q 2819 -91 2034 -91 
Q 1250 -91 836 529 
Q 422 1150 422 2328 
Q 422 3509 836 4129 
Q 1250 4750 2034 4750 
z
" transform="scale(0.015625)"/>
       </defs>
       <use xlink:href="#DejaVuSans-30"/>
      </g>
     </g>
    </g>
    <g id="ytick_2">
     <g id="line2d_4">
      <g>
       <use xlink:href="#mba97fd1025" x="45.29" y="415.165669" style="stroke: #000000; stroke-width: 0.8"/>
      </g>
     </g>
     <g id="text_5">
      <!-- 10 -->
      <g transform="translate(25.565 418.964888) scale(0.1 -0.1)">
       <defs>
        <path id="DejaVuSans-31" d="M 794 531 
L 1825 531 
L 1825 4091 
L 703 3866 
L 703 4441 
L 1819 4666 
L 2450 4666 
L 2450 531 
L 3481 531 
L 3481 0 
L 794 0 
L 794 531 
z
" transform="scale(0.015625)"/>
       </defs>
       <use xlink:href="#DejaVuSans-31"/>
       <use xlink:href="#DejaVuSans-30" transform="translate(63.623047 0)"/>
      </g>
     </g>
    </g>
    <g id="ytick_3">
     <g id="line2d_5">
      <g>
       <use xlink:href="#mba97fd1025" x="45.29" y="364.027588" style="stroke: #000000; stroke-width: 0.8"/>
      </g>
     </g>
     <g id="text_6">
      <!-- 20 -->
      <g transform="translate(25.565 367.826806) scale(0.1 -0.1)">
       <defs>
        <path id="DejaVuSans-32" d="M 1228 531 
L 3431 531 
L 3431 0 
L 469 0 
L 469 531 
Q 828 903 1448 1529 
Q 2069 2156 2228 2338 
Q 2531 2678 2651 2914 
Q 2772 3150 2772 3378 
Q 2772 3750 2511 3984 
Q 2250 4219 1831 4219 
Q 1534 4219 1204 4116 
Q 875 4013 500 3803 
L 500 4441 
Q 881 4594 1212 4672 
Q 1544 4750 1819 4750 
Q 2544 4750 2975 4387 
Q 3406 4025 3406 3419 
Q 3406 3131 3298 2873 
Q 3191 2616 2906 2266 
Q 2828 2175 2409 1742 
Q 1991 1309 1228 531 
z
" transform="scale(0.015625)"/>
       </defs>
       <use xlink:href="#DejaVuSans-32"/>
       <use xlink:href="#DejaVuSans-30" transform="translate(63.623047 0)"/>
      </g>
     </g>
    </g>
    <g id="ytick_4">
     <g id="line2d_6">
      <g>
       <use xlink:href="#mba97fd1025" x="45.29" y="312.889507" style="stroke: #000000; stroke-width: 0.8"/>
      </g>
     </g>
     <g id="text_7">
      <!-- 30 -->
      <g transform="translate(25.565 316.688725) scale(0.1 -0.1)">
       <defs>
        <path id="DejaVuSans-33" d="M 2597 2516 
Q 3050 2419 3304 2112 
Q 3559 1806 3559 1356 
Q 3559 666 3084 287 
Q 2609 -91 1734 -91 
Q 1441 -91 1130 -33 
Q 819 25 488 141 
L 488 750 
Q 750 597 1062 519 
Q 1375 441 1716 441 
Q 2309 441 2620 675 
Q 2931 909 2931 1356 
Q 2931 1769 2642 2001 
Q 2353 2234 1838 2234 
L 1294 2234 
L 1294 2753 
L 1863 2753 
Q 2328 2753 2575 2939 
Q 2822 3125 2822 3475 
Q 2822 3834 2567 4026 
Q 2313 4219 1838 4219 
Q 1578 4219 1281 4162 
Q 984 4106 628 3988 
L 628 4550 
Q 988 4650 1302 4700 
Q 1616 4750 1894 4750 
Q 2613 4750 3031 4423 
Q 3450 4097 3450 3541 
Q 3450 3153 3228 2886 
Q 3006 2619 2597 2516 
z
" transform="scale(0.015625)"/>
       </defs>
       <use xlink:href="#DejaVuSans-33"/>
       <use xlink:href="#DejaVuSans-30" transform="translate(63.623047 0)"/>
      </g>
     </g>
    </g>
    <g id="ytick_5">
     <g id="line2d_7">
      <g>
       <use xlink:href="#mba97fd1025" x="45.29" y="261.751425" style="stroke: #000000; stroke-width: 0.8"/>
      </g>
     </g>
     <g id="text_8">
      <!-- 40 -->
      <g transform="translate(25.565 265.550644) scale(0.1 -0.1)">
       <defs>
        <path id="DejaVuSans-34" d="M 2419 4116 
L 825 1625 
L 2419 1625 
L 2419 4116 
z
M 2253 4666 
L 3047 4666 
L 3047 1625 
L 3713 1625 
L 3713 1100 
L 3047 1100 
L 3047 0 
L 2419 0 
L 2419 1100 
L 313 1100 
L 313 1709 
L 2253 4666 
z
" transform="scale(0.015625)"/>
       </defs>
       <use xlink:href="#DejaVuSans-34"/>
       <use xlink:href="#DejaVuSans-30" transform="translate(63.623047 0)"/>
      </g>
     </g>
    </g>
    <g id="ytick_6">
     <g id="line2d_8">
      <g>
       <use xlink:href="#mba97fd1025" x="45.29" y="210.613344" style="stroke: #000000; stroke-width: 0.8"/>
      </g>
     </g>
     <g id="text_9">
      <!-- 50 -->
      <g transform="translate(25.565 214.412563) scale(0.1 -0.1)">
       <defs>
        <path id="DejaVuSans-35" d="M 691 4666 
L 3169 4666 
L 3169 4134 
L 1269 4134 
L 1269 2991 
Q 1406 3038 1543 3061 
Q 1681 3084 1819 3084 
Q 2600 3084 3056 2656 
Q 3513 2228 3513 1497 
Q 3513 744 3044 326 
Q 2575 -91 1722 -91 
Q 1428 -91 1123 -41 
Q 819 9 494 109 
L 494 744 
Q 775 591 1075 516 
Q 1375 441 1709 441 
Q 2250 441 2565 725 
Q 2881 1009 2881 1497 
Q 2881 1984 2565 2268 
Q 2250 2553 1709 2553 
Q 1456 2553 1204 2497 
Q 953 2441 691 2322 
L 691 4666 
z
" transform="scale(0.015625)"/>
       </defs>
       <use xlink:href="#DejaVuSans-35"/>
       <use xlink:href="#DejaVuSans-30" transform="translate(63.623047 0)"/>
      </g>
     </g>
    </g>
    <g id="ytick_7">
     <g id="line2d_9">
      <g>
       <use xlink:href="#mba97fd1025" x="45.29" y="159.475263" style="stroke: #000000; stroke-width: 0.8"/>
      </g>
     </g>
     <g id="text_10">
      <!-- 60 -->
      <g transform="translate(25.565 163.274482) scale(0.1 -0.1)">
       <defs>
        <path id="DejaVuSans-36" d="M 2113 2584 
Q 1688 2584 1439 2293 
Q 1191 2003 1191 1497 
Q 1191 994 1439 701 
Q 1688 409 2113 409 
Q 2538 409 2786 701 
Q 3034 994 3034 1497 
Q 3034 2003 2786 2293 
Q 2538 2584 2113 2584 
z
M 3366 4563 
L 3366 3988 
Q 3128 4100 2886 4159 
Q 2644 4219 2406 4219 
Q 1781 4219 1451 3797 
Q 1122 3375 1075 2522 
Q 1259 2794 1537 2939 
Q 1816 3084 2150 3084 
Q 2853 3084 3261 2657 
Q 3669 2231 3669 1497 
Q 3669 778 3244 343 
Q 2819 -91 2113 -91 
Q 1303 -91 875 529 
Q 447 1150 447 2328 
Q 447 3434 972 4092 
Q 1497 4750 2381 4750 
Q 2619 4750 2861 4703 
Q 3103 4656 3366 4563 
z
" transform="scale(0.015625)"/>
       </defs>
       <use xlink:href="#DejaVuSans-36"/>
       <use xlink:href="#DejaVuSans-30" transform="translate(63.623047 0)"/>
      </g>
     </g>
    </g>
    <g id="ytick_8">
     <g id="line2d_10">
      <g>
       <use xlink:href="#mba97fd1025" x="45.29" y="108.337182" style="stroke: #000000; stroke-width: 0.8"/>
      </g>
     </g>
     <g id="text_11">
      <!-- 70 -->
      <g transform="translate(25.565 112.136401) scale(0.1 -0.1)">
       <defs>
        <path id="DejaVuSans-37" d="M 525 4666 
L 3525 4666 
L 3525 4397 
L 1831 0 
L 1172 0 
L 2766 4134 
L 525 4134 
L 525 4666 
z
" transform="scale(0.015625)"/>
       </defs>
       <use xlink:href="#DejaVuSans-37"/>
       <use xlink:href="#DejaVuSans-30" transform="translate(63.623047 0)"/>
      </g>
     </g>
    </g>
    <g id="ytick_9">
     <g id="line2d_11">
      <g>
       <use xlink:href="#mba97fd1025" x="45.29" y="57.199101" style="stroke: #000000; stroke-width: 0.8"/>
      </g>
     </g>
     <g id="text_12">
      <!-- 80 -->
      <g transform="translate(25.565 60.998319) scale(0.1 -0.1)">
       <defs>
        <path id="DejaVuSans-38" d="M 2034 2216 
Q 1584 2216 1326 1975 
Q 1069 1734 1069 1313 
Q 1069 891 1326 650 
Q 1584 409 2034 409 
Q 2484 409 2743 651 
Q 3003 894 3003 1313 
Q 3003 1734 2745 1975 
Q 2488 2216 2034 2216 
z
M 1403 2484 
Q 997 2584 770 2862 
Q 544 3141 544 3541 
Q 544 4100 942 4425 
Q 1341 4750 2034 4750 
Q 2731 4750 3128 4425 
Q 3525 4100 3525 3541 
Q 3525 3141 3298 2862 
Q 3072 2584 2669 2484 
Q 3125 2378 3379 2068 
Q 3634 1759 3634 1313 
Q 3634 634 3220 271 
Q 2806 -91 2034 -91 
Q 1263 -91 848 271 
Q 434 634 434 1313 
Q 434 1759 690 2068 
Q 947 2378 1403 2484 
z
M 1172 3481 
Q 1172 3119 1398 2916 
Q 1625 2713 2034 2713 
Q 2441 2713 2670 2916 
Q 2900 3119 2900 3481 
Q 2900 3844 2670 4047 
Q 2441 4250 2034 4250 
Q 1625 4250 1398 4047 
Q 1172 3844 1172 3481 
z
" transform="scale(0.015625)"/>
       </defs>
       <use xlink:href="#DejaVuSans-38"/>
       <use xlink:href="#DejaVuSans-30" transform="translate(63.623047 0)"/>
      </g>
     </g>
    </g>
    <g id="text_13">
     <!-- Выживаемость (%) -->
     <g transform="translate(19.277344 310.005734) rotate(-90) scale(0.11 -0.11)">
      <defs>
       <path id="DejaVuSans-412" d="M 1259 2228 
L 1259 519 
L 2272 519 
Q 2781 519 3026 730 
Q 3272 941 3272 1375 
Q 3272 1813 3026 2020 
Q 2781 2228 2272 2228 
L 1259 2228 
z
M 1259 4147 
L 1259 2741 
L 2194 2741 
Q 2656 2741 2882 2914 
Q 3109 3088 3109 3444 
Q 3109 3797 2882 3972 
Q 2656 4147 2194 4147 
L 1259 4147 
z
M 628 4666 
L 2241 4666 
Q 2963 4666 3353 4366 
Q 3744 4066 3744 3513 
Q 3744 3084 3544 2831 
Q 3344 2578 2956 2516 
Q 3422 2416 3680 2098 
Q 3938 1781 3938 1306 
Q 3938 681 3513 340 
Q 3088 0 2303 0 
L 628 0 
L 628 4666 
z
" transform="scale(0.015625)"/>
       <path id="DejaVuSans-44b" d="M 3907 3500 
L 4482 3500 
L 4482 0 
L 3907 0 
L 3907 3500 
z
M 4195 3584 
L 4195 3584 
z
M 2781 1038 
Q 2781 1319 2576 1466 
Q 2372 1613 1978 1613 
L 1159 1613 
L 1159 459 
L 1978 459 
Q 2372 459 2576 607 
Q 2781 756 2781 1038 
z
M 581 3500 
L 1159 3500 
L 1159 2072 
L 2003 2072 
Q 2672 2072 3033 1817 
Q 3394 1563 3394 1038 
Q 3394 513 3033 256 
Q 2672 0 2003 0 
L 581 0 
L 581 3500 
z
" transform="scale(0.015625)"/>
       <path id="DejaVuSans-432" d="M 1156 1613 
L 1156 459 
L 1975 459 
Q 2369 459 2575 607 
Q 2781 756 2781 1038 
Q 2781 1319 2575 1466 
Q 2369 1613 1975 1613 
L 1156 1613 
z
M 1156 3041 
L 1156 2072 
L 1913 2072 
Q 2238 2072 2444 2201 
Q 2650 2331 2650 2563 
Q 2650 2794 2444 2917 
Q 2238 3041 1913 3041 
L 1156 3041 
z
M 581 3500 
L 1950 3500 
Q 2566 3500 2897 3275 
Q 3228 3050 3228 2634 
Q 3228 2313 3059 2123 
Q 2891 1934 2559 1888 
Q 2956 1813 3175 1575 
Q 3394 1338 3394 981 
Q 3394 513 3033 256 
Q 2672 0 2003 0 
L 581 0 
L 581 3500 
z
" transform="scale(0.015625)"/>
       <path id="DejaVuSans-430" d="M 2194 1759 
Q 1497 1759 1228 1600 
Q 959 1441 959 1056 
Q 959 750 1161 570 
Q 1363 391 1709 391 
Q 2188 391 2477 730 
Q 2766 1069 2766 1631 
L 2766 1759 
L 2194 1759 
z
M 3341 1997 
L 3341 0 
L 2766 0 
L 2766 531 
Q 2569 213 2275 61 
Q 1981 -91 1556 -91 
Q 1019 -91 701 211 
Q 384 513 384 1019 
Q 384 1609 779 1909 
Q 1175 2209 1959 2209 
L 2766 2209 
L 2766 2266 
Q 2766 2663 2505 2880 
Q 2244 3097 1772 3097 
Q 1472 3097 1187 3025 
Q 903 2953 641 2809 
L 641 3341 
Q 956 3463 1253 3523 
Q 1550 3584 1831 3584 
Q 2591 3584 2966 3190 
Q 3341 2797 3341 1997 
z
" transform="scale(0.015625)"/>
       <path id="DejaVuSans-43c" d="M 581 3500 
L 1422 3500 
L 2416 1156 
L 3413 3500 
L 4247 3500 
L 4247 0 
L 3669 0 
L 3669 2950 
L 2703 672 
L 2128 672 
L 1159 2950 
L 1159 0 
L 581 0 
L 581 3500 
z
" transform="scale(0.015625)"/>
       <path id="DejaVuSans-442" d="M 188 3500 
L 3541 3500 
L 3541 3041 
L 2147 3041 
L 2147 0 
L 1581 0 
L 1581 3041 
L 188 3041 
L 188 3500 
z
" transform="scale(0.015625)"/>
       <path id="DejaVuSans-44c" d="M 2781 1038 
Q 2781 1319 2576 1466 
Q 2372 1613 1978 1613 
L 1159 1613 
L 1159 459 
L 1978 459 
Q 2372 459 2576 607 
Q 2781 756 2781 1038 
z
M 581 3500 
L 1159 3500 
L 1159 2072 
L 2003 2072 
Q 2672 2072 3033 1817 
Q 3394 1563 3394 1038 
Q 3394 513 3033 256 
Q 2672 0 2003 0 
L 581 0 
L 581 3500 
z
" transform="scale(0.015625)"/>
       <path id="DejaVuSans-20" transform="scale(0.015625)"/>
       <path id="DejaVuSans-28" d="M 1984 4856 
Q 1566 4138 1362 3434 
Q 1159 2731 1159 2009 
Q 1159 1288 1364 580 
Q 1569 -128 1984 -844 
L 1484 -844 
Q 1016 -109 783 600 
Q 550 1309 550 2009 
Q 550 2706 781 3412 
Q 1013 4119 1484 4856 
L 1984 4856 
z
" transform="scale(0.015625)"/>
       <path id="DejaVuSans-25" d="M 4653 2053 
Q 4381 2053 4226 1822 
Q 4072 1591 4072 1178 
Q 4072 772 4226 539 
Q 4381 306 4653 306 
Q 4919 306 5073 539 
Q 5228 772 5228 1178 
Q 5228 1588 5073 1820 
Q 4919 2053 4653 2053 
z
M 4653 2450 
Q 5147 2450 5437 2106 
Q 5728 1763 5728 1178 
Q 5728 594 5436 251 
Q 5144 -91 4653 -91 
Q 4153 -91 3862 251 
Q 3572 594 3572 1178 
Q 3572 1766 3864 2108 
Q 4156 2450 4653 2450 
z
M 1428 4353 
Q 1159 4353 1004 4120 
Q 850 3888 850 3481 
Q 850 3069 1003 2837 
Q 1156 2606 1428 2606 
Q 1700 2606 1854 2837 
Q 2009 3069 2009 3481 
Q 2009 3884 1853 4118 
Q 1697 4353 1428 4353 
z
M 4250 4750 
L 4750 4750 
L 1831 -91 
L 1331 -91 
L 4250 4750 
z
M 1428 4750 
Q 1922 4750 2215 4408 
Q 2509 4066 2509 3481 
Q 2509 2891 2217 2550 
Q 1925 2209 1428 2209 
Q 931 2209 642 2551 
Q 353 2894 353 3481 
Q 353 4063 643 4406 
Q 934 4750 1428 4750 
z
" transform="scale(0.015625)"/>
       <path id="DejaVuSans-29" d="M 513 4856 
L 1013 4856 
Q 1481 4119 1714 3412 
Q 1947 2706 1947 2009 
Q 1947 1309 1714 600 
Q 1481 -109 1013 -844 
L 513 -844 
Q 928 -128 1133 580 
Q 1338 1288 1338 2009 
Q 1338 2731 1133 3434 
Q 928 4138 513 4856 
z
" transform="scale(0.015625)"/>
      </defs>
      <use xlink:href="#DejaVuSans-412"/>
      <use xlink:href="#DejaVuSans-44b" transform="translate(68.603516 0)"/>
      <use xlink:href="#DejaVuSans-436" transform="translate(147.558594 0)"/>
      <use xlink:href="#DejaVuSans-438" transform="translate(237.646484 0)"/>
      <use xlink:href="#DejaVuSans-432" transform="translate(302.636719 0)"/>
      <use xlink:href="#DejaVuSans-430" transform="translate(361.572266 0)"/>
      <use xlink:href="#DejaVuSans-435" transform="translate(422.851562 0)"/>
      <use xlink:href="#DejaVuSans-43c" transform="translate(484.375 0)"/>
      <use xlink:href="#DejaVuSans-43e" transform="translate(559.814453 0)"/>
      <use xlink:href="#DejaVuSans-441" transform="translate(620.996094 0)"/>
      <use xlink:href="#DejaVuSans-442" transform="translate(675.976562 0)"/>
      <use xlink:href="#DejaVuSans-44c" transform="translate(734.228516 0)"/>
      <use xlink:href="#DejaVuSans-20" transform="translate(793.164062 0)"/>
      <use xlink:href="#DejaVuSans-28" transform="translate(824.951172 0)"/>
      <use xlink:href="#DejaVuSans-25" transform="translate(863.964844 0)"/>
      <use xlink:href="#DejaVuSans-29" transform="translate(958.984375 0)"/>
     </g>
    </g>
   </g>
   <g id="line2d_12">
    <path d="M 157.83 386.561136 
L 157.83 352.86052 
" clip-path="url(#p5d46637245)" style="fill: none; stroke: #424242; stroke-width: 2.25; stroke-linecap: square"/>
   </g>
   <g id="line2d_13">
    <path d="M 382.91 112.897266 
L 382.91 64.039226 
" clip-path="url(#p5d46637245)" style="fill: none; stroke: #424242; stroke-width: 2.25; stroke-linecap: square"/>
   </g>
   <g id="patch_5">
    <path d="M 45.29 466.30375 
L 45.29 43.926 
" style="fill: none; stroke: #000000; stroke-width: 0.8; stroke-linejoin: miter; stroke-linecap: square"/>
   </g>
   <g id="patch_6">
    <path d="M 495.45 466.30375 
L 495.45 43.926 
" style="fill: none; stroke: #000000; stroke-width: 0.8; stroke-linejoin: miter; stroke-linecap: square"/>
   </g>
   <g id="patch_7">
    <path d="M 45.29 466.30375 
L 495.45 466.30375 
" style="fill: none; stroke: #000000; stroke-width: 0.8; stroke-linejoin: miter; stroke-linecap: square"/>
   </g>
   <g id="patch_8">
    <path d="M 45.29 43.926 
L 495.45 43.926 
" style="fill: none; stroke: #000000; stroke-width: 0.8; stroke-linejoin: miter; stroke-linecap: square"/>
   </g>
   <g id="text_14">
    <!-- 18.9% -->
    <g transform="translate(98.518766 364.585941) scale(0.09 -0.09)">
     <defs>
      <path id="DejaVuSans-2e" d="M 684 794 
L 1344 794 
L 1344 0 
L 684 0 
L 684 794 
z
" transform="scale(0.015625)"/>
      <path id="DejaVuSans-39" d="M 703 97 
L 703 672 
Q 941 559 1184 500 
Q 1428 441 1663 441 
Q 2288 441 2617 861 
Q 2947 1281 2994 2138 
Q 2813 1869 2534 1725 
Q 2256 1581 1919 1581 
Q 1219 1581 811 2004 
Q 403 2428 403 3163 
Q 403 3881 828 4315 
Q 1253 4750 1959 4750 
Q 2769 4750 3195 4129 
Q 3622 3509 3622 2328 
Q 3622 1225 3098 567 
Q 2575 -91 1691 -91 
Q 1453 -91 1209 -44 
Q 966 3 703 97 
z
M 1959 2075 
Q 2384 2075 2632 2365 
Q 2881 2656 2881 3163 
Q 2881 3666 2632 3958 
Q 2384 4250 1959 4250 
Q 1534 4250 1286 3958 
Q 1038 3666 1038 3163 
Q 1038 2656 1286 2365 
Q 1534 2075 1959 2075 
z
" transform="scale(0.015625)"/>
     </defs>
     <use xlink:href="#DejaVuSans-31"/>
     <use xlink:href="#DejaVuSans-38" transform="translate(63.623047 0)"/>
     <use xlink:href="#DejaVuSans-2e" transform="translate(127.246094 0)"/>
     <use xlink:href="#DejaVuSans-39" transform="translate(159.033203 0)"/>
     <use xlink:href="#DejaVuSans-25" transform="translate(222.65625 0)"/>
    </g>
   </g>
   <g id="text_15">
    <!-- 74.2% -->
    <g transform="translate(323.598766 81.725836) scale(0.09 -0.09)">
     <use xlink:href="#DejaVuSans-37"/>
     <use xlink:href="#DejaVuSans-34" transform="translate(63.623047 0)"/>
     <use xlink:href="#DejaVuSans-2e" transform="translate(127.246094 0)"/>
     <use xlink:href="#DejaVuSans-32" transform="translate(159.033203 0)"/>
     <use xlink:href="#DejaVuSans-25" transform="translate(222.65625 0)"/>
    </g>
   </g>
   <g id="text_16">
    <!-- Выживаемость по -->
    <g transform="translate(197.685937 22.249063) scale(0.14 -0.14)">
     <defs>
      <path id="DejaVuSans-Bold-412" d="M 2456 2859 
Q 2741 2859 2887 2984 
Q 3034 3109 3034 3353 
Q 3034 3594 2887 3720 
Q 2741 3847 2456 3847 
L 1791 3847 
L 1791 2859 
L 2456 2859 
z
M 2497 819 
Q 2859 819 3042 972 
Q 3225 1125 3225 1434 
Q 3225 1738 3044 1889 
Q 2863 2041 2497 2041 
L 1791 2041 
L 1791 819 
L 2497 819 
z
M 3616 2497 
Q 4003 2384 4215 2081 
Q 4428 1778 4428 1338 
Q 4428 663 3972 331 
Q 3516 0 2584 0 
L 588 0 
L 588 4666 
L 2394 4666 
Q 3366 4666 3802 4372 
Q 4238 4078 4238 3431 
Q 4238 3091 4078 2852 
Q 3919 2613 3616 2497 
z
" transform="scale(0.015625)"/>
      <path id="DejaVuSans-Bold-44b" d="M 4154 3500 
L 5272 3500 
L 5272 0 
L 4154 0 
L 4154 3500 
z
M 2719 1094 
Q 2719 1291 2594 1388 
Q 2472 1481 2222 1481 
L 1656 1481 
L 1656 700 
L 2222 700 
Q 2469 700 2594 800 
Q 2719 897 2719 1094 
z
M 538 3500 
L 1656 3500 
L 1656 2172 
L 2291 2172 
Q 3000 2172 3381 1913 
Q 3766 1650 3766 1081 
Q 3766 513 3381 256 
Q 3000 0 2291 0 
L 538 0 
L 538 3500 
z
" transform="scale(0.015625)"/>
      <path id="DejaVuSans-Bold-436" d="M 94 0 
L 1678 2078 
L 216 3500 
L 1441 3500 
L 2625 2347 
L 2625 3500 
L 3744 3500 
L 3744 2347 
L 4928 3500 
L 6153 3500 
L 4691 2078 
L 6275 0 
L 5119 0 
L 4025 1431 
L 3744 1159 
L 3744 0 
L 2625 0 
L 2625 1159 
L 2344 1431 
L 1250 0 
L 94 0 
z
" transform="scale(0.015625)"/>
      <path id="DejaVuSans-Bold-438" d="M 3947 3500 
L 3947 0 
L 2828 0 
L 2828 1863 
L 1700 0 
L 538 0 
L 538 3500 
L 1656 3500 
L 1656 1638 
L 2784 3500 
L 3947 3500 
z
" transform="scale(0.015625)"/>
      <path id="DejaVuSans-Bold-432" d="M 2184 2181 
Q 2378 2181 2478 2261 
Q 2578 2341 2578 2497 
Q 2578 2653 2478 2731 
Q 2378 2809 2184 2809 
L 1656 2809 
L 1656 2181 
L 2184 2181 
z
M 2222 700 
Q 2469 700 2594 798 
Q 2719 897 2719 1094 
Q 2719 1288 2594 1384 
Q 2469 1481 2222 1481 
L 1656 1481 
L 1656 700 
L 2222 700 
z
M 538 3500 
L 2141 3500 
Q 2919 3500 3267 3279 
Q 3616 3059 3616 2575 
Q 3616 2319 3487 2139 
Q 3359 1959 3119 1872 
Q 3428 1788 3598 1561 
Q 3769 1334 3769 1003 
Q 3769 497 3403 248 
Q 3038 0 2294 0 
L 538 0 
L 538 3500 
z
" transform="scale(0.015625)"/>
      <path id="DejaVuSans-Bold-430" d="M 2106 1575 
Q 1756 1575 1579 1456 
Q 1403 1338 1403 1106 
Q 1403 894 1545 773 
Q 1688 653 1941 653 
Q 2256 653 2472 879 
Q 2688 1106 2688 1447 
L 2688 1575 
L 2106 1575 
z
M 3816 1997 
L 3816 0 
L 2688 0 
L 2688 519 
Q 2463 200 2181 54 
Q 1900 -91 1497 -91 
Q 953 -91 614 226 
Q 275 544 275 1050 
Q 275 1666 698 1953 
Q 1122 2241 2028 2241 
L 2688 2241 
L 2688 2328 
Q 2688 2594 2478 2717 
Q 2269 2841 1825 2841 
Q 1466 2841 1156 2769 
Q 847 2697 581 2553 
L 581 3406 
Q 941 3494 1303 3539 
Q 1666 3584 2028 3584 
Q 2975 3584 3395 3211 
Q 3816 2838 3816 1997 
z
" transform="scale(0.015625)"/>
      <path id="DejaVuSans-Bold-435" d="M 4031 1759 
L 4031 1441 
L 1416 1441 
Q 1456 1047 1700 850 
Q 1944 653 2381 653 
Q 2734 653 3104 758 
Q 3475 863 3866 1075 
L 3866 213 
Q 3469 63 3072 -14 
Q 2675 -91 2278 -91 
Q 1328 -91 801 392 
Q 275 875 275 1747 
Q 275 2603 792 3093 
Q 1309 3584 2216 3584 
Q 3041 3584 3536 3087 
Q 4031 2591 4031 1759 
z
M 2881 2131 
Q 2881 2450 2695 2645 
Q 2509 2841 2209 2841 
Q 1884 2841 1681 2658 
Q 1478 2475 1428 2131 
L 2881 2131 
z
" transform="scale(0.015625)"/>
      <path id="DejaVuSans-Bold-43c" d="M 538 3500 
L 1825 3500 
L 2613 1750 
L 3400 3500 
L 4691 3500 
L 4691 0 
L 3575 0 
L 3575 1984 
L 2984 672 
L 2250 672 
L 1656 1984 
L 1656 0 
L 538 0 
L 538 3500 
z
" transform="scale(0.015625)"/>
      <path id="DejaVuSans-Bold-43e" d="M 2203 2784 
Q 1831 2784 1636 2517 
Q 1441 2250 1441 1747 
Q 1441 1244 1636 976 
Q 1831 709 2203 709 
Q 2569 709 2762 976 
Q 2956 1244 2956 1747 
Q 2956 2250 2762 2517 
Q 2569 2784 2203 2784 
z
M 2203 3584 
Q 3106 3584 3614 3096 
Q 4122 2609 4122 1747 
Q 4122 884 3614 396 
Q 3106 -91 2203 -91 
Q 1297 -91 786 396 
Q 275 884 275 1747 
Q 275 2609 786 3096 
Q 1297 3584 2203 3584 
z
" transform="scale(0.015625)"/>
      <path id="DejaVuSans-Bold-441" d="M 3366 3391 
L 3366 2478 
Q 3138 2634 2908 2709 
Q 2678 2784 2431 2784 
Q 1963 2784 1702 2511 
Q 1441 2238 1441 1747 
Q 1441 1256 1702 982 
Q 1963 709 2431 709 
Q 2694 709 2930 787 
Q 3166 866 3366 1019 
L 3366 103 
Q 3103 6 2833 -42 
Q 2563 -91 2291 -91 
Q 1344 -91 809 395 
Q 275 881 275 1747 
Q 275 2613 809 3098 
Q 1344 3584 2291 3584 
Q 2566 3584 2833 3536 
Q 3100 3488 3366 3391 
z
" transform="scale(0.015625)"/>
      <path id="DejaVuSans-Bold-442" d="M 25 3500 
L 3681 3500 
L 3681 2809 
L 2413 2809 
L 2413 0 
L 1297 0 
L 1297 2809 
L 25 2809 
L 25 3500 
z
" transform="scale(0.015625)"/>
      <path id="DejaVuSans-Bold-44c" d="M 2719 1094 
Q 2719 1291 2594 1388 
Q 2472 1481 2222 1481 
L 1656 1481 
L 1656 700 
L 2222 700 
Q 2469 700 2594 800 
Q 2719 897 2719 1094 
z
M 538 3500 
L 1656 3500 
L 1656 2172 
L 2291 2172 
Q 3000 2172 3381 1913 
Q 3766 1650 3766 1081 
Q 3766 513 3381 256 
Q 3000 0 2291 0 
L 538 0 
L 538 3500 
z
" transform="scale(0.015625)"/>
      <path id="DejaVuSans-Bold-20" transform="scale(0.015625)"/>
      <path id="DejaVuSans-Bold-43f" d="M 3884 3500 
L 3884 0 
L 2766 0 
L 2766 2700 
L 1656 2700 
L 1656 0 
L 538 0 
L 538 3500 
L 3884 3500 
z
" transform="scale(0.015625)"/>
     </defs>
     <use xlink:href="#DejaVuSans-Bold-412"/>
     <use xlink:href="#DejaVuSans-Bold-44b" transform="translate(76.220703 0)"/>
     <use xlink:href="#DejaVuSans-Bold-436" transform="translate(166.650391 0)"/>
     <use xlink:href="#DejaVuSans-Bold-438" transform="translate(266.162109 0)"/>
     <use xlink:href="#DejaVuSans-Bold-432" transform="translate(336.230469 0)"/>
     <use xlink:href="#DejaVuSans-Bold-430" transform="translate(399.511719 0)"/>
     <use xlink:href="#DejaVuSans-Bold-435" transform="translate(466.992188 0)"/>
     <use xlink:href="#DejaVuSans-Bold-43c" transform="translate(534.814453 0)"/>
     <use xlink:href="#DejaVuSans-Bold-43e" transform="translate(616.552734 0)"/>
     <use xlink:href="#DejaVuSans-Bold-441" transform="translate(685.253906 0)"/>
     <use xlink:href="#DejaVuSans-Bold-442" transform="translate(744.53125 0)"/>
     <use xlink:href="#DejaVuSans-Bold-44c" transform="translate(802.490234 0)"/>
     <use xlink:href="#DejaVuSans-Bold-20" transform="translate(865.722656 0)"/>
     <use xlink:href="#DejaVuSans-Bold-43f" transform="translate(900.537109 0)"/>
     <use xlink:href="#DejaVuSans-Bold-43e" transform="translate(969.628906 0)"/>
    </g>
    <!-- половому признаку -->
    <g transform="translate(191.133281 37.926) scale(0.14 -0.14)">
     <defs>
      <path id="DejaVuSans-Bold-43b" d="M 353 0 
L 353 800 
Q 906 913 1031 1278 
Q 1125 1556 1125 2928 
L 1125 3500 
L 4150 3500 
L 4150 0 
L 3031 0 
L 3031 2700 
L 2244 2700 
L 2244 2584 
Q 2244 1213 2028 813 
Q 1591 0 353 0 
z
" transform="scale(0.015625)"/>
      <path id="DejaVuSans-Bold-443" d="M 78 3500 
L 1197 3500 
L 2138 1125 
L 2938 3500 
L 4056 3500 
L 2584 -331 
Q 2363 -916 2067 -1148 
Q 1772 -1381 1288 -1381 
L 641 -1381 
L 641 -647 
L 991 -647 
Q 1275 -647 1404 -556 
Q 1534 -466 1606 -231 
L 1638 -134 
L 78 3500 
z
" transform="scale(0.015625)"/>
      <path id="DejaVuSans-Bold-440" d="M 1656 506 
L 1656 -1331 
L 538 -1331 
L 538 3500 
L 1656 3500 
L 1656 2988 
Q 1888 3294 2169 3439 
Q 2450 3584 2816 3584 
Q 3463 3584 3878 3070 
Q 4294 2556 4294 1747 
Q 4294 938 3878 423 
Q 3463 -91 2816 -91 
Q 2450 -91 2169 54 
Q 1888 200 1656 506 
z
M 2400 2772 
Q 2041 2772 1848 2508 
Q 1656 2244 1656 1747 
Q 1656 1250 1848 986 
Q 2041 722 2400 722 
Q 2759 722 2948 984 
Q 3138 1247 3138 1747 
Q 3138 2247 2948 2509 
Q 2759 2772 2400 2772 
z
" transform="scale(0.015625)"/>
      <path id="DejaVuSans-Bold-437" d="M 900 2181 
L 1413 2181 
Q 1872 2181 2039 2281 
Q 2206 2381 2206 2519 
Q 2206 2841 1469 2841 
Q 853 2841 472 2625 
L 472 3434 
Q 1041 3584 1713 3584 
Q 2500 3584 2862 3361 
Q 3225 3138 3225 2666 
Q 3225 2047 2541 1888 
Q 3313 1697 3313 994 
Q 3313 453 2888 181 
Q 2463 -91 1553 -91 
Q 875 -91 313 84 
L 313 947 
Q 1013 653 1428 653 
Q 1884 653 2089 776 
Q 2294 900 2294 1056 
Q 2294 1491 1394 1491 
L 900 1491 
L 900 2181 
z
" transform="scale(0.015625)"/>
      <path id="DejaVuSans-Bold-43d" d="M 538 3500 
L 1656 3500 
L 1656 2169 
L 2766 2169 
L 2766 3500 
L 3884 3500 
L 3884 0 
L 2766 0 
L 2766 1478 
L 1656 1478 
L 1656 0 
L 538 0 
L 538 3500 
z
" transform="scale(0.015625)"/>
      <path id="DejaVuSans-Bold-43a" d="M 538 3500 
L 1656 3500 
L 1656 2316 
L 2903 3500 
L 4128 3500 
L 2634 2078 
L 4250 0 
L 3094 0 
L 1972 1447 
L 1656 1147 
L 1656 0 
L 538 0 
L 538 3500 
z
" transform="scale(0.015625)"/>
     </defs>
     <use xlink:href="#DejaVuSans-Bold-43f"/>
     <use xlink:href="#DejaVuSans-Bold-43e" transform="translate(69.091797 0)"/>
     <use xlink:href="#DejaVuSans-Bold-43b" transform="translate(137.792969 0)"/>
     <use xlink:href="#DejaVuSans-Bold-43e" transform="translate(211.035156 0)"/>
     <use xlink:href="#DejaVuSans-Bold-432" transform="translate(279.736328 0)"/>
     <use xlink:href="#DejaVuSans-Bold-43e" transform="translate(343.017578 0)"/>
     <use xlink:href="#DejaVuSans-Bold-43c" transform="translate(411.71875 0)"/>
     <use xlink:href="#DejaVuSans-Bold-443" transform="translate(493.457031 0)"/>
     <use xlink:href="#DejaVuSans-Bold-20" transform="translate(558.642578 0)"/>
     <use xlink:href="#DejaVuSans-Bold-43f" transform="translate(593.457031 0)"/>
     <use xlink:href="#DejaVuSans-Bold-440" transform="translate(662.548828 0)"/>
     <use xlink:href="#DejaVuSans-Bold-438" transform="translate(734.130859 0)"/>
     <use xlink:href="#DejaVuSans-Bold-437" transform="translate(804.199219 0)"/>
     <use xlink:href="#DejaVuSans-Bold-43d" transform="translate(862.304688 0)"/>
     <use xlink:href="#DejaVuSans-Bold-430" transform="translate(931.396484 0)"/>
     <use xlink:href="#DejaVuSans-Bold-43a" transform="translate(998.876953 0)"/>
     <use xlink:href="#DejaVuSans-Bold-443" transform="translate(1066.748047 0)"/>
    </g>
   </g>
  </g>
  <g id="axes_2">
   <g id="patch_9">
    <path d="M 547.04 466.30375 
L 997.2 466.30375 
L 997.2 43.926 
L 547.04 43.926 
z
" style="fill: #ffffff"/>
   </g>
   <g id="patch_10">
    <path d="M 562.045333 466.30375 
L 682.088 466.30375 
L 682.088 101.583915 
L 562.045333 101.583915 
z
" clip-path="url(#peeaaaca5cb)" style="fill: #d69a40"/>
   </g>
   <g id="patch_11">
    <path d="M 712.098667 466.30375 
L 832.141333 466.30375 
L 832.141333 192.414079 
L 712.098667 192.414079 
z
" clip-path="url(#peeaaaca5cb)" style="fill: #4c8ac8"/>
   </g>
   <g id="patch_12">
    <path d="M 862.152 466.30375 
L 982.194667 466.30375 
L 982.194667 325.912612 
L 862.152 325.912612 
z
" clip-path="url(#peeaaaca5cb)" style="fill: #cf5e5d"/>
   </g>
   <g id="matplotlib.axis_3">
    <g id="xtick_3">
     <g id="line2d_14">
      <g>
       <use xlink:href="#md3303891e8" x="622.066667" y="466.30375" style="stroke: #000000; stroke-width: 0.8"/>
      </g>
     </g>
     <g id="text_17">
      <!-- 1 -->
      <g transform="translate(618.885417 480.902188) scale(0.1 -0.1)">
       <use xlink:href="#DejaVuSans-31"/>
      </g>
     </g>
    </g>
    <g id="xtick_4">
     <g id="line2d_15">
      <g>
       <use xlink:href="#md3303891e8" x="772.12" y="466.30375" style="stroke: #000000; stroke-width: 0.8"/>
      </g>
     </g>
     <g id="text_18">
      <!-- 2 -->
      <g transform="translate(768.93875 480.902188) scale(0.1 -0.1)">
       <use xlink:href="#DejaVuSans-32"/>
      </g>
     </g>
    </g>
    <g id="xtick_5">
     <g id="line2d_16">
      <g>
       <use xlink:href="#md3303891e8" x="922.173333" y="466.30375" style="stroke: #000000; stroke-width: 0.8"/>
      </g>
     </g>
     <g id="text_19">
      <!-- 3 -->
      <g transform="translate(918.992083 480.902188) scale(0.1 -0.1)">
       <use xlink:href="#DejaVuSans-33"/>
      </g>
     </g>
    </g>
    <g id="text_20">
     <!-- Класс -->
     <g transform="translate(755.280547 495.340156) scale(0.11 -0.11)">
      <defs>
       <path id="DejaVuSans-41a" d="M 628 4666 
L 1259 4666 
L 1259 2359 
L 3516 4666 
L 4325 4666 
L 2522 2822 
L 4419 0 
L 3731 0 
L 2113 2403 
L 1259 1531 
L 1259 0 
L 628 0 
L 628 4666 
z
" transform="scale(0.015625)"/>
      </defs>
      <use xlink:href="#DejaVuSans-41a"/>
      <use xlink:href="#DejaVuSans-43b" transform="translate(70.996094 0)"/>
      <use xlink:href="#DejaVuSans-430" transform="translate(134.912109 0)"/>
      <use xlink:href="#DejaVuSans-441" transform="translate(196.191406 0)"/>
      <use xlink:href="#DejaVuSans-441" transform="translate(251.171875 0)"/>
     </g>
    </g>
   </g>
   <g id="matplotlib.axis_4">
    <g id="ytick_10">
     <g id="line2d_17">
      <g>
       <use xlink:href="#mba97fd1025" x="547.04" y="466.30375" style="stroke: #000000; stroke-width: 0.8"/>
      </g>
     </g>
     <g id="text_21">
      <!-- 0 -->
      <g transform="translate(533.6775 470.102969) scale(0.1 -0.1)">
       <use xlink:href="#DejaVuSans-30"/>
      </g>
     </g>
    </g>
    <g id="ytick_11">
     <g id="line2d_18">
      <g>
       <use xlink:href="#mba97fd1025" x="547.04" y="408.377659" style="stroke: #000000; stroke-width: 0.8"/>
      </g>
     </g>
     <g id="text_22">
      <!-- 10 -->
      <g transform="translate(527.315 412.176877) scale(0.1 -0.1)">
       <use xlink:href="#DejaVuSans-31"/>
       <use xlink:href="#DejaVuSans-30" transform="translate(63.623047 0)"/>
      </g>
     </g>
    </g>
    <g id="ytick_12">
     <g id="line2d_19">
      <g>
       <use xlink:href="#mba97fd1025" x="547.04" y="350.451567" style="stroke: #000000; stroke-width: 0.8"/>
      </g>
     </g>
     <g id="text_23">
      <!-- 20 -->
      <g transform="translate(527.315 354.250786) scale(0.1 -0.1)">
       <use xlink:href="#DejaVuSans-32"/>
       <use xlink:href="#DejaVuSans-30" transform="translate(63.623047 0)"/>
      </g>
     </g>
    </g>
    <g id="ytick_13">
     <g id="line2d_20">
      <g>
       <use xlink:href="#mba97fd1025" x="547.04" y="292.525476" style="stroke: #000000; stroke-width: 0.8"/>
      </g>
     </g>
     <g id="text_24">
      <!-- 30 -->
      <g transform="translate(527.315 296.324694) scale(0.1 -0.1)">
       <use xlink:href="#DejaVuSans-33"/>
       <use xlink:href="#DejaVuSans-30" transform="translate(63.623047 0)"/>
      </g>
     </g>
    </g>
    <g id="ytick_14">
     <g id="line2d_21">
      <g>
       <use xlink:href="#mba97fd1025" x="547.04" y="234.599384" style="stroke: #000000; stroke-width: 0.8"/>
      </g>
     </g>
     <g id="text_25">
      <!-- 40 -->
      <g transform="translate(527.315 238.398603) scale(0.1 -0.1)">
       <use xlink:href="#DejaVuSans-34"/>
       <use xlink:href="#DejaVuSans-30" transform="translate(63.623047 0)"/>
      </g>
     </g>
    </g>
    <g id="ytick_15">
     <g id="line2d_22">
      <g>
       <use xlink:href="#mba97fd1025" x="547.04" y="176.673293" style="stroke: #000000; stroke-width: 0.8"/>
      </g>
     </g>
     <g id="text_26">
      <!-- 50 -->
      <g transform="translate(527.315 180.472512) scale(0.1 -0.1)">
       <use xlink:href="#DejaVuSans-35"/>
       <use xlink:href="#DejaVuSans-30" transform="translate(63.623047 0)"/>
      </g>
     </g>
    </g>
    <g id="ytick_16">
     <g id="line2d_23">
      <g>
       <use xlink:href="#mba97fd1025" x="547.04" y="118.747201" style="stroke: #000000; stroke-width: 0.8"/>
      </g>
     </g>
     <g id="text_27">
      <!-- 60 -->
      <g transform="translate(527.315 122.54642) scale(0.1 -0.1)">
       <use xlink:href="#DejaVuSans-36"/>
       <use xlink:href="#DejaVuSans-30" transform="translate(63.623047 0)"/>
      </g>
     </g>
    </g>
    <g id="ytick_17">
     <g id="line2d_24">
      <g>
       <use xlink:href="#mba97fd1025" x="547.04" y="60.82111" style="stroke: #000000; stroke-width: 0.8"/>
      </g>
     </g>
     <g id="text_28">
      <!-- 70 -->
      <g transform="translate(527.315 64.620329) scale(0.1 -0.1)">
       <use xlink:href="#DejaVuSans-37"/>
       <use xlink:href="#DejaVuSans-30" transform="translate(63.623047 0)"/>
      </g>
     </g>
    </g>
    <g id="text_29">
     <!-- Выживаемость (%) -->
     <g transform="translate(521.027344 310.005734) rotate(-90) scale(0.11 -0.11)">
      <use xlink:href="#DejaVuSans-412"/>
      <use xlink:href="#DejaVuSans-44b" transform="translate(68.603516 0)"/>
      <use xlink:href="#DejaVuSans-436" transform="translate(147.558594 0)"/>
      <use xlink:href="#DejaVuSans-438" transform="translate(237.646484 0)"/>
      <use xlink:href="#DejaVuSans-432" transform="translate(302.636719 0)"/>
      <use xlink:href="#DejaVuSans-430" transform="translate(361.572266 0)"/>
      <use xlink:href="#DejaVuSans-435" transform="translate(422.851562 0)"/>
      <use xlink:href="#DejaVuSans-43c" transform="translate(484.375 0)"/>
      <use xlink:href="#DejaVuSans-43e" transform="translate(559.814453 0)"/>
      <use xlink:href="#DejaVuSans-441" transform="translate(620.996094 0)"/>
      <use xlink:href="#DejaVuSans-442" transform="translate(675.976562 0)"/>
      <use xlink:href="#DejaVuSans-44c" transform="translate(734.228516 0)"/>
      <use xlink:href="#DejaVuSans-20" transform="translate(793.164062 0)"/>
      <use xlink:href="#DejaVuSans-28" transform="translate(824.951172 0)"/>
      <use xlink:href="#DejaVuSans-25" transform="translate(863.964844 0)"/>
      <use xlink:href="#DejaVuSans-29" transform="translate(958.984375 0)"/>
     </g>
    </g>
   </g>
   <g id="line2d_25">
    <path d="M 622.066667 136.44684 
L 622.066667 64.039226 
" clip-path="url(#peeaaaca5cb)" style="fill: none; stroke: #424242; stroke-width: 2.25; stroke-linecap: square"/>
   </g>
   <g id="line2d_26">
    <path d="M 772.12 236.488279 
L 772.12 151.488036 
" clip-path="url(#peeaaaca5cb)" style="fill: none; stroke: #424242; stroke-width: 2.25; stroke-linecap: square"/>
   </g>
   <g id="line2d_27">
    <path d="M 922.173333 349.507761 
L 922.173333 305.856735 
" clip-path="url(#peeaaaca5cb)" style="fill: none; stroke: #424242; stroke-width: 2.25; stroke-linecap: square"/>
   </g>
   <g id="patch_13">
    <path d="M 547.04 466.30375 
L 547.04 43.926 
" style="fill: none; stroke: #000000; stroke-width: 0.8; stroke-linejoin: miter; stroke-linecap: square"/>
   </g>
   <g id="patch_14">
    <path d="M 997.2 466.30375 
L 997.2 43.926 
" style="fill: none; stroke: #000000; stroke-width: 0.8; stroke-linejoin: miter; stroke-linecap: square"/>
   </g>
   <g id="patch_15">
    <path d="M 547.04 466.30375 
L 997.2 466.30375 
" style="fill: none; stroke: #000000; stroke-width: 0.8; stroke-linejoin: miter; stroke-linecap: square"/>
   </g>
   <g id="patch_16">
    <path d="M 547.04 43.926 
L 997.2 43.926 
" style="fill: none; stroke: #000000; stroke-width: 0.8; stroke-linejoin: miter; stroke-linecap: square"/>
   </g>
   <g id="text_30">
    <!-- 63.0% -->
    <g transform="translate(570.258099 95.791306) scale(0.09 -0.09)">
     <use xlink:href="#DejaVuSans-36"/>
     <use xlink:href="#DejaVuSans-33" transform="translate(63.623047 0)"/>
     <use xlink:href="#DejaVuSans-2e" transform="translate(127.246094 0)"/>
     <use xlink:href="#DejaVuSans-30" transform="translate(159.033203 0)"/>
     <use xlink:href="#DejaVuSans-25" transform="translate(222.65625 0)"/>
    </g>
   </g>
   <g id="text_31">
    <!-- 47.3% -->
    <g transform="translate(720.311432 186.621469) scale(0.09 -0.09)">
     <use xlink:href="#DejaVuSans-34"/>
     <use xlink:href="#DejaVuSans-37" transform="translate(63.623047 0)"/>
     <use xlink:href="#DejaVuSans-2e" transform="translate(127.246094 0)"/>
     <use xlink:href="#DejaVuSans-33" transform="translate(159.033203 0)"/>
     <use xlink:href="#DejaVuSans-25" transform="translate(222.65625 0)"/>
    </g>
   </g>
   <g id="text_32">
    <!-- 24.2% -->
    <g transform="translate(870.364766 320.120003) scale(0.09 -0.09)">
     <use xlink:href="#DejaVuSans-32"/>
     <use xlink:href="#DejaVuSans-34" transform="translate(63.623047 0)"/>
     <use xlink:href="#DejaVuSans-2e" transform="translate(127.246094 0)"/>
     <use xlink:href="#DejaVuSans-32" transform="translate(159.033203 0)"/>
     <use xlink:href="#DejaVuSans-25" transform="translate(222.65625 0)"/>
    </g>
   </g>
   <g id="text_33">
    <!-- Выживаемость по -->
    <g transform="translate(699.435937 21.700438) scale(0.14 -0.14)">
     <use xlink:href="#DejaVuSans-Bold-412"/>
     <use xlink:href="#DejaVuSans-Bold-44b" transform="translate(76.220703 0)"/>
     <use xlink:href="#DejaVuSans-Bold-436" transform="translate(166.650391 0)"/>
     <use xlink:href="#DejaVuSans-Bold-438" transform="translate(266.162109 0)"/>
     <use xlink:href="#DejaVuSans-Bold-432" transform="translate(336.230469 0)"/>
     <use xlink:href="#DejaVuSans-Bold-430" transform="translate(399.511719 0)"/>
     <use xlink:href="#DejaVuSans-Bold-435" transform="translate(466.992188 0)"/>
     <use xlink:href="#DejaVuSans-Bold-43c" transform="translate(534.814453 0)"/>
     <use xlink:href="#DejaVuSans-Bold-43e" transform="translate(616.552734 0)"/>
     <use xlink:href="#DejaVuSans-Bold-441" transform="translate(685.253906 0)"/>
     <use xlink:href="#DejaVuSans-Bold-442" transform="translate(744.53125 0)"/>
     <use xlink:href="#DejaVuSans-Bold-44c" transform="translate(802.490234 0)"/>
     <use xlink:href="#DejaVuSans-Bold-20" transform="translate(865.722656 0)"/>
     <use xlink:href="#DejaVuSans-Bold-43f" transform="translate(900.537109 0)"/>
     <use xlink:href="#DejaVuSans-Bold-43e" transform="translate(969.628906 0)"/>
    </g>
    <!-- классу билета -->
    <g transform="translate(713.769531 37.926) scale(0.14 -0.14)">
     <defs>
      <path id="DejaVuSans-Bold-431" d="M 344 1941 
L 322 2463 
Q 275 2672 275 2881 
Q 275 3494 456 3894 
Q 791 4631 1238 4781 
Q 1606 4909 3141 5031 
Q 3297 5044 3475 5072 
L 3725 4378 
Q 3488 4316 2269 4209 
Q 1734 4163 1516 4013 
Q 1153 3766 1125 3300 
Q 1584 3584 2275 3584 
Q 3178 3584 3686 3096 
Q 4194 2609 4194 1747 
Q 4194 884 3687 396 
Q 3181 -91 2275 -91 
Q 1369 -91 858 396 
Q 347 884 347 1747 
Q 347 1866 344 1941 
z
M 2272 2784 
Q 1903 2784 1708 2517 
Q 1513 2250 1513 1747 
Q 1513 1244 1708 976 
Q 1903 709 2272 709 
Q 2641 709 2834 976 
Q 3028 1244 3028 1747 
Q 3028 2250 2834 2517 
Q 2641 2784 2272 2784 
z
" transform="scale(0.015625)"/>
     </defs>
     <use xlink:href="#DejaVuSans-Bold-43a"/>
     <use xlink:href="#DejaVuSans-Bold-43b" transform="translate(67.871094 0)"/>
     <use xlink:href="#DejaVuSans-Bold-430" transform="translate(141.113281 0)"/>
     <use xlink:href="#DejaVuSans-Bold-441" transform="translate(208.59375 0)"/>
     <use xlink:href="#DejaVuSans-Bold-441" transform="translate(267.871094 0)"/>
     <use xlink:href="#DejaVuSans-Bold-443" transform="translate(327.148438 0)"/>
     <use xlink:href="#DejaVuSans-Bold-20" transform="translate(392.333984 0)"/>
     <use xlink:href="#DejaVuSans-Bold-431" transform="translate(427.148438 0)"/>
     <use xlink:href="#DejaVuSans-Bold-438" transform="translate(496.972656 0)"/>
     <use xlink:href="#DejaVuSans-Bold-43b" transform="translate(567.041016 0)"/>
     <use xlink:href="#DejaVuSans-Bold-435" transform="translate(640.283203 0)"/>
     <use xlink:href="#DejaVuSans-Bold-442" transform="translate(708.105469 0)"/>
     <use xlink:href="#DejaVuSans-Bold-430" transform="translate(766.064453 0)"/>
    </g>
   </g>
  </g>
  <g id="axes_3">
   <g id="patch_17">
    <path d="M 45.29 964.4875 
L 495.45 964.4875 
L 495.45 542.10975 
L 45.29 542.10975 
z
" style="fill: #ffffff"/>
   </g>
   <g id="patch_18">
    <path d="M 51.720857 964.4875 
L 103.167714 964.4875 
L 103.167714 748.358534 
L 51.720857 748.358534 
z
" clip-path="url(#p3a56f9154e)" style="fill: #e9d4d0"/>
   </g>
   <g id="patch_19">
    <path d="M 116.029429 964.4875 
L 167.476286 964.4875 
L 167.476286 629.160135 
L 116.029429 629.160135 
z
" clip-path="url(#p3a56f9154e)" style="fill: #ddbbbc"/>
   </g>
   <g id="patch_20">
    <path d="M 180.338 964.4875 
L 231.784857 964.4875 
L 231.784857 673.963122 
L 180.338 673.963122 
z
" clip-path="url(#p3a56f9154e)" style="fill: #cda0aa"/>
   </g>
   <g id="patch_21">
    <path d="M 244.646571 964.4875 
L 296.093429 964.4875 
L 296.093429 808.051296 
L 244.646571 808.051296 
z
" clip-path="url(#p3a56f9154e)" style="fill: #b9879c"/>
   </g>
   <g id="patch_22">
    <path d="M 308.955143 964.4875 
L 360.402 964.4875 
L 360.402 860.196698 
L 308.955143 860.196698 
z
" clip-path="url(#p3a56f9154e)" style="fill: #a16f8d"/>
   </g>
   <g id="patch_23">
    <path d="M 373.263714 964.4875 
L 424.710571 964.4875 
L 424.710571 964.4875 
L 373.263714 964.4875 
z
" clip-path="url(#p3a56f9154e)" style="fill: #86597d"/>
   </g>
   <g id="patch_24">
    <path d="M 437.572286 964.4875 
L 489.019143 964.4875 
L 489.019143 964.4875 
L 437.572286 964.4875 
z
" clip-path="url(#p3a56f9154e)" style="fill: #2d223a"/>
   </g>
   <g id="matplotlib.axis_5">
    <g id="xtick_6">
     <g id="line2d_28">
      <g>
       <use xlink:href="#md3303891e8" x="77.444286" y="964.4875" style="stroke: #000000; stroke-width: 0.8"/>
      </g>
     </g>
     <g id="text_34">
      <!-- 0 -->
      <g transform="translate(74.263036 979.085937) scale(0.1 -0.1)">
       <use xlink:href="#DejaVuSans-30"/>
      </g>
     </g>
    </g>
    <g id="xtick_7">
     <g id="line2d_29">
      <g>
       <use xlink:href="#md3303891e8" x="141.752857" y="964.4875" style="stroke: #000000; stroke-width: 0.8"/>
      </g>
     </g>
     <g id="text_35">
      <!-- 1 -->
      <g transform="translate(138.571607 979.085937) scale(0.1 -0.1)">
       <use xlink:href="#DejaVuSans-31"/>
      </g>
     </g>
    </g>
    <g id="xtick_8">
     <g id="line2d_30">
      <g>
       <use xlink:href="#md3303891e8" x="206.061429" y="964.4875" style="stroke: #000000; stroke-width: 0.8"/>
      </g>
     </g>
     <g id="text_36">
      <!-- 2 -->
      <g transform="translate(202.880179 979.085937) scale(0.1 -0.1)">
       <use xlink:href="#DejaVuSans-32"/>
      </g>
     </g>
    </g>
    <g id="xtick_9">
     <g id="line2d_31">
      <g>
       <use xlink:href="#md3303891e8" x="270.37" y="964.4875" style="stroke: #000000; stroke-width: 0.8"/>
      </g>
     </g>
     <g id="text_37">
      <!-- 3 -->
      <g transform="translate(267.18875 979.085937) scale(0.1 -0.1)">
       <use xlink:href="#DejaVuSans-33"/>
      </g>
     </g>
    </g>
    <g id="xtick_10">
     <g id="line2d_32">
      <g>
       <use xlink:href="#md3303891e8" x="334.678571" y="964.4875" style="stroke: #000000; stroke-width: 0.8"/>
      </g>
     </g>
     <g id="text_38">
      <!-- 4 -->
      <g transform="translate(331.497321 979.085937) scale(0.1 -0.1)">
       <use xlink:href="#DejaVuSans-34"/>
      </g>
     </g>
    </g>
    <g id="xtick_11">
     <g id="line2d_33">
      <g>
       <use xlink:href="#md3303891e8" x="398.987143" y="964.4875" style="stroke: #000000; stroke-width: 0.8"/>
      </g>
     </g>
     <g id="text_39">
      <!-- 5 -->
      <g transform="translate(395.805893 979.085937) scale(0.1 -0.1)">
       <use xlink:href="#DejaVuSans-35"/>
      </g>
     </g>
    </g>
    <g id="xtick_12">
     <g id="line2d_34">
      <g>
       <use xlink:href="#md3303891e8" x="463.295714" y="964.4875" style="stroke: #000000; stroke-width: 0.8"/>
      </g>
     </g>
     <g id="text_40">
      <!-- 8 -->
      <g transform="translate(460.114464 979.085937) scale(0.1 -0.1)">
       <use xlink:href="#DejaVuSans-38"/>
      </g>
     </g>
    </g>
    <g id="text_41">
     <!-- Количество братьев / сестер / супругов -->
     <g transform="translate(155.139844 993.71125) scale(0.11 -0.11)">
      <defs>
       <path id="DejaVuSans-447" d="M 2625 0 
L 2625 1472 
L 1553 1472 
Q 1075 1472 756 1769 
Q 469 2038 469 2613 
L 469 3500 
L 1044 3500 
L 1044 2666 
Q 1044 2300 1206 2116 
Q 1372 1931 1697 1931 
L 2625 1931 
L 2625 3500 
L 3200 3500 
L 3200 0 
L 2625 0 
z
" transform="scale(0.015625)"/>
       <path id="DejaVuSans-431" d="M 1991 3584 
Q 2741 3584 3169 3096 
Q 3597 2609 3597 1747 
Q 3597 888 3169 398 
Q 2741 -91 1991 -91 
Q 1238 -91 822 384 
Q 406 859 384 1747 
L 366 2463 
Q 350 2834 350 2963 
Q 350 3463 531 3831 
Q 816 4409 1308 4659 
Q 1800 4909 2625 4916 
Q 3006 4919 3175 4972 
L 3334 4516 
Q 3181 4453 3041 4450 
L 2259 4397 
Q 1866 4369 1628 4231 
Q 1006 3866 947 3388 
L 925 3213 
Q 1331 3584 1991 3584 
z
M 1991 3097 
Q 1528 3097 1259 2736 
Q 991 2375 991 1747 
Q 991 1119 1258 758 
Q 1525 397 1991 397 
Q 2450 397 2719 759 
Q 2988 1122 2988 1747 
Q 2988 2369 2719 2733 
Q 2450 3097 1991 3097 
z
" transform="scale(0.015625)"/>
       <path id="DejaVuSans-440" d="M 1159 525 
L 1159 -1331 
L 581 -1331 
L 581 3500 
L 1159 3500 
L 1159 2969 
Q 1341 3281 1617 3432 
Q 1894 3584 2278 3584 
Q 2916 3584 3314 3078 
Q 3713 2572 3713 1747 
Q 3713 922 3314 415 
Q 2916 -91 2278 -91 
Q 1894 -91 1617 61 
Q 1341 213 1159 525 
z
M 3116 1747 
Q 3116 2381 2855 2742 
Q 2594 3103 2138 3103 
Q 1681 3103 1420 2742 
Q 1159 2381 1159 1747 
Q 1159 1113 1420 752 
Q 1681 391 2138 391 
Q 2594 391 2855 752 
Q 3116 1113 3116 1747 
z
" transform="scale(0.015625)"/>
       <path id="DejaVuSans-2f" d="M 1625 4666 
L 2156 4666 
L 531 -594 
L 0 -594 
L 1625 4666 
z
" transform="scale(0.015625)"/>
       <path id="DejaVuSans-43f" d="M 3603 3500 
L 3603 0 
L 3025 0 
L 3025 3041 
L 1159 3041 
L 1159 0 
L 581 0 
L 581 3500 
L 3603 3500 
z
" transform="scale(0.015625)"/>
       <path id="DejaVuSans-433" d="M 581 0 
L 581 3500 
L 3050 3500 
L 3050 3041 
L 1159 3041 
L 1159 0 
L 581 0 
z
" transform="scale(0.015625)"/>
      </defs>
      <use xlink:href="#DejaVuSans-41a"/>
      <use xlink:href="#DejaVuSans-43e" transform="translate(70.996094 0)"/>
      <use xlink:href="#DejaVuSans-43b" transform="translate(132.177734 0)"/>
      <use xlink:href="#DejaVuSans-438" transform="translate(196.09375 0)"/>
      <use xlink:href="#DejaVuSans-447" transform="translate(261.083984 0)"/>
      <use xlink:href="#DejaVuSans-435" transform="translate(320.166016 0)"/>
      <use xlink:href="#DejaVuSans-441" transform="translate(381.689453 0)"/>
      <use xlink:href="#DejaVuSans-442" transform="translate(436.669922 0)"/>
      <use xlink:href="#DejaVuSans-432" transform="translate(494.921875 0)"/>
      <use xlink:href="#DejaVuSans-43e" transform="translate(553.857422 0)"/>
      <use xlink:href="#DejaVuSans-20" transform="translate(615.039062 0)"/>
      <use xlink:href="#DejaVuSans-431" transform="translate(646.826172 0)"/>
      <use xlink:href="#DejaVuSans-440" transform="translate(708.496094 0)"/>
      <use xlink:href="#DejaVuSans-430" transform="translate(771.972656 0)"/>
      <use xlink:href="#DejaVuSans-442" transform="translate(833.251953 0)"/>
      <use xlink:href="#DejaVuSans-44c" transform="translate(891.503906 0)"/>
      <use xlink:href="#DejaVuSans-435" transform="translate(950.439453 0)"/>
      <use xlink:href="#DejaVuSans-432" transform="translate(1011.962891 0)"/>
      <use xlink:href="#DejaVuSans-20" transform="translate(1070.898438 0)"/>
      <use xlink:href="#DejaVuSans-2f" transform="translate(1102.685547 0)"/>
      <use xlink:href="#DejaVuSans-20" transform="translate(1136.376953 0)"/>
      <use xlink:href="#DejaVuSans-441" transform="translate(1168.164062 0)"/>
      <use xlink:href="#DejaVuSans-435" transform="translate(1223.144531 0)"/>
      <use xlink:href="#DejaVuSans-441" transform="translate(1284.667969 0)"/>
      <use xlink:href="#DejaVuSans-442" transform="translate(1339.648438 0)"/>
      <use xlink:href="#DejaVuSans-435" transform="translate(1397.900391 0)"/>
      <use xlink:href="#DejaVuSans-440" transform="translate(1459.423828 0)"/>
      <use xlink:href="#DejaVuSans-20" transform="translate(1522.900391 0)"/>
      <use xlink:href="#DejaVuSans-2f" transform="translate(1554.6875 0)"/>
      <use xlink:href="#DejaVuSans-20" transform="translate(1588.378906 0)"/>
      <use xlink:href="#DejaVuSans-441" transform="translate(1620.166016 0)"/>
      <use xlink:href="#DejaVuSans-443" transform="translate(1675.146484 0)"/>
      <use xlink:href="#DejaVuSans-43f" transform="translate(1734.326172 0)"/>
      <use xlink:href="#DejaVuSans-440" transform="translate(1799.707031 0)"/>
      <use xlink:href="#DejaVuSans-443" transform="translate(1863.183594 0)"/>
      <use xlink:href="#DejaVuSans-433" transform="translate(1922.363281 0)"/>
      <use xlink:href="#DejaVuSans-43e" transform="translate(1974.902344 0)"/>
      <use xlink:href="#DejaVuSans-432" transform="translate(2036.083984 0)"/>
     </g>
    </g>
   </g>
   <g id="matplotlib.axis_6">
    <g id="ytick_18">
     <g id="line2d_35">
      <g>
       <use xlink:href="#mba97fd1025" x="45.29" y="964.4875" style="stroke: #000000; stroke-width: 0.8"/>
      </g>
     </g>
     <g id="text_42">
      <!-- 0 -->
      <g transform="translate(31.9275 968.286719) scale(0.1 -0.1)">
       <use xlink:href="#DejaVuSans-30"/>
      </g>
     </g>
    </g>
    <g id="ytick_19">
     <g id="line2d_36">
      <g>
       <use xlink:href="#mba97fd1025" x="45.29" y="901.913019" style="stroke: #000000; stroke-width: 0.8"/>
      </g>
     </g>
     <g id="text_43">
      <!-- 10 -->
      <g transform="translate(25.565 905.712237) scale(0.1 -0.1)">
       <use xlink:href="#DejaVuSans-31"/>
       <use xlink:href="#DejaVuSans-30" transform="translate(63.623047 0)"/>
      </g>
     </g>
    </g>
    <g id="ytick_20">
     <g id="line2d_37">
      <g>
       <use xlink:href="#mba97fd1025" x="45.29" y="839.338537" style="stroke: #000000; stroke-width: 0.8"/>
      </g>
     </g>
     <g id="text_44">
      <!-- 20 -->
      <g transform="translate(25.565 843.137756) scale(0.1 -0.1)">
       <use xlink:href="#DejaVuSans-32"/>
       <use xlink:href="#DejaVuSans-30" transform="translate(63.623047 0)"/>
      </g>
     </g>
    </g>
    <g id="ytick_21">
     <g id="line2d_38">
      <g>
       <use xlink:href="#mba97fd1025" x="45.29" y="776.764056" style="stroke: #000000; stroke-width: 0.8"/>
      </g>
     </g>
     <g id="text_45">
      <!-- 30 -->
      <g transform="translate(25.565 780.563274) scale(0.1 -0.1)">
       <use xlink:href="#DejaVuSans-33"/>
       <use xlink:href="#DejaVuSans-30" transform="translate(63.623047 0)"/>
      </g>
     </g>
    </g>
    <g id="ytick_22">
     <g id="line2d_39">
      <g>
       <use xlink:href="#mba97fd1025" x="45.29" y="714.189574" style="stroke: #000000; stroke-width: 0.8"/>
      </g>
     </g>
     <g id="text_46">
      <!-- 40 -->
      <g transform="translate(25.565 717.988793) scale(0.1 -0.1)">
       <use xlink:href="#DejaVuSans-34"/>
       <use xlink:href="#DejaVuSans-30" transform="translate(63.623047 0)"/>
      </g>
     </g>
    </g>
    <g id="ytick_23">
     <g id="line2d_40">
      <g>
       <use xlink:href="#mba97fd1025" x="45.29" y="651.615093" style="stroke: #000000; stroke-width: 0.8"/>
      </g>
     </g>
     <g id="text_47">
      <!-- 50 -->
      <g transform="translate(25.565 655.414311) scale(0.1 -0.1)">
       <use xlink:href="#DejaVuSans-35"/>
       <use xlink:href="#DejaVuSans-30" transform="translate(63.623047 0)"/>
      </g>
     </g>
    </g>
    <g id="ytick_24">
     <g id="line2d_41">
      <g>
       <use xlink:href="#mba97fd1025" x="45.29" y="589.040611" style="stroke: #000000; stroke-width: 0.8"/>
      </g>
     </g>
     <g id="text_48">
      <!-- 60 -->
      <g transform="translate(25.565 592.83983) scale(0.1 -0.1)">
       <use xlink:href="#DejaVuSans-36"/>
       <use xlink:href="#DejaVuSans-30" transform="translate(63.623047 0)"/>
      </g>
     </g>
    </g>
    <g id="text_49">
     <!-- Выживаемость (%) -->
     <g transform="translate(19.277344 808.189484) rotate(-90) scale(0.11 -0.11)">
      <use xlink:href="#DejaVuSans-412"/>
      <use xlink:href="#DejaVuSans-44b" transform="translate(68.603516 0)"/>
      <use xlink:href="#DejaVuSans-436" transform="translate(147.558594 0)"/>
      <use xlink:href="#DejaVuSans-438" transform="translate(237.646484 0)"/>
      <use xlink:href="#DejaVuSans-432" transform="translate(302.636719 0)"/>
      <use xlink:href="#DejaVuSans-430" transform="translate(361.572266 0)"/>
      <use xlink:href="#DejaVuSans-435" transform="translate(422.851562 0)"/>
      <use xlink:href="#DejaVuSans-43c" transform="translate(484.375 0)"/>
      <use xlink:href="#DejaVuSans-43e" transform="translate(559.814453 0)"/>
      <use xlink:href="#DejaVuSans-441" transform="translate(620.996094 0)"/>
      <use xlink:href="#DejaVuSans-442" transform="translate(675.976562 0)"/>
      <use xlink:href="#DejaVuSans-44c" transform="translate(734.228516 0)"/>
      <use xlink:href="#DejaVuSans-20" transform="translate(793.164062 0)"/>
      <use xlink:href="#DejaVuSans-28" transform="translate(824.951172 0)"/>
      <use xlink:href="#DejaVuSans-25" transform="translate(863.964844 0)"/>
      <use xlink:href="#DejaVuSans-29" transform="translate(958.984375 0)"/>
     </g>
    </g>
   </g>
   <g id="line2d_42">
    <path d="M 77.444286 772.029802 
L 77.444286 724.661537 
" clip-path="url(#p3a56f9154e)" style="fill: none; stroke: #424242; stroke-width: 2.25; stroke-linecap: square"/>
   </g>
   <g id="line2d_43">
    <path d="M 141.752857 674.07005 
L 141.752857 587.169365 
" clip-path="url(#p3a56f9154e)" style="fill: none; stroke: #424242; stroke-width: 2.25; stroke-linecap: square"/>
   </g>
   <g id="line2d_44">
    <path d="M 206.061429 785.703267 
L 206.061429 562.222976 
" clip-path="url(#p3a56f9154e)" style="fill: none; stroke: #424242; stroke-width: 2.25; stroke-linecap: square"/>
   </g>
   <g id="line2d_45">
    <path d="M 270.37 925.378449 
L 270.37 651.615093 
" clip-path="url(#p3a56f9154e)" style="fill: none; stroke: #424242; stroke-width: 2.25; stroke-linecap: square"/>
   </g>
   <g id="line2d_46">
    <path d="M 334.678571 964.4875 
L 334.678571 755.905895 
" clip-path="url(#p3a56f9154e)" style="fill: none; stroke: #424242; stroke-width: 2.25; stroke-linecap: square"/>
   </g>
   <g id="line2d_47">
    <path d="M 398.987143 964.4875 
L 398.987143 964.4875 
" clip-path="url(#p3a56f9154e)" style="fill: none; stroke: #424242; stroke-width: 2.25; stroke-linecap: square"/>
   </g>
   <g id="line2d_48">
    <path d="M 463.295714 964.4875 
L 463.295714 964.4875 
" clip-path="url(#p3a56f9154e)" style="fill: none; stroke: #424242; stroke-width: 2.25; stroke-linecap: square"/>
   </g>
   <g id="patch_25">
    <path d="M 45.29 964.4875 
L 45.29 542.10975 
" style="fill: none; stroke: #000000; stroke-width: 0.8; stroke-linejoin: miter; stroke-linecap: square"/>
   </g>
   <g id="patch_26">
    <path d="M 495.45 964.4875 
L 495.45 542.10975 
" style="fill: none; stroke: #000000; stroke-width: 0.8; stroke-linejoin: miter; stroke-linecap: square"/>
   </g>
   <g id="patch_27">
    <path d="M 45.29 964.4875 
L 495.45 964.4875 
" style="fill: none; stroke: #000000; stroke-width: 0.8; stroke-linejoin: miter; stroke-linecap: square"/>
   </g>
   <g id="patch_28">
    <path d="M 45.29 542.10975 
L 495.45 542.10975 
" style="fill: none; stroke: #000000; stroke-width: 0.8; stroke-linejoin: miter; stroke-linecap: square"/>
   </g>
   <g id="text_50">
    <!-- 34.5% -->
    <g transform="translate(47.071908 742.101086) scale(0.09 -0.09)">
     <use xlink:href="#DejaVuSans-33"/>
     <use xlink:href="#DejaVuSans-34" transform="translate(63.623047 0)"/>
     <use xlink:href="#DejaVuSans-2e" transform="translate(127.246094 0)"/>
     <use xlink:href="#DejaVuSans-35" transform="translate(159.033203 0)"/>
     <use xlink:href="#DejaVuSans-25" transform="translate(222.65625 0)"/>
    </g>
   </g>
   <g id="text_51">
    <!-- 53.6% -->
    <g transform="translate(111.38048 622.902687) scale(0.09 -0.09)">
     <use xlink:href="#DejaVuSans-35"/>
     <use xlink:href="#DejaVuSans-33" transform="translate(63.623047 0)"/>
     <use xlink:href="#DejaVuSans-2e" transform="translate(127.246094 0)"/>
     <use xlink:href="#DejaVuSans-36" transform="translate(159.033203 0)"/>
     <use xlink:href="#DejaVuSans-25" transform="translate(222.65625 0)"/>
    </g>
   </g>
   <g id="text_52">
    <!-- 46.4% -->
    <g transform="translate(175.689051 667.705674) scale(0.09 -0.09)">
     <use xlink:href="#DejaVuSans-34"/>
     <use xlink:href="#DejaVuSans-36" transform="translate(63.623047 0)"/>
     <use xlink:href="#DejaVuSans-2e" transform="translate(127.246094 0)"/>
     <use xlink:href="#DejaVuSans-34" transform="translate(159.033203 0)"/>
     <use xlink:href="#DejaVuSans-25" transform="translate(222.65625 0)"/>
    </g>
   </g>
   <g id="text_53">
    <!-- 25.0% -->
    <g transform="translate(239.997623 801.793848) scale(0.09 -0.09)">
     <use xlink:href="#DejaVuSans-32"/>
     <use xlink:href="#DejaVuSans-35" transform="translate(63.623047 0)"/>
     <use xlink:href="#DejaVuSans-2e" transform="translate(127.246094 0)"/>
     <use xlink:href="#DejaVuSans-30" transform="translate(159.033203 0)"/>
     <use xlink:href="#DejaVuSans-25" transform="translate(222.65625 0)"/>
    </g>
   </g>
   <g id="text_54">
    <!-- 16.7% -->
    <g transform="translate(304.306194 853.939249) scale(0.09 -0.09)">
     <use xlink:href="#DejaVuSans-31"/>
     <use xlink:href="#DejaVuSans-36" transform="translate(63.623047 0)"/>
     <use xlink:href="#DejaVuSans-2e" transform="translate(127.246094 0)"/>
     <use xlink:href="#DejaVuSans-37" transform="translate(159.033203 0)"/>
     <use xlink:href="#DejaVuSans-25" transform="translate(222.65625 0)"/>
    </g>
   </g>
   <g id="text_55">
    <!-- Выживаемость по количеству  -->
    <g transform="translate(146.466719 519.774812) scale(0.14 -0.14)">
     <defs>
      <path id="DejaVuSans-Bold-447" d="M 2550 0 
L 2550 1353 
L 1400 1353 
Q 931 1353 672 1629 
Q 413 1906 413 2450 
L 413 3500 
L 1531 3500 
L 1531 2878 
Q 1531 2322 1622 2183 
Q 1713 2044 1950 2044 
L 2550 2044 
L 2550 3500 
L 3669 3500 
L 3669 0 
L 2550 0 
z
" transform="scale(0.015625)"/>
     </defs>
     <use xlink:href="#DejaVuSans-Bold-412"/>
     <use xlink:href="#DejaVuSans-Bold-44b" transform="translate(76.220703 0)"/>
     <use xlink:href="#DejaVuSans-Bold-436" transform="translate(166.650391 0)"/>
     <use xlink:href="#DejaVuSans-Bold-438" transform="translate(266.162109 0)"/>
     <use xlink:href="#DejaVuSans-Bold-432" transform="translate(336.230469 0)"/>
     <use xlink:href="#DejaVuSans-Bold-430" transform="translate(399.511719 0)"/>
     <use xlink:href="#DejaVuSans-Bold-435" transform="translate(466.992188 0)"/>
     <use xlink:href="#DejaVuSans-Bold-43c" transform="translate(534.814453 0)"/>
     <use xlink:href="#DejaVuSans-Bold-43e" transform="translate(616.552734 0)"/>
     <use xlink:href="#DejaVuSans-Bold-441" transform="translate(685.253906 0)"/>
     <use xlink:href="#DejaVuSans-Bold-442" transform="translate(744.53125 0)"/>
     <use xlink:href="#DejaVuSans-Bold-44c" transform="translate(802.490234 0)"/>
     <use xlink:href="#DejaVuSans-Bold-20" transform="translate(865.722656 0)"/>
     <use xlink:href="#DejaVuSans-Bold-43f" transform="translate(900.537109 0)"/>
     <use xlink:href="#DejaVuSans-Bold-43e" transform="translate(969.628906 0)"/>
     <use xlink:href="#DejaVuSans-Bold-20" transform="translate(1038.330078 0)"/>
     <use xlink:href="#DejaVuSans-Bold-43a" transform="translate(1073.144531 0)"/>
     <use xlink:href="#DejaVuSans-Bold-43e" transform="translate(1141.015625 0)"/>
     <use xlink:href="#DejaVuSans-Bold-43b" transform="translate(1209.716797 0)"/>
     <use xlink:href="#DejaVuSans-Bold-438" transform="translate(1282.958984 0)"/>
     <use xlink:href="#DejaVuSans-Bold-447" transform="translate(1353.027344 0)"/>
     <use xlink:href="#DejaVuSans-Bold-435" transform="translate(1421.679688 0)"/>
     <use xlink:href="#DejaVuSans-Bold-441" transform="translate(1489.501953 0)"/>
     <use xlink:href="#DejaVuSans-Bold-442" transform="translate(1548.779297 0)"/>
     <use xlink:href="#DejaVuSans-Bold-432" transform="translate(1606.738281 0)"/>
     <use xlink:href="#DejaVuSans-Bold-443" transform="translate(1670.019531 0)"/>
     <use xlink:href="#DejaVuSans-Bold-20" transform="translate(1735.205078 0)"/>
    </g>
    <!--  братьев / сестер / супругов -->
    <g transform="translate(157.90625 536.10975) scale(0.14 -0.14)">
     <defs>
      <path id="DejaVuSans-Bold-2f" d="M 1644 4666 
L 2338 4666 
L 691 -594 
L 0 -594 
L 1644 4666 
z
" transform="scale(0.015625)"/>
      <path id="DejaVuSans-Bold-433" d="M 538 0 
L 538 3500 
L 3191 3500 
L 3191 2809 
L 1656 2809 
L 1656 0 
L 538 0 
z
" transform="scale(0.015625)"/>
     </defs>
     <use xlink:href="#DejaVuSans-Bold-20"/>
     <use xlink:href="#DejaVuSans-Bold-431" transform="translate(34.814453 0)"/>
     <use xlink:href="#DejaVuSans-Bold-440" transform="translate(104.638672 0)"/>
     <use xlink:href="#DejaVuSans-Bold-430" transform="translate(176.220703 0)"/>
     <use xlink:href="#DejaVuSans-Bold-442" transform="translate(243.701172 0)"/>
     <use xlink:href="#DejaVuSans-Bold-44c" transform="translate(301.660156 0)"/>
     <use xlink:href="#DejaVuSans-Bold-435" transform="translate(364.892578 0)"/>
     <use xlink:href="#DejaVuSans-Bold-432" transform="translate(432.714844 0)"/>
     <use xlink:href="#DejaVuSans-Bold-20" transform="translate(495.996094 0)"/>
     <use xlink:href="#DejaVuSans-Bold-2f" transform="translate(530.810547 0)"/>
     <use xlink:href="#DejaVuSans-Bold-20" transform="translate(567.333984 0)"/>
     <use xlink:href="#DejaVuSans-Bold-441" transform="translate(602.148438 0)"/>
     <use xlink:href="#DejaVuSans-Bold-435" transform="translate(661.425781 0)"/>
     <use xlink:href="#DejaVuSans-Bold-441" transform="translate(729.248047 0)"/>
     <use xlink:href="#DejaVuSans-Bold-442" transform="translate(788.525391 0)"/>
     <use xlink:href="#DejaVuSans-Bold-435" transform="translate(846.484375 0)"/>
     <use xlink:href="#DejaVuSans-Bold-440" transform="translate(914.306641 0)"/>
     <use xlink:href="#DejaVuSans-Bold-20" transform="translate(985.888672 0)"/>
     <use xlink:href="#DejaVuSans-Bold-2f" transform="translate(1020.703125 0)"/>
     <use xlink:href="#DejaVuSans-Bold-20" transform="translate(1057.226562 0)"/>
     <use xlink:href="#DejaVuSans-Bold-441" transform="translate(1092.041016 0)"/>
     <use xlink:href="#DejaVuSans-Bold-443" transform="translate(1151.318359 0)"/>
     <use xlink:href="#DejaVuSans-Bold-43f" transform="translate(1216.503906 0)"/>
     <use xlink:href="#DejaVuSans-Bold-440" transform="translate(1285.595703 0)"/>
     <use xlink:href="#DejaVuSans-Bold-443" transform="translate(1357.177734 0)"/>
     <use xlink:href="#DejaVuSans-Bold-433" transform="translate(1422.363281 0)"/>
     <use xlink:href="#DejaVuSans-Bold-43e" transform="translate(1474.609375 0)"/>
     <use xlink:href="#DejaVuSans-Bold-432" transform="translate(1543.310547 0)"/>
    </g>
   </g>
  </g>
  <g id="axes_4">
   <g id="patch_29">
    <path d="M 547.04 964.4875 
L 997.2 964.4875 
L 997.2 542.10975 
L 547.04 542.10975 
z
" style="fill: #ffffff"/>
   </g>
   <g id="patch_30">
    <path d="M 553.470857 964.4875 
L 604.917714 964.4875 
L 604.917714 826.246152 
L 553.470857 826.246152 
z
" clip-path="url(#pa4f2b4b510)" style="fill: #e9d4d0"/>
   </g>
   <g id="patch_31">
    <path d="M 617.779429 964.4875 
L 669.226286 964.4875 
L 669.226286 742.90111 
L 617.779429 742.90111 
z
" clip-path="url(#pa4f2b4b510)" style="fill: #d8b3b6"/>
   </g>
   <g id="patch_32">
    <path d="M 682.088 964.4875 
L 733.534857 964.4875 
L 733.534857 763.355238 
L 682.088 763.355238 
z
" clip-path="url(#pa4f2b4b510)" style="fill: #c08fa0"/>
   </g>
   <g id="patch_33">
    <path d="M 746.396571 964.4875 
L 797.843429 964.4875 
L 797.843429 723.128786 
L 746.396571 723.128786 
z
" clip-path="url(#pa4f2b4b510)" style="fill: #a16f8d"/>
   </g>
   <g id="patch_34">
    <path d="M 810.705143 964.4875 
L 862.152 964.4875 
L 862.152 964.4875 
L 810.705143 964.4875 
z
" clip-path="url(#pa4f2b4b510)" style="fill: #7c5378"/>
   </g>
   <g id="patch_35">
    <path d="M 875.013714 964.4875 
L 926.460571 964.4875 
L 926.460571 884.034595 
L 875.013714 884.034595 
z
" clip-path="url(#pa4f2b4b510)" style="fill: #53395c"/>
   </g>
   <g id="patch_36">
    <path d="M 939.322286 964.4875 
L 990.769143 964.4875 
L 990.769143 964.4875 
L 939.322286 964.4875 
z
" clip-path="url(#pa4f2b4b510)" style="fill: #2d223a"/>
   </g>
   <g id="matplotlib.axis_7">
    <g id="xtick_13">
     <g id="line2d_49">
      <g>
       <use xlink:href="#md3303891e8" x="579.194286" y="964.4875" style="stroke: #000000; stroke-width: 0.8"/>
      </g>
     </g>
     <g id="text_56">
      <!-- 0 -->
      <g transform="translate(576.013036 979.085937) scale(0.1 -0.1)">
       <use xlink:href="#DejaVuSans-30"/>
      </g>
     </g>
    </g>
    <g id="xtick_14">
     <g id="line2d_50">
      <g>
       <use xlink:href="#md3303891e8" x="643.502857" y="964.4875" style="stroke: #000000; stroke-width: 0.8"/>
      </g>
     </g>
     <g id="text_57">
      <!-- 1 -->
      <g transform="translate(640.321607 979.085937) scale(0.1 -0.1)">
       <use xlink:href="#DejaVuSans-31"/>
      </g>
     </g>
    </g>
    <g id="xtick_15">
     <g id="line2d_51">
      <g>
       <use xlink:href="#md3303891e8" x="707.811429" y="964.4875" style="stroke: #000000; stroke-width: 0.8"/>
      </g>
     </g>
     <g id="text_58">
      <!-- 2 -->
      <g transform="translate(704.630179 979.085937) scale(0.1 -0.1)">
       <use xlink:href="#DejaVuSans-32"/>
      </g>
     </g>
    </g>
    <g id="xtick_16">
     <g id="line2d_52">
      <g>
       <use xlink:href="#md3303891e8" x="772.12" y="964.4875" style="stroke: #000000; stroke-width: 0.8"/>
      </g>
     </g>
     <g id="text_59">
      <!-- 3 -->
      <g transform="translate(768.93875 979.085937) scale(0.1 -0.1)">
       <use xlink:href="#DejaVuSans-33"/>
      </g>
     </g>
    </g>
    <g id="xtick_17">
     <g id="line2d_53">
      <g>
       <use xlink:href="#md3303891e8" x="836.428571" y="964.4875" style="stroke: #000000; stroke-width: 0.8"/>
      </g>
     </g>
     <g id="text_60">
      <!-- 4 -->
      <g transform="translate(833.247321 979.085937) scale(0.1 -0.1)">
       <use xlink:href="#DejaVuSans-34"/>
      </g>
     </g>
    </g>
    <g id="xtick_18">
     <g id="line2d_54">
      <g>
       <use xlink:href="#md3303891e8" x="900.737143" y="964.4875" style="stroke: #000000; stroke-width: 0.8"/>
      </g>
     </g>
     <g id="text_61">
      <!-- 5 -->
      <g transform="translate(897.555893 979.085937) scale(0.1 -0.1)">
       <use xlink:href="#DejaVuSans-35"/>
      </g>
     </g>
    </g>
    <g id="xtick_19">
     <g id="line2d_55">
      <g>
       <use xlink:href="#md3303891e8" x="965.045714" y="964.4875" style="stroke: #000000; stroke-width: 0.8"/>
      </g>
     </g>
     <g id="text_62">
      <!-- 6 -->
      <g transform="translate(961.864464 979.085937) scale(0.1 -0.1)">
       <use xlink:href="#DejaVuSans-36"/>
      </g>
     </g>
    </g>
    <g id="text_63">
     <!-- Количество родителей / детей -->
     <g transform="translate(682.549922 993.523906) scale(0.11 -0.11)">
      <defs>
       <path id="DejaVuSans-434" d="M 1384 459 
L 3053 459 
L 3053 3041 
L 1844 3041 
L 1844 2603 
Q 1844 1316 1475 628 
L 1384 459 
z
M 550 459 
Q 834 584 959 850 
Q 1266 1509 1266 2838 
L 1266 3500 
L 3631 3500 
L 3631 459 
L 4091 459 
L 4091 -884 
L 3631 -884 
L 3631 0 
L 794 0 
L 794 -884 
L 334 -884 
L 334 459 
L 550 459 
z
" transform="scale(0.015625)"/>
      </defs>
      <use xlink:href="#DejaVuSans-41a"/>
      <use xlink:href="#DejaVuSans-43e" transform="translate(70.996094 0)"/>
      <use xlink:href="#DejaVuSans-43b" transform="translate(132.177734 0)"/>
      <use xlink:href="#DejaVuSans-438" transform="translate(196.09375 0)"/>
      <use xlink:href="#DejaVuSans-447" transform="translate(261.083984 0)"/>
      <use xlink:href="#DejaVuSans-435" transform="translate(320.166016 0)"/>
      <use xlink:href="#DejaVuSans-441" transform="translate(381.689453 0)"/>
      <use xlink:href="#DejaVuSans-442" transform="translate(436.669922 0)"/>
      <use xlink:href="#DejaVuSans-432" transform="translate(494.921875 0)"/>
      <use xlink:href="#DejaVuSans-43e" transform="translate(553.857422 0)"/>
      <use xlink:href="#DejaVuSans-20" transform="translate(615.039062 0)"/>
      <use xlink:href="#DejaVuSans-440" transform="translate(646.826172 0)"/>
      <use xlink:href="#DejaVuSans-43e" transform="translate(710.302734 0)"/>
      <use xlink:href="#DejaVuSans-434" transform="translate(771.484375 0)"/>
      <use xlink:href="#DejaVuSans-438" transform="translate(840.625 0)"/>
      <use xlink:href="#DejaVuSans-442" transform="translate(905.615234 0)"/>
      <use xlink:href="#DejaVuSans-435" transform="translate(963.867188 0)"/>
      <use xlink:href="#DejaVuSans-43b" transform="translate(1025.390625 0)"/>
      <use xlink:href="#DejaVuSans-435" transform="translate(1089.306641 0)"/>
      <use xlink:href="#DejaVuSans-439" transform="translate(1150.830078 0)"/>
      <use xlink:href="#DejaVuSans-20" transform="translate(1215.820312 0)"/>
      <use xlink:href="#DejaVuSans-2f" transform="translate(1247.607422 0)"/>
      <use xlink:href="#DejaVuSans-20" transform="translate(1281.298828 0)"/>
      <use xlink:href="#DejaVuSans-434" transform="translate(1313.085938 0)"/>
      <use xlink:href="#DejaVuSans-435" transform="translate(1382.226562 0)"/>
      <use xlink:href="#DejaVuSans-442" transform="translate(1443.75 0)"/>
      <use xlink:href="#DejaVuSans-435" transform="translate(1502.001953 0)"/>
      <use xlink:href="#DejaVuSans-439" transform="translate(1563.525391 0)"/>
     </g>
    </g>
   </g>
   <g id="matplotlib.axis_8">
    <g id="ytick_25">
     <g id="line2d_56">
      <g>
       <use xlink:href="#mba97fd1025" x="547.04" y="964.4875" style="stroke: #000000; stroke-width: 0.8"/>
      </g>
     </g>
     <g id="text_64">
      <!-- 0 -->
      <g transform="translate(533.6775 968.286719) scale(0.1 -0.1)">
       <use xlink:href="#DejaVuSans-30"/>
      </g>
     </g>
    </g>
    <g id="ytick_26">
     <g id="line2d_57">
      <g>
       <use xlink:href="#mba97fd1025" x="547.04" y="884.034595" style="stroke: #000000; stroke-width: 0.8"/>
      </g>
     </g>
     <g id="text_65">
      <!-- 20 -->
      <g transform="translate(527.315 887.833814) scale(0.1 -0.1)">
       <use xlink:href="#DejaVuSans-32"/>
       <use xlink:href="#DejaVuSans-30" transform="translate(63.623047 0)"/>
      </g>
     </g>
    </g>
    <g id="ytick_27">
     <g id="line2d_58">
      <g>
       <use xlink:href="#mba97fd1025" x="547.04" y="803.58169" style="stroke: #000000; stroke-width: 0.8"/>
      </g>
     </g>
     <g id="text_66">
      <!-- 40 -->
      <g transform="translate(527.315 807.380909) scale(0.1 -0.1)">
       <use xlink:href="#DejaVuSans-34"/>
       <use xlink:href="#DejaVuSans-30" transform="translate(63.623047 0)"/>
      </g>
     </g>
    </g>
    <g id="ytick_28">
     <g id="line2d_59">
      <g>
       <use xlink:href="#mba97fd1025" x="547.04" y="723.128786" style="stroke: #000000; stroke-width: 0.8"/>
      </g>
     </g>
     <g id="text_67">
      <!-- 60 -->
      <g transform="translate(527.315 726.928004) scale(0.1 -0.1)">
       <use xlink:href="#DejaVuSans-36"/>
       <use xlink:href="#DejaVuSans-30" transform="translate(63.623047 0)"/>
      </g>
     </g>
    </g>
    <g id="ytick_29">
     <g id="line2d_60">
      <g>
       <use xlink:href="#mba97fd1025" x="547.04" y="642.675881" style="stroke: #000000; stroke-width: 0.8"/>
      </g>
     </g>
     <g id="text_68">
      <!-- 80 -->
      <g transform="translate(527.315 646.4751) scale(0.1 -0.1)">
       <use xlink:href="#DejaVuSans-38"/>
       <use xlink:href="#DejaVuSans-30" transform="translate(63.623047 0)"/>
      </g>
     </g>
    </g>
    <g id="ytick_30">
     <g id="line2d_61">
      <g>
       <use xlink:href="#mba97fd1025" x="547.04" y="562.222976" style="stroke: #000000; stroke-width: 0.8"/>
      </g>
     </g>
     <g id="text_69">
      <!-- 100 -->
      <g transform="translate(520.9525 566.022195) scale(0.1 -0.1)">
       <use xlink:href="#DejaVuSans-31"/>
       <use xlink:href="#DejaVuSans-30" transform="translate(63.623047 0)"/>
       <use xlink:href="#DejaVuSans-30" transform="translate(127.246094 0)"/>
      </g>
     </g>
    </g>
    <g id="text_70">
     <!-- Выживаемость (%) -->
     <g transform="translate(514.664844 808.189484) rotate(-90) scale(0.11 -0.11)">
      <use xlink:href="#DejaVuSans-412"/>
      <use xlink:href="#DejaVuSans-44b" transform="translate(68.603516 0)"/>
      <use xlink:href="#DejaVuSans-436" transform="translate(147.558594 0)"/>
      <use xlink:href="#DejaVuSans-438" transform="translate(237.646484 0)"/>
      <use xlink:href="#DejaVuSans-432" transform="translate(302.636719 0)"/>
      <use xlink:href="#DejaVuSans-430" transform="translate(361.572266 0)"/>
      <use xlink:href="#DejaVuSans-435" transform="translate(422.851562 0)"/>
      <use xlink:href="#DejaVuSans-43c" transform="translate(484.375 0)"/>
      <use xlink:href="#DejaVuSans-43e" transform="translate(559.814453 0)"/>
      <use xlink:href="#DejaVuSans-441" transform="translate(620.996094 0)"/>
      <use xlink:href="#DejaVuSans-442" transform="translate(675.976562 0)"/>
      <use xlink:href="#DejaVuSans-44c" transform="translate(734.228516 0)"/>
      <use xlink:href="#DejaVuSans-20" transform="translate(793.164062 0)"/>
      <use xlink:href="#DejaVuSans-28" transform="translate(824.951172 0)"/>
      <use xlink:href="#DejaVuSans-25" transform="translate(863.964844 0)"/>
      <use xlink:href="#DejaVuSans-29" transform="translate(958.984375 0)"/>
     </g>
    </g>
   </g>
   <g id="line2d_62">
    <path d="M 579.194286 841.672225 
L 579.194286 812.0067 
" clip-path="url(#pa4f2b4b510)" style="fill: none; stroke: #424242; stroke-width: 2.25; stroke-linecap: square"/>
   </g>
   <g id="line2d_63">
    <path d="M 643.502857 780.400345 
L 643.502857 705.401874 
" clip-path="url(#pa4f2b4b510)" style="fill: none; stroke: #424242; stroke-width: 2.25; stroke-linecap: square"/>
   </g>
   <g id="line2d_64">
    <path d="M 707.811429 808.609997 
L 707.811429 718.100479 
" clip-path="url(#pa4f2b4b510)" style="fill: none; stroke: #424242; stroke-width: 2.25; stroke-linecap: square"/>
   </g>
   <g id="line2d_65">
    <path d="M 772.12 884.034595 
L 772.12 562.222976 
" clip-path="url(#pa4f2b4b510)" style="fill: none; stroke: #424242; stroke-width: 2.25; stroke-linecap: square"/>
   </g>
   <g id="line2d_66">
    <path d="M 836.428571 964.4875 
L 836.428571 964.4875 
" clip-path="url(#pa4f2b4b510)" style="fill: none; stroke: #424242; stroke-width: 2.25; stroke-linecap: square"/>
   </g>
   <g id="line2d_67">
    <path d="M 900.737143 964.4875 
L 900.737143 723.128786 
" clip-path="url(#pa4f2b4b510)" style="fill: none; stroke: #424242; stroke-width: 2.25; stroke-linecap: square"/>
   </g>
   <g id="line2d_68">
    <path clip-path="url(#pa4f2b4b510)" style="fill: none; stroke: #424242; stroke-width: 2.25; stroke-linecap: square"/>
   </g>
   <g id="patch_37">
    <path d="M 547.04 964.4875 
L 547.04 542.10975 
" style="fill: none; stroke: #000000; stroke-width: 0.8; stroke-linejoin: miter; stroke-linecap: square"/>
   </g>
   <g id="patch_38">
    <path d="M 997.2 964.4875 
L 997.2 542.10975 
" style="fill: none; stroke: #000000; stroke-width: 0.8; stroke-linejoin: miter; stroke-linecap: square"/>
   </g>
   <g id="patch_39">
    <path d="M 547.04 964.4875 
L 997.2 964.4875 
" style="fill: none; stroke: #000000; stroke-width: 0.8; stroke-linejoin: miter; stroke-linecap: square"/>
   </g>
   <g id="patch_40">
    <path d="M 547.04 542.10975 
L 997.2 542.10975 
" style="fill: none; stroke: #000000; stroke-width: 0.8; stroke-linejoin: miter; stroke-linecap: square"/>
   </g>
   <g id="text_71">
    <!-- 34.4% -->
    <g transform="translate(548.821908 822.223507) scale(0.09 -0.09)">
     <use xlink:href="#DejaVuSans-33"/>
     <use xlink:href="#DejaVuSans-34" transform="translate(63.623047 0)"/>
     <use xlink:href="#DejaVuSans-2e" transform="translate(127.246094 0)"/>
     <use xlink:href="#DejaVuSans-34" transform="translate(159.033203 0)"/>
     <use xlink:href="#DejaVuSans-25" transform="translate(222.65625 0)"/>
    </g>
   </g>
   <g id="text_72">
    <!-- 55.1% -->
    <g transform="translate(613.13048 738.878465) scale(0.09 -0.09)">
     <use xlink:href="#DejaVuSans-35"/>
     <use xlink:href="#DejaVuSans-35" transform="translate(63.623047 0)"/>
     <use xlink:href="#DejaVuSans-2e" transform="translate(127.246094 0)"/>
     <use xlink:href="#DejaVuSans-31" transform="translate(159.033203 0)"/>
     <use xlink:href="#DejaVuSans-25" transform="translate(222.65625 0)"/>
    </g>
   </g>
   <g id="text_73">
    <!-- 50.0% -->
    <g transform="translate(677.439051 759.332593) scale(0.09 -0.09)">
     <use xlink:href="#DejaVuSans-35"/>
     <use xlink:href="#DejaVuSans-30" transform="translate(63.623047 0)"/>
     <use xlink:href="#DejaVuSans-2e" transform="translate(127.246094 0)"/>
     <use xlink:href="#DejaVuSans-30" transform="translate(159.033203 0)"/>
     <use xlink:href="#DejaVuSans-25" transform="translate(222.65625 0)"/>
    </g>
   </g>
   <g id="text_74">
    <!-- 60.0% -->
    <g transform="translate(741.747623 719.10614) scale(0.09 -0.09)">
     <use xlink:href="#DejaVuSans-36"/>
     <use xlink:href="#DejaVuSans-30" transform="translate(63.623047 0)"/>
     <use xlink:href="#DejaVuSans-2e" transform="translate(127.246094 0)"/>
     <use xlink:href="#DejaVuSans-30" transform="translate(159.033203 0)"/>
     <use xlink:href="#DejaVuSans-25" transform="translate(222.65625 0)"/>
    </g>
   </g>
   <g id="text_75">
    <!-- 20.0% -->
    <g transform="translate(870.364766 880.01195) scale(0.09 -0.09)">
     <use xlink:href="#DejaVuSans-32"/>
     <use xlink:href="#DejaVuSans-30" transform="translate(63.623047 0)"/>
     <use xlink:href="#DejaVuSans-2e" transform="translate(127.246094 0)"/>
     <use xlink:href="#DejaVuSans-30" transform="translate(159.033203 0)"/>
     <use xlink:href="#DejaVuSans-25" transform="translate(222.65625 0)"/>
    </g>
   </g>
   <g id="text_76">
    <!-- Выживаемость по количеству  -->
    <g transform="translate(648.216719 520.249937) scale(0.14 -0.14)">
     <use xlink:href="#DejaVuSans-Bold-412"/>
     <use xlink:href="#DejaVuSans-Bold-44b" transform="translate(76.220703 0)"/>
     <use xlink:href="#DejaVuSans-Bold-436" transform="translate(166.650391 0)"/>
     <use xlink:href="#DejaVuSans-Bold-438" transform="translate(266.162109 0)"/>
     <use xlink:href="#DejaVuSans-Bold-432" transform="translate(336.230469 0)"/>
     <use xlink:href="#DejaVuSans-Bold-430" transform="translate(399.511719 0)"/>
     <use xlink:href="#DejaVuSans-Bold-435" transform="translate(466.992188 0)"/>
     <use xlink:href="#DejaVuSans-Bold-43c" transform="translate(534.814453 0)"/>
     <use xlink:href="#DejaVuSans-Bold-43e" transform="translate(616.552734 0)"/>
     <use xlink:href="#DejaVuSans-Bold-441" transform="translate(685.253906 0)"/>
     <use xlink:href="#DejaVuSans-Bold-442" transform="translate(744.53125 0)"/>
     <use xlink:href="#DejaVuSans-Bold-44c" transform="translate(802.490234 0)"/>
     <use xlink:href="#DejaVuSans-Bold-20" transform="translate(865.722656 0)"/>
     <use xlink:href="#DejaVuSans-Bold-43f" transform="translate(900.537109 0)"/>
     <use xlink:href="#DejaVuSans-Bold-43e" transform="translate(969.628906 0)"/>
     <use xlink:href="#DejaVuSans-Bold-20" transform="translate(1038.330078 0)"/>
     <use xlink:href="#DejaVuSans-Bold-43a" transform="translate(1073.144531 0)"/>
     <use xlink:href="#DejaVuSans-Bold-43e" transform="translate(1141.015625 0)"/>
     <use xlink:href="#DejaVuSans-Bold-43b" transform="translate(1209.716797 0)"/>
     <use xlink:href="#DejaVuSans-Bold-438" transform="translate(1282.958984 0)"/>
     <use xlink:href="#DejaVuSans-Bold-447" transform="translate(1353.027344 0)"/>
     <use xlink:href="#DejaVuSans-Bold-435" transform="translate(1421.679688 0)"/>
     <use xlink:href="#DejaVuSans-Bold-441" transform="translate(1489.501953 0)"/>
     <use xlink:href="#DejaVuSans-Bold-442" transform="translate(1548.779297 0)"/>
     <use xlink:href="#DejaVuSans-Bold-432" transform="translate(1606.738281 0)"/>
     <use xlink:href="#DejaVuSans-Bold-443" transform="translate(1670.019531 0)"/>
     <use xlink:href="#DejaVuSans-Bold-20" transform="translate(1735.205078 0)"/>
    </g>
    <!--  родителей / детей -->
    <g transform="translate(694.179375 536.10975) scale(0.14 -0.14)">
     <defs>
      <path id="DejaVuSans-Bold-434" d="M 547 800 
Q 903 919 1053 1314 
Q 1203 1709 1203 2838 
L 1203 3500 
L 4228 3500 
L 4228 800 
L 4809 800 
L 4809 -884 
L 4009 -884 
L 4009 0 
L 1159 0 
L 1159 -884 
L 359 -884 
L 359 800 
L 547 800 
z
M 3109 2700 
L 2322 2700 
L 2322 2603 
Q 2322 1456 2063 800 
L 3109 800 
L 3109 2700 
z
" transform="scale(0.015625)"/>
      <path id="DejaVuSans-Bold-439" d="M 3947 3500 
L 3947 0 
L 2828 0 
L 2828 1863 
L 1700 0 
L 538 0 
L 538 3500 
L 1656 3500 
L 1656 1638 
L 2784 3500 
L 3947 3500 
z
M 1190 4891 
L 1637 4891 
Q 1671 4672 1826 4556 
Q 1981 4441 2240 4441 
Q 2499 4441 2654 4556 
Q 2809 4672 2843 4891 
L 3290 4891 
Q 3271 4441 2999 4202 
Q 2728 3963 2240 3963 
Q 1753 3963 1481 4202 
Q 1209 4441 1190 4891 
z
" transform="scale(0.015625)"/>
     </defs>
     <use xlink:href="#DejaVuSans-Bold-20"/>
     <use xlink:href="#DejaVuSans-Bold-440" transform="translate(34.814453 0)"/>
     <use xlink:href="#DejaVuSans-Bold-43e" transform="translate(106.396484 0)"/>
     <use xlink:href="#DejaVuSans-Bold-434" transform="translate(175.097656 0)"/>
     <use xlink:href="#DejaVuSans-Bold-438" transform="translate(255.859375 0)"/>
     <use xlink:href="#DejaVuSans-Bold-442" transform="translate(325.927734 0)"/>
     <use xlink:href="#DejaVuSans-Bold-435" transform="translate(383.886719 0)"/>
     <use xlink:href="#DejaVuSans-Bold-43b" transform="translate(451.708984 0)"/>
     <use xlink:href="#DejaVuSans-Bold-435" transform="translate(524.951172 0)"/>
     <use xlink:href="#DejaVuSans-Bold-439" transform="translate(592.773438 0)"/>
     <use xlink:href="#DejaVuSans-Bold-20" transform="translate(662.841797 0)"/>
     <use xlink:href="#DejaVuSans-Bold-2f" transform="translate(697.65625 0)"/>
     <use xlink:href="#DejaVuSans-Bold-20" transform="translate(734.179688 0)"/>
     <use xlink:href="#DejaVuSans-Bold-434" transform="translate(768.994141 0)"/>
     <use xlink:href="#DejaVuSans-Bold-435" transform="translate(849.755859 0)"/>
     <use xlink:href="#DejaVuSans-Bold-442" transform="translate(917.578125 0)"/>
     <use xlink:href="#DejaVuSans-Bold-435" transform="translate(975.537109 0)"/>
     <use xlink:href="#DejaVuSans-Bold-439" transform="translate(1043.359375 0)"/>
    </g>
   </g>
  </g>
 </g>
 <defs>
  <clipPath id="p5d46637245">
   <rect x="45.29" y="43.926" width="450.16" height="422.37775"/>
  </clipPath>
  <clipPath id="peeaaaca5cb">
   <rect x="547.04" y="43.926" width="450.16" height="422.37775"/>
  </clipPath>
  <clipPath id="p3a56f9154e">
   <rect x="45.29" y="542.10975" width="450.16" height="422.37775"/>
  </clipPath>
  <clipPath id="pa4f2b4b510">
   <rect x="547.04" y="542.10975" width="450.16" height="422.37775"/>
  </clipPath>
 </defs>
</svg>
