<?xml version="1.0" encoding="utf-8" standalone="no"?>
<!DOCTYPE svg PUBLIC "-//W3C//DTD SVG 1.1//EN"
  "http://www.w3.org/Graphics/SVG/1.1/DTD/svg11.dtd">
<svg xmlns:xlink="http://www.w3.org/1999/xlink" width="504pt" height="648pt" viewBox="0 0 504 648" xmlns="http://www.w3.org/2000/svg" version="1.1">
 <metadata>
  <rdf:RDF xmlns:dc="http://purl.org/dc/elements/1.1/" xmlns:cc="http://creativecommons.org/ns#" xmlns:rdf="http://www.w3.org/1999/02/22-rdf-syntax-ns#">
   <cc:Work>
    <dc:type rdf:resource="http://purl.org/dc/dcmitype/StillImage"/>
    <dc:date>2026-04-04T10:18:54.068892</dc:date>
    <dc:format>image/svg+xml</dc:format>
    <dc:creator>
     <cc:Agent>
      <dc:title>Matplotlib v3.10.0, https://matplotlib.org/</dc:title>
     </cc:Agent>
    </dc:creator>
   </cc:Work>
  </rdf:RDF>
 </metadata>
 <defs>
  <style type="text/css">*{stroke-linejoin: round; stroke-linecap: butt}</style>
 </defs>
 <g id="figure_1">
  <g id="patch_1">
   <path d="M 0 648 
L 504 648 
L 504 0 
L 0 0 
z
" style="fill: #ffffff"/>
  </g>
  <g id="axes_1">
   <g id="patch_2">
    <path d="M 51.59 294.94375 
L 493.2 294.94375 
L 493.2 43.44 
L 51.59 43.44 
z
" style="fill: #ffffff"/>
   </g>
   <g id="patch_3">
    <path d="M 71.663182 294.94375 
L 85.045303 294.94375 
L 85.045303 265.250273 
L 71.663182 265.250273 
z
" clip-path="url(#pf97f1727c9)" style="fill: #378add; fill-opacity: 0.75; stroke: #000000; stroke-linejoin: miter"/>
   </g>
   <g id="patch_4">
    <path d="M 85.045303 294.94375 
L 98.427424 294.94375 
L 98.427424 281.086794 
L 85.045303 281.086794 
z
" clip-path="url(#pf97f1727c9)" style="fill: #378add; fill-opacity: 0.75; stroke: #000000; stroke-linejoin: miter"/>
   </g>
   <g id="patch_5">
    <path d="M 98.427424 294.94375 
L 111.809545 294.94375 
L 111.809545 285.045924 
L 98.427424 285.045924 
z
" clip-path="url(#pf97f1727c9)" style="fill: #378add; fill-opacity: 0.75; stroke: #000000; stroke-linejoin: miter"/>
   </g>
   <g id="patch_6">
    <path d="M 111.809545 294.94375 
L 125.191667 294.94375 
L 125.191667 281.086794 
L 111.809545 281.086794 
z
" clip-path="url(#pf97f1727c9)" style="fill: #378add; fill-opacity: 0.75; stroke: #000000; stroke-linejoin: miter"/>
   </g>
   <g id="patch_7">
    <path d="M 125.191667 294.94375 
L 138.573788 294.94375 
L 138.573788 291.974402 
L 125.191667 291.974402 
z
" clip-path="url(#pf97f1727c9)" style="fill: #378add; fill-opacity: 0.75; stroke: #000000; stroke-linejoin: miter"/>
   </g>
   <g id="patch_8">
    <path d="M 138.573788 294.94375 
L 151.955909 294.94375 
L 151.955909 266.240056 
L 138.573788 266.240056 
z
" clip-path="url(#pf97f1727c9)" style="fill: #378add; fill-opacity: 0.75; stroke: #000000; stroke-linejoin: miter"/>
   </g>
   <g id="patch_9">
    <path d="M 151.955909 294.94375 
L 165.33803 294.94375 
L 165.33803 256.34223 
L 151.955909 256.34223 
z
" clip-path="url(#pf97f1727c9)" style="fill: #378add; fill-opacity: 0.75; stroke: #000000; stroke-linejoin: miter"/>
   </g>
   <g id="patch_10">
    <path d="M 165.33803 294.94375 
L 178.720152 294.94375 
L 178.720152 230.607883 
L 165.33803 230.607883 
z
" clip-path="url(#pf97f1727c9)" style="fill: #378add; fill-opacity: 0.75; stroke: #000000; stroke-linejoin: miter"/>
   </g>
   <g id="patch_11">
    <path d="M 178.720152 294.94375 
L 192.102273 294.94375 
L 192.102273 222.689623 
L 178.720152 222.689623 
z
" clip-path="url(#pf97f1727c9)" style="fill: #378add; fill-opacity: 0.75; stroke: #000000; stroke-linejoin: miter"/>
   </g>
   <g id="patch_12">
    <path d="M 192.102273 294.94375 
L 205.484394 294.94375 
L 205.484394 253.372882 
L 192.102273 253.372882 
z
" clip-path="url(#pf97f1727c9)" style="fill: #378add; fill-opacity: 0.75; stroke: #000000; stroke-linejoin: miter"/>
   </g>
   <g id="patch_13">
    <path d="M 205.484394 294.94375 
L 218.866515 294.94375 
L 218.866515 55.416369 
L 205.484394 55.416369 
z
" clip-path="url(#pf97f1727c9)" style="fill: #378add; fill-opacity: 0.75; stroke: #000000; stroke-linejoin: miter"/>
   </g>
   <g id="patch_14">
    <path d="M 218.866515 294.94375 
L 232.248636 294.94375 
L 232.248636 233.577231 
L 218.866515 233.577231 
z
" clip-path="url(#pf97f1727c9)" style="fill: #378add; fill-opacity: 0.75; stroke: #000000; stroke-linejoin: miter"/>
   </g>
   <g id="patch_15">
    <path d="M 232.248636 294.94375 
L 245.630758 294.94375 
L 245.630758 262.280925 
L 232.248636 262.280925 
z
" clip-path="url(#pf97f1727c9)" style="fill: #378add; fill-opacity: 0.75; stroke: #000000; stroke-linejoin: miter"/>
   </g>
   <g id="patch_16">
    <path d="M 245.630758 294.94375 
L 259.012879 294.94375 
L 259.012879 248.423969 
L 245.630758 248.423969 
z
" clip-path="url(#pf97f1727c9)" style="fill: #378add; fill-opacity: 0.75; stroke: #000000; stroke-linejoin: miter"/>
   </g>
   <g id="patch_17">
    <path d="M 259.012879 294.94375 
L 272.395 294.94375 
L 272.395 257.332012 
L 259.012879 257.332012 
z
" clip-path="url(#pf97f1727c9)" style="fill: #378add; fill-opacity: 0.75; stroke: #000000; stroke-linejoin: miter"/>
   </g>
   <g id="patch_18">
    <path d="M 272.395 294.94375 
L 285.777121 294.94375 
L 285.777121 274.158316 
L 272.395 274.158316 
z
" clip-path="url(#pf97f1727c9)" style="fill: #378add; fill-opacity: 0.75; stroke: #000000; stroke-linejoin: miter"/>
   </g>
   <g id="patch_19">
    <path d="M 285.777121 294.94375 
L 299.159242 294.94375 
L 299.159242 267.229838 
L 285.777121 267.229838 
z
" clip-path="url(#pf97f1727c9)" style="fill: #378add; fill-opacity: 0.75; stroke: #000000; stroke-linejoin: miter"/>
   </g>
   <g id="patch_20">
    <path d="M 299.159242 294.94375 
L 312.541364 294.94375 
L 312.541364 274.158316 
L 299.159242 274.158316 
z
" clip-path="url(#pf97f1727c9)" style="fill: #378add; fill-opacity: 0.75; stroke: #000000; stroke-linejoin: miter"/>
   </g>
   <g id="patch_21">
    <path d="M 312.541364 294.94375 
L 325.923485 294.94375 
L 325.923485 279.107229 
L 312.541364 279.107229 
z
" clip-path="url(#pf97f1727c9)" style="fill: #378add; fill-opacity: 0.75; stroke: #000000; stroke-linejoin: miter"/>
   </g>
   <g id="patch_22">
    <path d="M 325.923485 294.94375 
L 339.305606 294.94375 
L 339.305606 281.086794 
L 325.923485 281.086794 
z
" clip-path="url(#pf97f1727c9)" style="fill: #378add; fill-opacity: 0.75; stroke: #000000; stroke-linejoin: miter"/>
   </g>
   <g id="patch_23">
    <path d="M 339.305606 294.94375 
L 352.687727 294.94375 
L 352.687727 280.097012 
L 339.305606 280.097012 
z
" clip-path="url(#pf97f1727c9)" style="fill: #378add; fill-opacity: 0.75; stroke: #000000; stroke-linejoin: miter"/>
   </g>
   <g id="patch_24">
    <path d="M 352.687727 294.94375 
L 366.069848 294.94375 
L 366.069848 288.015272 
L 352.687727 288.015272 
z
" clip-path="url(#pf97f1727c9)" style="fill: #378add; fill-opacity: 0.75; stroke: #000000; stroke-linejoin: miter"/>
   </g>
   <g id="patch_25">
    <path d="M 366.069848 294.94375 
L 379.45197 294.94375 
L 379.45197 286.035707 
L 366.069848 286.035707 
z
" clip-path="url(#pf97f1727c9)" style="fill: #378add; fill-opacity: 0.75; stroke: #000000; stroke-linejoin: miter"/>
   </g>
   <g id="patch_26">
    <path d="M 379.45197 294.94375 
L 392.834091 294.94375 
L 392.834091 287.025489 
L 379.45197 287.025489 
z
" clip-path="url(#pf97f1727c9)" style="fill: #378add; fill-opacity: 0.75; stroke: #000000; stroke-linejoin: miter"/>
   </g>
   <g id="patch_27">
    <path d="M 392.834091 294.94375 
L 406.216212 294.94375 
L 406.216212 290.98462 
L 392.834091 290.98462 
z
" clip-path="url(#pf97f1727c9)" style="fill: #378add; fill-opacity: 0.75; stroke: #000000; stroke-linejoin: miter"/>
   </g>
   <g id="patch_28">
    <path d="M 406.216212 294.94375 
L 419.598333 294.94375 
L 419.598333 294.94375 
L 406.216212 294.94375 
z
" clip-path="url(#pf97f1727c9)" style="fill: #378add; fill-opacity: 0.75; stroke: #000000; stroke-linejoin: miter"/>
   </g>
   <g id="patch_29">
    <path d="M 419.598333 294.94375 
L 432.980455 294.94375 
L 432.980455 289.994837 
L 419.598333 289.994837 
z
" clip-path="url(#pf97f1727c9)" style="fill: #378add; fill-opacity: 0.75; stroke: #000000; stroke-linejoin: miter"/>
   </g>
   <g id="patch_30">
    <path d="M 432.980455 294.94375 
L 446.362576 294.94375 
L 446.362576 293.953967 
L 432.980455 293.953967 
z
" clip-path="url(#pf97f1727c9)" style="fill: #378add; fill-opacity: 0.75; stroke: #000000; stroke-linejoin: miter"/>
   </g>
   <g id="patch_31">
    <path d="M 446.362576 294.94375 
L 459.744697 294.94375 
L 459.744697 294.94375 
L 446.362576 294.94375 
z
" clip-path="url(#pf97f1727c9)" style="fill: #378add; fill-opacity: 0.75; stroke: #000000; stroke-linejoin: miter"/>
   </g>
   <g id="patch_32">
    <path d="M 459.744697 294.94375 
L 473.126818 294.94375 
L 473.126818 293.953967 
L 459.744697 293.953967 
z
" clip-path="url(#pf97f1727c9)" style="fill: #378add; fill-opacity: 0.75; stroke: #000000; stroke-linejoin: miter"/>
   </g>
   <g id="matplotlib.axis_1">
    <g id="xtick_1">
     <g id="line2d_1">
      <defs>
       <path id="m90de92cc0d" d="M 0 0 
L 0 3.5 
" style="stroke: #000000; stroke-width: 0.8"/>
      </defs>
      <g>
       <use xlink:href="#m90de92cc0d" x="69.544374" y="294.94375" style="stroke: #000000; stroke-width: 0.8"/>
      </g>
     </g>
     <g id="text_1">
      <!-- 0 -->
      <g transform="translate(66.363124 309.542187) scale(0.1 -0.1)">
       <defs>
        <path id="DejaVuSans-30" d="M 2034 4250 
Q 1547 4250 1301 3770 
Q 1056 3291 1056 2328 
Q 1056 1369 1301 889 
Q 1547 409 2034 409 
Q 2525 409 2770 889 
Q 3016 1369 3016 2328 
Q 3016 3291 2770 3770 
Q 2525 4250 2034 4250 
z
M 2034 4750 
Q 2819 4750 3233 4129 
Q 3647 3509 3647 2328 
Q 3647 1150 3233 529 
Q 2819 -91 2034 -91 
Q 1250 -91 836 529 
Q 422 1150 422 2328 
Q 422 3509 836 4129 
Q 1250 4750 2034 4750 
z
" transform="scale(0.015625)"/>
       </defs>
       <use xlink:href="#DejaVuSans-30"/>
      </g>
     </g>
    </g>
    <g id="xtick_2">
     <g id="line2d_2">
      <g>
       <use xlink:href="#m90de92cc0d" x="119.99218" y="294.94375" style="stroke: #000000; stroke-width: 0.8"/>
      </g>
     </g>
     <g id="text_2">
      <!-- 10 -->
      <g transform="translate(113.62968 309.542187) scale(0.1 -0.1)">
       <defs>
        <path id="DejaVuSans-31" d="M 794 531 
L 1825 531 
L 1825 4091 
L 703 3866 
L 703 4441 
L 1819 4666 
L 2450 4666 
L 2450 531 
L 3481 531 
L 3481 0 
L 794 0 
L 794 531 
z
" transform="scale(0.015625)"/>
       </defs>
       <use xlink:href="#DejaVuSans-31"/>
       <use xlink:href="#DejaVuSans-30" transform="translate(63.623047 0)"/>
      </g>
     </g>
    </g>
    <g id="xtick_3">
     <g id="line2d_3">
      <g>
       <use xlink:href="#m90de92cc0d" x="170.439985" y="294.94375" style="stroke: #000000; stroke-width: 0.8"/>
      </g>
     </g>
     <g id="text_3">
      <!-- 20 -->
      <g transform="translate(164.077485 309.542187) scale(0.1 -0.1)">
       <defs>
        <path id="DejaVuSans-32" d="M 1228 531 
L 3431 531 
L 3431 0 
L 469 0 
L 469 531 
Q 828 903 1448 1529 
Q 2069 2156 2228 2338 
Q 2531 2678 2651 2914 
Q 2772 3150 2772 3378 
Q 2772 3750 2511 3984 
Q 2250 4219 1831 4219 
Q 1534 4219 1204 4116 
Q 875 4013 500 3803 
L 500 4441 
Q 881 4594 1212 4672 
Q 1544 4750 1819 4750 
Q 2544 4750 2975 4387 
Q 3406 4025 3406 3419 
Q 3406 3131 3298 2873 
Q 3191 2616 2906 2266 
Q 2828 2175 2409 1742 
Q 1991 1309 1228 531 
z
" transform="scale(0.015625)"/>
       </defs>
       <use xlink:href="#DejaVuSans-32"/>
       <use xlink:href="#DejaVuSans-30" transform="translate(63.623047 0)"/>
      </g>
     </g>
    </g>
    <g id="xtick_4">
     <g id="line2d_4">
      <g>
       <use xlink:href="#m90de92cc0d" x="220.887791" y="294.94375" style="stroke: #000000; stroke-width: 0.8"/>
      </g>
     </g>
     <g id="text_4">
      <!-- 30 -->
      <g transform="translate(214.525291 309.542187) scale(0.1 -0.1)">
       <defs>
        <path id="DejaVuSans-33" d="M 2597 2516 
Q 3050 2419 3304 2112 
Q 3559 1806 3559 1356 
Q 3559 666 3084 287 
Q 2609 -91 1734 -91 
Q 1441 -91 1130 -33 
Q 819 25 488 141 
L 488 750 
Q 750 597 1062 519 
Q 1375 441 1716 441 
Q 2309 441 2620 675 
Q 2931 909 2931 1356 
Q 2931 1769 2642 2001 
Q 2353 2234 1838 2234 
L 1294 2234 
L 1294 2753 
L 1863 2753 
Q 2328 2753 2575 2939 
Q 2822 3125 2822 3475 
Q 2822 3834 2567 4026 
Q 2313 4219 1838 4219 
Q 1578 4219 1281 4162 
Q 984 4106 628 3988 
L 628 4550 
Q 988 4650 1302 4700 
Q 1616 4750 1894 4750 
Q 2613 4750 3031 4423 
Q 3450 4097 3450 3541 
Q 3450 3153 3228 2886 
Q 3006 2619 2597 2516 
z
" transform="scale(0.015625)"/>
       </defs>
       <use xlink:href="#DejaVuSans-33"/>
       <use xlink:href="#DejaVuSans-30" transform="translate(63.623047 0)"/>
      </g>
     </g>
    </g>
    <g id="xtick_5">
     <g id="line2d_5">
      <g>
       <use xlink:href="#m90de92cc0d" x="271.335596" y="294.94375" style="stroke: #000000; stroke-width: 0.8"/>
      </g>
     </g>
     <g id="text_5">
      <!-- 40 -->
      <g transform="translate(264.973096 309.542187) scale(0.1 -0.1)">
       <defs>
        <path id="DejaVuSans-34" d="M 2419 4116 
L 825 1625 
L 2419 1625 
L 2419 4116 
z
M 2253 4666 
L 3047 4666 
L 3047 1625 
L 3713 1625 
L 3713 1100 
L 3047 1100 
L 3047 0 
L 2419 0 
L 2419 1100 
L 313 1100 
L 313 1709 
L 2253 4666 
z
" transform="scale(0.015625)"/>
       </defs>
       <use xlink:href="#DejaVuSans-34"/>
       <use xlink:href="#DejaVuSans-30" transform="translate(63.623047 0)"/>
      </g>
     </g>
    </g>
    <g id="xtick_6">
     <g id="line2d_6">
      <g>
       <use xlink:href="#m90de92cc0d" x="321.783402" y="294.94375" style="stroke: #000000; stroke-width: 0.8"/>
      </g>
     </g>
     <g id="text_6">
      <!-- 50 -->
      <g transform="translate(315.420902 309.542187) scale(0.1 -0.1)">
       <defs>
        <path id="DejaVuSans-35" d="M 691 4666 
L 3169 4666 
L 3169 4134 
L 1269 4134 
L 1269 2991 
Q 1406 3038 1543 3061 
Q 1681 3084 1819 3084 
Q 2600 3084 3056 2656 
Q 3513 2228 3513 1497 
Q 3513 744 3044 326 
Q 2575 -91 1722 -91 
Q 1428 -91 1123 -41 
Q 819 9 494 109 
L 494 744 
Q 775 591 1075 516 
Q 1375 441 1709 441 
Q 2250 441 2565 725 
Q 2881 1009 2881 1497 
Q 2881 1984 2565 2268 
Q 2250 2553 1709 2553 
Q 1456 2553 1204 2497 
Q 953 2441 691 2322 
L 691 4666 
z
" transform="scale(0.015625)"/>
       </defs>
       <use xlink:href="#DejaVuSans-35"/>
       <use xlink:href="#DejaVuSans-30" transform="translate(63.623047 0)"/>
      </g>
     </g>
    </g>
    <g id="xtick_7">
     <g id="line2d_7">
      <g>
       <use xlink:href="#m90de92cc0d" x="372.231207" y="294.94375" style="stroke: #000000; stroke-width: 0.8"/>
      </g>
     </g>
     <g id="text_7">
      <!-- 60 -->
      <g transform="translate(365.868707 309.542187) scale(0.1 -0.1)">
       <defs>
        <path id="DejaVuSans-36" d="M 2113 2584 
Q 1688 2584 1439 2293 
Q 1191 2003 1191 1497 
Q 1191 994 1439 701 
Q 1688 409 2113 409 
Q 2538 409 2786 701 
Q 3034 994 3034 1497 
Q 3034 2003 2786 2293 
Q 2538 2584 2113 2584 
z
M 3366 4563 
L 3366 3988 
Q 3128 4100 2886 4159 
Q 2644 4219 2406 4219 
Q 1781 4219 1451 3797 
Q 1122 3375 1075 2522 
Q 1259 2794 1537 2939 
Q 1816 3084 2150 3084 
Q 2853 3084 3261 2657 
Q 3669 2231 3669 1497 
Q 3669 778 3244 343 
Q 2819 -91 2113 -91 
Q 1303 -91 875 529 
Q 447 1150 447 2328 
Q 447 3434 972 4092 
Q 1497 4750 2381 4750 
Q 2619 4750 2861 4703 
Q 3103 4656 3366 4563 
z
" transform="scale(0.015625)"/>
       </defs>
       <use xlink:href="#DejaVuSans-36"/>
       <use xlink:href="#DejaVuSans-30" transform="translate(63.623047 0)"/>
      </g>
     </g>
    </g>
    <g id="xtick_8">
     <g id="line2d_8">
      <g>
       <use xlink:href="#m90de92cc0d" x="422.679013" y="294.94375" style="stroke: #000000; stroke-width: 0.8"/>
      </g>
     </g>
     <g id="text_8">
      <!-- 70 -->
      <g transform="translate(416.316513 309.542187) scale(0.1 -0.1)">
       <defs>
        <path id="DejaVuSans-37" d="M 525 4666 
L 3525 4666 
L 3525 4397 
L 1831 0 
L 1172 0 
L 2766 4134 
L 525 4134 
L 525 4666 
z
" transform="scale(0.015625)"/>
       </defs>
       <use xlink:href="#DejaVuSans-37"/>
       <use xlink:href="#DejaVuSans-30" transform="translate(63.623047 0)"/>
      </g>
     </g>
    </g>
    <g id="xtick_9">
     <g id="line2d_9">
      <g>
       <use xlink:href="#m90de92cc0d" x="473.126818" y="294.94375" style="stroke: #000000; stroke-width: 0.8"/>
      </g>
     </g>
     <g id="text_9">
      <!-- 80 -->
      <g transform="translate(466.764318 309.542187) scale(0.1 -0.1)">
       <defs>
        <path id="DejaVuSans-38" d="M 2034 2216 
Q 1584 2216 1326 1975 
Q 1069 1734 1069 1313 
Q 1069 891 1326 650 
Q 1584 409 2034 409 
Q 2484 409 2743 651 
Q 3003 894 3003 1313 
Q 3003 1734 2745 1975 
Q 2488 2216 2034 2216 
z
M 1403 2484 
Q 997 2584 770 2862 
Q 544 3141 544 3541 
Q 544 4100 942 4425 
Q 1341 4750 2034 4750 
Q 2731 4750 3128 4425 
Q 3525 4100 3525 3541 
Q 3525 3141 3298 2862 
Q 3072 2584 2669 2484 
Q 3125 2378 3379 2068 
Q 3634 1759 3634 1313 
Q 3634 634 3220 271 
Q 2806 -91 2034 -91 
Q 1263 -91 848 271 
Q 434 634 434 1313 
Q 434 1759 690 2068 
Q 947 2378 1403 2484 
z
M 1172 3481 
Q 1172 3119 1398 2916 
Q 1625 2713 2034 2713 
Q 2441 2713 2670 2916 
Q 2900 3119 2900 3481 
Q 2900 3844 2670 4047 
Q 2441 4250 2034 4250 
Q 1625 4250 1398 4047 
Q 1172 3844 1172 3481 
z
" transform="scale(0.015625)"/>
       </defs>
       <use xlink:href="#DejaVuSans-38"/>
       <use xlink:href="#DejaVuSans-30" transform="translate(63.623047 0)"/>
      </g>
     </g>
    </g>
    <g id="text_10">
     <!-- Возраст -->
     <g transform="translate(249.241719 323.980156) scale(0.11 -0.11)">
      <defs>
       <path id="DejaVuSans-412" d="M 1259 2228 
L 1259 519 
L 2272 519 
Q 2781 519 3026 730 
Q 3272 941 3272 1375 
Q 3272 1813 3026 2020 
Q 2781 2228 2272 2228 
L 1259 2228 
z
M 1259 4147 
L 1259 2741 
L 2194 2741 
Q 2656 2741 2882 2914 
Q 3109 3088 3109 3444 
Q 3109 3797 2882 3972 
Q 2656 4147 2194 4147 
L 1259 4147 
z
M 628 4666 
L 2241 4666 
Q 2963 4666 3353 4366 
Q 3744 4066 3744 3513 
Q 3744 3084 3544 2831 
Q 3344 2578 2956 2516 
Q 3422 2416 3680 2098 
Q 3938 1781 3938 1306 
Q 3938 681 3513 340 
Q 3088 0 2303 0 
L 628 0 
L 628 4666 
z
" transform="scale(0.015625)"/>
       <path id="DejaVuSans-43e" d="M 1959 3097 
Q 1497 3097 1228 2736 
Q 959 2375 959 1747 
Q 959 1119 1226 758 
Q 1494 397 1959 397 
Q 2419 397 2687 759 
Q 2956 1122 2956 1747 
Q 2956 2369 2687 2733 
Q 2419 3097 1959 3097 
z
M 1959 3584 
Q 2709 3584 3137 3096 
Q 3566 2609 3566 1747 
Q 3566 888 3137 398 
Q 2709 -91 1959 -91 
Q 1206 -91 779 398 
Q 353 888 353 1747 
Q 353 2609 779 3096 
Q 1206 3584 1959 3584 
z
" transform="scale(0.015625)"/>
       <path id="DejaVuSans-437" d="M 2206 1888 
Q 2594 1813 2809 1584 
Q 3025 1356 3025 1019 
Q 3025 478 2622 193 
Q 2219 -91 1475 -91 
Q 1225 -91 961 -47 
Q 697 -3 416 84 
L 416 619 
Q 638 503 903 445 
Q 1169 388 1459 388 
Q 1931 388 2195 563 
Q 2459 738 2459 1019 
Q 2459 1294 2225 1461 
Q 1991 1628 1563 1628 
L 1100 1628 
L 1100 2103 
L 1584 2103 
Q 1947 2103 2158 2242 
Q 2369 2381 2369 2600 
Q 2369 2800 2151 2944 
Q 1934 3088 1563 3088 
Q 1341 3088 1089 3047 
Q 838 3006 534 2916 
L 534 3438 
Q 841 3513 1106 3550 
Q 1372 3588 1609 3588 
Q 2222 3588 2576 3342 
Q 2931 3097 2931 2656 
Q 2931 2366 2743 2164 
Q 2556 1963 2206 1888 
z
" transform="scale(0.015625)"/>
       <path id="DejaVuSans-440" d="M 1159 525 
L 1159 -1331 
L 581 -1331 
L 581 3500 
L 1159 3500 
L 1159 2969 
Q 1341 3281 1617 3432 
Q 1894 3584 2278 3584 
Q 2916 3584 3314 3078 
Q 3713 2572 3713 1747 
Q 3713 922 3314 415 
Q 2916 -91 2278 -91 
Q 1894 -91 1617 61 
Q 1341 213 1159 525 
z
M 3116 1747 
Q 3116 2381 2855 2742 
Q 2594 3103 2138 3103 
Q 1681 3103 1420 2742 
Q 1159 2381 1159 1747 
Q 1159 1113 1420 752 
Q 1681 391 2138 391 
Q 2594 391 2855 752 
Q 3116 1113 3116 1747 
z
" transform="scale(0.015625)"/>
       <path id="DejaVuSans-430" d="M 2194 1759 
Q 1497 1759 1228 1600 
Q 959 1441 959 1056 
Q 959 750 1161 570 
Q 1363 391 1709 391 
Q 2188 391 2477 730 
Q 2766 1069 2766 1631 
L 2766 1759 
L 2194 1759 
z
M 3341 1997 
L 3341 0 
L 2766 0 
L 2766 531 
Q 2569 213 2275 61 
Q 1981 -91 1556 -91 
Q 1019 -91 701 211 
Q 384 513 384 1019 
Q 384 1609 779 1909 
Q 1175 2209 1959 2209 
L 2766 2209 
L 2766 2266 
Q 2766 2663 2505 2880 
Q 2244 3097 1772 3097 
Q 1472 3097 1187 3025 
Q 903 2953 641 2809 
L 641 3341 
Q 956 3463 1253 3523 
Q 1550 3584 1831 3584 
Q 2591 3584 2966 3190 
Q 3341 2797 3341 1997 
z
" transform="scale(0.015625)"/>
       <path id="DejaVuSans-441" d="M 3122 3366 
L 3122 2828 
Q 2878 2963 2633 3030 
Q 2388 3097 2138 3097 
Q 1578 3097 1268 2742 
Q 959 2388 959 1747 
Q 959 1106 1268 751 
Q 1578 397 2138 397 
Q 2388 397 2633 464 
Q 2878 531 3122 666 
L 3122 134 
Q 2881 22 2623 -34 
Q 2366 -91 2075 -91 
Q 1284 -91 818 406 
Q 353 903 353 1747 
Q 353 2603 823 3093 
Q 1294 3584 2113 3584 
Q 2378 3584 2631 3529 
Q 2884 3475 3122 3366 
z
" transform="scale(0.015625)"/>
       <path id="DejaVuSans-442" d="M 188 3500 
L 3541 3500 
L 3541 3041 
L 2147 3041 
L 2147 0 
L 1581 0 
L 1581 3041 
L 188 3041 
L 188 3500 
z
" transform="scale(0.015625)"/>
      </defs>
      <use xlink:href="#DejaVuSans-412"/>
      <use xlink:href="#DejaVuSans-43e" transform="translate(68.603516 0)"/>
      <use xlink:href="#DejaVuSans-437" transform="translate(129.785156 0)"/>
      <use xlink:href="#DejaVuSans-440" transform="translate(182.958984 0)"/>
      <use xlink:href="#DejaVuSans-430" transform="translate(246.435547 0)"/>
      <use xlink:href="#DejaVuSans-441" transform="translate(307.714844 0)"/>
      <use xlink:href="#DejaVuSans-442" transform="translate(362.695312 0)"/>
     </g>
    </g>
   </g>
   <g id="matplotlib.axis_2">
    <g id="ytick_1">
     <g id="line2d_10">
      <defs>
       <path id="m9f23ead4a9" d="M 0 0 
L -3.5 0 
" style="stroke: #000000; stroke-width: 0.8"/>
      </defs>
      <g>
       <use xlink:href="#m9f23ead4a9" x="51.59" y="294.94375" style="stroke: #000000; stroke-width: 0.8"/>
      </g>
     </g>
     <g id="text_11">
      <!-- 0 -->
      <g transform="translate(38.2275 298.742969) scale(0.1 -0.1)">
       <use xlink:href="#DejaVuSans-30"/>
      </g>
     </g>
    </g>
    <g id="ytick_2">
     <g id="line2d_11">
      <g>
       <use xlink:href="#m9f23ead4a9" x="51.59" y="245.454622" style="stroke: #000000; stroke-width: 0.8"/>
      </g>
     </g>
     <g id="text_12">
      <!-- 50 -->
      <g transform="translate(31.865 249.25384) scale(0.1 -0.1)">
       <use xlink:href="#DejaVuSans-35"/>
       <use xlink:href="#DejaVuSans-30" transform="translate(63.623047 0)"/>
      </g>
     </g>
    </g>
    <g id="ytick_3">
     <g id="line2d_12">
      <g>
       <use xlink:href="#m9f23ead4a9" x="51.59" y="195.965493" style="stroke: #000000; stroke-width: 0.8"/>
      </g>
     </g>
     <g id="text_13">
      <!-- 100 -->
      <g transform="translate(25.5025 199.764712) scale(0.1 -0.1)">
       <use xlink:href="#DejaVuSans-31"/>
       <use xlink:href="#DejaVuSans-30" transform="translate(63.623047 0)"/>
       <use xlink:href="#DejaVuSans-30" transform="translate(127.246094 0)"/>
      </g>
     </g>
    </g>
    <g id="ytick_4">
     <g id="line2d_13">
      <g>
       <use xlink:href="#m9f23ead4a9" x="51.59" y="146.476365" style="stroke: #000000; stroke-width: 0.8"/>
      </g>
     </g>
     <g id="text_14">
      <!-- 150 -->
      <g transform="translate(25.5025 150.275584) scale(0.1 -0.1)">
       <use xlink:href="#DejaVuSans-31"/>
       <use xlink:href="#DejaVuSans-35" transform="translate(63.623047 0)"/>
       <use xlink:href="#DejaVuSans-30" transform="translate(127.246094 0)"/>
      </g>
     </g>
    </g>
    <g id="ytick_5">
     <g id="line2d_14">
      <g>
       <use xlink:href="#m9f23ead4a9" x="51.59" y="96.987237" style="stroke: #000000; stroke-width: 0.8"/>
      </g>
     </g>
     <g id="text_15">
      <!-- 200 -->
      <g transform="translate(25.5025 100.786456) scale(0.1 -0.1)">
       <use xlink:href="#DejaVuSans-32"/>
       <use xlink:href="#DejaVuSans-30" transform="translate(63.623047 0)"/>
       <use xlink:href="#DejaVuSans-30" transform="translate(127.246094 0)"/>
      </g>
     </g>
    </g>
    <g id="ytick_6">
     <g id="line2d_15">
      <g>
       <use xlink:href="#m9f23ead4a9" x="51.59" y="47.498109" style="stroke: #000000; stroke-width: 0.8"/>
      </g>
     </g>
     <g id="text_16">
      <!-- 250 -->
      <g transform="translate(25.5025 51.297327) scale(0.1 -0.1)">
       <use xlink:href="#DejaVuSans-32"/>
       <use xlink:href="#DejaVuSans-35" transform="translate(63.623047 0)"/>
       <use xlink:href="#DejaVuSans-30" transform="translate(127.246094 0)"/>
      </g>
     </g>
    </g>
    <g id="text_17">
     <!-- Количество пассажиров -->
     <g transform="translate(19.214844 239.780937) rotate(-90) scale(0.11 -0.11)">
      <defs>
       <path id="DejaVuSans-41a" d="M 628 4666 
L 1259 4666 
L 1259 2359 
L 3516 4666 
L 4325 4666 
L 2522 2822 
L 4419 0 
L 3731 0 
L 2113 2403 
L 1259 1531 
L 1259 0 
L 628 0 
L 628 4666 
z
" transform="scale(0.015625)"/>
       <path id="DejaVuSans-43b" d="M 238 0 
L 238 478 
Q 806 566 981 959 
Q 1194 1513 1194 2928 
L 1194 3500 
L 3559 3500 
L 3559 0 
L 2984 0 
L 2984 3041 
L 1769 3041 
L 1769 2694 
Q 1769 1344 1494 738 
Q 1200 91 238 0 
z
" transform="scale(0.015625)"/>
       <path id="DejaVuSans-438" d="M 3578 3500 
L 3578 0 
L 3006 0 
L 3006 2809 
L 1319 0 
L 581 0 
L 581 3500 
L 1153 3500 
L 1153 697 
L 2838 3500 
L 3578 3500 
z
" transform="scale(0.015625)"/>
       <path id="DejaVuSans-447" d="M 2625 0 
L 2625 1472 
L 1553 1472 
Q 1075 1472 756 1769 
Q 469 2038 469 2613 
L 469 3500 
L 1044 3500 
L 1044 2666 
Q 1044 2300 1206 2116 
Q 1372 1931 1697 1931 
L 2625 1931 
L 2625 3500 
L 3200 3500 
L 3200 0 
L 2625 0 
z
" transform="scale(0.015625)"/>
       <path id="DejaVuSans-435" d="M 3597 1894 
L 3597 1613 
L 953 1613 
Q 991 1019 1311 708 
Q 1631 397 2203 397 
Q 2534 397 2845 478 
Q 3156 559 3463 722 
L 3463 178 
Q 3153 47 2828 -22 
Q 2503 -91 2169 -91 
Q 1331 -91 842 396 
Q 353 884 353 1716 
Q 353 2575 817 3079 
Q 1281 3584 2069 3584 
Q 2775 3584 3186 3129 
Q 3597 2675 3597 1894 
z
M 3022 2063 
Q 3016 2534 2758 2815 
Q 2500 3097 2075 3097 
Q 1594 3097 1305 2825 
Q 1016 2553 972 2059 
L 3022 2063 
z
" transform="scale(0.015625)"/>
       <path id="DejaVuSans-432" d="M 1156 1613 
L 1156 459 
L 1975 459 
Q 2369 459 2575 607 
Q 2781 756 2781 1038 
Q 2781 1319 2575 1466 
Q 2369 1613 1975 1613 
L 1156 1613 
z
M 1156 3041 
L 1156 2072 
L 1913 2072 
Q 2238 2072 2444 2201 
Q 2650 2331 2650 2563 
Q 2650 2794 2444 2917 
Q 2238 3041 1913 3041 
L 1156 3041 
z
M 581 3500 
L 1950 3500 
Q 2566 3500 2897 3275 
Q 3228 3050 3228 2634 
Q 3228 2313 3059 2123 
Q 2891 1934 2559 1888 
Q 2956 1813 3175 1575 
Q 3394 1338 3394 981 
Q 3394 513 3033 256 
Q 2672 0 2003 0 
L 581 0 
L 581 3500 
z
" transform="scale(0.015625)"/>
       <path id="DejaVuSans-20" transform="scale(0.015625)"/>
       <path id="DejaVuSans-43f" d="M 3603 3500 
L 3603 0 
L 3025 0 
L 3025 3041 
L 1159 3041 
L 1159 0 
L 581 0 
L 581 3500 
L 3603 3500 
z
" transform="scale(0.015625)"/>
       <path id="DejaVuSans-436" d="M 2597 3500 
L 3169 3500 
L 3169 1856 
L 4697 3500 
L 5366 3500 
L 4109 2153 
L 5547 0 
L 4931 0 
L 3753 1769 
L 3169 1141 
L 3169 0 
L 2597 0 
L 2597 1141 
L 2013 1769 
L 834 0 
L 219 0 
L 1656 2153 
L 400 3500 
L 1069 3500 
L 2597 1856 
L 2597 3500 
z
" transform="scale(0.015625)"/>
      </defs>
      <use xlink:href="#DejaVuSans-41a"/>
      <use xlink:href="#DejaVuSans-43e" transform="translate(70.996094 0)"/>
      <use xlink:href="#DejaVuSans-43b" transform="translate(132.177734 0)"/>
      <use xlink:href="#DejaVuSans-438" transform="translate(196.09375 0)"/>
      <use xlink:href="#DejaVuSans-447" transform="translate(261.083984 0)"/>
      <use xlink:href="#DejaVuSans-435" transform="translate(320.166016 0)"/>
      <use xlink:href="#DejaVuSans-441" transform="translate(381.689453 0)"/>
      <use xlink:href="#DejaVuSans-442" transform="translate(436.669922 0)"/>
      <use xlink:href="#DejaVuSans-432" transform="translate(494.921875 0)"/>
      <use xlink:href="#DejaVuSans-43e" transform="translate(553.857422 0)"/>
      <use xlink:href="#DejaVuSans-20" transform="translate(615.039062 0)"/>
      <use xlink:href="#DejaVuSans-43f" transform="translate(646.826172 0)"/>
      <use xlink:href="#DejaVuSans-430" transform="translate(712.207031 0)"/>
      <use xlink:href="#DejaVuSans-441" transform="translate(773.486328 0)"/>
      <use xlink:href="#DejaVuSans-441" transform="translate(828.466797 0)"/>
      <use xlink:href="#DejaVuSans-430" transform="translate(883.447266 0)"/>
      <use xlink:href="#DejaVuSans-436" transform="translate(944.726562 0)"/>
      <use xlink:href="#DejaVuSans-438" transform="translate(1034.814453 0)"/>
      <use xlink:href="#DejaVuSans-440" transform="translate(1099.804688 0)"/>
      <use xlink:href="#DejaVuSans-43e" transform="translate(1163.28125 0)"/>
      <use xlink:href="#DejaVuSans-432" transform="translate(1224.462891 0)"/>
     </g>
    </g>
   </g>
   <g id="patch_33">
    <path d="M 51.59 294.94375 
L 51.59 43.44 
" style="fill: none; stroke: #000000; stroke-width: 0.8; stroke-linejoin: miter; stroke-linecap: square"/>
   </g>
   <g id="patch_34">
    <path d="M 493.2 294.94375 
L 493.2 43.44 
" style="fill: none; stroke: #000000; stroke-width: 0.8; stroke-linejoin: miter; stroke-linecap: square"/>
   </g>
   <g id="patch_35">
    <path d="M 51.59 294.94375 
L 493.2 294.94375 
" style="fill: none; stroke: #000000; stroke-width: 0.8; stroke-linejoin: miter; stroke-linecap: square"/>
   </g>
   <g id="patch_36">
    <path d="M 51.59 43.44 
L 493.2 43.44 
" style="fill: none; stroke: #000000; stroke-width: 0.8; stroke-linejoin: miter; stroke-linecap: square"/>
   </g>
   <g id="text_18">
    <!-- 30 -->
    <g transform="translate(72.627992 260.30136) scale(0.09 -0.09)">
     <use xlink:href="#DejaVuSans-33"/>
     <use xlink:href="#DejaVuSans-30" transform="translate(63.623047 0)"/>
    </g>
   </g>
   <g id="text_19">
    <!-- 14 -->
    <g transform="translate(86.010114 276.137881) scale(0.09 -0.09)">
     <use xlink:href="#DejaVuSans-31"/>
     <use xlink:href="#DejaVuSans-34" transform="translate(63.623047 0)"/>
    </g>
   </g>
   <g id="text_20">
    <!-- 10 -->
    <g transform="translate(99.392235 280.097012) scale(0.09 -0.09)">
     <use xlink:href="#DejaVuSans-31"/>
     <use xlink:href="#DejaVuSans-30" transform="translate(63.623047 0)"/>
    </g>
   </g>
   <g id="text_21">
    <!-- 14 -->
    <g transform="translate(112.774356 276.137881) scale(0.09 -0.09)">
     <use xlink:href="#DejaVuSans-31"/>
     <use xlink:href="#DejaVuSans-34" transform="translate(63.623047 0)"/>
    </g>
   </g>
   <g id="text_22">
    <!-- 3 -->
    <g transform="translate(129.019602 287.025489) scale(0.09 -0.09)">
     <use xlink:href="#DejaVuSans-33"/>
    </g>
   </g>
   <g id="text_23">
    <!-- 29 -->
    <g transform="translate(139.538598 261.291143) scale(0.09 -0.09)">
     <defs>
      <path id="DejaVuSans-39" d="M 703 97 
L 703 672 
Q 941 559 1184 500 
Q 1428 441 1663 441 
Q 2288 441 2617 861 
Q 2947 1281 2994 2138 
Q 2813 1869 2534 1725 
Q 2256 1581 1919 1581 
Q 1219 1581 811 2004 
Q 403 2428 403 3163 
Q 403 3881 828 4315 
Q 1253 4750 1959 4750 
Q 2769 4750 3195 4129 
Q 3622 3509 3622 2328 
Q 3622 1225 3098 567 
Q 2575 -91 1691 -91 
Q 1453 -91 1209 -44 
Q 966 3 703 97 
z
M 1959 2075 
Q 2384 2075 2632 2365 
Q 2881 2656 2881 3163 
Q 2881 3666 2632 3958 
Q 2384 4250 1959 4250 
Q 1534 4250 1286 3958 
Q 1038 3666 1038 3163 
Q 1038 2656 1286 2365 
Q 1534 2075 1959 2075 
z
" transform="scale(0.015625)"/>
     </defs>
     <use xlink:href="#DejaVuSans-32"/>
     <use xlink:href="#DejaVuSans-39" transform="translate(63.623047 0)"/>
    </g>
   </g>
   <g id="text_24">
    <!-- 39 -->
    <g transform="translate(152.92072 251.393317) scale(0.09 -0.09)">
     <use xlink:href="#DejaVuSans-33"/>
     <use xlink:href="#DejaVuSans-39" transform="translate(63.623047 0)"/>
    </g>
   </g>
   <g id="text_25">
    <!-- 65 -->
    <g transform="translate(166.302841 225.65897) scale(0.09 -0.09)">
     <use xlink:href="#DejaVuSans-36"/>
     <use xlink:href="#DejaVuSans-35" transform="translate(63.623047 0)"/>
    </g>
   </g>
   <g id="text_26">
    <!-- 73 -->
    <g transform="translate(179.684962 217.74071) scale(0.09 -0.09)">
     <use xlink:href="#DejaVuSans-37"/>
     <use xlink:href="#DejaVuSans-33" transform="translate(63.623047 0)"/>
    </g>
   </g>
   <g id="text_27">
    <!-- 42 -->
    <g transform="translate(193.067083 248.423969) scale(0.09 -0.09)">
     <use xlink:href="#DejaVuSans-34"/>
     <use xlink:href="#DejaVuSans-32" transform="translate(63.623047 0)"/>
    </g>
   </g>
   <g id="text_28">
    <!-- 242 -->
    <g transform="translate(203.58608 50.467456) scale(0.09 -0.09)">
     <use xlink:href="#DejaVuSans-32"/>
     <use xlink:href="#DejaVuSans-34" transform="translate(63.623047 0)"/>
     <use xlink:href="#DejaVuSans-32" transform="translate(127.246094 0)"/>
    </g>
   </g>
   <g id="text_29">
    <!-- 62 -->
    <g transform="translate(219.831326 228.628318) scale(0.09 -0.09)">
     <use xlink:href="#DejaVuSans-36"/>
     <use xlink:href="#DejaVuSans-32" transform="translate(63.623047 0)"/>
    </g>
   </g>
   <g id="text_30">
    <!-- 33 -->
    <g transform="translate(233.213447 257.332012) scale(0.09 -0.09)">
     <use xlink:href="#DejaVuSans-33"/>
     <use xlink:href="#DejaVuSans-33" transform="translate(63.623047 0)"/>
    </g>
   </g>
   <g id="text_31">
    <!-- 47 -->
    <g transform="translate(246.595568 243.475057) scale(0.09 -0.09)">
     <use xlink:href="#DejaVuSans-34"/>
     <use xlink:href="#DejaVuSans-37" transform="translate(63.623047 0)"/>
    </g>
   </g>
   <g id="text_32">
    <!-- 38 -->
    <g transform="translate(259.977689 252.3831) scale(0.09 -0.09)">
     <use xlink:href="#DejaVuSans-33"/>
     <use xlink:href="#DejaVuSans-38" transform="translate(63.623047 0)"/>
    </g>
   </g>
   <g id="text_33">
    <!-- 21 -->
    <g transform="translate(273.359811 269.209403) scale(0.09 -0.09)">
     <use xlink:href="#DejaVuSans-32"/>
     <use xlink:href="#DejaVuSans-31" transform="translate(63.623047 0)"/>
    </g>
   </g>
   <g id="text_34">
    <!-- 28 -->
    <g transform="translate(286.741932 262.280925) scale(0.09 -0.09)">
     <use xlink:href="#DejaVuSans-32"/>
     <use xlink:href="#DejaVuSans-38" transform="translate(63.623047 0)"/>
    </g>
   </g>
   <g id="text_35">
    <!-- 21 -->
    <g transform="translate(300.124053 269.209403) scale(0.09 -0.09)">
     <use xlink:href="#DejaVuSans-32"/>
     <use xlink:href="#DejaVuSans-31" transform="translate(63.623047 0)"/>
    </g>
   </g>
   <g id="text_36">
    <!-- 16 -->
    <g transform="translate(313.506174 274.158316) scale(0.09 -0.09)">
     <use xlink:href="#DejaVuSans-31"/>
     <use xlink:href="#DejaVuSans-36" transform="translate(63.623047 0)"/>
    </g>
   </g>
   <g id="text_37">
    <!-- 14 -->
    <g transform="translate(326.888295 276.137881) scale(0.09 -0.09)">
     <use xlink:href="#DejaVuSans-31"/>
     <use xlink:href="#DejaVuSans-34" transform="translate(63.623047 0)"/>
    </g>
   </g>
   <g id="text_38">
    <!-- 15 -->
    <g transform="translate(340.270417 275.148099) scale(0.09 -0.09)">
     <use xlink:href="#DejaVuSans-31"/>
     <use xlink:href="#DejaVuSans-35" transform="translate(63.623047 0)"/>
    </g>
   </g>
   <g id="text_39">
    <!-- 7 -->
    <g transform="translate(356.515663 283.066359) scale(0.09 -0.09)">
     <use xlink:href="#DejaVuSans-37"/>
    </g>
   </g>
   <g id="text_40">
    <!-- 9 -->
    <g transform="translate(369.897784 281.086794) scale(0.09 -0.09)">
     <use xlink:href="#DejaVuSans-39"/>
    </g>
   </g>
   <g id="text_41">
    <!-- 8 -->
    <g transform="translate(383.279905 282.076577) scale(0.09 -0.09)">
     <use xlink:href="#DejaVuSans-38"/>
    </g>
   </g>
   <g id="text_42">
    <!-- 4 -->
    <g transform="translate(396.662027 286.035707) scale(0.09 -0.09)">
     <use xlink:href="#DejaVuSans-34"/>
    </g>
   </g>
   <g id="text_43">
    <!-- 5 -->
    <g transform="translate(423.426269 285.045924) scale(0.09 -0.09)">
     <use xlink:href="#DejaVuSans-35"/>
    </g>
   </g>
   <g id="text_44">
    <!-- 1 -->
    <g transform="translate(436.80839 289.005055) scale(0.09 -0.09)">
     <use xlink:href="#DejaVuSans-31"/>
    </g>
   </g>
   <g id="text_45">
    <!-- 1 -->
    <g transform="translate(463.572633 289.005055) scale(0.09 -0.09)">
     <use xlink:href="#DejaVuSans-31"/>
    </g>
   </g>
   <g id="text_46">
    <!-- Распределение пассажиров  -->
    <g transform="translate(155.452344 21.763062) scale(0.14 -0.14)">
     <defs>
      <path id="DejaVuSans-Bold-420" d="M 588 4666 
L 2584 4666 
Q 3475 4666 3951 4270 
Q 4428 3875 4428 3144 
Q 4428 2409 3951 2014 
Q 3475 1619 2584 1619 
L 1791 1619 
L 1791 0 
L 588 0 
L 588 4666 
z
M 1791 3794 
L 1791 2491 
L 2456 2491 
Q 2806 2491 2997 2661 
Q 3188 2831 3188 3144 
Q 3188 3456 2997 3625 
Q 2806 3794 2456 3794 
L 1791 3794 
z
" transform="scale(0.015625)"/>
      <path id="DejaVuSans-Bold-430" d="M 2106 1575 
Q 1756 1575 1579 1456 
Q 1403 1338 1403 1106 
Q 1403 894 1545 773 
Q 1688 653 1941 653 
Q 2256 653 2472 879 
Q 2688 1106 2688 1447 
L 2688 1575 
L 2106 1575 
z
M 3816 1997 
L 3816 0 
L 2688 0 
L 2688 519 
Q 2463 200 2181 54 
Q 1900 -91 1497 -91 
Q 953 -91 614 226 
Q 275 544 275 1050 
Q 275 1666 698 1953 
Q 1122 2241 2028 2241 
L 2688 2241 
L 2688 2328 
Q 2688 2594 2478 2717 
Q 2269 2841 1825 2841 
Q 1466 2841 1156 2769 
Q 847 2697 581 2553 
L 581 3406 
Q 941 3494 1303 3539 
Q 1666 3584 2028 3584 
Q 2975 3584 3395 3211 
Q 3816 2838 3816 1997 
z
" transform="scale(0.015625)"/>
      <path id="DejaVuSans-Bold-441" d="M 3366 3391 
L 3366 2478 
Q 3138 2634 2908 2709 
Q 2678 2784 2431 2784 
Q 1963 2784 1702 2511 
Q 1441 2238 1441 1747 
Q 1441 1256 1702 982 
Q 1963 709 2431 709 
Q 2694 709 2930 787 
Q 3166 866 3366 1019 
L 3366 103 
Q 3103 6 2833 -42 
Q 2563 -91 2291 -91 
Q 1344 -91 809 395 
Q 275 881 275 1747 
Q 275 2613 809 3098 
Q 1344 3584 2291 3584 
Q 2566 3584 2833 3536 
Q 3100 3488 3366 3391 
z
" transform="scale(0.015625)"/>
      <path id="DejaVuSans-Bold-43f" d="M 3884 3500 
L 3884 0 
L 2766 0 
L 2766 2700 
L 1656 2700 
L 1656 0 
L 538 0 
L 538 3500 
L 3884 3500 
z
" transform="scale(0.015625)"/>
      <path id="DejaVuSans-Bold-440" d="M 1656 506 
L 1656 -1331 
L 538 -1331 
L 538 3500 
L 1656 3500 
L 1656 2988 
Q 1888 3294 2169 3439 
Q 2450 3584 2816 3584 
Q 3463 3584 3878 3070 
Q 4294 2556 4294 1747 
Q 4294 938 3878 423 
Q 3463 -91 2816 -91 
Q 2450 -91 2169 54 
Q 1888 200 1656 506 
z
M 2400 2772 
Q 2041 2772 1848 2508 
Q 1656 2244 1656 1747 
Q 1656 1250 1848 986 
Q 2041 722 2400 722 
Q 2759 722 2948 984 
Q 3138 1247 3138 1747 
Q 3138 2247 2948 2509 
Q 2759 2772 2400 2772 
z
" transform="scale(0.015625)"/>
      <path id="DejaVuSans-Bold-435" d="M 4031 1759 
L 4031 1441 
L 1416 1441 
Q 1456 1047 1700 850 
Q 1944 653 2381 653 
Q 2734 653 3104 758 
Q 3475 863 3866 1075 
L 3866 213 
Q 3469 63 3072 -14 
Q 2675 -91 2278 -91 
Q 1328 -91 801 392 
Q 275 875 275 1747 
Q 275 2603 792 3093 
Q 1309 3584 2216 3584 
Q 3041 3584 3536 3087 
Q 4031 2591 4031 1759 
z
M 2881 2131 
Q 2881 2450 2695 2645 
Q 2509 2841 2209 2841 
Q 1884 2841 1681 2658 
Q 1478 2475 1428 2131 
L 2881 2131 
z
" transform="scale(0.015625)"/>
      <path id="DejaVuSans-Bold-434" d="M 547 800 
Q 903 919 1053 1314 
Q 1203 1709 1203 2838 
L 1203 3500 
L 4228 3500 
L 4228 800 
L 4809 800 
L 4809 -884 
L 4009 -884 
L 4009 0 
L 1159 0 
L 1159 -884 
L 359 -884 
L 359 800 
L 547 800 
z
M 3109 2700 
L 2322 2700 
L 2322 2603 
Q 2322 1456 2063 800 
L 3109 800 
L 3109 2700 
z
" transform="scale(0.015625)"/>
      <path id="DejaVuSans-Bold-43b" d="M 353 0 
L 353 800 
Q 906 913 1031 1278 
Q 1125 1556 1125 2928 
L 1125 3500 
L 4150 3500 
L 4150 0 
L 3031 0 
L 3031 2700 
L 2244 2700 
L 2244 2584 
Q 2244 1213 2028 813 
Q 1591 0 353 0 
z
" transform="scale(0.015625)"/>
      <path id="DejaVuSans-Bold-43d" d="M 538 3500 
L 1656 3500 
L 1656 2169 
L 2766 2169 
L 2766 3500 
L 3884 3500 
L 3884 0 
L 2766 0 
L 2766 1478 
L 1656 1478 
L 1656 0 
L 538 0 
L 538 3500 
z
" transform="scale(0.015625)"/>
      <path id="DejaVuSans-Bold-438" d="M 3947 3500 
L 3947 0 
L 2828 0 
L 2828 1863 
L 1700 0 
L 538 0 
L 538 3500 
L 1656 3500 
L 1656 1638 
L 2784 3500 
L 3947 3500 
z
" transform="scale(0.015625)"/>
      <path id="DejaVuSans-Bold-20" transform="scale(0.015625)"/>
      <path id="DejaVuSans-Bold-436" d="M 94 0 
L 1678 2078 
L 216 3500 
L 1441 3500 
L 2625 2347 
L 2625 3500 
L 3744 3500 
L 3744 2347 
L 4928 3500 
L 6153 3500 
L 4691 2078 
L 6275 0 
L 5119 0 
L 4025 1431 
L 3744 1159 
L 3744 0 
L 2625 0 
L 2625 1159 
L 2344 1431 
L 1250 0 
L 94 0 
z
" transform="scale(0.015625)"/>
      <path id="DejaVuSans-Bold-43e" d="M 2203 2784 
Q 1831 2784 1636 2517 
Q 1441 2250 1441 1747 
Q 1441 1244 1636 976 
Q 1831 709 2203 709 
Q 2569 709 2762 976 
Q 2956 1244 2956 1747 
Q 2956 2250 2762 2517 
Q 2569 2784 2203 2784 
z
M 2203 3584 
Q 3106 3584 3614 3096 
Q 4122 2609 4122 1747 
Q 4122 884 3614 396 
Q 3106 -91 2203 -91 
Q 1297 -91 786 396 
Q 275 884 275 1747 
Q 275 2609 786 3096 
Q 1297 3584 2203 3584 
z
" transform="scale(0.015625)"/>
      <path id="DejaVuSans-Bold-432" d="M 2184 2181 
Q 2378 2181 2478 2261 
Q 2578 2341 2578 2497 
Q 2578 2653 2478 2731 
Q 2378 2809 2184 2809 
L 1656 2809 
L 1656 2181 
L 2184 2181 
z
M 2222 700 
Q 2469 700 2594 798 
Q 2719 897 2719 1094 
Q 2719 1288 2594 1384 
Q 2469 1481 2222 1481 
L 1656 1481 
L 1656 700 
L 2222 700 
z
M 538 3500 
L 2141 3500 
Q 2919 3500 3267 3279 
Q 3616 3059 3616 2575 
Q 3616 2319 3487 2139 
Q 3359 1959 3119 1872 
Q 3428 1788 3598 1561 
Q 3769 1334 3769 1003 
Q 3769 497 3403 248 
Q 3038 0 2294 0 
L 538 0 
L 538 3500 
z
" transform="scale(0.015625)"/>
     </defs>
     <use xlink:href="#DejaVuSans-Bold-420"/>
     <use xlink:href="#DejaVuSans-Bold-430" transform="translate(73.291016 0)"/>
     <use xlink:href="#DejaVuSans-Bold-441" transform="translate(140.771484 0)"/>
     <use xlink:href="#DejaVuSans-Bold-43f" transform="translate(200.048828 0)"/>
     <use xlink:href="#DejaVuSans-Bold-440" transform="translate(269.140625 0)"/>
     <use xlink:href="#DejaVuSans-Bold-435" transform="translate(340.722656 0)"/>
     <use xlink:href="#DejaVuSans-Bold-434" transform="translate(408.544922 0)"/>
     <use xlink:href="#DejaVuSans-Bold-435" transform="translate(489.306641 0)"/>
     <use xlink:href="#DejaVuSans-Bold-43b" transform="translate(557.128906 0)"/>
     <use xlink:href="#DejaVuSans-Bold-435" transform="translate(630.371094 0)"/>
     <use xlink:href="#DejaVuSans-Bold-43d" transform="translate(698.193359 0)"/>
     <use xlink:href="#DejaVuSans-Bold-438" transform="translate(767.285156 0)"/>
     <use xlink:href="#DejaVuSans-Bold-435" transform="translate(837.353516 0)"/>
     <use xlink:href="#DejaVuSans-Bold-20" transform="translate(905.175781 0)"/>
     <use xlink:href="#DejaVuSans-Bold-43f" transform="translate(939.990234 0)"/>
     <use xlink:href="#DejaVuSans-Bold-430" transform="translate(1009.082031 0)"/>
     <use xlink:href="#DejaVuSans-Bold-441" transform="translate(1076.5625 0)"/>
     <use xlink:href="#DejaVuSans-Bold-441" transform="translate(1135.839844 0)"/>
     <use xlink:href="#DejaVuSans-Bold-430" transform="translate(1195.117188 0)"/>
     <use xlink:href="#DejaVuSans-Bold-436" transform="translate(1262.597656 0)"/>
     <use xlink:href="#DejaVuSans-Bold-438" transform="translate(1362.109375 0)"/>
     <use xlink:href="#DejaVuSans-Bold-440" transform="translate(1432.177734 0)"/>
     <use xlink:href="#DejaVuSans-Bold-43e" transform="translate(1503.759766 0)"/>
     <use xlink:href="#DejaVuSans-Bold-432" transform="translate(1572.460938 0)"/>
     <use xlink:href="#DejaVuSans-Bold-20" transform="translate(1635.742188 0)"/>
    </g>
    <!--  по возрасту -->
    <g transform="translate(222.065 37.44) scale(0.14 -0.14)">
     <defs>
      <path id="DejaVuSans-Bold-437" d="M 900 2181 
L 1413 2181 
Q 1872 2181 2039 2281 
Q 2206 2381 2206 2519 
Q 2206 2841 1469 2841 
Q 853 2841 472 2625 
L 472 3434 
Q 1041 3584 1713 3584 
Q 2500 3584 2862 3361 
Q 3225 3138 3225 2666 
Q 3225 2047 2541 1888 
Q 3313 1697 3313 994 
Q 3313 453 2888 181 
Q 2463 -91 1553 -91 
Q 875 -91 313 84 
L 313 947 
Q 1013 653 1428 653 
Q 1884 653 2089 776 
Q 2294 900 2294 1056 
Q 2294 1491 1394 1491 
L 900 1491 
L 900 2181 
z
" transform="scale(0.015625)"/>
      <path id="DejaVuSans-Bold-442" d="M 25 3500 
L 3681 3500 
L 3681 2809 
L 2413 2809 
L 2413 0 
L 1297 0 
L 1297 2809 
L 25 2809 
L 25 3500 
z
" transform="scale(0.015625)"/>
      <path id="DejaVuSans-Bold-443" d="M 78 3500 
L 1197 3500 
L 2138 1125 
L 2938 3500 
L 4056 3500 
L 2584 -331 
Q 2363 -916 2067 -1148 
Q 1772 -1381 1288 -1381 
L 641 -1381 
L 641 -647 
L 991 -647 
Q 1275 -647 1404 -556 
Q 1534 -466 1606 -231 
L 1638 -134 
L 78 3500 
z
" transform="scale(0.015625)"/>
     </defs>
     <use xlink:href="#DejaVuSans-Bold-20"/>
     <use xlink:href="#DejaVuSans-Bold-43f" transform="translate(34.814453 0)"/>
     <use xlink:href="#DejaVuSans-Bold-43e" transform="translate(103.90625 0)"/>
     <use xlink:href="#DejaVuSans-Bold-20" transform="translate(172.607422 0)"/>
     <use xlink:href="#DejaVuSans-Bold-432" transform="translate(207.421875 0)"/>
     <use xlink:href="#DejaVuSans-Bold-43e" transform="translate(270.703125 0)"/>
     <use xlink:href="#DejaVuSans-Bold-437" transform="translate(339.404297 0)"/>
     <use xlink:href="#DejaVuSans-Bold-440" transform="translate(397.509766 0)"/>
     <use xlink:href="#DejaVuSans-Bold-430" transform="translate(469.091797 0)"/>
     <use xlink:href="#DejaVuSans-Bold-441" transform="translate(536.572266 0)"/>
     <use xlink:href="#DejaVuSans-Bold-442" transform="translate(595.849609 0)"/>
     <use xlink:href="#DejaVuSans-Bold-443" transform="translate(653.808594 0)"/>
    </g>
   </g>
  </g>
  <g id="axes_2">
   <g id="patch_37">
    <path d="M 51.59 605.32 
L 493.2 605.32 
L 493.2 353.81625 
L 51.59 353.81625 
z
" style="fill: #ffffff"/>
   </g>
   <g id="matplotlib.axis_3">
    <g id="xtick_10">
     <g id="line2d_16">
      <g>
       <use xlink:href="#m90de92cc0d" x="69.544374" y="605.32" style="stroke: #000000; stroke-width: 0.8"/>
      </g>
     </g>
     <g id="text_47">
      <!-- 0 -->
      <g transform="translate(66.363124 619.918437) scale(0.1 -0.1)">
       <use xlink:href="#DejaVuSans-30"/>
      </g>
     </g>
    </g>
    <g id="xtick_11">
     <g id="line2d_17">
      <g>
       <use xlink:href="#m90de92cc0d" x="119.99218" y="605.32" style="stroke: #000000; stroke-width: 0.8"/>
      </g>
     </g>
     <g id="text_48">
      <!-- 10 -->
      <g transform="translate(113.62968 619.918437) scale(0.1 -0.1)">
       <use xlink:href="#DejaVuSans-31"/>
       <use xlink:href="#DejaVuSans-30" transform="translate(63.623047 0)"/>
      </g>
     </g>
    </g>
    <g id="xtick_12">
     <g id="line2d_18">
      <g>
       <use xlink:href="#m90de92cc0d" x="170.439985" y="605.32" style="stroke: #000000; stroke-width: 0.8"/>
      </g>
     </g>
     <g id="text_49">
      <!-- 20 -->
      <g transform="translate(164.077485 619.918437) scale(0.1 -0.1)">
       <use xlink:href="#DejaVuSans-32"/>
       <use xlink:href="#DejaVuSans-30" transform="translate(63.623047 0)"/>
      </g>
     </g>
    </g>
    <g id="xtick_13">
     <g id="line2d_19">
      <g>
       <use xlink:href="#m90de92cc0d" x="220.887791" y="605.32" style="stroke: #000000; stroke-width: 0.8"/>
      </g>
     </g>
     <g id="text_50">
      <!-- 30 -->
      <g transform="translate(214.525291 619.918437) scale(0.1 -0.1)">
       <use xlink:href="#DejaVuSans-33"/>
       <use xlink:href="#DejaVuSans-30" transform="translate(63.623047 0)"/>
      </g>
     </g>
    </g>
    <g id="xtick_14">
     <g id="line2d_20">
      <g>
       <use xlink:href="#m90de92cc0d" x="271.335596" y="605.32" style="stroke: #000000; stroke-width: 0.8"/>
      </g>
     </g>
     <g id="text_51">
      <!-- 40 -->
      <g transform="translate(264.973096 619.918437) scale(0.1 -0.1)">
       <use xlink:href="#DejaVuSans-34"/>
       <use xlink:href="#DejaVuSans-30" transform="translate(63.623047 0)"/>
      </g>
     </g>
    </g>
    <g id="xtick_15">
     <g id="line2d_21">
      <g>
       <use xlink:href="#m90de92cc0d" x="321.783402" y="605.32" style="stroke: #000000; stroke-width: 0.8"/>
      </g>
     </g>
     <g id="text_52">
      <!-- 50 -->
      <g transform="translate(315.420902 619.918437) scale(0.1 -0.1)">
       <use xlink:href="#DejaVuSans-35"/>
       <use xlink:href="#DejaVuSans-30" transform="translate(63.623047 0)"/>
      </g>
     </g>
    </g>
    <g id="xtick_16">
     <g id="line2d_22">
      <g>
       <use xlink:href="#m90de92cc0d" x="372.231207" y="605.32" style="stroke: #000000; stroke-width: 0.8"/>
      </g>
     </g>
     <g id="text_53">
      <!-- 60 -->
      <g transform="translate(365.868707 619.918437) scale(0.1 -0.1)">
       <use xlink:href="#DejaVuSans-36"/>
       <use xlink:href="#DejaVuSans-30" transform="translate(63.623047 0)"/>
      </g>
     </g>
    </g>
    <g id="xtick_17">
     <g id="line2d_23">
      <g>
       <use xlink:href="#m90de92cc0d" x="422.679013" y="605.32" style="stroke: #000000; stroke-width: 0.8"/>
      </g>
     </g>
     <g id="text_54">
      <!-- 70 -->
      <g transform="translate(416.316513 619.918437) scale(0.1 -0.1)">
       <use xlink:href="#DejaVuSans-37"/>
       <use xlink:href="#DejaVuSans-30" transform="translate(63.623047 0)"/>
      </g>
     </g>
    </g>
    <g id="xtick_18">
     <g id="line2d_24">
      <g>
       <use xlink:href="#m90de92cc0d" x="473.126818" y="605.32" style="stroke: #000000; stroke-width: 0.8"/>
      </g>
     </g>
     <g id="text_55">
      <!-- 80 -->
      <g transform="translate(466.764318 619.918437) scale(0.1 -0.1)">
       <use xlink:href="#DejaVuSans-38"/>
       <use xlink:href="#DejaVuSans-30" transform="translate(63.623047 0)"/>
      </g>
     </g>
    </g>
    <g id="text_56">
     <!-- Возраст -->
     <g transform="translate(249.241719 634.356406) scale(0.11 -0.11)">
      <use xlink:href="#DejaVuSans-412"/>
      <use xlink:href="#DejaVuSans-43e" transform="translate(68.603516 0)"/>
      <use xlink:href="#DejaVuSans-437" transform="translate(129.785156 0)"/>
      <use xlink:href="#DejaVuSans-440" transform="translate(182.958984 0)"/>
      <use xlink:href="#DejaVuSans-430" transform="translate(246.435547 0)"/>
      <use xlink:href="#DejaVuSans-441" transform="translate(307.714844 0)"/>
      <use xlink:href="#DejaVuSans-442" transform="translate(362.695312 0)"/>
     </g>
    </g>
   </g>
   <g id="matplotlib.axis_4">
    <g id="ytick_7">
     <g id="line2d_25">
      <g>
       <use xlink:href="#m9f23ead4a9" x="51.59" y="479.568125" style="stroke: #000000; stroke-width: 0.8"/>
      </g>
     </g>
    </g>
   </g>
   <g id="patch_38">
    <path d="M 180.529546 378.966625 
L 180.529546 580.169625 
L 246.111693 580.169625 
L 246.111693 378.966625 
L 180.529546 378.966625 
z
" clip-path="url(#pbe1be6743c)" style="fill: #8a84d0; stroke: #666666; stroke-linejoin: miter"/>
   </g>
   <g id="line2d_26">
    <path d="M 180.529546 479.568125 
L 84.678716 479.568125 
" clip-path="url(#pbe1be6743c)" style="fill: none; stroke: #666666"/>
   </g>
   <g id="line2d_27">
    <path d="M 246.111693 479.568125 
L 341.962524 479.568125 
" clip-path="url(#pbe1be6743c)" style="fill: none; stroke: #666666"/>
   </g>
   <g id="line2d_28">
    <path d="M 84.678716 429.267375 
L 84.678716 529.868875 
" clip-path="url(#pbe1be6743c)" style="fill: none; stroke: #666666; stroke-linecap: square"/>
   </g>
   <g id="line2d_29">
    <path d="M 341.962524 429.267375 
L 341.962524 529.868875 
" clip-path="url(#pbe1be6743c)" style="fill: none; stroke: #666666; stroke-linecap: square"/>
   </g>
   <g id="line2d_30">
    <defs>
     <path id="m9fe4db9659" d="M 0 3 
C 0.795609 3 1.55874 2.683901 2.12132 2.12132 
C 2.683901 1.55874 3 0.795609 3 0 
C 3 -0.795609 2.683901 -1.55874 2.12132 -2.12132 
C 1.55874 -2.683901 0.795609 -3 0 -3 
C -0.795609 -3 -1.55874 -2.683901 -2.12132 -2.12132 
C -2.683901 -1.55874 -3 -0.795609 -3 0 
C -3 0.795609 -2.683901 1.55874 -2.12132 2.12132 
C -1.55874 2.683901 -0.795609 3 0 3 
z
" style="stroke: #666666"/>
    </defs>
    <g clip-path="url(#pbe1be6743c)">
     <use xlink:href="#m9fe4db9659" x="79.633935" y="479.568125" style="fill-opacity: 0; stroke: #666666"/>
     <use xlink:href="#m9fe4db9659" x="79.633935" y="479.568125" style="fill-opacity: 0; stroke: #666666"/>
     <use xlink:href="#m9fe4db9659" x="73.731542" y="479.568125" style="fill-opacity: 0; stroke: #666666"/>
     <use xlink:href="#m9fe4db9659" x="79.633935" y="479.568125" style="fill-opacity: 0; stroke: #666666"/>
     <use xlink:href="#m9fe4db9659" x="74.589155" y="479.568125" style="fill-opacity: 0; stroke: #666666"/>
     <use xlink:href="#m9fe4db9659" x="74.589155" y="479.568125" style="fill-opacity: 0; stroke: #666666"/>
     <use xlink:href="#m9fe4db9659" x="74.589155" y="479.568125" style="fill-opacity: 0; stroke: #666666"/>
     <use xlink:href="#m9fe4db9659" x="79.633935" y="479.568125" style="fill-opacity: 0; stroke: #666666"/>
     <use xlink:href="#m9fe4db9659" x="79.633935" y="479.568125" style="fill-opacity: 0; stroke: #666666"/>
     <use xlink:href="#m9fe4db9659" x="74.185572" y="479.568125" style="fill-opacity: 0; stroke: #666666"/>
     <use xlink:href="#m9fe4db9659" x="79.633935" y="479.568125" style="fill-opacity: 0; stroke: #666666"/>
     <use xlink:href="#m9fe4db9659" x="74.589155" y="479.568125" style="fill-opacity: 0; stroke: #666666"/>
     <use xlink:href="#m9fe4db9659" x="74.589155" y="479.568125" style="fill-opacity: 0; stroke: #666666"/>
     <use xlink:href="#m9fe4db9659" x="73.327959" y="479.568125" style="fill-opacity: 0; stroke: #666666"/>
     <use xlink:href="#m9fe4db9659" x="79.633935" y="479.568125" style="fill-opacity: 0; stroke: #666666"/>
     <use xlink:href="#m9fe4db9659" x="79.633935" y="479.568125" style="fill-opacity: 0; stroke: #666666"/>
     <use xlink:href="#m9fe4db9659" x="79.633935" y="479.568125" style="fill-opacity: 0; stroke: #666666"/>
     <use xlink:href="#m9fe4db9659" x="73.327959" y="479.568125" style="fill-opacity: 0; stroke: #666666"/>
     <use xlink:href="#m9fe4db9659" x="72.924377" y="479.568125" style="fill-opacity: 0; stroke: #666666"/>
     <use xlink:href="#m9fe4db9659" x="74.589155" y="479.568125" style="fill-opacity: 0; stroke: #666666"/>
     <use xlink:href="#m9fe4db9659" x="71.663182" y="479.568125" style="fill-opacity: 0; stroke: #666666"/>
     <use xlink:href="#m9fe4db9659" x="79.633935" y="479.568125" style="fill-opacity: 0; stroke: #666666"/>
     <use xlink:href="#m9fe4db9659" x="74.589155" y="479.568125" style="fill-opacity: 0; stroke: #666666"/>
     <use xlink:href="#m9fe4db9659" x="73.731542" y="479.568125" style="fill-opacity: 0; stroke: #666666"/>
     <use xlink:href="#m9fe4db9659" x="362.141646" y="479.568125" style="fill-opacity: 0; stroke: #666666"/>
     <use xlink:href="#m9fe4db9659" x="347.007304" y="479.568125" style="fill-opacity: 0; stroke: #666666"/>
     <use xlink:href="#m9fe4db9659" x="402.49989" y="479.568125" style="fill-opacity: 0; stroke: #666666"/>
     <use xlink:href="#m9fe4db9659" x="397.45511" y="479.568125" style="fill-opacity: 0; stroke: #666666"/>
     <use xlink:href="#m9fe4db9659" x="367.186427" y="479.568125" style="fill-opacity: 0; stroke: #666666"/>
     <use xlink:href="#m9fe4db9659" x="427.723793" y="479.568125" style="fill-opacity: 0; stroke: #666666"/>
     <use xlink:href="#m9fe4db9659" x="425.201403" y="479.568125" style="fill-opacity: 0; stroke: #666666"/>
     <use xlink:href="#m9fe4db9659" x="349.529695" y="479.568125" style="fill-opacity: 0; stroke: #666666"/>
     <use xlink:href="#m9fe4db9659" x="377.275988" y="479.568125" style="fill-opacity: 0; stroke: #666666"/>
     <use xlink:href="#m9fe4db9659" x="352.052085" y="479.568125" style="fill-opacity: 0; stroke: #666666"/>
     <use xlink:href="#m9fe4db9659" x="362.141646" y="479.568125" style="fill-opacity: 0; stroke: #666666"/>
     <use xlink:href="#m9fe4db9659" x="367.186427" y="479.568125" style="fill-opacity: 0; stroke: #666666"/>
     <use xlink:href="#m9fe4db9659" x="382.320768" y="479.568125" style="fill-opacity: 0; stroke: #666666"/>
     <use xlink:href="#m9fe4db9659" x="362.141646" y="479.568125" style="fill-opacity: 0; stroke: #666666"/>
     <use xlink:href="#m9fe4db9659" x="387.365549" y="479.568125" style="fill-opacity: 0; stroke: #666666"/>
     <use xlink:href="#m9fe4db9659" x="397.45511" y="479.568125" style="fill-opacity: 0; stroke: #666666"/>
     <use xlink:href="#m9fe4db9659" x="377.275988" y="479.568125" style="fill-opacity: 0; stroke: #666666"/>
     <use xlink:href="#m9fe4db9659" x="372.231207" y="479.568125" style="fill-opacity: 0; stroke: #666666"/>
     <use xlink:href="#m9fe4db9659" x="392.410329" y="479.568125" style="fill-opacity: 0; stroke: #666666"/>
     <use xlink:href="#m9fe4db9659" x="397.45511" y="479.568125" style="fill-opacity: 0; stroke: #666666"/>
     <use xlink:href="#m9fe4db9659" x="352.052085" y="479.568125" style="fill-opacity: 0; stroke: #666666"/>
     <use xlink:href="#m9fe4db9659" x="387.365549" y="479.568125" style="fill-opacity: 0; stroke: #666666"/>
     <use xlink:href="#m9fe4db9659" x="362.141646" y="479.568125" style="fill-opacity: 0; stroke: #666666"/>
     <use xlink:href="#m9fe4db9659" x="347.007304" y="479.568125" style="fill-opacity: 0; stroke: #666666"/>
     <use xlink:href="#m9fe4db9659" x="427.723793" y="479.568125" style="fill-opacity: 0; stroke: #666666"/>
     <use xlink:href="#m9fe4db9659" x="392.410329" y="479.568125" style="fill-opacity: 0; stroke: #666666"/>
     <use xlink:href="#m9fe4db9659" x="382.320768" y="479.568125" style="fill-opacity: 0; stroke: #666666"/>
     <use xlink:href="#m9fe4db9659" x="382.320768" y="479.568125" style="fill-opacity: 0; stroke: #666666"/>
     <use xlink:href="#m9fe4db9659" x="372.231207" y="479.568125" style="fill-opacity: 0; stroke: #666666"/>
     <use xlink:href="#m9fe4db9659" x="377.275988" y="479.568125" style="fill-opacity: 0; stroke: #666666"/>
     <use xlink:href="#m9fe4db9659" x="357.096865" y="479.568125" style="fill-opacity: 0; stroke: #666666"/>
     <use xlink:href="#m9fe4db9659" x="473.126818" y="479.568125" style="fill-opacity: 0; stroke: #666666"/>
     <use xlink:href="#m9fe4db9659" x="352.052085" y="479.568125" style="fill-opacity: 0; stroke: #666666"/>
     <use xlink:href="#m9fe4db9659" x="362.141646" y="479.568125" style="fill-opacity: 0; stroke: #666666"/>
     <use xlink:href="#m9fe4db9659" x="422.679013" y="479.568125" style="fill-opacity: 0; stroke: #666666"/>
     <use xlink:href="#m9fe4db9659" x="372.231207" y="479.568125" style="fill-opacity: 0; stroke: #666666"/>
     <use xlink:href="#m9fe4db9659" x="372.231207" y="479.568125" style="fill-opacity: 0; stroke: #666666"/>
     <use xlink:href="#m9fe4db9659" x="422.679013" y="479.568125" style="fill-opacity: 0; stroke: #666666"/>
     <use xlink:href="#m9fe4db9659" x="357.096865" y="479.568125" style="fill-opacity: 0; stroke: #666666"/>
     <use xlink:href="#m9fe4db9659" x="382.320768" y="479.568125" style="fill-opacity: 0; stroke: #666666"/>
     <use xlink:href="#m9fe4db9659" x="442.858135" y="479.568125" style="fill-opacity: 0; stroke: #666666"/>
     <use xlink:href="#m9fe4db9659" x="352.052085" y="479.568125" style="fill-opacity: 0; stroke: #666666"/>
    </g>
   </g>
   <g id="line2d_31">
    <path d="M 210.798229 378.966625 
L 210.798229 580.169625 
" clip-path="url(#pbe1be6743c)" style="fill: none; stroke: #666666"/>
   </g>
   <g id="patch_39">
    <path d="M 51.59 605.32 
L 51.59 353.81625 
" style="fill: none; stroke: #000000; stroke-width: 0.8; stroke-linejoin: miter; stroke-linecap: square"/>
   </g>
   <g id="patch_40">
    <path d="M 493.2 605.32 
L 493.2 353.81625 
" style="fill: none; stroke: #000000; stroke-width: 0.8; stroke-linejoin: miter; stroke-linecap: square"/>
   </g>
   <g id="patch_41">
    <path d="M 51.59 605.32 
L 493.2 605.32 
" style="fill: none; stroke: #000000; stroke-width: 0.8; stroke-linejoin: miter; stroke-linecap: square"/>
   </g>
   <g id="patch_42">
    <path d="M 51.59 353.81625 
L 493.2 353.81625 
" style="fill: none; stroke: #000000; stroke-width: 0.8; stroke-linejoin: miter; stroke-linecap: square"/>
   </g>
   <g id="text_57">
    <!-- Выбросы среди возрастов -->
    <g transform="translate(173.335 347.81625) scale(0.13 -0.13)">
     <defs>
      <path id="DejaVuSans-Bold-412" d="M 2456 2859 
Q 2741 2859 2887 2984 
Q 3034 3109 3034 3353 
Q 3034 3594 2887 3720 
Q 2741 3847 2456 3847 
L 1791 3847 
L 1791 2859 
L 2456 2859 
z
M 2497 819 
Q 2859 819 3042 972 
Q 3225 1125 3225 1434 
Q 3225 1738 3044 1889 
Q 2863 2041 2497 2041 
L 1791 2041 
L 1791 819 
L 2497 819 
z
M 3616 2497 
Q 4003 2384 4215 2081 
Q 4428 1778 4428 1338 
Q 4428 663 3972 331 
Q 3516 0 2584 0 
L 588 0 
L 588 4666 
L 2394 4666 
Q 3366 4666 3802 4372 
Q 4238 4078 4238 3431 
Q 4238 3091 4078 2852 
Q 3919 2613 3616 2497 
z
" transform="scale(0.015625)"/>
      <path id="DejaVuSans-Bold-44b" d="M 4154 3500 
L 5272 3500 
L 5272 0 
L 4154 0 
L 4154 3500 
z
M 2719 1094 
Q 2719 1291 2594 1388 
Q 2472 1481 2222 1481 
L 1656 1481 
L 1656 700 
L 2222 700 
Q 2469 700 2594 800 
Q 2719 897 2719 1094 
z
M 538 3500 
L 1656 3500 
L 1656 2172 
L 2291 2172 
Q 3000 2172 3381 1913 
Q 3766 1650 3766 1081 
Q 3766 513 3381 256 
Q 3000 0 2291 0 
L 538 0 
L 538 3500 
z
" transform="scale(0.015625)"/>
      <path id="DejaVuSans-Bold-431" d="M 344 1941 
L 322 2463 
Q 275 2672 275 2881 
Q 275 3494 456 3894 
Q 791 4631 1238 4781 
Q 1606 4909 3141 5031 
Q 3297 5044 3475 5072 
L 3725 4378 
Q 3488 4316 2269 4209 
Q 1734 4163 1516 4013 
Q 1153 3766 1125 3300 
Q 1584 3584 2275 3584 
Q 3178 3584 3686 3096 
Q 4194 2609 4194 1747 
Q 4194 884 3687 396 
Q 3181 -91 2275 -91 
Q 1369 -91 858 396 
Q 347 884 347 1747 
Q 347 1866 344 1941 
z
M 2272 2784 
Q 1903 2784 1708 2517 
Q 1513 2250 1513 1747 
Q 1513 1244 1708 976 
Q 1903 709 2272 709 
Q 2641 709 2834 976 
Q 3028 1244 3028 1747 
Q 3028 2250 2834 2517 
Q 2641 2784 2272 2784 
z
" transform="scale(0.015625)"/>
     </defs>
     <use xlink:href="#DejaVuSans-Bold-412"/>
     <use xlink:href="#DejaVuSans-Bold-44b" transform="translate(76.220703 0)"/>
     <use xlink:href="#DejaVuSans-Bold-431" transform="translate(166.650391 0)"/>
     <use xlink:href="#DejaVuSans-Bold-440" transform="translate(236.474609 0)"/>
     <use xlink:href="#DejaVuSans-Bold-43e" transform="translate(308.056641 0)"/>
     <use xlink:href="#DejaVuSans-Bold-441" transform="translate(376.757812 0)"/>
     <use xlink:href="#DejaVuSans-Bold-44b" transform="translate(436.035156 0)"/>
     <use xlink:href="#DejaVuSans-Bold-20" transform="translate(526.464844 0)"/>
     <use xlink:href="#DejaVuSans-Bold-441" transform="translate(561.279297 0)"/>
     <use xlink:href="#DejaVuSans-Bold-440" transform="translate(620.556641 0)"/>
     <use xlink:href="#DejaVuSans-Bold-435" transform="translate(692.138672 0)"/>
     <use xlink:href="#DejaVuSans-Bold-434" transform="translate(759.960938 0)"/>
     <use xlink:href="#DejaVuSans-Bold-438" transform="translate(840.722656 0)"/>
     <use xlink:href="#DejaVuSans-Bold-20" transform="translate(910.791016 0)"/>
     <use xlink:href="#DejaVuSans-Bold-432" transform="translate(945.605469 0)"/>
     <use xlink:href="#DejaVuSans-Bold-43e" transform="translate(1008.886719 0)"/>
     <use xlink:href="#DejaVuSans-Bold-437" transform="translate(1077.587891 0)"/>
     <use xlink:href="#DejaVuSans-Bold-440" transform="translate(1135.693359 0)"/>
     <use xlink:href="#DejaVuSans-Bold-430" transform="translate(1207.275391 0)"/>
     <use xlink:href="#DejaVuSans-Bold-441" transform="translate(1274.755859 0)"/>
     <use xlink:href="#DejaVuSans-Bold-442" transform="translate(1334.033203 0)"/>
     <use xlink:href="#DejaVuSans-Bold-43e" transform="translate(1391.992188 0)"/>
     <use xlink:href="#DejaVuSans-Bold-432" transform="translate(1460.693359 0)"/>
    </g>
   </g>
  </g>
 </g>
 <defs>
  <clipPath id="pf97f1727c9">
   <rect x="51.59" y="43.44" width="441.61" height="251.50375"/>
  </clipPath>
  <clipPath id="pbe1be6743c">
   <rect x="51.59" y="353.81625" width="441.61" height="251.50375"/>
  </clipPath>
 </defs>
</svg>
