<svg xmlns="http://www.w3.org/2000/svg" xmlns:xlink="http://www.w3.org/1999/xlink" xmlns:lucid="lucid" width="1482.33" height="541"><g transform="translate(-78.67000000000007 -40)" lucid:page-tab-id="0_0"><path d="M0 0h2000v1000H0z" fill="#f2f3f5"/><path d="M80 306a6 6 0 0 1 6-6h148a6 6 0 0 1 6 6v108a6 6 0 0 1-6 6H86a6 6 0 0 1-6-6z" stroke="#000" stroke-width="2" fill="#6db1ff"/><use xlink:href="#a" transform="matrix(1,0,0,1,92,312) translate(15.10828993055555 39.52777777777778)"/><use xlink:href="#b" transform="matrix(1,0,0,1,92,312) translate(21.233506944444443 71.79340277777777)"/><path d="M380 146a6 6 0 0 1 6-6h148a6 6 0 0 1 6 6v108a6 6 0 0 1-6 6H386a6 6 0 0 1-6-6z" stroke="#000" stroke-width="2" fill="#6db1ff"/><use xlink:href="#c" transform="matrix(1,0,0,1,392,152) translate(12.932725694444443 39.52777777777778)"/><use xlink:href="#d" transform="matrix(1,0,0,1,392,152) translate(13.589192708333329 71.79340277777777)"/><use xlink:href="#e" transform="matrix(1,0,0,1,392,152) translate(113.37217881944444 71.79340277777777)"/><path d="M380 306a6 6 0 0 1 6-6h148a6 6 0 0 1 6 6v108a6 6 0 0 1-6 6H386a6 6 0 0 1-6-6z" stroke="#000" stroke-width="2" fill="#6db1ff"/><use xlink:href="#c" transform="matrix(1,0,0,1,392,312) translate(12.932725694444443 39.52777777777778)"/><use xlink:href="#d" transform="matrix(1,0,0,1,392,312) translate(11.332248263888886 71.79340277777777)"/><use xlink:href="#f" transform="matrix(1,0,0,1,392,312) translate(111.115234375 71.79340277777777)"/><path d="M380 466a6 6 0 0 1 6-6h148a6 6 0 0 1 6 6v108a6 6 0 0 1-6 6H386a6 6 0 0 1-6-6z" stroke="#000" stroke-width="2" fill="#6db1ff"/><use xlink:href="#c" transform="matrix(1,0,0,1,392,472) translate(12.932725694444443 39.52777777777778)"/><use xlink:href="#d" transform="matrix(1,0,0,1,392,472) translate(9.737196180555557 71.79340277777777)"/><use xlink:href="#g" transform="matrix(1,0,0,1,392,472) translate(109.52018229166667 71.79340277777777)"/><path d="M445.4 426a6 6 0 0 1 6-6h17.2a6 6 0 0 1 6 6v24.9a6 6 0 0 1-6 6h-17.2a6 6 0 0 1-6-6z" fill="none"/><use xlink:href="#h" transform="matrix(1,0,0,1,450.3921354166667,425) translate(0 21.58376736111111)"/><path d="M909.3 149.3c28 0 50.7 22.7 50.7 50.7 0 28-22.7 50.7-50.7 50.7H690.7c-28 0-50.7-22.7-50.7-50.7 0-28 22.7-50.7 50.7-50.7z" stroke="#000" stroke-width="2" fill="#edf5ff"/><use xlink:href="#i" transform="matrix(1,0,0,1,645,154.29036458333334) translate(40.5301736111111 38.77777777777778)"/><use xlink:href="#j" transform="matrix(1,0,0,1,645,154.29036458333334) translate(154.3431076388889 38.77777777777778)"/><use xlink:href="#k" transform="matrix(1,0,0,1,645,154.29036458333334) translate(243.86133680555554 38.77777777777778)"/><use xlink:href="#l" transform="matrix(1,0,0,1,645,154.29036458333334) translate(100.60504340277778 71.04340277777777)"/><use xlink:href="#e" transform="matrix(1,0,0,1,645,154.29036458333334) translate(200.366328125 71.04340277777777)"/><path d="M909.3 309.3c28 0 50.7 22.7 50.7 50.7 0 28-22.7 50.7-50.7 50.7H690.7c-28 0-50.7-22.7-50.7-50.7 0-28 22.7-50.7 50.7-50.7z" stroke="#000" stroke-width="2" fill="#edf5ff"/><use xlink:href="#i" transform="matrix(1,0,0,1,645,314.2903645833333) translate(40.5301736111111 38.77777777777778)"/><use xlink:href="#j" transform="matrix(1,0,0,1,645,314.2903645833333) translate(154.3431076388889 38.77777777777778)"/><use xlink:href="#k" transform="matrix(1,0,0,1,645,314.2903645833333) translate(243.86133680555554 38.77777777777778)"/><use xlink:href="#l" transform="matrix(1,0,0,1,645,314.2903645833333) translate(98.34809895833332 71.04340277777777)"/><use xlink:href="#f" transform="matrix(1,0,0,1,645,314.2903645833333) translate(198.10938368055554 71.04340277777777)"/><path d="M909.3 469.3c28 0 50.7 22.7 50.7 50.7 0 28-22.7 50.7-50.7 50.7H690.7c-28 0-50.7-22.7-50.7-50.7 0-28 22.7-50.7 50.7-50.7z" stroke="#000" stroke-width="2" fill="#edf5ff"/><use xlink:href="#i" transform="matrix(1,0,0,1,645,474.2903645833333) translate(40.5301736111111 38.77777777777778)"/><use xlink:href="#j" transform="matrix(1,0,0,1,645,474.2903645833333) translate(154.3431076388889 38.77777777777778)"/><use xlink:href="#k" transform="matrix(1,0,0,1,645,474.2903645833333) translate(243.86133680555554 38.77777777777778)"/><use xlink:href="#l" transform="matrix(1,0,0,1,645,474.2903645833333) translate(96.753046875 71.04340277777777)"/><use xlink:href="#g" transform="matrix(1,0,0,1,645,474.2903645833333) translate(196.51433159722222 71.04340277777777)"/><path d="M241.35 339.64L367.5 211.67" stroke="#3a414a" fill="none"/><path d="M241.7 339.97l-.7.7v-1.35l.02-.02z" stroke="#3a414a" stroke-width=".05" fill="#3a414a"/><path d="M377.86 201.15l-6.7 13.42-6.6-6.5z" stroke="#3a414a" fill="#3a414a"/><path d="M241.5 360h121.12" stroke="#3a414a" fill="none"/><path d="M241.5 360.48h-.5v-.96h.5z" stroke="#3a414a" stroke-width=".05" fill="#3a414a"/><path d="M377.38 360l-14.26 4.63v-9.26z" stroke="#3a414a" fill="#3a414a"/><path d="M241.36 387l125.86 121.62" stroke="#3a414a" fill="none"/><path d="M241.7 386.68l-.66.7-.04-.05V386z" stroke="#3a414a" stroke-width=".05" fill="#3a414a"/><path d="M377.84 518.88l-13.48-6.58 6.44-6.67z" stroke="#3a414a" fill="#3a414a"/><path d="M541.5 200h81.12" stroke="#3a414a" fill="none"/><path d="M541.5 200.47h-.5v-.94h.5z" stroke="#3a414a" stroke-width=".05" fill="#3a414a"/><path d="M637.38 200l-14.26 4.63v-9.26z" stroke="#3a414a" fill="#3a414a"/><path d="M541.5 360h81.12" stroke="#3a414a" fill="none"/><path d="M541.5 360.48h-.5v-.96h.5z" stroke="#3a414a" stroke-width=".05" fill="#3a414a"/><path d="M637.38 360l-14.26 4.63v-9.26z" stroke="#3a414a" fill="#3a414a"/><path d="M541.5 520h81.12" stroke="#3a414a" fill="none"/><path d="M541.5 520.48h-.5v-.96h.5z" stroke="#3a414a" stroke-width=".05" fill="#3a414a"/><path d="M637.38 520l-14.26 4.63v-9.26z" stroke="#3a414a" fill="#3a414a"/><path d="M778.73 426.22a6 6 0 0 1 6-6h17.2a6 6 0 0 1 6 6v24.9a6 6 0 0 1-6 6h-17.2a6 6 0 0 1-6-6z" fill="none"/><use xlink:href="#h" transform="matrix(1,0,0,1,783.7254687500001,425.21765625) translate(0 21.58376736111111)"/><path d="M1209.3 149.3c28 0 50.7 22.7 50.7 50.7 0 28-22.7 50.7-50.7 50.7h-78.6c-28 0-50.7-22.7-50.7-50.7 0-28 22.7-50.7 50.7-50.7z" stroke="#000" stroke-width="2" fill="#edf5ff"/><use xlink:href="#m" transform="matrix(1,0,0,1,1085,154.29036458333337) translate(34.603949652777786 53.15277777777778)"/><use xlink:href="#e" transform="matrix(1,0,0,1,1085,154.29036458333337) translate(126.357421875 53.15277777777778)"/><path d="M1209.3 309.3c28 0 50.7 22.7 50.7 50.7 0 28-22.7 50.7-50.7 50.7h-78.26c-28 0-50.7-22.7-50.7-50.7 0-28 22.7-50.7 50.7-50.7z" stroke="#000" stroke-width="2" fill="#edf5ff"/><use xlink:href="#m" transform="matrix(1,0,0,1,1085.3333333333335,314.2903645833333) translate(32.347005208333336 53.15277777777778)"/><use xlink:href="#f" transform="matrix(1,0,0,1,1085.3333333333335,314.2903645833333) translate(124.10047743055554 53.15277777777778)"/><path d="M1209.3 469.3c28 0 50.7 22.7 50.7 50.7 0 28-22.7 50.7-50.7 50.7h-78.26c-28 0-50.7-22.7-50.7-50.7 0-28 22.7-50.7 50.7-50.7z" stroke="#000" stroke-width="2" fill="#edf5ff"/><use xlink:href="#m" transform="matrix(1,0,0,1,1085.3333333333335,474.2903645833333) translate(30.751953125 53.15277777777778)"/><use xlink:href="#g" transform="matrix(1,0,0,1,1085.3333333333335,474.2903645833333) translate(122.50542534722221 53.15277777777778)"/><path d="M961.5 200h101.12" stroke="#3a414a" fill="none"/><path d="M961.5 200.47H961l.02-.47-.02-.47h.53z" stroke="#3a414a" stroke-width=".05" fill="#3a414a"/><path d="M1077.38 200l-14.27 4.63.02-9.26z" stroke="#3a414a" fill="#3a414a"/><path d="M961.5 360h101.45" stroke="#3a414a" fill="none"/><path d="M961.5 360.48H961l.02-.48-.02-.48h.53z" stroke="#3a414a" stroke-width=".05" fill="#3a414a"/><path d="M1077.7 360l-14.25 4.63v-9.26z" stroke="#3a414a" fill="#3a414a"/><path d="M961.5 520h101.45" stroke="#3a414a" fill="none"/><path d="M961.5 520.48H961l.02-.48-.02-.48h.53z" stroke="#3a414a" stroke-width=".05" fill="#3a414a"/><path d="M1077.7 520l-14.25 4.63v-9.26z" stroke="#3a414a" fill="#3a414a"/><path d="M82.9 84.24a6 6 0 0 1 0-8.48l31.53-31.52a2.48 2.48 0 0 1 4.24 1.76v8a6 6 0 0 0 6 6H1124a6 6 0 0 0 6-6v-8a2.48 2.48 0 0 1 4.24-1.76l31.52 31.52a6 6 0 0 1 0 8.48l-31.52 31.52A2.48 2.48 0 0 1 1130 114v-8a6 6 0 0 0-6-6H124.67a6 6 0 0 0-6 6v8a2.48 2.48 0 0 1-4.24 1.76z" stroke="#000" stroke-width="2" fill="#fff"/><g><use xlink:href="#n" transform="matrix(1,0,0,1,83.67000000000007,45) translate(453.1189322916666 43.40277777777778)"/><use xlink:href="#o" transform="matrix(1,0,0,1,83.67000000000007,45) translate(511.49566840277777 43.40277777777778)"/></g><path d="M1560 360c0 49.7-40.3 90-90 90s-90-40.3-90-90 40.3-90 90-90 90 40.3 90 90z" stroke="#000" stroke-width="2" fill="#6db1ff"/><g><use xlink:href="#p" transform="matrix(1,0,0,1,1385,275) translate(19.602439236111117 58.71527777777778)"/><use xlink:href="#q" transform="matrix(1,0,0,1,1385,275) translate(37.322048611111114 90.98090277777777)"/><use xlink:href="#r" transform="matrix(1,0,0,1,1385,275) translate(115.93532986111111 90.98090277777777)"/><use xlink:href="#s" transform="matrix(1,0,0,1,1385,275) translate(36.893020833333324 123.24652777777777)"/></g><path d="M1174.24 84.24a6 6 0 0 1 0-8.48l31.52-31.52A2.48 2.48 0 0 1 1210 46v8a6 6 0 0 0 6 6h298a6 6 0 0 0 6-6v-8a2.48 2.48 0 0 1 4.24-1.76l31.52 31.52a6 6 0 0 1 0 8.48l-31.52 31.52A2.48 2.48 0 0 1 1520 114v-8a6 6 0 0 0-6-6h-298a6 6 0 0 0-6 6v8a2.48 2.48 0 0 1-4.24 1.76z" stroke="#000" stroke-width="2" fill="#fff"/><g><use xlink:href="#n" transform="matrix(1,0,0,1,1175,45) translate(84.38976562500001 43.40277777777778)"/><use xlink:href="#t" transform="matrix(1,0,0,1,1175,45) translate(142.76650173611114 43.40277777777778)"/></g><path d="M1163.98 428.24a6 6 0 0 1 6-6h17.2a6 6 0 0 1 6 6v24.9a6 6 0 0 1-6 6H1170a6 6 0 0 1-6-6z" fill="none"/><g><use xlink:href="#h" transform="matrix(1,0,0,1,1168.979679659848,427.2402452568707) translate(0 21.58376736111111)"/></g><path d="M1261.37 200.34l116.22 105.8" stroke="#3a414a" fill="none"/><path d="M1261.7 200l-.64.7-.1-.08.04-.62-.03-.67z" stroke="#3a414a" stroke-width=".05" fill="#3a414a"/><path d="M1388.5 316.1l-13.66-6.2 6.24-6.84z" stroke="#3a414a" fill="#3a414a"/><path d="M1261.5 360h101.12" stroke="#3a414a" fill="none"/><path d="M1261.5 360.48h-.52l.02-.48-.02-.48h.53z" stroke="#3a414a" stroke-width=".05" fill="#3a414a"/><path d="M1377.38 360l-14.27 4.63.02-9.26z" stroke="#3a414a" fill="#3a414a"/><path d="M1261.37 519.66l116.24-105.8" stroke="#3a414a" fill="none"/><path d="M1261.7 520l-.73.67.03-.67-.03-.62.1-.08z" stroke="#3a414a" stroke-width=".05" fill="#3a414a"/><path d="M1388.53 403.92l-7.43 13.03-6.24-6.85z" stroke="#3a414a" fill="#3a414a"/><defs><path d="M1363 0h-191c4-468-12-788 15-1262C918-774 685-451 406 0H180v-1490h190c-6 443 14 830-13 1265 68-135 136-249 176-312l606-953h224V0" id="u"/><path d="M613 24c-304 0-509-231-509-576 0-350 205-580 509-580 216 0 392 114 453 309l-173 49c-33-115-133-197-280-197-223 0-326 196-326 419 0 220 103 415 326 415 150 0 252-85 285-206l172 49C1010-95 832 24 613 24" id="v"/><path d="M65 0l393-574-370-544h210c88 136 192 297 267 435 67-142 176-302 264-435h206L661-564 1053 0H844c-94-144-206-310-287-458C484-308 366-142 273 0H65" id="w"/><path d="M613 24c-304 0-509-231-509-576 0-350 205-580 509-580 305 0 511 230 511 580 0 345-206 576-511 576zm0-161c226 0 329-195 329-415 0-222-103-419-329-419-223 0-326 196-326 419 0 220 103 415 326 415" id="x"/><path d="M38 321v-487h92c91-92 130-206 156-514l37-438h721v952h170v487h-179V0H218v321H38zm296-487h531v-786H486c-25 270-41 659-152 786" id="y"/><path d="M338-1118v477h534v-477h181V0H872v-475H338V0H158v-1118h180" id="z"/><path d="M471 26C259 26 90-98 90-318c0-256 228-303 435-329 202-27 287-16 287-108 0-139-79-219-234-219-161 0-248 86-283 164l-173-57c86-203 278-265 451-265 150 0 419 46 419 395V0H815v-152h-12C765-73 660 26 471 26zm31-159c199 0 310-134 310-271v-155c-30 35-226 55-295 64-131 17-246 59-246 186 0 116 97 176 231 176" id="A"/><path d="M977 0H798v-419H508L254 0H47l277-449C171-500 96-614 96-764c0-208 141-354 436-354h445V0zM798-570v-391H546c-192 0-270 73-270 197 0 123 78 194 268 194h254" id="B"/><g id="a"><use transform="matrix(0.010850694444444444,0,0,0.010850694444444444,0,0)" xlink:href="#u"/><use transform="matrix(0.010850694444444444,0,0,0.010850694444444444,16.74262152777778,0)" xlink:href="#v"/><use transform="matrix(0.010850694444444444,0,0,0.010850694444444444,28.938802083333336,0)" xlink:href="#w"/><use transform="matrix(0.010850694444444444,0,0,0.010850694444444444,40.570746527777786,0)" xlink:href="#x"/><use transform="matrix(0.010850694444444444,0,0,0.010850694444444444,53.895399305555564,0)" xlink:href="#y"/><use transform="matrix(0.010850694444444444,0,0,0.010850694444444444,67.84939236111111,0)" xlink:href="#z"/><use transform="matrix(0.010850694444444444,0,0,0.010850694444444444,80.98958333333334,0)" xlink:href="#A"/><use transform="matrix(0.010850694444444444,0,0,0.010850694444444444,93.46788194444446,0)" xlink:href="#B"/></g><path d="M158 0v-1118h457c242 0 397 118 397 298 0 131-85 205-218 232 129 19 261 115 261 288S916 0 686 0H158zm171-164h357c115 0 184-58 184-152 0-114-70-182-184-182H329v334zm0-485h287c134 0 215-60 215-156 0-93-82-149-216-149H329v305" id="C"/><path d="M338-717h293c264 0 409 149 409 355C1040-160 894 0 631 0H158v-1118h180v401zM1170 0v-1118h180V0h-180zM338-550v384h293c132 0 227-77 227-188 0-116-95-196-227-196H338" id="D"/><path d="M993-1535l88 111c-103 99-256 94-455 101-229 8-342 151-365 447h14c74-139 216-204 371-204 263 0 463 187 463 537S910 24 609 24c-303 0-505-216-505-630v-116c0-497 169-758 515-768 139-7 304 19 374-45zM610-137c197 0 317-159 317-406 0-239-120-377-321-377-195 0-319 138-319 377 0 245 122 406 323 406" id="E"/><path d="M158 418v-1536h174v179h20c37-59 106-193 324-193 279 0 474 222 474 576 0 356-194 580-473 580-213 0-288-135-325-197h-14v591H158zm492-555c209 0 317-186 317-421 0-232-105-413-317-413-206 0-314 166-314 413 0 249 111 421 314 421" id="F"/><path d="M158 0v-1118h180v484h112l398-484h228L630-577 1082 0H854L493-468H338V0H158" id="G"/><g id="b"><use transform="matrix(0.010850694444444444,0,0,0.010850694444444444,0,0)" xlink:href="#C"/><use transform="matrix(0.010850694444444444,0,0,0.010850694444444444,12.554253472222221,0)" xlink:href="#D"/><use transform="matrix(0.010850694444444444,0,0,0.010850694444444444,28.917100694444443,0)" xlink:href="#E"/><use transform="matrix(0.010850694444444444,0,0,0.010850694444444444,42.07899305555556,0)" xlink:href="#x"/><use transform="matrix(0.010850694444444444,0,0,0.010850694444444444,55.40364583333333,0)" xlink:href="#F"/><use transform="matrix(0.010850694444444444,0,0,0.010850694444444444,69.01041666666667,0)" xlink:href="#G"/><use transform="matrix(0.010850694444444444,0,0,0.010850694444444444,81.0546875,0)" xlink:href="#A"/></g><path d="M180 0v-1490h890v167H370v458h342c304 0 495 163 495 424 0 270-190 441-495 441H180zm190-166h338c200 0 312-99 312-277 0-164-112-257-312-257H370v534" id="H"/><path d="M140 405l46-156c120 36 205 19 263-150l32-93L54-1118h197c107 313 237 620 324 950 87-331 219-637 326-950h196L606 167c-68 178-176 259-334 259-64 0-113-12-132-21" id="I"/><path d="M388 0v-957H20v-161h914v161H568V0H388" id="J"/><path d="M1046-1118V0H866v-952H339V0H158v-1118h888" id="K"/><path d="M798-719v166H144v-166h654" id="L"/><g id="c"><use transform="matrix(0.010850694444444444,0,0,0.010850694444444444,0,0)" xlink:href="#H"/><use transform="matrix(0.010850694444444444,0,0,0.010850694444444444,14.35546875,0)" xlink:href="#I"/><use transform="matrix(0.010850694444444444,0,0,0.010850694444444444,27.17013888888889,0)" xlink:href="#J"/><use transform="matrix(0.010850694444444444,0,0,0.010850694444444444,37.15277777777778,0)" xlink:href="#v"/><use transform="matrix(0.010850694444444444,0,0,0.010850694444444444,49.84809027777778,0)" xlink:href="#J"/><use transform="matrix(0.010850694444444444,0,0,0.010850694444444444,60.546875,0)" xlink:href="#F"/><use transform="matrix(0.010850694444444444,0,0,0.010850694444444444,74.37065972222221,0)" xlink:href="#A"/><use transform="matrix(0.010850694444444444,0,0,0.010850694444444444,86.84895833333333,0)" xlink:href="#K"/><use transform="matrix(0.010850694444444444,0,0,0.010850694444444444,99.91319444444444,0)" xlink:href="#L"/></g><g id="d"><use transform="matrix(0.010850694444444444,0,0,0.010850694444444444,0,0)" xlink:href="#C"/><use transform="matrix(0.010850694444444444,0,0,0.010850694444444444,12.554253472222221,0)" xlink:href="#D"/><use transform="matrix(0.010850694444444444,0,0,0.010850694444444444,28.917100694444443,0)" xlink:href="#E"/><use transform="matrix(0.010850694444444444,0,0,0.010850694444444444,42.07899305555556,0)" xlink:href="#x"/><use transform="matrix(0.010850694444444444,0,0,0.010850694444444444,55.40364583333333,0)" xlink:href="#F"/><use transform="matrix(0.010850694444444444,0,0,0.010850694444444444,69.01041666666667,0)" xlink:href="#G"/><use transform="matrix(0.010850694444444444,0,0,0.010850694444444444,81.0546875,0)" xlink:href="#A"/></g><path d="M653-1490V0H466v-1314h-10L96-1047v-204l324-239h233" id="M"/><use transform="matrix(0.010850694444444444,0,0,0.010850694444444444,0,0)" xlink:href="#M" id="e"/><path d="M154 0v-137l495-537c165-179 249-281 249-418 0-156-121-253-280-253-170 0-278 110-278 278H158c0-264 200-443 465-443 266 0 455 183 455 416 0 161-73 288-336 568L416-179v12h687V0H154" id="N"/><use transform="matrix(0.010850694444444444,0,0,0.010850694444444444,0,0)" xlink:href="#N" id="f"/><path d="M180 0v-1490h224l606 953c40 63 108 177 176 312-27-437-7-821-13-1265h190V0h-226C860-448 622-778 356-1262c27 476 11 792 15 1262H180" id="O"/><use transform="matrix(0.010850694444444444,0,0,0.010850694444444444,0,0)" xlink:href="#O" id="g"/><path d="M295 13c-75 0-135-60-135-135s60-135 135-135 135 60 135 135S370 13 295 13" id="P"/><g id="h"><use transform="matrix(0.010850694444444444,0,0,0.010850694444444444,0,0)" xlink:href="#P"/><use transform="matrix(0.010850694444444444,0,0,0.010850694444444444,6.401909722222222,0)" xlink:href="#P"/><use transform="matrix(0.010850694444444444,0,0,0.010850694444444444,12.803819444444445,0)" xlink:href="#P"/></g><path d="M784 20c-382 0-662-292-662-764 0-473 280-766 662-766s660 293 660 766c0 472-278 764-660 764zm0-176c266 0 475-207 475-588 0-383-209-590-475-590-268 0-477 208-477 590 0 380 209 588 477 588" id="Q"/><path d="M583-350c-259 0-425-137-425-410v-358h180v358c0 168 105 244 245 244 99 0 181-14 262-36v-566h180V0H845v-385c-79 22-162 35-262 35" id="R"/><path d="M628 24c-324 0-524-230-524-574 0-343 198-582 503-582 237 0 487 146 487 559v75H286c9 234 145 362 343 362 132 0 231-58 273-172l174 48C1024-91 857 24 628 24zM287-650h624c-17-190-120-322-304-322-192 0-309 151-320 322" id="S"/><path d="M1053 0H872v-806h-13L329 0H158v-1118h180v809h13l532-809h170V0" id="T"/><g id="i"><use transform="matrix(0.010850694444444444,0,0,0.010850694444444444,0,0)" xlink:href="#Q"/><use transform="matrix(0.010850694444444444,0,0,0.010850694444444444,16.9921875,0)" xlink:href="#E"/><use transform="matrix(0.010850694444444444,0,0,0.010850694444444444,30.15407986111111,0)" xlink:href="#I"/><use transform="matrix(0.010850694444444444,0,0,0.010850694444444444,42.53472222222222,0)" xlink:href="#R"/><use transform="matrix(0.010850694444444444,0,0,0.010850694444444444,55.37109375,0)" xlink:href="#S"/><use transform="matrix(0.010850694444444444,0,0,0.010850694444444444,68.32682291666667,0)" xlink:href="#z"/><use transform="matrix(0.010850694444444444,0,0,0.010850694444444444,81.46701388888889,0)" xlink:href="#T"/><use transform="matrix(0.010850694444444444,0,0,0.010850694444444444,94.60720486111111,0)" xlink:href="#S"/></g><path d="M158 0v-1118h270c115 298 279 624 361 942 79-316 244-646 356-942h274V0h-181c1-327-2-645 4-968-88 330-255 658-376 968H708C586-305 423-627 332-951c8 309 4 634 5 951H158" id="U"/><path d="M20 0v-166h40c130 0 171-81 186-454l20-498h754V0H839v-952H437l-17 394C398-160 328 21 20 0" id="V"/><g id="j"><use transform="matrix(0.010850694444444444,0,0,0.010850694444444444,0,0)" xlink:href="#U"/><use transform="matrix(0.010850694444444444,0,0,0.010850694444444444,17.11154513888889,0)" xlink:href="#x"/><use transform="matrix(0.010850694444444444,0,0,0.010850694444444444,30.436197916666664,0)" xlink:href="#y"/><use transform="matrix(0.010850694444444444,0,0,0.010850694444444444,44.39019097222222,0)" xlink:href="#S"/><use transform="matrix(0.010850694444444444,0,0,0.010850694444444444,57.345920138888886,0)" xlink:href="#V"/><use transform="matrix(0.010850694444444444,0,0,0.010850694444444444,70.12803819444444,0)" xlink:href="#T"/></g><g id="k"><use transform="matrix(0.010850694444444444,0,0,0.010850694444444444,0,0)" xlink:href="#z"/><use transform="matrix(0.010850694444444444,0,0,0.010850694444444444,13.140190972222221,0)" xlink:href="#A"/></g><g id="l"><use transform="matrix(0.010850694444444444,0,0,0.010850694444444444,0,0)" xlink:href="#C"/><use transform="matrix(0.010850694444444444,0,0,0.010850694444444444,12.554253472222221,0)" xlink:href="#D"/><use transform="matrix(0.010850694444444444,0,0,0.010850694444444444,28.917100694444443,0)" xlink:href="#E"/><use transform="matrix(0.010850694444444444,0,0,0.010850694444444444,42.07899305555556,0)" xlink:href="#x"/><use transform="matrix(0.010850694444444444,0,0,0.010850694444444444,55.40364583333333,0)" xlink:href="#F"/><use transform="matrix(0.010850694444444444,0,0,0.010850694444444444,69.01041666666667,0)" xlink:href="#G"/><use transform="matrix(0.010850694444444444,0,0,0.010850694444444444,80.55555555555556,0)" xlink:href="#S"/></g><path d="M180 0v-1490h270l367 940c28 72 75 218 110 339 35-117 81-264 110-339l362-940h271V0h-187c2-448-5-837 7-1287-157 497-311 829-483 1287H842C666-458 514-784 354-1284c12 438 5 843 7 1284H180" id="W"/><path d="M338-717h293c264 0 409 149 409 355C1040-160 894 0 631 0H158v-1118h180v401zm0 167v384h293c132 0 227-77 227-188 0-116-95-196-227-196H338" id="X"/><g id="m"><use transform="matrix(0.010850694444444444,0,0,0.010850694444444444,0,0)" xlink:href="#W"/><use transform="matrix(0.010850694444444444,0,0,0.010850694444444444,20.07378472222222,0)" xlink:href="#x"/><use transform="matrix(0.010850694444444444,0,0,0.010850694444444444,33.3984375,0)" xlink:href="#y"/><use transform="matrix(0.010850694444444444,0,0,0.010850694444444444,47.35243055555556,0)" xlink:href="#S"/><use transform="matrix(0.010850694444444444,0,0,0.010850694444444444,60.30815972222222,0)" xlink:href="#V"/><use transform="matrix(0.010850694444444444,0,0,0.010850694444444444,73.09027777777777,0)" xlink:href="#X"/></g><path d="M714 20c-307 0-550-187-602-489h190c42 204 216 313 412 313 251 0 450-182 473-521H567v-167h617c-33-319-227-490-470-490-196 0-370 109-412 313H112c53-307 299-489 602-489 381 0 660 293 660 766 0 471-278 764-660 764" id="Y"/><g id="n"><use transform="matrix(0.010850694444444444,0,0,0.010850694444444444,0,0)" xlink:href="#Y"/><use transform="matrix(0.010850694444444444,0,0,0.010850694444444444,16.23263888888889,0)" xlink:href="#J"/><use transform="matrix(0.010850694444444444,0,0,0.010850694444444444,26.58420138888889,0)" xlink:href="#A"/><use transform="matrix(0.010850694444444444,0,0,0.010850694444444444,39.0625,0)" xlink:href="#K"/></g><g id="o"><use transform="matrix(0.010850694444444444,0,0,0.010850694444444444,0,0)" xlink:href="#x"/><use transform="matrix(0.010850694444444444,0,0,0.010850694444444444,13.324652777777777,0)" xlink:href="#E"/><use transform="matrix(0.010850694444444444,0,0,0.010850694444444444,26.48654513888889,0)" xlink:href="#I"/><use transform="matrix(0.010850694444444444,0,0,0.010850694444444444,38.8671875,0)" xlink:href="#R"/><use transform="matrix(0.010850694444444444,0,0,0.010850694444444444,51.70355902777778,0)" xlink:href="#S"/><use transform="matrix(0.010850694444444444,0,0,0.010850694444444444,64.65928819444444,0)" xlink:href="#z"/><use transform="matrix(0.010850694444444444,0,0,0.010850694444444444,77.79947916666666,0)" xlink:href="#T"/><use transform="matrix(0.010850694444444444,0,0,0.010850694444444444,90.93967013888889,0)" xlink:href="#T"/><use transform="matrix(0.010850694444444444,0,0,0.010850694444444444,104.07986111111111,0)" xlink:href="#B"/></g><path d="M258 0v-169h104c98 0 156-29 186-102l28-68L52-1490h208c133 299 307 679 396 983 91-283 255-686 375-983h204L720-246C660-101 587 0 359 0H258" id="Z"/><g id="p"><use transform="matrix(0.010850694444444444,0,0,0.010850694444444444,0,0)" xlink:href="#Z"/><use transform="matrix(0.010850694444444444,0,0,0.010850694444444444,12.261284722222221,0)" xlink:href="#v"/><use transform="matrix(0.010850694444444444,0,0,0.010850694444444444,24.95659722222222,0)" xlink:href="#F"/><use transform="matrix(0.010850694444444444,0,0,0.010850694444444444,38.56336805555556,0)" xlink:href="#S"/><use transform="matrix(0.010850694444444444,0,0,0.010850694444444444,51.51909722222222,0)" xlink:href="#y"/><use transform="matrix(0.010850694444444444,0,0,0.010850694444444444,65.47309027777777,0)" xlink:href="#z"/><use transform="matrix(0.010850694444444444,0,0,0.010850694444444444,78.61328125,0)" xlink:href="#S"/><use transform="matrix(0.010850694444444444,0,0,0.010850694444444444,91.56901041666666,0)" xlink:href="#z"/><use transform="matrix(0.010850694444444444,0,0,0.010850694444444444,104.70920138888889,0)" xlink:href="#T"/><use transform="matrix(0.010850694444444444,0,0,0.010850694444444444,117.8493923611111,0)" xlink:href="#S"/></g><g id="q"><use transform="matrix(0.010850694444444444,0,0,0.010850694444444444,0,0)" xlink:href="#x"/><use transform="matrix(0.010850694444444444,0,0,0.010850694444444444,13.324652777777777,0)" xlink:href="#J"/><use transform="matrix(0.010850694444444444,0,0,0.010850694444444444,24.0234375,0)" xlink:href="#C"/><use transform="matrix(0.010850694444444444,0,0,0.010850694444444444,36.57769097222222,0)" xlink:href="#S"/><use transform="matrix(0.010850694444444444,0,0,0.010850694444444444,49.533420138888886,0)" xlink:href="#J"/><use transform="matrix(0.010850694444444444,0,0,0.010850694444444444,59.884982638888886,0)" xlink:href="#A"/></g><use transform="matrix(0.010850694444444444,0,0,0.010850694444444444,0,0)" xlink:href="#O" id="r"/><path d="M1053 0H872v-806h-13L329 0H158v-1118h180v809h13l532-809h170V0zM605-1275c-162 0-290-124-290-283h132c0 91 66 155 158 155s158-64 158-155h132c0 158-127 283-290 283" id="aa"/><g id="s"><use transform="matrix(0.010850694444444444,0,0,0.010850694444444444,0,0)" xlink:href="#U"/><use transform="matrix(0.010850694444444444,0,0,0.010850694444444444,17.11154513888889,0)" xlink:href="#x"/><use transform="matrix(0.010850694444444444,0,0,0.010850694444444444,30.436197916666664,0)" xlink:href="#y"/><use transform="matrix(0.010850694444444444,0,0,0.010850694444444444,44.39019097222222,0)" xlink:href="#S"/><use transform="matrix(0.010850694444444444,0,0,0.010850694444444444,57.345920138888886,0)" xlink:href="#V"/><use transform="matrix(0.010850694444444444,0,0,0.010850694444444444,70.12803819444444,0)" xlink:href="#S"/><use transform="matrix(0.010850694444444444,0,0,0.010850694444444444,83.08376736111111,0)" xlink:href="#aa"/></g><path d="M504 13C281 13 99-100 94-275h184c5 76 107 135 226 135 133 0 226-77 226-180 0-109-97-184-251-184h-73v-134h73c126 0 221-70 221-175 0-100-77-170-191-170-112 0-213 61-216 153H119c4-179 180-300 392-300 224 0 365 139 365 309 0 133-94 218-214 241v8c171 27 258 126 258 264 0 186-174 321-416 321" id="ab"/><g id="t"><use transform="matrix(0.010850694444444444,0,0,0.010850694444444444,0,0)" xlink:href="#K"/><use transform="matrix(0.010850694444444444,0,0,0.010850694444444444,13.06423611111111,0)" xlink:href="#F"/><use transform="matrix(0.010850694444444444,0,0,0.010850694444444444,26.671006944444443,0)" xlink:href="#S"/><use transform="matrix(0.010850694444444444,0,0,0.010850694444444444,39.62673611111111,0)" xlink:href="#y"/><use transform="matrix(0.010850694444444444,0,0,0.010850694444444444,53.580729166666664,0)" xlink:href="#v"/><use transform="matrix(0.010850694444444444,0,0,0.010850694444444444,66.27604166666666,0)" xlink:href="#G"/><use transform="matrix(0.010850694444444444,0,0,0.010850694444444444,78.32031249999999,0)" xlink:href="#A"/><use transform="matrix(0.010850694444444444,0,0,0.010850694444444444,90.79861111111111,0)" xlink:href="#ab"/><use transform="matrix(0.010850694444444444,0,0,0.010850694444444444,101.77951388888887,0)" xlink:href="#A"/><use transform="matrix(0.010850694444444444,0,0,0.010850694444444444,114.25781249999997,0)" xlink:href="#z"/><use transform="matrix(0.010850694444444444,0,0,0.010850694444444444,127.3980034722222,0)" xlink:href="#T"/><use transform="matrix(0.010850694444444444,0,0,0.010850694444444444,140.53819444444443,0)" xlink:href="#B"/></g></defs></g></svg>