<svg xmlns="http://www.w3.org/2000/svg" xmlns:xlink="http://www.w3.org/1999/xlink" xmlns:lucid="lucid" width="1882" height="1470.58"><g transform="translate(-199 261)" lucid:page-tab-id="0_0"><path d="M0-500h2500v2000H0z" fill="#f2f3f5"/><path d="M1020.33-254a6 6 0 0 1 6-6H1614a6 6 0 0 1 6 6v456.58a6 6 0 0 1-6 6h-587.67a6 6 0 0 1-6-6z" fill-opacity="0"/><path d="M1065.5-260h39.2m19.58 0h39.18m19.58 0h39.18m19.6 0h39.17m19.58 0h39.18m19.58 0h39.18m19.6 0h39.17m19.58 0h39.18m19.58 0h39.18m19.6 0H1614a6 6 0 0 1 6 6v19.02m0 19.03v38.05m0 19.02v38.05m0 19.02v38.04m0 19.03V-6.7m0 19.04V50.4m0 19v38.06m0 19.02v38.05m0 19.03v19.02a6 6 0 0 1-6 6h-19.6m-19.58 0h-39.18m-19.58 0h-39.18m-19.6 0h-39.17m-19.58 0h-39.18m-19.58 0h-39.18m-19.6 0h-39.17m-19.58 0h-39.18m-19.58 0h-39.18m-19.6 0h-39.17m-19.58 0h-19.6a6 6 0 0 1-6-6v-19.02m0-19.03v-38.05m0-19.02V69.4m0-19V12.33m0-19.02v-38.05m0-19.03v-38.05m0-19.03v-38.05m0-19.02v-38.05m0-19.03V-254a6 6 0 0 1 6-6h19.6" stroke="#003d87" stroke-width="2" fill="none"/><path d="M1189.3-76.42c28 0 50.7 22.7 50.7 50.7C1240 2.3 1217.3 25 1189.3 25h-78.6c-28 0-50.7-22.7-50.7-50.7 0-28.02 22.7-50.72 50.7-50.72z" stroke="#000" stroke-width="2" fill="#edf5ff"/><use xlink:href="#a" transform="matrix(1,0,0,1,1065,-71.41927083333326) translate(35.55338541666667 53.15277777777778)"/><use xlink:href="#b" transform="matrix(1,0,0,1,1065,-71.41927083333326) translate(125.4079861111111 53.15277777777778)"/><path d="M1535.03-220c28 0 50.7 22.7 50.7 50.7 0 28.02-22.7 50.72-50.7 50.72h-130.06c-28 0-50.7-22.7-50.7-50.7 0-28.02 22.7-50.72 50.7-50.72z" stroke="#000" stroke-width="2" fill="#edf5ff"/><use xlink:href="#c" transform="matrix(1,0,0,1,1359.2603527324052,-215) translate(27.704218750000003 38.77777777777778)"/><use xlink:href="#d" transform="matrix(1,0,0,1,1359.2603527324052,-215) translate(9.529305555555561 71.04340277777777)"/><use xlink:href="#e" transform="matrix(1,0,0,1,1359.2603527324052,-215) translate(129.61394097222222 71.04340277777777)"/><use xlink:href="#f" transform="matrix(1,0,0,1,1359.2603527324052,-215) translate(148.41819444444445 71.04340277777777)"/><use xlink:href="#b" transform="matrix(1,0,0,1,1359.2603527324052,-215) translate(203.44206597222222 71.04340277777777)"/><path d="M1535.03-76.42c28 0 50.7 22.7 50.7 50.7 0 28.02-22.7 50.72-50.7 50.72h-130.06c-28 0-50.7-22.7-50.7-50.7 0-28.02 22.7-50.72 50.7-50.72z" stroke="#000" stroke-width="2" fill="#edf5ff"/><use xlink:href="#c" transform="matrix(1,0,0,1,1359.2603527324052,-71.41927083333326) translate(27.704218750000003 38.77777777777778)"/><use xlink:href="#d" transform="matrix(1,0,0,1,1359.2603527324052,-71.41927083333326) translate(7.272361111111119 71.04340277777777)"/><use xlink:href="#e" transform="matrix(1,0,0,1,1359.2603527324052,-71.41927083333326) translate(127.35699652777778 71.04340277777777)"/><use xlink:href="#f" transform="matrix(1,0,0,1,1359.2603527324052,-71.41927083333326) translate(146.16125 71.04340277777777)"/><use xlink:href="#g" transform="matrix(1,0,0,1,1359.2603527324052,-71.41927083333326) translate(201.18512152777777 71.04340277777777)"/><path d="M1535.03 67.16c28 0 50.7 22.7 50.7 50.7 0 28.02-22.7 50.72-50.7 50.72h-130.06c-28 0-50.7-22.7-50.7-50.7 0-28.02 22.7-50.72 50.7-50.72z" stroke="#000" stroke-width="2" fill="#edf5ff"/><use xlink:href="#c" transform="matrix(1,0,0,1,1359.2603527324052,72.16145833333348) translate(27.204218750000003 35.90277777777778)"/><use xlink:href="#d" transform="matrix(1,0,0,1,1359.2603527324052,72.16145833333348) translate(5.17730902777779 68.16840277777777)"/><use xlink:href="#e" transform="matrix(1,0,0,1,1359.2603527324052,72.16145833333348) translate(125.26194444444445 68.16840277777777)"/><use xlink:href="#f" transform="matrix(1,0,0,1,1359.2603527324052,72.16145833333348) translate(144.06619791666668 68.16840277777777)"/><use xlink:href="#h" transform="matrix(1,0,0,1,1359.2603527324052,72.16145833333348) translate(199.09006944444445 68.16840277777777)"/><path d="M1455.4 31a6 6 0 0 1 6-6h17.2a6 6 0 0 1 6 6v24.9a6 6 0 0 1-6 6h-17.2a6 6 0 0 1-6-6z" fill="none"/><use xlink:href="#i" transform="matrix(1,0,0,1,1460.3921354166666,30.000000000000014) translate(0 21.58376736111111)"/><path d="M200 420.3a6 6 0 0 1 6-6h148a6 6 0 0 1 6 6v108a6 6 0 0 1-6 6H206a6 6 0 0 1-6-6z" stroke="#000" stroke-width="2" fill="#6db1ff"/><use xlink:href="#j" transform="matrix(1,0,0,1,212,426.29036458333337) translate(15.10828993055555 39.52777777777778)"/><use xlink:href="#k" transform="matrix(1,0,0,1,212,426.29036458333337) translate(21.233506944444443 71.79340277777777)"/><path d="M600-79.7a6 6 0 0 1 6-6h208a6 6 0 0 1 6 6v108a6 6 0 0 1-6 6H606a6 6 0 0 1-6-6z" stroke="#000" stroke-width="2" fill="#6db1ff"/><use xlink:href="#l" transform="matrix(1,0,0,1,612,-73.70963541666663) translate(14.69921875 39.52777777777778)"/><use xlink:href="#m" transform="matrix(1,0,0,1,612,-73.70963541666663) translate(39.531032986111114 71.79340277777777)"/><use xlink:href="#b" transform="matrix(1,0,0,1,612,-73.70963541666663) translate(147.43033854166666 71.79340277777777)"/><path d="M600 420.3a6 6 0 0 1 6-6h208a6 6 0 0 1 6 6v108a6 6 0 0 1-6 6H606a6 6 0 0 1-6-6z" stroke="#000" stroke-width="2" fill="#6db1ff"/><use xlink:href="#l" transform="matrix(1,0,0,1,612,426.29036458333337) translate(14.69921875 39.52777777777778)"/><use xlink:href="#m" transform="matrix(1,0,0,1,612,426.29036458333337) translate(37.27408854166667 71.79340277777777)"/><use xlink:href="#g" transform="matrix(1,0,0,1,612,426.29036458333337) translate(145.17339409722223 71.79340277777777)"/><path d="M600 920.3a6 6 0 0 1 6-6h208a6 6 0 0 1 6 6v108a6 6 0 0 1-6 6H606a6 6 0 0 1-6-6z" stroke="#000" stroke-width="2" fill="#6db1ff"/><use xlink:href="#l" transform="matrix(1,0,0,1,612,926.2903645833334) translate(14.69921875 39.52777777777778)"/><use xlink:href="#m" transform="matrix(1,0,0,1,612,926.2903645833334) translate(35.67903645833334 71.79340277777777)"/><use xlink:href="#h" transform="matrix(1,0,0,1,612,926.2903645833334) translate(143.57834201388889 71.79340277777777)"/><path d="M361.22 453.84l230.5-464.87" stroke="#3a414a" fill="none"/><path d="M361.65 454.04l-.65 1.32v-1.64z" stroke="#3a414a" stroke-width=".05" fill="#3a414a"/><path d="M598.28-24.26L596.1-9.42l-8.3-4.12z" stroke="#3a414a" fill="#3a414a"/><path d="M361.5 474.3h221.12" stroke="#3a414a" fill="none"/><path d="M361.5 474.76h-.5v-.94h.5z" stroke="#3a414a" stroke-width=".05" fill="#3a414a"/><path d="M597.38 474.3l-14.26 4.63v-9.28z" stroke="#3a414a" fill="#3a414a"/><path d="M361.23 501.4l230.4 458.25" stroke="#3a414a" fill="none"/><path d="M361.65 501.2l-.65.33v-1.63z" stroke="#3a414a" stroke-width=".05" fill="#3a414a"/><path d="M598.27 972.85l-10.55-10.67 8.3-4.16z" stroke="#3a414a" fill="#3a414a"/><path d="M821.5-25.7h181.45" stroke="#3a414a" fill="none"/><path d="M821.5-25.23h-.5v-.95h.5z" stroke="#3a414a" stroke-width=".05" fill="#3a414a"/><path d="M1017.7-25.7l-14.25 4.63v-9.27z" stroke="#3a414a" fill="#3a414a"/><path d="M821.5 474.3h181.12" stroke="#3a414a" fill="none"/><path d="M821.5 474.76h-.5v-.94h.5z" stroke="#3a414a" stroke-width=".05" fill="#3a414a"/><path d="M1017.38 474.3l-14.26 4.63v-9.28z" stroke="#3a414a" fill="#3a414a"/><path d="M821.5 974.3h181.12" stroke="#3a414a" fill="none"/><path d="M821.5 974.76h-.5v-.94h.5z" stroke="#3a414a" stroke-width=".05" fill="#3a414a"/><path d="M1017.38 974.3l-14.26 4.63v-9.27z" stroke="#3a414a" fill="#3a414a"/><path d="M2080 474.3c0 49.7-40.3 90-90 90s-90-40.3-90-90c0-49.72 40.3-90 90-90s90 40.28 90 90z" stroke="#000" stroke-width="2" fill="#6db1ff"/><use xlink:href="#n" transform="matrix(1,0,0,1,1905,389.29036458333337) translate(37.18598958333333 74.65277777777777)"/><use xlink:href="#o" transform="matrix(1,0,0,1,1905,389.29036458333337) translate(85.71029513888888 74.65277777777777)"/><use xlink:href="#p" transform="matrix(1,0,0,1,1905,389.29036458333337) translate(116.0813888888889 74.65277777777777)"/><use xlink:href="#q" transform="matrix(1,0,0,1,1905,389.29036458333337) translate(33.025173611111114 106.91840277777777)"/><path d="M1621.28-25.3l286.75 431.53" stroke="#3a414a" fill="none"/><path d="M1621.68-25.55l-.68.46v-1.47z" stroke="#3a414a" stroke-width=".05" fill="#3a414a"/><path d="M1916.2 418.53l-11.75-9.32 7.72-5.12z" stroke="#3a414a" fill="#3a414a"/><path d="M1020 246a6 6 0 0 1 6-6h587.67a6 6 0 0 1 6 6v456.58a6 6 0 0 1-6 6H1026a6 6 0 0 1-6-6z" fill-opacity="0"/><path d="M1065.18 240h39.18m19.58 0h39.18m19.6 0h39.17m19.58 0h39.18m19.58 0h39.18m19.6 0h39.17m19.58 0h39.18m19.58 0h39.18m19.6 0h39.17m19.58 0h19.6a6 6 0 0 1 6 6v19.02m0 19.03v38.05m0 19.02v38.05m0 19.02v38.04m0 19.03v38.05m0 19.02v38.05m0 19v38.06m0 19.02v38.05m0 19.03v19.02a6 6 0 0 1-6 6h-19.6m-19.6 0h-39.17m-19.58 0h-39.18m-19.58 0h-39.18m-19.6 0h-39.17m-19.58 0h-39.18m-19.58 0h-39.18m-19.6 0h-39.17m-19.58 0h-39.18m-19.58 0h-39.18m-19.6 0H1026a6 6 0 0 1-6-6v-19.02m0-19.03v-38.05m0-19.02V569.4m0-19v-38.06m0-19.03v-38.03m0-19.03V398.2m0-19.03v-38.05m0-19.02v-38.05m0-19.03V246a6 6 0 0 1 6-6h19.6" stroke="#003d87" stroke-width="2" fill="none"/><path d="M1188.96 423.58c28 0 50.7 22.7 50.7 50.7 0 28.02-22.7 50.72-50.7 50.72h-78.58c-28 0-50.7-22.7-50.7-50.7 0-28.02 22.7-50.72 50.7-50.72z" stroke="#000" stroke-width="2" fill="#edf5ff"/><use xlink:href="#a" transform="matrix(1,0,0,1,1064.666666666666,428.58072916666674) translate(33.29644097222223 53.15277777777778)"/><use xlink:href="#g" transform="matrix(1,0,0,1,1064.666666666666,428.58072916666674) translate(123.15104166666666 53.15277777777778)"/><path d="M1534.7 280c28 0 50.7 22.7 50.7 50.7 0 28.02-22.7 50.72-50.7 50.72h-130.06c-28 0-50.7-22.7-50.7-50.7 0-28.02 22.7-50.72 50.7-50.72z" stroke="#000" stroke-width="2" fill="#edf5ff"/><use xlink:href="#c" transform="matrix(1,0,0,1,1358.9270193990712,285) translate(27.704218750000003 38.77777777777778)"/><use xlink:href="#d" transform="matrix(1,0,0,1,1358.9270193990712,285) translate(9.529305555555561 71.04340277777777)"/><use xlink:href="#e" transform="matrix(1,0,0,1,1358.9270193990712,285) translate(129.61394097222222 71.04340277777777)"/><use xlink:href="#f" transform="matrix(1,0,0,1,1358.9270193990712,285) translate(148.41819444444445 71.04340277777777)"/><use xlink:href="#b" transform="matrix(1,0,0,1,1358.9270193990712,285) translate(203.44206597222222 71.04340277777777)"/><path d="M1534.7 423.58c28 0 50.7 22.7 50.7 50.7 0 28.02-22.7 50.72-50.7 50.72h-130.06c-28 0-50.7-22.7-50.7-50.7 0-28.02 22.7-50.72 50.7-50.72z" stroke="#000" stroke-width="2" fill="#edf5ff"/><g><use xlink:href="#c" transform="matrix(1,0,0,1,1358.9270193990712,428.58072916666674) translate(27.704218750000003 38.77777777777778)"/><use xlink:href="#d" transform="matrix(1,0,0,1,1358.9270193990712,428.58072916666674) translate(7.272361111111119 71.04340277777777)"/><use xlink:href="#e" transform="matrix(1,0,0,1,1358.9270193990712,428.58072916666674) translate(127.35699652777778 71.04340277777777)"/><use xlink:href="#f" transform="matrix(1,0,0,1,1358.9270193990712,428.58072916666674) translate(146.16125 71.04340277777777)"/><use xlink:href="#g" transform="matrix(1,0,0,1,1358.9270193990712,428.58072916666674) translate(201.18512152777777 71.04340277777777)"/></g><path d="M1534.7 567.16c28 0 50.7 22.7 50.7 50.7 0 28.02-22.7 50.72-50.7 50.72h-130.06c-28 0-50.7-22.7-50.7-50.7 0-28 22.7-50.72 50.7-50.72z" stroke="#000" stroke-width="2" fill="#edf5ff"/><g><use xlink:href="#c" transform="matrix(1,0,0,1,1358.9270193990712,572.1614583333335) translate(27.204218750000003 35.90277777777778)"/><use xlink:href="#d" transform="matrix(1,0,0,1,1358.9270193990712,572.1614583333335) translate(5.17730902777779 68.16840277777777)"/><use xlink:href="#e" transform="matrix(1,0,0,1,1358.9270193990712,572.1614583333335) translate(125.26194444444445 68.16840277777777)"/><use xlink:href="#f" transform="matrix(1,0,0,1,1358.9270193990712,572.1614583333335) translate(144.06619791666668 68.16840277777777)"/><use xlink:href="#h" transform="matrix(1,0,0,1,1358.9270193990712,572.1614583333335) translate(199.09006944444445 68.16840277777777)"/></g><path d="M1455.06 531a6 6 0 0 1 6-6h17.22a6 6 0 0 1 6 6v24.9a6 6 0 0 1-6 6h-17.22a6 6 0 0 1-6-6z" fill="none"/><g><use xlink:href="#i" transform="matrix(1,0,0,1,1460.0588020833327,530) translate(0 21.58376736111111)"/></g><path d="M1020 746a6 6 0 0 1 6-6h587.67a6 6 0 0 1 6 6v456.58a6 6 0 0 1-6 6H1026a6 6 0 0 1-6-6z" fill-opacity="0"/><path d="M1065.18 740h39.18m19.58 0h39.18m19.6 0h39.17m19.58 0h39.18m19.58 0h39.18m19.6 0h39.17m19.58 0h39.18m19.58 0h39.18m19.6 0h39.17m19.58 0h19.6a6 6 0 0 1 6 6v19.02m0 19.03v38.05m0 19.02v38.05m0 19.02v38.04m0 19.03v38.05m0 19.02v38.05m0 19v38.06m0 19.02v38.05m0 19.03v19.02a6 6 0 0 1-6 6h-19.6m-19.6 0h-39.17m-19.58 0h-39.18m-19.58 0h-39.18m-19.6 0h-39.17m-19.58 0h-39.18m-19.58 0h-39.18m-19.6 0h-39.17m-19.58 0h-39.18m-19.58 0h-39.18m-19.6 0H1026a6 6 0 0 1-6-6v-19.02m0-19.03v-38.05m0-19.02v-38.05m0-19v-38.06m0-19.02v-38.05m0-19.03V898.2m0-19.03v-38.05m0-19.02v-38.05m0-19.03V746a6 6 0 0 1 6-6h19.6" stroke="#003d87" stroke-width="2" fill="none"/><path d="M1188.96 923.58c28 0 50.7 22.7 50.7 50.7 0 28.02-22.7 50.72-50.7 50.72h-78.58c-28 0-50.7-22.7-50.7-50.7 0-28.02 22.7-50.72 50.7-50.72z" stroke="#000" stroke-width="2" fill="#edf5ff"/><g><use xlink:href="#a" transform="matrix(1,0,0,1,1064.666666666666,928.5807291666667) translate(33.20963541666667 53.15277777777778)"/><use xlink:href="#r" transform="matrix(1,0,0,1,1064.666666666666,928.5807291666667) translate(123.0642361111111 53.15277777777778)"/></g><path d="M1534.7 780c28 0 50.7 22.7 50.7 50.7 0 28.02-22.7 50.72-50.7 50.72h-130.06c-28 0-50.7-22.7-50.7-50.7 0-28.02 22.7-50.72 50.7-50.72z" stroke="#000" stroke-width="2" fill="#edf5ff"/><g><use xlink:href="#l" transform="matrix(1,0,0,1,1358.9270193990712,785) translate(27.704218750000003 38.77777777777778)"/><use xlink:href="#d" transform="matrix(1,0,0,1,1358.9270193990712,785) translate(9.529305555555561 71.04340277777777)"/><use xlink:href="#e" transform="matrix(1,0,0,1,1358.9270193990712,785) translate(129.61394097222222 71.04340277777777)"/><use xlink:href="#f" transform="matrix(1,0,0,1,1358.9270193990712,785) translate(148.41819444444445 71.04340277777777)"/><use xlink:href="#b" transform="matrix(1,0,0,1,1358.9270193990712,785) translate(203.44206597222222 71.04340277777777)"/></g><path d="M1534.7 923.58c28 0 50.7 22.7 50.7 50.7 0 28.02-22.7 50.72-50.7 50.72h-130.06c-28 0-50.7-22.7-50.7-50.7 0-28.02 22.7-50.72 50.7-50.72z" stroke="#000" stroke-width="2" fill="#edf5ff"/><g><use xlink:href="#c" transform="matrix(1,0,0,1,1358.9270193990712,928.5807291666667) translate(27.704218750000003 38.77777777777778)"/><use xlink:href="#d" transform="matrix(1,0,0,1,1358.9270193990712,928.5807291666667) translate(7.272361111111119 71.04340277777777)"/><use xlink:href="#e" transform="matrix(1,0,0,1,1358.9270193990712,928.5807291666667) translate(127.35699652777778 71.04340277777777)"/><use xlink:href="#f" transform="matrix(1,0,0,1,1358.9270193990712,928.5807291666667) translate(146.16125 71.04340277777777)"/><use xlink:href="#g" transform="matrix(1,0,0,1,1358.9270193990712,928.5807291666667) translate(201.18512152777777 71.04340277777777)"/></g><path d="M1534.7 1067.16c28 0 50.7 22.7 50.7 50.7 0 28.02-22.7 50.72-50.7 50.72h-130.06c-28 0-50.7-22.7-50.7-50.7 0-28.02 22.7-50.72 50.7-50.72z" stroke="#000" stroke-width="2" fill="#edf5ff"/><g><use xlink:href="#c" transform="matrix(1,0,0,1,1358.9270193990712,1072.1614583333333) translate(27.204218750000003 35.90277777777778)"/><use xlink:href="#d" transform="matrix(1,0,0,1,1358.9270193990712,1072.1614583333333) translate(5.17730902777779 68.16840277777777)"/><use xlink:href="#e" transform="matrix(1,0,0,1,1358.9270193990712,1072.1614583333333) translate(125.26194444444445 68.16840277777777)"/><use xlink:href="#f" transform="matrix(1,0,0,1,1358.9270193990712,1072.1614583333333) translate(144.06619791666668 68.16840277777777)"/><use xlink:href="#h" transform="matrix(1,0,0,1,1358.9270193990712,1072.1614583333333) translate(199.09006944444445 68.16840277777777)"/></g><path d="M1455.06 1031a6 6 0 0 1 6-6h17.22a6 6 0 0 1 6 6v24.9a6 6 0 0 1-6 6h-17.22a6 6 0 0 1-6-6z" fill="none"/><g><use xlink:href="#i" transform="matrix(1,0,0,1,1460.0588020833327,1030) translate(0 21.58376736111111)"/></g><path d="M1621.17 474.3h261.45" stroke="#3a414a" fill="none"/><path d="M1621.18 474.76h-.5v-.94h.5z" stroke="#3a414a" stroke-width=".05" fill="#3a414a"/><path d="M1897.38 474.3l-14.26 4.63v-9.28z" stroke="#3a414a" fill="#3a414a"/><path d="M1620.94 973.87l287.52-430.93" stroke="#3a414a" fill="none"/><path d="M1621.35 974.13l-.68 1.02v-1.48z" stroke="#3a414a" stroke-width=".05" fill="#3a414a"/><path d="M1916.65 530.65l-4.06 14.44-7.72-5.15z" stroke="#3a414a" fill="#3a414a"/><defs><path d="M98 320v-487h122c98-87 175-264 210-695l51-628h933v1323h166v487h-183V0H280v320H98zm341-487h785v-1156H655c-33 377-54 985-216 1156" id="s"/><path d="M628 24c-324 0-524-230-524-574 0-343 198-582 503-582 237 0 487 146 487 559v75H286c9 234 145 362 343 362 132 0 231-58 273-172l174 48C1024-91 857 24 628 24zM287-650h624c-17-190-120-322-304-322-192 0-309 151-320 322" id="t"/><path d="M158 418v-1536h174v179h20c37-59 106-193 324-193 279 0 474 222 474 576 0 356-194 580-473 580-213 0-288-135-325-197h-14v591H158zm492-555c209 0 317-186 317-421 0-232-105-413-317-413-206 0-314 166-314 413 0 249 111 421 314 421" id="u"/><path d="M158 0v-1118h457c242 0 397 118 397 298 0 131-85 205-218 232 129 19 261 115 261 288S916 0 686 0H158zm171-164h357c115 0 184-58 184-152 0-114-70-182-184-182H329v334zm0-485h287c134 0 215-60 215-156 0-93-82-149-216-149H329v305" id="v"/><path d="M613 24c-304 0-509-231-509-576 0-350 205-580 509-580 305 0 511 230 511 580 0 345-206 576-511 576zm0-161c226 0 329-195 329-415 0-222-103-419-329-419-223 0-326 196-326 419 0 220 103 415 326 415" id="w"/><g id="a"><use transform="matrix(0.010850694444444444,0,0,0.010850694444444444,0,0)" xlink:href="#s"/><use transform="matrix(0.010850694444444444,0,0,0.010850694444444444,18.20746527777778,0)" xlink:href="#t"/><use transform="matrix(0.010850694444444444,0,0,0.010850694444444444,31.163194444444443,0)" xlink:href="#u"/><use transform="matrix(0.010850694444444444,0,0,0.010850694444444444,44.76996527777778,0)" xlink:href="#t"/><use transform="matrix(0.010850694444444444,0,0,0.010850694444444444,57.725694444444436,0)" xlink:href="#v"/><use transform="matrix(0.010850694444444444,0,0,0.010850694444444444,70.27994791666666,0)" xlink:href="#w"/></g><path d="M653-1490V0H466v-1314h-10L96-1047v-204l324-239h233" id="x"/><use transform="matrix(0.010850694444444444,0,0,0.010850694444444444,0,0)" xlink:href="#x" id="b"/><path d="M1342-1490V0h-190v-1322H370V0H180v-1490h1162" id="y"/><path d="M38 321v-487h92c91-92 130-206 156-514l37-438h721v952h170v487h-179V0H218v321H38zm296-487h531v-786H486c-25 270-41 659-152 786" id="z"/><path d="M158 0v-1118h270c115 298 279 624 361 942 79-316 244-646 356-942h274V0h-181c1-327-2-645 4-968-88 330-255 658-376 968H708C586-305 423-627 332-951c8 309 4 634 5 951H158" id="A"/><path d="M338-1118v477h534v-477h181V0H872v-475H338V0H158v-1118h180" id="B"/><path d="M65 0l449-569-443-549h213l368 475h89v-475h180v475h87l366-475h215l-442 549L1594 0h-217l-371-477h-85V0H741v-477h-85L283 0H65" id="C"/><path d="M613 24c-304 0-509-231-509-576 0-350 205-580 509-580 216 0 392 114 453 309l-173 49c-33-115-133-197-280-197-223 0-326 196-326 419 0 220 103 415 326 415 150 0 252-85 285-206l172 49C1010-95 832 24 613 24" id="D"/><path d="M388 0v-957H20v-161h914v161H568V0H388" id="E"/><g id="c"><use transform="matrix(0.010850694444444444,0,0,0.010850694444444444,0,0)" xlink:href="#y"/><use transform="matrix(0.010850694444444444,0,0,0.010850694444444444,16.514756944444443,0)" xlink:href="#w"/><use transform="matrix(0.010850694444444444,0,0,0.010850694444444444,29.83940972222222,0)" xlink:href="#z"/><use transform="matrix(0.010850694444444444,0,0,0.010850694444444444,43.79340277777778,0)" xlink:href="#A"/><use transform="matrix(0.010850694444444444,0,0,0.010850694444444444,60.90494791666667,0)" xlink:href="#B"/><use transform="matrix(0.010850694444444444,0,0,0.010850694444444444,74.04513888888889,0)" xlink:href="#w"/><use transform="matrix(0.010850694444444444,0,0,0.010850694444444444,86.87065972222221,0)" xlink:href="#C"/><use transform="matrix(0.010850694444444444,0,0,0.010850694444444444,104.37282986111111,0)" xlink:href="#t"/><use transform="matrix(0.010850694444444444,0,0,0.010850694444444444,117.32855902777777,0)" xlink:href="#D"/><use transform="matrix(0.010850694444444444,0,0,0.010850694444444444,130.02387152777777,0)" xlink:href="#E"/><use transform="matrix(0.010850694444444444,0,0,0.010850694444444444,140.72265625,0)" xlink:href="#v"/><use transform="matrix(0.010850694444444444,0,0,0.010850694444444444,153.27690972222223,0)" xlink:href="#w"/></g><path d="M1046-1118V0H866v-952H339V0H158v-1118h888" id="F"/><path d="M1053 0H872v-806h-13L329 0H158v-1118h180v809h13l532-809h170V0" id="G"/><path d="M504 13C281 13 99-100 94-275h184c5 76 107 135 226 135 133 0 226-77 226-180 0-109-97-184-251-184h-73v-134h73c126 0 221-70 221-175 0-100-77-170-191-170-112 0-213 61-216 153H119c4-179 180-300 392-300 224 0 365 139 365 309 0 133-94 218-214 241v8c171 27 258 126 258 264 0 186-174 321-416 321" id="H"/><path d="M471 26C259 26 90-98 90-318c0-256 228-303 435-329 202-27 287-16 287-108 0-139-79-219-234-219-161 0-248 86-283 164l-173-57c86-203 278-265 451-265 150 0 419 46 419 395V0H815v-152h-12C765-73 660 26 471 26zm31-159c199 0 310-134 310-271v-155c-30 35-226 55-295 64-131 17-246 59-246 186 0 116 97 176 231 176" id="I"/><path d="M158 0v-1118h180v484h112l398-484h228L630-577 1082 0H854L493-468H338V0H158" id="J"/><g id="d"><use transform="matrix(0.010850694444444444,0,0,0.010850694444444444,0,0)" xlink:href="#F"/><use transform="matrix(0.010850694444444444,0,0,0.010850694444444444,13.06423611111111,0)" xlink:href="#u"/><use transform="matrix(0.010850694444444444,0,0,0.010850694444444444,26.671006944444443,0)" xlink:href="#G"/><use transform="matrix(0.010850694444444444,0,0,0.010850694444444444,39.811197916666664,0)" xlink:href="#H"/><use transform="matrix(0.010850694444444444,0,0,0.010850694444444444,50.79210069444444,0)" xlink:href="#B"/><use transform="matrix(0.010850694444444444,0,0,0.010850694444444444,63.932291666666664,0)" xlink:href="#I"/><use transform="matrix(0.010850694444444444,0,0,0.010850694444444444,76.41059027777777,0)" xlink:href="#J"/><use transform="matrix(0.010850694444444444,0,0,0.010850694444444444,87.95572916666666,0)" xlink:href="#w"/><use transform="matrix(0.010850694444444444,0,0,0.010850694444444444,101.28038194444441,0)" xlink:href="#v"/></g><use transform="matrix(0.010850694444444444,0,0,0.010850694444444444,0,0)" xlink:href="#v" id="e"/><path d="M140 405l46-156c120 36 205 19 263-150l32-93L54-1118h197c107 313 237 620 324 950 87-331 219-637 326-950h196L606 167c-68 178-176 259-334 259-64 0-113-12-132-21" id="K"/><path d="M20 0v-166h40c130 0 171-81 186-454l20-498h754V0H839v-952H437l-17 394C398-160 328 21 20 0" id="L"/><g id="f"><use transform="matrix(0.010850694444444444,0,0,0.010850694444444444,0,0)" xlink:href="#K"/><use transform="matrix(0.010850694444444444,0,0,0.010850694444444444,12.055121527777777,0)" xlink:href="#H"/><use transform="matrix(0.010850694444444444,0,0,0.010850694444444444,23.036024305555554,0)" xlink:href="#L"/><use transform="matrix(0.010850694444444444,0,0,0.010850694444444444,35.81814236111111,0)" xlink:href="#t"/></g><path d="M154 0v-137l495-537c165-179 249-281 249-418 0-156-121-253-280-253-170 0-278 110-278 278H158c0-264 200-443 465-443 266 0 455 183 455 416 0 161-73 288-336 568L416-179v12h687V0H154" id="M"/><use transform="matrix(0.010850694444444444,0,0,0.010850694444444444,0,0)" xlink:href="#M" id="g"/><path d="M180 0v-1490h224l606 953c40 63 108 177 176 312-27-437-7-821-13-1265h190V0h-226C860-448 622-778 356-1262c27 476 11 792 15 1262H180" id="N"/><use transform="matrix(0.010850694444444444,0,0,0.010850694444444444,0,0)" xlink:href="#N" id="h"/><path d="M295 13c-75 0-135-60-135-135s60-135 135-135 135 60 135 135S370 13 295 13" id="O"/><g id="i"><use transform="matrix(0.010850694444444444,0,0,0.010850694444444444,0,0)" xlink:href="#O"/><use transform="matrix(0.010850694444444444,0,0,0.010850694444444444,6.401909722222222,0)" xlink:href="#O"/><use transform="matrix(0.010850694444444444,0,0,0.010850694444444444,12.803819444444445,0)" xlink:href="#O"/></g><path d="M1363 0h-191c4-468-12-788 15-1262C918-774 685-451 406 0H180v-1490h190c-6 443 14 830-13 1265 68-135 136-249 176-312l606-953h224V0" id="P"/><path d="M65 0l393-574-370-544h210c88 136 192 297 267 435 67-142 176-302 264-435h206L661-564 1053 0H844c-94-144-206-310-287-458C484-308 366-142 273 0H65" id="Q"/><path d="M977 0H798v-419H508L254 0H47l277-449C171-500 96-614 96-764c0-208 141-354 436-354h445V0zM798-570v-391H546c-192 0-270 73-270 197 0 123 78 194 268 194h254" id="R"/><g id="j"><use transform="matrix(0.010850694444444444,0,0,0.010850694444444444,0,0)" xlink:href="#P"/><use transform="matrix(0.010850694444444444,0,0,0.010850694444444444,16.74262152777778,0)" xlink:href="#D"/><use transform="matrix(0.010850694444444444,0,0,0.010850694444444444,28.938802083333336,0)" xlink:href="#Q"/><use transform="matrix(0.010850694444444444,0,0,0.010850694444444444,40.570746527777786,0)" xlink:href="#w"/><use transform="matrix(0.010850694444444444,0,0,0.010850694444444444,53.895399305555564,0)" xlink:href="#z"/><use transform="matrix(0.010850694444444444,0,0,0.010850694444444444,67.84939236111111,0)" xlink:href="#B"/><use transform="matrix(0.010850694444444444,0,0,0.010850694444444444,80.98958333333334,0)" xlink:href="#I"/><use transform="matrix(0.010850694444444444,0,0,0.010850694444444444,93.46788194444446,0)" xlink:href="#R"/></g><path d="M338-717h293c264 0 409 149 409 355C1040-160 894 0 631 0H158v-1118h180v401zM1170 0v-1118h180V0h-180zM338-550v384h293c132 0 227-77 227-188 0-116-95-196-227-196H338" id="S"/><path d="M993-1535l88 111c-103 99-256 94-455 101-229 8-342 151-365 447h14c74-139 216-204 371-204 263 0 463 187 463 537S910 24 609 24c-303 0-505-216-505-630v-116c0-497 169-758 515-768 139-7 304 19 374-45zM610-137c197 0 317-159 317-406 0-239-120-377-321-377-195 0-319 138-319 377 0 245 122 406 323 406" id="T"/><g id="k"><use transform="matrix(0.010850694444444444,0,0,0.010850694444444444,0,0)" xlink:href="#v"/><use transform="matrix(0.010850694444444444,0,0,0.010850694444444444,12.554253472222221,0)" xlink:href="#S"/><use transform="matrix(0.010850694444444444,0,0,0.010850694444444444,28.917100694444443,0)" xlink:href="#T"/><use transform="matrix(0.010850694444444444,0,0,0.010850694444444444,42.07899305555556,0)" xlink:href="#w"/><use transform="matrix(0.010850694444444444,0,0,0.010850694444444444,55.40364583333333,0)" xlink:href="#u"/><use transform="matrix(0.010850694444444444,0,0,0.010850694444444444,69.01041666666667,0)" xlink:href="#J"/><use transform="matrix(0.010850694444444444,0,0,0.010850694444444444,81.0546875,0)" xlink:href="#I"/></g><g id="l"><use transform="matrix(0.010850694444444444,0,0,0.010850694444444444,0,0)" xlink:href="#y"/><use transform="matrix(0.010850694444444444,0,0,0.010850694444444444,16.514756944444443,0)" xlink:href="#w"/><use transform="matrix(0.010850694444444444,0,0,0.010850694444444444,29.83940972222222,0)" xlink:href="#z"/><use transform="matrix(0.010850694444444444,0,0,0.010850694444444444,43.79340277777778,0)" xlink:href="#A"/><use transform="matrix(0.010850694444444444,0,0,0.010850694444444444,60.90494791666667,0)" xlink:href="#B"/><use transform="matrix(0.010850694444444444,0,0,0.010850694444444444,74.04513888888889,0)" xlink:href="#w"/><use transform="matrix(0.010850694444444444,0,0,0.010850694444444444,86.87065972222221,0)" xlink:href="#C"/><use transform="matrix(0.010850694444444444,0,0,0.010850694444444444,104.37282986111111,0)" xlink:href="#t"/><use transform="matrix(0.010850694444444444,0,0,0.010850694444444444,117.32855902777777,0)" xlink:href="#D"/><use transform="matrix(0.010850694444444444,0,0,0.010850694444444444,130.02387152777777,0)" xlink:href="#E"/><use transform="matrix(0.010850694444444444,0,0,0.010850694444444444,140.72265625,0)" xlink:href="#v"/><use transform="matrix(0.010850694444444444,0,0,0.010850694444444444,153.27690972222223,0)" xlink:href="#w"/></g><path d="M20-972v-146h492v401h293c264 0 409 149 409 355 0 202-146 362-409 362H332v-972H20zm492 422v384h293c132 0 227-77 227-188 0-116-95-196-227-196H512" id="U"/><g id="m"><use transform="matrix(0.010850694444444444,0,0,0.010850694444444444,0,0)" xlink:href="#w"/><use transform="matrix(0.010850694444444444,0,0,0.010850694444444444,13.324652777777777,0)" xlink:href="#T"/><use transform="matrix(0.010850694444444444,0,0,0.010850694444444444,26.48654513888889,0)" xlink:href="#U"/><use transform="matrix(0.010850694444444444,0,0,0.010850694444444444,40.787760416666664,0)" xlink:href="#t"/><use transform="matrix(0.010850694444444444,0,0,0.010850694444444444,53.74348958333333,0)" xlink:href="#J"/><use transform="matrix(0.010850694444444444,0,0,0.010850694444444444,65.78776041666666,0)" xlink:href="#E"/><use transform="matrix(0.010850694444444444,0,0,0.010850694444444444,75.77039930555554,0)" xlink:href="#w"/><use transform="matrix(0.010850694444444444,0,0,0.010850694444444444,89.09505208333331,0)" xlink:href="#v"/></g><path d="M98 0v-167c185 6 228-39 255-364l79-959h920V0h-190v-1323H605l-66 808C507-137 420 16 98 0" id="V"/><g id="n"><use transform="matrix(0.010850694444444444,0,0,0.010850694444444444,0,0)" xlink:href="#V"/><use transform="matrix(0.010850694444444444,0,0,0.010850694444444444,16.62326388888889,0)" xlink:href="#t"/><use transform="matrix(0.010850694444444444,0,0,0.010850694444444444,29.57899305555556,0)" xlink:href="#D"/></g><g id="o"><use transform="matrix(0.010850694444444444,0,0,0.010850694444444444,0,0)" xlink:href="#G"/><use transform="matrix(0.010850694444444444,0,0,0.010850694444444444,13.140190972222221,0)" xlink:href="#H"/></g><use transform="matrix(0.010850694444444444,0,0,0.010850694444444444,0,0)" xlink:href="#N" id="p"/><path d="M338-717h293c264 0 409 149 409 355C1040-160 894 0 631 0H158v-1118h180v401zm0 167v384h293c132 0 227-77 227-188 0-116-95-196-227-196H338" id="W"/><g id="q"><use transform="matrix(0.010850694444444444,0,0,0.010850694444444444,0,0)" xlink:href="#z"/><use transform="matrix(0.010850694444444444,0,0,0.010850694444444444,13.953993055555555,0)" xlink:href="#t"/><use transform="matrix(0.010850694444444444,0,0,0.010850694444444444,26.90972222222222,0)" xlink:href="#u"/><use transform="matrix(0.010850694444444444,0,0,0.010850694444444444,40.51649305555556,0)" xlink:href="#t"/><use transform="matrix(0.010850694444444444,0,0,0.010850694444444444,53.47222222222222,0)" xlink:href="#v"/><use transform="matrix(0.010850694444444444,0,0,0.010850694444444444,66.02647569444444,0)" xlink:href="#W"/><use transform="matrix(0.010850694444444444,0,0,0.010850694444444444,78.43967013888889,0)" xlink:href="#t"/><use transform="matrix(0.010850694444444444,0,0,0.010850694444444444,91.39539930555556,0)" xlink:href="#v"/></g><path d="M635 20c-292 0-500-160-510-396h192c11 142 145 229 315 229 187 0 323-105 323-260 0-161-125-274-346-274H488v-165h121c174 0 294-100 294-254 0-148-104-245-266-245-152 0-291 85-297 230H157c8-234 222-395 484-395 278 0 448 188 448 400 0 168-95 291-247 336v12c190 31 301 169 301 357 0 244-216 425-508 425" id="X"/><use transform="matrix(0.010850694444444444,0,0,0.010850694444444444,0,0)" xlink:href="#X" id="r"/></defs></g></svg>