<?xml version="1.0" encoding="utf-8" standalone="no"?>
<!DOCTYPE svg PUBLIC "-//W3C//DTD SVG 1.1//EN"
  "http://www.w3.org/Graphics/SVG/1.1/DTD/svg11.dtd">
<svg xmlns:xlink="http://www.w3.org/1999/xlink" width="460.8pt" height="345.6pt" viewBox="0 0 460.8 345.6" xmlns="http://www.w3.org/2000/svg" version="1.1">
 <metadata>
  <rdf:RDF xmlns:dc="http://purl.org/dc/elements/1.1/" xmlns:cc="http://creativecommons.org/ns#" xmlns:rdf="http://www.w3.org/1999/02/22-rdf-syntax-ns#">
   <cc:Work>
    <dc:type rdf:resource="http://purl.org/dc/dcmitype/StillImage"/>
    <dc:date>2026-04-08T10:21:52.700760</dc:date>
    <dc:format>image/svg+xml</dc:format>
    <dc:creator>
     <cc:Agent>
      <dc:title>Matplotlib v3.10.0, https://matplotlib.org/</dc:title>
     </cc:Agent>
    </dc:creator>
   </cc:Work>
  </rdf:RDF>
 </metadata>
 <defs>
  <style type="text/css">*{stroke-linejoin: round; stroke-linecap: butt}</style>
 </defs>
 <g id="figure_1">
  <g id="patch_1">
   <path d="M 0 345.6 
L 460.8 345.6 
L 460.8 0 
L 0 0 
z
" style="fill: #ffffff"/>
  </g>
  <g id="axes_1">
   <g id="patch_2">
    <path d="M 57.6 307.584 
L 414.72 307.584 
L 414.72 41.472 
L 57.6 41.472 
z
" style="fill: #ffffff"/>
   </g>
   <g id="PathCollection_1">
    <defs>
     <path id="m069255f46a" d="M 0 3 
C 0.795609 3 1.55874 2.683901 2.12132 2.12132 
C 2.683901 1.55874 3 0.795609 3 0 
C 3 -0.795609 2.683901 -1.55874 2.12132 -2.12132 
C 1.55874 -2.683901 0.795609 -3 0 -3 
C -0.795609 -3 -1.55874 -2.683901 -2.12132 -2.12132 
C -2.683901 -1.55874 -3 -0.795609 -3 0 
C -3 0.795609 -2.683901 1.55874 -2.12132 2.12132 
C -1.55874 2.683901 -0.795609 3 0 3 
z
" style="stroke: #1f77b4"/>
    </defs>
    <g clip-path="url(#p2973bf34f8)">
     <use xlink:href="#m069255f46a" x="331.923924" y="189.184618" style="fill: #1f77b4; stroke: #1f77b4"/>
     <use xlink:href="#m069255f46a" x="203.3143" y="165.193893" style="fill: #1f77b4; stroke: #1f77b4"/>
     <use xlink:href="#m069255f46a" x="381.947745" y="233.532095" style="fill: #1f77b4; stroke: #1f77b4"/>
     <use xlink:href="#m069255f46a" x="344.336421" y="213.196807" style="fill: #1f77b4; stroke: #1f77b4"/>
     <use xlink:href="#m069255f46a" x="343.465212" y="214.324053" style="fill: #1f77b4; stroke: #1f77b4"/>
     <use xlink:href="#m069255f46a" x="85.724636" y="104.303778" style="fill: #1f77b4; stroke: #1f77b4"/>
     <use xlink:href="#m069255f46a" x="327.619904" y="197.348519" style="fill: #1f77b4; stroke: #1f77b4"/>
     <use xlink:href="#m069255f46a" x="238.224599" y="187.52062" style="fill: #1f77b4; stroke: #1f77b4"/>
     <use xlink:href="#m069255f46a" x="93.312402" y="125.530763" style="fill: #1f77b4; stroke: #1f77b4"/>
     <use xlink:href="#m069255f46a" x="338.111891" y="198.529563" style="fill: #1f77b4; stroke: #1f77b4"/>
     <use xlink:href="#m069255f46a" x="93.265738" y="116.415162" style="fill: #1f77b4; stroke: #1f77b4"/>
     <use xlink:href="#m069255f46a" x="164.442991" y="157.917619" style="fill: #1f77b4; stroke: #1f77b4"/>
     <use xlink:href="#m069255f46a" x="229.848669" y="179.30682" style="fill: #1f77b4; stroke: #1f77b4"/>
     <use xlink:href="#m069255f46a" x="124.329993" y="157.745707" style="fill: #1f77b4; stroke: #1f77b4"/>
     <use xlink:href="#m069255f46a" x="344.45603" y="202.373531" style="fill: #1f77b4; stroke: #1f77b4"/>
     <use xlink:href="#m069255f46a" x="247.087826" y="183.601869" style="fill: #1f77b4; stroke: #1f77b4"/>
     <use xlink:href="#m069255f46a" x="355.228143" y="203.331657" style="fill: #1f77b4; stroke: #1f77b4"/>
     <use xlink:href="#m069255f46a" x="164.323357" y="159.99883" style="fill: #1f77b4; stroke: #1f77b4"/>
     <use xlink:href="#m069255f46a" x="308.294815" y="175.531127" style="fill: #1f77b4; stroke: #1f77b4"/>
     <use xlink:href="#m069255f46a" x="131.505672" y="161.126667" style="fill: #1f77b4; stroke: #1f77b4"/>
    </g>
   </g>
   <g id="PathCollection_2">
    <defs>
     <path id="m48dcf40a67" d="M 0 3 
C 0.795609 3 1.55874 2.683901 2.12132 2.12132 
C 2.683901 1.55874 3 0.795609 3 0 
C 3 -0.795609 2.683901 -1.55874 2.12132 -2.12132 
C 1.55874 -2.683901 0.795609 -3 0 -3 
C -0.795609 -3 -1.55874 -2.683901 -2.12132 -2.12132 
C -2.683901 -1.55874 -3 -0.795609 -3 0 
C -3 0.795609 -2.683901 1.55874 -2.12132 2.12132 
C -1.55874 2.683901 -0.795609 3 0 3 
z
" style="stroke: #ff7f0e"/>
    </defs>
    <g clip-path="url(#p2973bf34f8)">
     <use xlink:href="#m48dcf40a67" x="272.263596" y="179.982018" style="fill: #ff7f0e; stroke: #ff7f0e"/>
     <use xlink:href="#m48dcf40a67" x="154.328483" y="158.125892" style="fill: #ff7f0e; stroke: #ff7f0e"/>
     <use xlink:href="#m48dcf40a67" x="214.147037" y="180.843506" style="fill: #ff7f0e; stroke: #ff7f0e"/>
     <use xlink:href="#m48dcf40a67" x="196.694018" y="166.847783" style="fill: #ff7f0e; stroke: #ff7f0e"/>
     <use xlink:href="#m48dcf40a67" x="95.028173" y="136.625193" style="fill: #ff7f0e; stroke: #ff7f0e"/>
     <use xlink:href="#m48dcf40a67" x="131.536241" y="145.783298" style="fill: #ff7f0e; stroke: #ff7f0e"/>
     <use xlink:href="#m48dcf40a67" x="303.754412" y="179.772891" style="fill: #ff7f0e; stroke: #ff7f0e"/>
     <use xlink:href="#m48dcf40a67" x="288.106526" y="189.266565" style="fill: #ff7f0e; stroke: #ff7f0e"/>
     <use xlink:href="#m48dcf40a67" x="204.308028" y="167.567814" style="fill: #ff7f0e; stroke: #ff7f0e"/>
     <use xlink:href="#m48dcf40a67" x="278.625706" y="178.416922" style="fill: #ff7f0e; stroke: #ff7f0e"/>
     <use xlink:href="#m48dcf40a67" x="280.209333" y="171.100827" style="fill: #ff7f0e; stroke: #ff7f0e"/>
     <use xlink:href="#m48dcf40a67" x="362.309427" y="225.006378" style="fill: #ff7f0e; stroke: #ff7f0e"/>
     <use xlink:href="#m48dcf40a67" x="139.926109" y="147.795479" style="fill: #ff7f0e; stroke: #ff7f0e"/>
     <use xlink:href="#m48dcf40a67" x="316.754603" y="183.765159" style="fill: #ff7f0e; stroke: #ff7f0e"/>
     <use xlink:href="#m48dcf40a67" x="212.704092" y="162.78444" style="fill: #ff7f0e; stroke: #ff7f0e"/>
     <use xlink:href="#m48dcf40a67" x="347.159735" y="202.561775" style="fill: #ff7f0e; stroke: #ff7f0e"/>
     <use xlink:href="#m48dcf40a67" x="138.83093" y="155.1204" style="fill: #ff7f0e; stroke: #ff7f0e"/>
     <use xlink:href="#m48dcf40a67" x="137.168973" y="162.377926" style="fill: #ff7f0e; stroke: #ff7f0e"/>
     <use xlink:href="#m48dcf40a67" x="114.11504" y="138.763723" style="fill: #ff7f0e; stroke: #ff7f0e"/>
     <use xlink:href="#m48dcf40a67" x="406.026155" y="290.905703" style="fill: #ff7f0e; stroke: #ff7f0e"/>
    </g>
   </g>
   <g id="PathCollection_3">
    <defs>
     <path id="m254ac3f381" d="M 0 3 
C 0.795609 3 1.55874 2.683901 2.12132 2.12132 
C 2.683901 1.55874 3 0.795609 3 0 
C 3 -0.795609 2.683901 -1.55874 2.12132 -2.12132 
C 1.55874 -2.683901 0.795609 -3 0 -3 
C -0.795609 -3 -1.55874 -2.683901 -2.12132 -2.12132 
C -2.683901 -1.55874 -3 -0.795609 -3 0 
C -3 0.795609 -2.683901 1.55874 -2.12132 2.12132 
C -1.55874 2.683901 -0.795609 3 0 3 
z
" style="stroke: #2ca02c"/>
    </defs>
    <g clip-path="url(#p2973bf34f8)">
     <use xlink:href="#m254ac3f381" x="293.297204" y="189.271194" style="fill: #2ca02c; stroke: #2ca02c"/>
     <use xlink:href="#m254ac3f381" x="138.296374" y="154.963" style="fill: #2ca02c; stroke: #2ca02c"/>
     <use xlink:href="#m254ac3f381" x="274.271076" y="176.492905" style="fill: #2ca02c; stroke: #2ca02c"/>
     <use xlink:href="#m254ac3f381" x="232.968862" y="167.556591" style="fill: #2ca02c; stroke: #2ca02c"/>
     <use xlink:href="#m254ac3f381" x="406.256095" y="283.555208" style="fill: #2ca02c; stroke: #2ca02c"/>
     <use xlink:href="#m254ac3f381" x="100.286059" y="127.689017" style="fill: #2ca02c; stroke: #2ca02c"/>
     <use xlink:href="#m254ac3f381" x="242.803871" y="174.815215" style="fill: #2ca02c; stroke: #2ca02c"/>
     <use xlink:href="#m254ac3f381" x="58.626136" y="70.977381" style="fill: #2ca02c; stroke: #2ca02c"/>
     <use xlink:href="#m254ac3f381" x="85.020463" y="116.964818" style="fill: #2ca02c; stroke: #2ca02c"/>
     <use xlink:href="#m254ac3f381" x="312.627051" y="198.560922" style="fill: #2ca02c; stroke: #2ca02c"/>
     <use xlink:href="#m254ac3f381" x="78.740924" y="103.073768" style="fill: #2ca02c; stroke: #2ca02c"/>
     <use xlink:href="#m254ac3f381" x="84.287702" y="106.284936" style="fill: #2ca02c; stroke: #2ca02c"/>
     <use xlink:href="#m254ac3f381" x="248.668571" y="177.651764" style="fill: #2ca02c; stroke: #2ca02c"/>
     <use xlink:href="#m254ac3f381" x="243.486203" y="164.222244" style="fill: #2ca02c; stroke: #2ca02c"/>
     <use xlink:href="#m254ac3f381" x="84.64048" y="104.925462" style="fill: #2ca02c; stroke: #2ca02c"/>
     <use xlink:href="#m254ac3f381" x="185.300368" y="182.324961" style="fill: #2ca02c; stroke: #2ca02c"/>
     <use xlink:href="#m254ac3f381" x="65.872864" y="101.417869" style="fill: #2ca02c; stroke: #2ca02c"/>
     <use xlink:href="#m254ac3f381" x="155.81021" y="156.769319" style="fill: #2ca02c; stroke: #2ca02c"/>
     <use xlink:href="#m254ac3f381" x="297.478127" y="188.952854" style="fill: #2ca02c; stroke: #2ca02c"/>
     <use xlink:href="#m254ac3f381" x="93.930948" y="135.058535" style="fill: #2ca02c; stroke: #2ca02c"/>
    </g>
   </g>
   <g id="PathCollection_4">
    <defs>
     <path id="m7b7d09ae65" d="M 0 3 
C 0.795609 3 1.55874 2.683901 2.12132 2.12132 
C 2.683901 1.55874 3 0.795609 3 0 
C 3 -0.795609 2.683901 -1.55874 2.12132 -2.12132 
C 1.55874 -2.683901 0.795609 -3 0 -3 
C -0.795609 -3 -1.55874 -2.683901 -2.12132 -2.12132 
C -2.683901 -1.55874 -3 -0.795609 -3 0 
C -3 0.795609 -2.683901 1.55874 -2.12132 2.12132 
C -1.55874 2.683901 -0.795609 3 0 3 
z
" style="stroke: #d62728"/>
    </defs>
    <g clip-path="url(#p2973bf34f8)">
     <use xlink:href="#m7b7d09ae65" x="129.717756" y="148.668083" style="fill: #d62728; stroke: #d62728"/>
     <use xlink:href="#m7b7d09ae65" x="411.061673" y="302.852162" style="fill: #d62728; stroke: #d62728"/>
     <use xlink:href="#m7b7d09ae65" x="414.636891" y="308.805208" style="fill: #d62728; stroke: #d62728"/>
     <use xlink:href="#m7b7d09ae65" x="94.000157" y="130.254287" style="fill: #d62728; stroke: #d62728"/>
     <use xlink:href="#m7b7d09ae65" x="306.568485" y="177.490654" style="fill: #d62728; stroke: #d62728"/>
     <use xlink:href="#m7b7d09ae65" x="109.698848" y="141.536617" style="fill: #d62728; stroke: #d62728"/>
     <use xlink:href="#m7b7d09ae65" x="275.52017" y="188.139711" style="fill: #d62728; stroke: #d62728"/>
     <use xlink:href="#m7b7d09ae65" x="278.013524" y="174.075145" style="fill: #d62728; stroke: #d62728"/>
     <use xlink:href="#m7b7d09ae65" x="131.184105" y="144.571948" style="fill: #d62728; stroke: #d62728"/>
     <use xlink:href="#m7b7d09ae65" x="257.304626" y="186.249072" style="fill: #d62728; stroke: #d62728"/>
     <use xlink:href="#m7b7d09ae65" x="218.265191" y="180.886742" style="fill: #d62728; stroke: #d62728"/>
     <use xlink:href="#m7b7d09ae65" x="388.713583" y="247.447915" style="fill: #d62728; stroke: #d62728"/>
     <use xlink:href="#m7b7d09ae65" x="359.844586" y="219.643469" style="fill: #d62728; stroke: #d62728"/>
     <use xlink:href="#m7b7d09ae65" x="97.522324" y="117.585019" style="fill: #d62728; stroke: #d62728"/>
     <use xlink:href="#m7b7d09ae65" x="391.877727" y="259.953761" style="fill: #d62728; stroke: #d62728"/>
     <use xlink:href="#m7b7d09ae65" x="413.520269" y="301.731127" style="fill: #d62728; stroke: #d62728"/>
     <use xlink:href="#m7b7d09ae65" x="114.211829" y="150.271837" style="fill: #d62728; stroke: #d62728"/>
     <use xlink:href="#m7b7d09ae65" x="341.388" y="212.150825" style="fill: #d62728; stroke: #d62728"/>
     <use xlink:href="#m7b7d09ae65" x="142.47325" y="163.194116" style="fill: #d62728; stroke: #d62728"/>
     <use xlink:href="#m7b7d09ae65" x="377.098925" y="239.921547" style="fill: #d62728; stroke: #d62728"/>
    </g>
   </g>
   <g id="PathCollection_5">
    <defs>
     <path id="m9c2b04af79" d="M 0 3 
C 0.795609 3 1.55874 2.683901 2.12132 2.12132 
C 2.683901 1.55874 3 0.795609 3 0 
C 3 -0.795609 2.683901 -1.55874 2.12132 -2.12132 
C 1.55874 -2.683901 0.795609 -3 0 -3 
C -0.795609 -3 -1.55874 -2.683901 -2.12132 -2.12132 
C -2.683901 -1.55874 -3 -0.795609 -3 0 
C -3 0.795609 -2.683901 1.55874 -2.12132 2.12132 
C -1.55874 2.683901 -0.795609 3 0 3 
z
" style="stroke: #9467bd"/>
    </defs>
    <g clip-path="url(#p2973bf34f8)">
     <use xlink:href="#m9c2b04af79" x="306.810322" y="192.156398" style="fill: #9467bd; stroke: #9467bd"/>
     <use xlink:href="#m9c2b04af79" x="300.955892" y="187.733739" style="fill: #9467bd; stroke: #9467bd"/>
     <use xlink:href="#m9c2b04af79" x="217.056784" y="185.687514" style="fill: #9467bd; stroke: #9467bd"/>
     <use xlink:href="#m9c2b04af79" x="112.482734" y="139.452675" style="fill: #9467bd; stroke: #9467bd"/>
     <use xlink:href="#m9c2b04af79" x="400.053301" y="264.799161" style="fill: #9467bd; stroke: #9467bd"/>
     <use xlink:href="#m9c2b04af79" x="216.914835" y="161.864314" style="fill: #9467bd; stroke: #9467bd"/>
     <use xlink:href="#m9c2b04af79" x="107.414608" y="135.741567" style="fill: #9467bd; stroke: #9467bd"/>
     <use xlink:href="#m9c2b04af79" x="116.760449" y="150.39366" style="fill: #9467bd; stroke: #9467bd"/>
     <use xlink:href="#m9c2b04af79" x="139.845441" y="165.328495" style="fill: #9467bd; stroke: #9467bd"/>
     <use xlink:href="#m9c2b04af79" x="205.325748" y="184.357356" style="fill: #9467bd; stroke: #9467bd"/>
     <use xlink:href="#m9c2b04af79" x="80.899109" y="105.136783" style="fill: #9467bd; stroke: #9467bd"/>
     <use xlink:href="#m9c2b04af79" x="112.419951" y="136.872511" style="fill: #9467bd; stroke: #9467bd"/>
     <use xlink:href="#m9c2b04af79" x="209.033876" y="169.48215" style="fill: #9467bd; stroke: #9467bd"/>
     <use xlink:href="#m9c2b04af79" x="134.340583" y="163.766492" style="fill: #9467bd; stroke: #9467bd"/>
     <use xlink:href="#m9c2b04af79" x="207.105225" y="173.141517" style="fill: #9467bd; stroke: #9467bd"/>
     <use xlink:href="#m9c2b04af79" x="293.995256" y="193.746412" style="fill: #9467bd; stroke: #9467bd"/>
     <use xlink:href="#m9c2b04af79" x="130.522341" y="164.967412" style="fill: #9467bd; stroke: #9467bd"/>
     <use xlink:href="#m9c2b04af79" x="73.89109" y="95.483094" style="fill: #9467bd; stroke: #9467bd"/>
     <use xlink:href="#m9c2b04af79" x="228.764961" y="168.126666" style="fill: #9467bd; stroke: #9467bd"/>
     <use xlink:href="#m9c2b04af79" x="242.432134" y="174.808992" style="fill: #9467bd; stroke: #9467bd"/>
    </g>
   </g>
   <g id="PathCollection_6">
    <defs>
     <path id="m9a5b7fb6a6" d="M 0 3 
C 0.795609 3 1.55874 2.683901 2.12132 2.12132 
C 2.683901 1.55874 3 0.795609 3 0 
C 3 -0.795609 2.683901 -1.55874 2.12132 -2.12132 
C 1.55874 -2.683901 0.795609 -3 0 -3 
C -0.795609 -3 -1.55874 -2.683901 -2.12132 -2.12132 
C -2.683901 -1.55874 -3 -0.795609 -3 0 
C -3 0.795609 -2.683901 1.55874 -2.12132 2.12132 
C -1.55874 2.683901 -0.795609 3 0 3 
z
" style="stroke: #8c564b"/>
    </defs>
    <g clip-path="url(#p2973bf34f8)">
     <use xlink:href="#m9a5b7fb6a6" x="82.071899" y="109.176549" style="fill: #8c564b; stroke: #8c564b"/>
     <use xlink:href="#m9a5b7fb6a6" x="338.112361" y="192.003168" style="fill: #8c564b; stroke: #8c564b"/>
     <use xlink:href="#m9a5b7fb6a6" x="331.236179" y="203.409474" style="fill: #8c564b; stroke: #8c564b"/>
     <use xlink:href="#m9a5b7fb6a6" x="383.84709" y="249.534486" style="fill: #8c564b; stroke: #8c564b"/>
     <use xlink:href="#m9a5b7fb6a6" x="137.252352" y="164.157189" style="fill: #8c564b; stroke: #8c564b"/>
     <use xlink:href="#m9a5b7fb6a6" x="246.997311" y="175.149401" style="fill: #8c564b; stroke: #8c564b"/>
     <use xlink:href="#m9a5b7fb6a6" x="315.734412" y="177.568723" style="fill: #8c564b; stroke: #8c564b"/>
     <use xlink:href="#m9a5b7fb6a6" x="190.145822" y="164.425384" style="fill: #8c564b; stroke: #8c564b"/>
     <use xlink:href="#m9a5b7fb6a6" x="381.231769" y="246.033161" style="fill: #8c564b; stroke: #8c564b"/>
     <use xlink:href="#m9a5b7fb6a6" x="148.259258" y="154.777106" style="fill: #8c564b; stroke: #8c564b"/>
     <use xlink:href="#m9a5b7fb6a6" x="121.456567" y="161.16563" style="fill: #8c564b; stroke: #8c564b"/>
     <use xlink:href="#m9a5b7fb6a6" x="59.11002" y="80.494831" style="fill: #8c564b; stroke: #8c564b"/>
     <use xlink:href="#m9a5b7fb6a6" x="271.60743" y="165.410722" style="fill: #8c564b; stroke: #8c564b"/>
     <use xlink:href="#m9a5b7fb6a6" x="200.3947" y="185.583705" style="fill: #8c564b; stroke: #8c564b"/>
     <use xlink:href="#m9a5b7fb6a6" x="408.04191" y="272.516648" style="fill: #8c564b; stroke: #8c564b"/>
     <use xlink:href="#m9a5b7fb6a6" x="328.709839" y="195.586633" style="fill: #8c564b; stroke: #8c564b"/>
     <use xlink:href="#m9a5b7fb6a6" x="385.269125" y="256.195264" style="fill: #8c564b; stroke: #8c564b"/>
     <use xlink:href="#m9a5b7fb6a6" x="365.356432" y="237.410197" style="fill: #8c564b; stroke: #8c564b"/>
     <use xlink:href="#m9a5b7fb6a6" x="395.959701" y="262.373664" style="fill: #8c564b; stroke: #8c564b"/>
     <use xlink:href="#m9a5b7fb6a6" x="181.592145" y="184.396416" style="fill: #8c564b; stroke: #8c564b"/>
    </g>
   </g>
   <g id="PathCollection_7">
    <defs>
     <path id="m58a74edae2" d="M 0 3 
C 0.795609 3 1.55874 2.683901 2.12132 2.12132 
C 2.683901 1.55874 3 0.795609 3 0 
C 3 -0.795609 2.683901 -1.55874 2.12132 -2.12132 
C 1.55874 -2.683901 0.795609 -3 0 -3 
C -0.795609 -3 -1.55874 -2.683901 -2.12132 -2.12132 
C -2.683901 -1.55874 -3 -0.795609 -3 0 
C -3 0.795609 -2.683901 1.55874 -2.12132 2.12132 
C -1.55874 2.683901 -0.795609 3 0 3 
z
" style="stroke: #e377c2"/>
    </defs>
    <g clip-path="url(#p2973bf34f8)">
     <use xlink:href="#m58a74edae2" x="338.457616" y="198.678829" style="fill: #e377c2; stroke: #e377c2"/>
     <use xlink:href="#m58a74edae2" x="313.066626" y="183.127823" style="fill: #e377c2; stroke: #e377c2"/>
     <use xlink:href="#m58a74edae2" x="206.128934" y="163.034204" style="fill: #e377c2; stroke: #e377c2"/>
     <use xlink:href="#m58a74edae2" x="121.40726" y="153.104982" style="fill: #e377c2; stroke: #e377c2"/>
     <use xlink:href="#m58a74edae2" x="138.630609" y="167.380429" style="fill: #e377c2; stroke: #e377c2"/>
     <use xlink:href="#m58a74edae2" x="70.091162" y="101.581002" style="fill: #e377c2; stroke: #e377c2"/>
     <use xlink:href="#m58a74edae2" x="265.863241" y="170.537195" style="fill: #e377c2; stroke: #e377c2"/>
     <use xlink:href="#m58a74edae2" x="388.833144" y="262.103466" style="fill: #e377c2; stroke: #e377c2"/>
     <use xlink:href="#m58a74edae2" x="384.375671" y="243.81961" style="fill: #e377c2; stroke: #e377c2"/>
     <use xlink:href="#m58a74edae2" x="122.813928" y="158.314928" style="fill: #e377c2; stroke: #e377c2"/>
     <use xlink:href="#m58a74edae2" x="139.345407" y="146.188759" style="fill: #e377c2; stroke: #e377c2"/>
     <use xlink:href="#m58a74edae2" x="286.641189" y="177.298052" style="fill: #e377c2; stroke: #e377c2"/>
     <use xlink:href="#m58a74edae2" x="105.5495" y="132.391216" style="fill: #e377c2; stroke: #e377c2"/>
     <use xlink:href="#m58a74edae2" x="283.817401" y="169.29108" style="fill: #e377c2; stroke: #e377c2"/>
     <use xlink:href="#m58a74edae2" x="218.966075" y="168.274625" style="fill: #e377c2; stroke: #e377c2"/>
     <use xlink:href="#m58a74edae2" x="228.035954" y="166.094086" style="fill: #e377c2; stroke: #e377c2"/>
     <use xlink:href="#m58a74edae2" x="265.80383" y="186.465481" style="fill: #e377c2; stroke: #e377c2"/>
     <use xlink:href="#m58a74edae2" x="296.741787" y="168.114574" style="fill: #e377c2; stroke: #e377c2"/>
     <use xlink:href="#m58a74edae2" x="121.748461" y="158.44272" style="fill: #e377c2; stroke: #e377c2"/>
     <use xlink:href="#m58a74edae2" x="131.671192" y="152.271307" style="fill: #e377c2; stroke: #e377c2"/>
    </g>
   </g>
   <g id="PathCollection_8">
    <defs>
     <path id="m93a23a4ae6" d="M 0 3 
C 0.795609 3 1.55874 2.683901 2.12132 2.12132 
C 2.683901 1.55874 3 0.795609 3 0 
C 3 -0.795609 2.683901 -1.55874 2.12132 -2.12132 
C 1.55874 -2.683901 0.795609 -3 0 -3 
C -0.795609 -3 -1.55874 -2.683901 -2.12132 -2.12132 
C -2.683901 -1.55874 -3 -0.795609 -3 0 
C -3 0.795609 -2.683901 1.55874 -2.12132 2.12132 
C -1.55874 2.683901 -0.795609 3 0 3 
z
" style="stroke: #7f7f7f"/>
    </defs>
    <g clip-path="url(#p2973bf34f8)">
     <use xlink:href="#m93a23a4ae6" x="76.687609" y="111.679837" style="fill: #7f7f7f; stroke: #7f7f7f"/>
     <use xlink:href="#m93a23a4ae6" x="82.990869" y="102.027963" style="fill: #7f7f7f; stroke: #7f7f7f"/>
     <use xlink:href="#m93a23a4ae6" x="85.658868" y="103.90404" style="fill: #7f7f7f; stroke: #7f7f7f"/>
     <use xlink:href="#m93a23a4ae6" x="257.915638" y="172.486931" style="fill: #7f7f7f; stroke: #7f7f7f"/>
     <use xlink:href="#m93a23a4ae6" x="112.125744" y="150.661077" style="fill: #7f7f7f; stroke: #7f7f7f"/>
     <use xlink:href="#m93a23a4ae6" x="319.788167" y="178.976821" style="fill: #7f7f7f; stroke: #7f7f7f"/>
     <use xlink:href="#m93a23a4ae6" x="142.179263" y="149.150824" style="fill: #7f7f7f; stroke: #7f7f7f"/>
     <use xlink:href="#m93a23a4ae6" x="173.622976" y="172.28198" style="fill: #7f7f7f; stroke: #7f7f7f"/>
     <use xlink:href="#m93a23a4ae6" x="379.686392" y="231.300954" style="fill: #7f7f7f; stroke: #7f7f7f"/>
     <use xlink:href="#m93a23a4ae6" x="100.142994" y="130.940942" style="fill: #7f7f7f; stroke: #7f7f7f"/>
     <use xlink:href="#m93a23a4ae6" x="325.294756" y="185.480216" style="fill: #7f7f7f; stroke: #7f7f7f"/>
     <use xlink:href="#m93a23a4ae6" x="109.883766" y="135.130232" style="fill: #7f7f7f; stroke: #7f7f7f"/>
     <use xlink:href="#m93a23a4ae6" x="304.953483" y="180.936558" style="fill: #7f7f7f; stroke: #7f7f7f"/>
     <use xlink:href="#m93a23a4ae6" x="133.680356" y="156.234348" style="fill: #7f7f7f; stroke: #7f7f7f"/>
     <use xlink:href="#m93a23a4ae6" x="177.372927" y="181.897153" style="fill: #7f7f7f; stroke: #7f7f7f"/>
     <use xlink:href="#m93a23a4ae6" x="317.498317" y="200.654985" style="fill: #7f7f7f; stroke: #7f7f7f"/>
     <use xlink:href="#m93a23a4ae6" x="284.106167" y="165.241512" style="fill: #7f7f7f; stroke: #7f7f7f"/>
     <use xlink:href="#m93a23a4ae6" x="89.545541" y="119.174119" style="fill: #7f7f7f; stroke: #7f7f7f"/>
     <use xlink:href="#m93a23a4ae6" x="351.3724" y="212.27499" style="fill: #7f7f7f; stroke: #7f7f7f"/>
     <use xlink:href="#m93a23a4ae6" x="67.844848" y="91.599617" style="fill: #7f7f7f; stroke: #7f7f7f"/>
    </g>
   </g>
   <g id="PathCollection_9">
    <defs>
     <path id="mbe7745eadc" d="M 0 3 
C 0.795609 3 1.55874 2.683901 2.12132 2.12132 
C 2.683901 1.55874 3 0.795609 3 0 
C 3 -0.795609 2.683901 -1.55874 2.12132 -2.12132 
C 1.55874 -2.683901 0.795609 -3 0 -3 
C -0.795609 -3 -1.55874 -2.683901 -2.12132 -2.12132 
C -2.683901 -1.55874 -3 -0.795609 -3 0 
C -3 0.795609 -2.683901 1.55874 -2.12132 2.12132 
C -1.55874 2.683901 -0.795609 3 0 3 
z
" style="stroke: #bcbd22"/>
    </defs>
    <g clip-path="url(#p2973bf34f8)">
     <use xlink:href="#mbe7745eadc" x="288.345713" y="165.951652" style="fill: #bcbd22; stroke: #bcbd22"/>
     <use xlink:href="#mbe7745eadc" x="379.411923" y="236.366551" style="fill: #bcbd22; stroke: #bcbd22"/>
     <use xlink:href="#mbe7745eadc" x="260.083145" y="176.679409" style="fill: #bcbd22; stroke: #bcbd22"/>
     <use xlink:href="#mbe7745eadc" x="176.030955" y="159.011664" style="fill: #bcbd22; stroke: #bcbd22"/>
     <use xlink:href="#mbe7745eadc" x="322.773873" y="181.487561" style="fill: #bcbd22; stroke: #bcbd22"/>
     <use xlink:href="#mbe7745eadc" x="102.413026" y="129.28746" style="fill: #bcbd22; stroke: #bcbd22"/>
     <use xlink:href="#mbe7745eadc" x="169.050184" y="175.318848" style="fill: #bcbd22; stroke: #bcbd22"/>
     <use xlink:href="#mbe7745eadc" x="173.54751" y="168.837588" style="fill: #bcbd22; stroke: #bcbd22"/>
     <use xlink:href="#mbe7745eadc" x="408.174229" y="290.565533" style="fill: #bcbd22; stroke: #bcbd22"/>
     <use xlink:href="#mbe7745eadc" x="207.527377" y="181.282347" style="fill: #bcbd22; stroke: #bcbd22"/>
     <use xlink:href="#mbe7745eadc" x="140.058221" y="165.522475" style="fill: #bcbd22; stroke: #bcbd22"/>
     <use xlink:href="#mbe7745eadc" x="371.383998" y="218.18068" style="fill: #bcbd22; stroke: #bcbd22"/>
     <use xlink:href="#mbe7745eadc" x="152.046222" y="172.498663" style="fill: #bcbd22; stroke: #bcbd22"/>
     <use xlink:href="#mbe7745eadc" x="259.763319" y="179.365863" style="fill: #bcbd22; stroke: #bcbd22"/>
     <use xlink:href="#mbe7745eadc" x="298.436662" y="184.091116" style="fill: #bcbd22; stroke: #bcbd22"/>
     <use xlink:href="#mbe7745eadc" x="339.230958" y="196.71934" style="fill: #bcbd22; stroke: #bcbd22"/>
     <use xlink:href="#mbe7745eadc" x="212.054564" y="178.390181" style="fill: #bcbd22; stroke: #bcbd22"/>
     <use xlink:href="#mbe7745eadc" x="216.889684" y="184.232213" style="fill: #bcbd22; stroke: #bcbd22"/>
     <use xlink:href="#mbe7745eadc" x="219.64418" y="174.271702" style="fill: #bcbd22; stroke: #bcbd22"/>
     <use xlink:href="#mbe7745eadc" x="292.158989" y="183.634202" style="fill: #bcbd22; stroke: #bcbd22"/>
    </g>
   </g>
   <g id="PathCollection_10">
    <defs>
     <path id="med421bdd57" d="M 0 3 
C 0.795609 3 1.55874 2.683901 2.12132 2.12132 
C 2.683901 1.55874 3 0.795609 3 0 
C 3 -0.795609 2.683901 -1.55874 2.12132 -2.12132 
C 1.55874 -2.683901 0.795609 -3 0 -3 
C -0.795609 -3 -1.55874 -2.683901 -2.12132 -2.12132 
C -2.683901 -1.55874 -3 -0.795609 -3 0 
C -3 0.795609 -2.683901 1.55874 -2.12132 2.12132 
C -1.55874 2.683901 -0.795609 3 0 3 
z
" style="stroke: #17becf"/>
    </defs>
    <g clip-path="url(#p2973bf34f8)">
     <use xlink:href="#med421bdd57" x="218.826159" y="161.286744" style="fill: #17becf; stroke: #17becf"/>
     <use xlink:href="#med421bdd57" x="330.080568" y="194.730879" style="fill: #17becf; stroke: #17becf"/>
     <use xlink:href="#med421bdd57" x="193.049459" y="160.258361" style="fill: #17becf; stroke: #17becf"/>
     <use xlink:href="#med421bdd57" x="358.968157" y="212.095064" style="fill: #17becf; stroke: #17becf"/>
     <use xlink:href="#med421bdd57" x="76.066096" y="117.627744" style="fill: #17becf; stroke: #17becf"/>
     <use xlink:href="#med421bdd57" x="189.017593" y="176.514131" style="fill: #17becf; stroke: #17becf"/>
     <use xlink:href="#med421bdd57" x="223.306634" y="162.077176" style="fill: #17becf; stroke: #17becf"/>
     <use xlink:href="#med421bdd57" x="183.89941" y="177.997883" style="fill: #17becf; stroke: #17becf"/>
     <use xlink:href="#med421bdd57" x="125.853957" y="161.887353" style="fill: #17becf; stroke: #17becf"/>
     <use xlink:href="#med421bdd57" x="329.61707" y="184.133472" style="fill: #17becf; stroke: #17becf"/>
     <use xlink:href="#med421bdd57" x="319.704838" y="179.616448" style="fill: #17becf; stroke: #17becf"/>
     <use xlink:href="#med421bdd57" x="131.657362" y="157.636909" style="fill: #17becf; stroke: #17becf"/>
     <use xlink:href="#med421bdd57" x="348.044549" y="210.142759" style="fill: #17becf; stroke: #17becf"/>
     <use xlink:href="#med421bdd57" x="295.040291" y="193.093741" style="fill: #17becf; stroke: #17becf"/>
     <use xlink:href="#med421bdd57" x="86.43744" y="115.725446" style="fill: #17becf; stroke: #17becf"/>
     <use xlink:href="#med421bdd57" x="137.403018" y="158.258571" style="fill: #17becf; stroke: #17becf"/>
     <use xlink:href="#med421bdd57" x="206.10138" y="177.070238" style="fill: #17becf; stroke: #17becf"/>
     <use xlink:href="#med421bdd57" x="279.26386" y="165.410942" style="fill: #17becf; stroke: #17becf"/>
     <use xlink:href="#med421bdd57" x="297.817425" y="179.933069" style="fill: #17becf; stroke: #17becf"/>
     <use xlink:href="#med421bdd57" x="358.204728" y="215.148978" style="fill: #17becf; stroke: #17becf"/>
    </g>
   </g>
   <g id="matplotlib.axis_1">
    <g id="xtick_1">
     <g id="line2d_1">
      <defs>
       <path id="m4dd18cc488" d="M 0 0 
L 0 3.5 
" style="stroke: #000000; stroke-width: 0.8"/>
      </defs>
      <g>
       <use xlink:href="#m4dd18cc488" x="57.6" y="307.584" style="stroke: #000000; stroke-width: 0.8"/>
      </g>
     </g>
     <g id="text_1">
      <!-- −10.0 -->
      <g transform="translate(42.277344 322.182437) scale(0.1 -0.1)">
       <defs>
        <path id="DejaVuSans-2212" d="M 678 2272 
L 4684 2272 
L 4684 1741 
L 678 1741 
L 678 2272 
z
" transform="scale(0.015625)"/>
        <path id="DejaVuSans-31" d="M 794 531 
L 1825 531 
L 1825 4091 
L 703 3866 
L 703 4441 
L 1819 4666 
L 2450 4666 
L 2450 531 
L 3481 531 
L 3481 0 
L 794 0 
L 794 531 
z
" transform="scale(0.015625)"/>
        <path id="DejaVuSans-30" d="M 2034 4250 
Q 1547 4250 1301 3770 
Q 1056 3291 1056 2328 
Q 1056 1369 1301 889 
Q 1547 409 2034 409 
Q 2525 409 2770 889 
Q 3016 1369 3016 2328 
Q 3016 3291 2770 3770 
Q 2525 4250 2034 4250 
z
M 2034 4750 
Q 2819 4750 3233 4129 
Q 3647 3509 3647 2328 
Q 3647 1150 3233 529 
Q 2819 -91 2034 -91 
Q 1250 -91 836 529 
Q 422 1150 422 2328 
Q 422 3509 836 4129 
Q 1250 4750 2034 4750 
z
" transform="scale(0.015625)"/>
        <path id="DejaVuSans-2e" d="M 684 794 
L 1344 794 
L 1344 0 
L 684 0 
L 684 794 
z
" transform="scale(0.015625)"/>
       </defs>
       <use xlink:href="#DejaVuSans-2212"/>
       <use xlink:href="#DejaVuSans-31" transform="translate(83.789062 0)"/>
       <use xlink:href="#DejaVuSans-30" transform="translate(147.412109 0)"/>
       <use xlink:href="#DejaVuSans-2e" transform="translate(211.035156 0)"/>
       <use xlink:href="#DejaVuSans-30" transform="translate(242.822266 0)"/>
      </g>
     </g>
    </g>
    <g id="xtick_2">
     <g id="line2d_2">
      <g>
       <use xlink:href="#m4dd18cc488" x="102.24" y="307.584" style="stroke: #000000; stroke-width: 0.8"/>
      </g>
     </g>
     <g id="text_2">
      <!-- −7.5 -->
      <g transform="translate(90.098594 322.182437) scale(0.1 -0.1)">
       <defs>
        <path id="DejaVuSans-37" d="M 525 4666 
L 3525 4666 
L 3525 4397 
L 1831 0 
L 1172 0 
L 2766 4134 
L 525 4134 
L 525 4666 
z
" transform="scale(0.015625)"/>
        <path id="DejaVuSans-35" d="M 691 4666 
L 3169 4666 
L 3169 4134 
L 1269 4134 
L 1269 2991 
Q 1406 3038 1543 3061 
Q 1681 3084 1819 3084 
Q 2600 3084 3056 2656 
Q 3513 2228 3513 1497 
Q 3513 744 3044 326 
Q 2575 -91 1722 -91 
Q 1428 -91 1123 -41 
Q 819 9 494 109 
L 494 744 
Q 775 591 1075 516 
Q 1375 441 1709 441 
Q 2250 441 2565 725 
Q 2881 1009 2881 1497 
Q 2881 1984 2565 2268 
Q 2250 2553 1709 2553 
Q 1456 2553 1204 2497 
Q 953 2441 691 2322 
L 691 4666 
z
" transform="scale(0.015625)"/>
       </defs>
       <use xlink:href="#DejaVuSans-2212"/>
       <use xlink:href="#DejaVuSans-37" transform="translate(83.789062 0)"/>
       <use xlink:href="#DejaVuSans-2e" transform="translate(147.412109 0)"/>
       <use xlink:href="#DejaVuSans-35" transform="translate(179.199219 0)"/>
      </g>
     </g>
    </g>
    <g id="xtick_3">
     <g id="line2d_3">
      <g>
       <use xlink:href="#m4dd18cc488" x="146.88" y="307.584" style="stroke: #000000; stroke-width: 0.8"/>
      </g>
     </g>
     <g id="text_3">
      <!-- −5.0 -->
      <g transform="translate(134.738594 322.182437) scale(0.1 -0.1)">
       <use xlink:href="#DejaVuSans-2212"/>
       <use xlink:href="#DejaVuSans-35" transform="translate(83.789062 0)"/>
       <use xlink:href="#DejaVuSans-2e" transform="translate(147.412109 0)"/>
       <use xlink:href="#DejaVuSans-30" transform="translate(179.199219 0)"/>
      </g>
     </g>
    </g>
    <g id="xtick_4">
     <g id="line2d_4">
      <g>
       <use xlink:href="#m4dd18cc488" x="191.52" y="307.584" style="stroke: #000000; stroke-width: 0.8"/>
      </g>
     </g>
     <g id="text_4">
      <!-- −2.5 -->
      <g transform="translate(179.378594 322.182437) scale(0.1 -0.1)">
       <defs>
        <path id="DejaVuSans-32" d="M 1228 531 
L 3431 531 
L 3431 0 
L 469 0 
L 469 531 
Q 828 903 1448 1529 
Q 2069 2156 2228 2338 
Q 2531 2678 2651 2914 
Q 2772 3150 2772 3378 
Q 2772 3750 2511 3984 
Q 2250 4219 1831 4219 
Q 1534 4219 1204 4116 
Q 875 4013 500 3803 
L 500 4441 
Q 881 4594 1212 4672 
Q 1544 4750 1819 4750 
Q 2544 4750 2975 4387 
Q 3406 4025 3406 3419 
Q 3406 3131 3298 2873 
Q 3191 2616 2906 2266 
Q 2828 2175 2409 1742 
Q 1991 1309 1228 531 
z
" transform="scale(0.015625)"/>
       </defs>
       <use xlink:href="#DejaVuSans-2212"/>
       <use xlink:href="#DejaVuSans-32" transform="translate(83.789062 0)"/>
       <use xlink:href="#DejaVuSans-2e" transform="translate(147.412109 0)"/>
       <use xlink:href="#DejaVuSans-35" transform="translate(179.199219 0)"/>
      </g>
     </g>
    </g>
    <g id="xtick_5">
     <g id="line2d_5">
      <g>
       <use xlink:href="#m4dd18cc488" x="236.16" y="307.584" style="stroke: #000000; stroke-width: 0.8"/>
      </g>
     </g>
     <g id="text_5">
      <!-- 0.0 -->
      <g transform="translate(228.208438 322.182437) scale(0.1 -0.1)">
       <use xlink:href="#DejaVuSans-30"/>
       <use xlink:href="#DejaVuSans-2e" transform="translate(63.623047 0)"/>
       <use xlink:href="#DejaVuSans-30" transform="translate(95.410156 0)"/>
      </g>
     </g>
    </g>
    <g id="xtick_6">
     <g id="line2d_6">
      <g>
       <use xlink:href="#m4dd18cc488" x="280.8" y="307.584" style="stroke: #000000; stroke-width: 0.8"/>
      </g>
     </g>
     <g id="text_6">
      <!-- 2.5 -->
      <g transform="translate(272.848437 322.182437) scale(0.1 -0.1)">
       <use xlink:href="#DejaVuSans-32"/>
       <use xlink:href="#DejaVuSans-2e" transform="translate(63.623047 0)"/>
       <use xlink:href="#DejaVuSans-35" transform="translate(95.410156 0)"/>
      </g>
     </g>
    </g>
    <g id="xtick_7">
     <g id="line2d_7">
      <g>
       <use xlink:href="#m4dd18cc488" x="325.44" y="307.584" style="stroke: #000000; stroke-width: 0.8"/>
      </g>
     </g>
     <g id="text_7">
      <!-- 5.0 -->
      <g transform="translate(317.488437 322.182437) scale(0.1 -0.1)">
       <use xlink:href="#DejaVuSans-35"/>
       <use xlink:href="#DejaVuSans-2e" transform="translate(63.623047 0)"/>
       <use xlink:href="#DejaVuSans-30" transform="translate(95.410156 0)"/>
      </g>
     </g>
    </g>
    <g id="xtick_8">
     <g id="line2d_8">
      <g>
       <use xlink:href="#m4dd18cc488" x="370.08" y="307.584" style="stroke: #000000; stroke-width: 0.8"/>
      </g>
     </g>
     <g id="text_8">
      <!-- 7.5 -->
      <g transform="translate(362.128438 322.182437) scale(0.1 -0.1)">
       <use xlink:href="#DejaVuSans-37"/>
       <use xlink:href="#DejaVuSans-2e" transform="translate(63.623047 0)"/>
       <use xlink:href="#DejaVuSans-35" transform="translate(95.410156 0)"/>
      </g>
     </g>
    </g>
    <g id="xtick_9">
     <g id="line2d_9">
      <g>
       <use xlink:href="#m4dd18cc488" x="414.72" y="307.584" style="stroke: #000000; stroke-width: 0.8"/>
      </g>
     </g>
     <g id="text_9">
      <!-- 10.0 -->
      <g transform="translate(403.587188 322.182437) scale(0.1 -0.1)">
       <use xlink:href="#DejaVuSans-31"/>
       <use xlink:href="#DejaVuSans-30" transform="translate(63.623047 0)"/>
       <use xlink:href="#DejaVuSans-2e" transform="translate(127.246094 0)"/>
       <use xlink:href="#DejaVuSans-30" transform="translate(159.033203 0)"/>
      </g>
     </g>
    </g>
    <g id="text_10">
     <!-- x -->
     <g transform="translate(233.200625 335.860562) scale(0.1 -0.1)">
      <defs>
       <path id="DejaVuSans-78" d="M 3513 3500 
L 2247 1797 
L 3578 0 
L 2900 0 
L 1881 1375 
L 863 0 
L 184 0 
L 1544 1831 
L 300 3500 
L 978 3500 
L 1906 2253 
L 2834 3500 
L 3513 3500 
z
" transform="scale(0.015625)"/>
      </defs>
      <use xlink:href="#DejaVuSans-78"/>
     </g>
    </g>
   </g>
   <g id="matplotlib.axis_2">
    <g id="ytick_1">
     <g id="line2d_10">
      <defs>
       <path id="mcfb474969f" d="M 0 0 
L -3.5 0 
" style="stroke: #000000; stroke-width: 0.8"/>
      </defs>
      <g>
       <use xlink:href="#mcfb474969f" x="57.6" y="280.9728" style="stroke: #000000; stroke-width: 0.8"/>
      </g>
     </g>
     <g id="text_11">
      <!-- −4000 -->
      <g transform="translate(16.770313 284.772019) scale(0.1 -0.1)">
       <defs>
        <path id="DejaVuSans-34" d="M 2419 4116 
L 825 1625 
L 2419 1625 
L 2419 4116 
z
M 2253 4666 
L 3047 4666 
L 3047 1625 
L 3713 1625 
L 3713 1100 
L 3047 1100 
L 3047 0 
L 2419 0 
L 2419 1100 
L 313 1100 
L 313 1709 
L 2253 4666 
z
" transform="scale(0.015625)"/>
       </defs>
       <use xlink:href="#DejaVuSans-2212"/>
       <use xlink:href="#DejaVuSans-34" transform="translate(83.789062 0)"/>
       <use xlink:href="#DejaVuSans-30" transform="translate(147.412109 0)"/>
       <use xlink:href="#DejaVuSans-30" transform="translate(211.035156 0)"/>
       <use xlink:href="#DejaVuSans-30" transform="translate(274.658203 0)"/>
      </g>
     </g>
    </g>
    <g id="ytick_2">
     <g id="line2d_11">
      <g>
       <use xlink:href="#mcfb474969f" x="57.6" y="227.7504" style="stroke: #000000; stroke-width: 0.8"/>
      </g>
     </g>
     <g id="text_12">
      <!-- −2000 -->
      <g transform="translate(16.770313 231.549619) scale(0.1 -0.1)">
       <use xlink:href="#DejaVuSans-2212"/>
       <use xlink:href="#DejaVuSans-32" transform="translate(83.789062 0)"/>
       <use xlink:href="#DejaVuSans-30" transform="translate(147.412109 0)"/>
       <use xlink:href="#DejaVuSans-30" transform="translate(211.035156 0)"/>
       <use xlink:href="#DejaVuSans-30" transform="translate(274.658203 0)"/>
      </g>
     </g>
    </g>
    <g id="ytick_3">
     <g id="line2d_12">
      <g>
       <use xlink:href="#mcfb474969f" x="57.6" y="174.528" style="stroke: #000000; stroke-width: 0.8"/>
      </g>
     </g>
     <g id="text_13">
      <!-- 0 -->
      <g transform="translate(44.2375 178.327219) scale(0.1 -0.1)">
       <use xlink:href="#DejaVuSans-30"/>
      </g>
     </g>
    </g>
    <g id="ytick_4">
     <g id="line2d_13">
      <g>
       <use xlink:href="#mcfb474969f" x="57.6" y="121.3056" style="stroke: #000000; stroke-width: 0.8"/>
      </g>
     </g>
     <g id="text_14">
      <!-- 2000 -->
      <g transform="translate(25.15 125.104819) scale(0.1 -0.1)">
       <use xlink:href="#DejaVuSans-32"/>
       <use xlink:href="#DejaVuSans-30" transform="translate(63.623047 0)"/>
       <use xlink:href="#DejaVuSans-30" transform="translate(127.246094 0)"/>
       <use xlink:href="#DejaVuSans-30" transform="translate(190.869141 0)"/>
      </g>
     </g>
    </g>
    <g id="ytick_5">
     <g id="line2d_14">
      <g>
       <use xlink:href="#mcfb474969f" x="57.6" y="68.0832" style="stroke: #000000; stroke-width: 0.8"/>
      </g>
     </g>
     <g id="text_15">
      <!-- 4000 -->
      <g transform="translate(25.15 71.882419) scale(0.1 -0.1)">
       <use xlink:href="#DejaVuSans-34"/>
       <use xlink:href="#DejaVuSans-30" transform="translate(63.623047 0)"/>
       <use xlink:href="#DejaVuSans-30" transform="translate(127.246094 0)"/>
       <use xlink:href="#DejaVuSans-30" transform="translate(190.869141 0)"/>
      </g>
     </g>
    </g>
    <g id="text_16">
     <!-- f(x) -->
     <g transform="translate(10.690625 183.149094) rotate(-90) scale(0.1 -0.1)">
      <defs>
       <path id="DejaVuSans-66" d="M 2375 4863 
L 2375 4384 
L 1825 4384 
Q 1516 4384 1395 4259 
Q 1275 4134 1275 3809 
L 1275 3500 
L 2222 3500 
L 2222 3053 
L 1275 3053 
L 1275 0 
L 697 0 
L 697 3053 
L 147 3053 
L 147 3500 
L 697 3500 
L 697 3744 
Q 697 4328 969 4595 
Q 1241 4863 1831 4863 
L 2375 4863 
z
" transform="scale(0.015625)"/>
       <path id="DejaVuSans-28" d="M 1984 4856 
Q 1566 4138 1362 3434 
Q 1159 2731 1159 2009 
Q 1159 1288 1364 580 
Q 1569 -128 1984 -844 
L 1484 -844 
Q 1016 -109 783 600 
Q 550 1309 550 2009 
Q 550 2706 781 3412 
Q 1013 4119 1484 4856 
L 1984 4856 
z
" transform="scale(0.015625)"/>
       <path id="DejaVuSans-29" d="M 513 4856 
L 1013 4856 
Q 1481 4119 1714 3412 
Q 1947 2706 1947 2009 
Q 1947 1309 1714 600 
Q 1481 -109 1013 -844 
L 513 -844 
Q 928 -128 1133 580 
Q 1338 1288 1338 2009 
Q 1338 2731 1133 3434 
Q 928 4138 513 4856 
z
" transform="scale(0.015625)"/>
      </defs>
      <use xlink:href="#DejaVuSans-66"/>
      <use xlink:href="#DejaVuSans-28" transform="translate(35.205078 0)"/>
      <use xlink:href="#DejaVuSans-78" transform="translate(74.21875 0)"/>
      <use xlink:href="#DejaVuSans-29" transform="translate(133.398438 0)"/>
     </g>
    </g>
   </g>
   <g id="line2d_15">
    <path d="M 57.6 77.769677 
L 61.207273 83.629145 
L 64.814545 89.244086 
L 68.421818 94.619764 
L 72.029091 99.761445 
L 75.636364 104.674396 
L 79.243636 109.363881 
L 82.850909 113.835167 
L 86.458182 118.093519 
L 90.065455 122.144203 
L 93.672727 125.992485 
L 97.28 129.64363 
L 100.887273 133.102905 
L 104.494545 136.375574 
L 108.101818 139.466905 
L 111.709091 142.382162 
L 115.316364 145.126611 
L 118.923636 147.705519 
L 122.530909 150.12415 
L 126.138182 152.387771 
L 129.745455 154.501647 
L 133.352727 156.471044 
L 136.96 158.301228 
L 140.567273 159.997464 
L 144.174545 161.565019 
L 147.781818 163.009157 
L 151.389091 164.335146 
L 154.996364 165.548249 
L 158.603636 166.653735 
L 162.210909 167.656867 
L 165.818182 168.562912 
L 169.425455 169.377135 
L 173.032727 170.104803 
L 176.64 170.751181 
L 180.247273 171.321534 
L 183.854545 171.821129 
L 187.461818 172.255232 
L 191.069091 172.629107 
L 194.676364 172.948021 
L 198.283636 173.217239 
L 201.890909 173.442028 
L 205.498182 173.627653 
L 209.105455 173.779379 
L 212.712727 173.902473 
L 216.32 174.002201 
L 219.927273 174.083827 
L 223.534545 174.152618 
L 227.141818 174.213839 
L 230.749091 174.272757 
L 234.356364 174.334637 
L 237.963636 174.404744 
L 241.570909 174.488345 
L 245.178182 174.590705 
L 248.785455 174.71709 
L 252.392727 174.872766 
L 256 175.062998 
L 259.607273 175.293053 
L 263.214545 175.568195 
L 266.821818 175.893691 
L 270.429091 176.274807 
L 274.036364 176.716808 
L 277.643636 177.22496 
L 281.250909 177.804528 
L 284.858182 178.460779 
L 288.465455 179.198979 
L 292.072727 180.024392 
L 295.68 180.942285 
L 299.287273 181.957923 
L 302.894545 183.076573 
L 306.501818 184.303499 
L 310.109091 185.643968 
L 313.716364 187.103246 
L 317.323636 188.686598 
L 320.930909 190.39929 
L 324.538182 192.246587 
L 328.145455 194.233756 
L 331.752727 196.366062 
L 335.36 198.648771 
L 338.967273 201.087149 
L 342.574545 203.686461 
L 346.181818 206.451974 
L 349.789091 209.388952 
L 353.396364 212.502662 
L 357.003636 215.798369 
L 360.610909 219.28134 
L 364.218182 222.956839 
L 367.825455 226.830134 
L 371.432727 230.906488 
L 375.04 235.191169 
L 378.647273 239.689442 
L 382.254545 244.406572 
L 385.861818 249.347826 
L 389.469091 254.518469 
L 393.076364 259.923767 
L 396.683636 265.568985 
L 400.290909 271.45939 
L 403.898182 277.600247 
L 407.505455 283.996822 
L 411.112727 290.654381 
L 414.72 297.578189 
" clip-path="url(#p2973bf34f8)" style="fill: none; stroke: #008000; stroke-width: 1.5; stroke-linecap: square"/>
   </g>
   <g id="line2d_16">
    <path d="M 57.6 104.303778 
L 61.207273 104.303778 
L 64.814545 104.303778 
L 68.421818 104.303778 
L 72.029091 104.303778 
L 75.636364 104.303778 
L 79.243636 104.303778 
L 82.850909 104.303778 
L 86.458182 104.303778 
L 90.065455 116.415162 
L 93.672727 125.530763 
L 97.28 125.530763 
L 100.887273 125.530763 
L 104.494545 125.530763 
L 108.101818 125.530763 
L 111.709091 157.745707 
L 115.316364 157.745707 
L 118.923636 157.745707 
L 122.530909 157.745707 
L 126.138182 157.745707 
L 129.745455 161.126667 
L 133.352727 161.126667 
L 136.96 161.126667 
L 140.567273 161.126667 
L 144.174545 161.126667 
L 147.781818 161.126667 
L 151.389091 159.99883 
L 154.996364 159.99883 
L 158.603636 159.99883 
L 162.210909 159.99883 
L 165.818182 157.917619 
L 169.425455 157.917619 
L 173.032727 157.917619 
L 176.64 157.917619 
L 180.247273 157.917619 
L 183.854545 157.917619 
L 187.461818 165.193893 
L 191.069091 165.193893 
L 194.676364 165.193893 
L 198.283636 165.193893 
L 201.890909 165.193893 
L 205.498182 165.193893 
L 209.105455 165.193893 
L 212.712727 165.193893 
L 216.32 165.193893 
L 219.927273 179.30682 
L 223.534545 179.30682 
L 227.141818 179.30682 
L 230.749091 179.30682 
L 234.356364 187.52062 
L 237.963636 187.52062 
L 241.570909 187.52062 
L 245.178182 183.601869 
L 248.785455 183.601869 
L 252.392727 183.601869 
L 256 183.601869 
L 259.607273 183.601869 
L 263.214545 183.601869 
L 266.821818 183.601869 
L 270.429091 183.601869 
L 274.036364 183.601869 
L 277.643636 183.601869 
L 281.250909 175.531127 
L 284.858182 175.531127 
L 288.465455 175.531127 
L 292.072727 175.531127 
L 295.68 175.531127 
L 299.287273 175.531127 
L 302.894545 175.531127 
L 306.501818 175.531127 
L 310.109091 175.531127 
L 313.716364 175.531127 
L 317.323636 175.531127 
L 320.930909 197.348519 
L 324.538182 197.348519 
L 328.145455 197.348519 
L 331.752727 189.184618 
L 335.36 198.529563 
L 338.967273 198.529563 
L 342.574545 214.324053 
L 346.181818 202.373531 
L 349.789091 202.373531 
L 353.396364 203.331657 
L 357.003636 203.331657 
L 360.610909 203.331657 
L 364.218182 203.331657 
L 367.825455 203.331657 
L 371.432727 233.532095 
L 375.04 233.532095 
L 378.647273 233.532095 
L 382.254545 233.532095 
L 385.861818 233.532095 
L 389.469091 233.532095 
L 393.076364 233.532095 
L 396.683636 233.532095 
L 400.290909 233.532095 
L 403.898182 233.532095 
L 407.505455 233.532095 
L 411.112727 233.532095 
L 414.72 233.532095 
" clip-path="url(#p2973bf34f8)" style="fill: none; stroke: #ff0000; stroke-width: 1.5; stroke-linecap: square"/>
   </g>
   <g id="line2d_17">
    <path d="M 57.6 77.769677 
L 61.207273 83.629145 
L 64.814545 89.244086 
L 68.421818 94.619764 
L 72.029091 99.761445 
L 75.636364 104.674396 
L 79.243636 109.363881 
L 82.850909 113.835167 
L 86.458182 118.093519 
L 90.065455 122.144203 
L 93.672727 125.992485 
L 97.28 129.64363 
L 100.887273 133.102905 
L 104.494545 136.375574 
L 108.101818 139.466905 
L 111.709091 142.382162 
L 115.316364 145.126611 
L 118.923636 147.705519 
L 122.530909 150.12415 
L 126.138182 152.387771 
L 129.745455 154.501647 
L 133.352727 156.471044 
L 136.96 158.301228 
L 140.567273 159.997464 
L 144.174545 161.565019 
L 147.781818 163.009157 
L 151.389091 164.335146 
L 154.996364 165.548249 
L 158.603636 166.653735 
L 162.210909 167.656867 
L 165.818182 168.562912 
L 169.425455 169.377135 
L 173.032727 170.104803 
L 176.64 170.751181 
L 180.247273 171.321534 
L 183.854545 171.821129 
L 187.461818 172.255232 
L 191.069091 172.629107 
L 194.676364 172.948021 
L 198.283636 173.217239 
L 201.890909 173.442028 
L 205.498182 173.627653 
L 209.105455 173.779379 
L 212.712727 173.902473 
L 216.32 174.002201 
L 219.927273 174.083827 
L 223.534545 174.152618 
L 227.141818 174.213839 
L 230.749091 174.272757 
L 234.356364 174.334637 
L 237.963636 174.404744 
L 241.570909 174.488345 
L 245.178182 174.590705 
L 248.785455 174.71709 
L 252.392727 174.872766 
L 256 175.062998 
L 259.607273 175.293053 
L 263.214545 175.568195 
L 266.821818 175.893691 
L 270.429091 176.274807 
L 274.036364 176.716808 
L 277.643636 177.22496 
L 281.250909 177.804528 
L 284.858182 178.460779 
L 288.465455 179.198979 
L 292.072727 180.024392 
L 295.68 180.942285 
L 299.287273 181.957923 
L 302.894545 183.076573 
L 306.501818 184.303499 
L 310.109091 185.643968 
L 313.716364 187.103246 
L 317.323636 188.686598 
L 320.930909 190.39929 
L 324.538182 192.246587 
L 328.145455 194.233756 
L 331.752727 196.366062 
L 335.36 198.648771 
L 338.967273 201.087149 
L 342.574545 203.686461 
L 346.181818 206.451974 
L 349.789091 209.388952 
L 353.396364 212.502662 
L 357.003636 215.798369 
L 360.610909 219.28134 
L 364.218182 222.956839 
L 367.825455 226.830134 
L 371.432727 230.906488 
L 375.04 235.191169 
L 378.647273 239.689442 
L 382.254545 244.406572 
L 385.861818 249.347826 
L 389.469091 254.518469 
L 393.076364 259.923767 
L 396.683636 265.568985 
L 400.290909 271.45939 
L 403.898182 277.600247 
L 407.505455 283.996822 
L 411.112727 290.654381 
L 414.72 297.578189 
" clip-path="url(#p2973bf34f8)" style="fill: none; stroke: #008000; stroke-width: 1.5; stroke-linecap: square"/>
   </g>
   <g id="line2d_18">
    <path d="M 57.6 136.625193 
L 61.207273 136.625193 
L 64.814545 136.625193 
L 68.421818 136.625193 
L 72.029091 136.625193 
L 75.636364 136.625193 
L 79.243636 136.625193 
L 82.850909 136.625193 
L 86.458182 136.625193 
L 90.065455 136.625193 
L 93.672727 136.625193 
L 97.28 136.625193 
L 100.887273 136.625193 
L 104.494545 136.625193 
L 108.101818 138.763723 
L 111.709091 138.763723 
L 115.316364 138.763723 
L 118.923636 138.763723 
L 122.530909 138.763723 
L 126.138182 145.783298 
L 129.745455 145.783298 
L 133.352727 145.783298 
L 136.96 162.377926 
L 140.567273 147.795479 
L 144.174545 147.795479 
L 147.781818 158.125892 
L 151.389091 158.125892 
L 154.996364 158.125892 
L 158.603636 158.125892 
L 162.210909 158.125892 
L 165.818182 158.125892 
L 169.425455 158.125892 
L 173.032727 158.125892 
L 176.64 166.847783 
L 180.247273 166.847783 
L 183.854545 166.847783 
L 187.461818 166.847783 
L 191.069091 166.847783 
L 194.676364 166.847783 
L 198.283636 166.847783 
L 201.890909 167.567814 
L 205.498182 167.567814 
L 209.105455 162.78444 
L 212.712727 162.78444 
L 216.32 180.843506 
L 219.927273 180.843506 
L 223.534545 180.843506 
L 227.141818 180.843506 
L 230.749091 180.843506 
L 234.356364 180.843506 
L 237.963636 180.843506 
L 241.570909 180.843506 
L 245.178182 179.982018 
L 248.785455 179.982018 
L 252.392727 179.982018 
L 256 179.982018 
L 259.607273 179.982018 
L 263.214545 179.982018 
L 266.821818 179.982018 
L 270.429091 179.982018 
L 274.036364 179.982018 
L 277.643636 178.416922 
L 281.250909 171.100827 
L 284.858182 189.266565 
L 288.465455 189.266565 
L 292.072727 189.266565 
L 295.68 189.266565 
L 299.287273 179.772891 
L 302.894545 179.772891 
L 306.501818 179.772891 
L 310.109091 179.772891 
L 313.716364 183.765159 
L 317.323636 183.765159 
L 320.930909 183.765159 
L 324.538182 183.765159 
L 328.145455 183.765159 
L 331.752727 183.765159 
L 335.36 202.561775 
L 338.967273 202.561775 
L 342.574545 202.561775 
L 346.181818 202.561775 
L 349.789091 202.561775 
L 353.396364 202.561775 
L 357.003636 225.006378 
L 360.610909 225.006378 
L 364.218182 225.006378 
L 367.825455 225.006378 
L 371.432727 225.006378 
L 375.04 225.006378 
L 378.647273 225.006378 
L 382.254545 225.006378 
L 385.861818 290.905703 
L 389.469091 290.905703 
L 393.076364 290.905703 
L 396.683636 290.905703 
L 400.290909 290.905703 
L 403.898182 290.905703 
L 407.505455 290.905703 
L 411.112727 290.905703 
L 414.72 290.905703 
" clip-path="url(#p2973bf34f8)" style="fill: none; stroke: #ff0000; stroke-width: 1.5; stroke-linecap: square"/>
   </g>
   <g id="line2d_19">
    <path d="M 57.6 77.769677 
L 61.207273 83.629145 
L 64.814545 89.244086 
L 68.421818 94.619764 
L 72.029091 99.761445 
L 75.636364 104.674396 
L 79.243636 109.363881 
L 82.850909 113.835167 
L 86.458182 118.093519 
L 90.065455 122.144203 
L 93.672727 125.992485 
L 97.28 129.64363 
L 100.887273 133.102905 
L 104.494545 136.375574 
L 108.101818 139.466905 
L 111.709091 142.382162 
L 115.316364 145.126611 
L 118.923636 147.705519 
L 122.530909 150.12415 
L 126.138182 152.387771 
L 129.745455 154.501647 
L 133.352727 156.471044 
L 136.96 158.301228 
L 140.567273 159.997464 
L 144.174545 161.565019 
L 147.781818 163.009157 
L 151.389091 164.335146 
L 154.996364 165.548249 
L 158.603636 166.653735 
L 162.210909 167.656867 
L 165.818182 168.562912 
L 169.425455 169.377135 
L 173.032727 170.104803 
L 176.64 170.751181 
L 180.247273 171.321534 
L 183.854545 171.821129 
L 187.461818 172.255232 
L 191.069091 172.629107 
L 194.676364 172.948021 
L 198.283636 173.217239 
L 201.890909 173.442028 
L 205.498182 173.627653 
L 209.105455 173.779379 
L 212.712727 173.902473 
L 216.32 174.002201 
L 219.927273 174.083827 
L 223.534545 174.152618 
L 227.141818 174.213839 
L 230.749091 174.272757 
L 234.356364 174.334637 
L 237.963636 174.404744 
L 241.570909 174.488345 
L 245.178182 174.590705 
L 248.785455 174.71709 
L 252.392727 174.872766 
L 256 175.062998 
L 259.607273 175.293053 
L 263.214545 175.568195 
L 266.821818 175.893691 
L 270.429091 176.274807 
L 274.036364 176.716808 
L 277.643636 177.22496 
L 281.250909 177.804528 
L 284.858182 178.460779 
L 288.465455 179.198979 
L 292.072727 180.024392 
L 295.68 180.942285 
L 299.287273 181.957923 
L 302.894545 183.076573 
L 306.501818 184.303499 
L 310.109091 185.643968 
L 313.716364 187.103246 
L 317.323636 188.686598 
L 320.930909 190.39929 
L 324.538182 192.246587 
L 328.145455 194.233756 
L 331.752727 196.366062 
L 335.36 198.648771 
L 338.967273 201.087149 
L 342.574545 203.686461 
L 346.181818 206.451974 
L 349.789091 209.388952 
L 353.396364 212.502662 
L 357.003636 215.798369 
L 360.610909 219.28134 
L 364.218182 222.956839 
L 367.825455 226.830134 
L 371.432727 230.906488 
L 375.04 235.191169 
L 378.647273 239.689442 
L 382.254545 244.406572 
L 385.861818 249.347826 
L 389.469091 254.518469 
L 393.076364 259.923767 
L 396.683636 265.568985 
L 400.290909 271.45939 
L 403.898182 277.600247 
L 407.505455 283.996822 
L 411.112727 290.654381 
L 414.72 297.578189 
" clip-path="url(#p2973bf34f8)" style="fill: none; stroke: #008000; stroke-width: 1.5; stroke-linecap: square"/>
   </g>
   <g id="line2d_20">
    <path d="M 57.6 70.977381 
L 61.207273 70.977381 
L 64.814545 101.417869 
L 68.421818 101.417869 
L 72.029091 101.417869 
L 75.636364 103.073768 
L 79.243636 103.073768 
L 82.850909 106.284936 
L 86.458182 116.964818 
L 90.065455 135.058535 
L 93.672727 135.058535 
L 97.28 127.689017 
L 100.887273 127.689017 
L 104.494545 127.689017 
L 108.101818 127.689017 
L 111.709091 127.689017 
L 115.316364 127.689017 
L 118.923636 127.689017 
L 122.530909 154.963 
L 126.138182 154.963 
L 129.745455 154.963 
L 133.352727 154.963 
L 136.96 154.963 
L 140.567273 154.963 
L 144.174545 154.963 
L 147.781818 156.769319 
L 151.389091 156.769319 
L 154.996364 156.769319 
L 158.603636 156.769319 
L 162.210909 156.769319 
L 165.818182 156.769319 
L 169.425455 156.769319 
L 173.032727 182.324961 
L 176.64 182.324961 
L 180.247273 182.324961 
L 183.854545 182.324961 
L 187.461818 182.324961 
L 191.069091 182.324961 
L 194.676364 182.324961 
L 198.283636 182.324961 
L 201.890909 182.324961 
L 205.498182 182.324961 
L 209.105455 182.324961 
L 212.712727 167.556591 
L 216.32 167.556591 
L 219.927273 167.556591 
L 223.534545 167.556591 
L 227.141818 167.556591 
L 230.749091 167.556591 
L 234.356364 167.556591 
L 237.963636 174.815215 
L 241.570909 174.815215 
L 245.178182 164.222244 
L 248.785455 177.651764 
L 252.392727 177.651764 
L 256 177.651764 
L 259.607273 177.651764 
L 263.214545 176.492905 
L 266.821818 176.492905 
L 270.429091 176.492905 
L 274.036364 176.492905 
L 277.643636 176.492905 
L 281.250909 176.492905 
L 284.858182 189.271194 
L 288.465455 189.271194 
L 292.072727 189.271194 
L 295.68 188.952854 
L 299.287273 188.952854 
L 302.894545 188.952854 
L 306.501818 198.560922 
L 310.109091 198.560922 
L 313.716364 198.560922 
L 317.323636 198.560922 
L 320.930909 198.560922 
L 324.538182 198.560922 
L 328.145455 198.560922 
L 331.752727 198.560922 
L 335.36 198.560922 
L 338.967273 198.560922 
L 342.574545 198.560922 
L 346.181818 198.560922 
L 349.789091 198.560922 
L 353.396364 198.560922 
L 357.003636 198.560922 
L 360.610909 283.555208 
L 364.218182 283.555208 
L 367.825455 283.555208 
L 371.432727 283.555208 
L 375.04 283.555208 
L 378.647273 283.555208 
L 382.254545 283.555208 
L 385.861818 283.555208 
L 389.469091 283.555208 
L 393.076364 283.555208 
L 396.683636 283.555208 
L 400.290909 283.555208 
L 403.898182 283.555208 
L 407.505455 283.555208 
L 411.112727 283.555208 
L 414.72 283.555208 
" clip-path="url(#p2973bf34f8)" style="fill: none; stroke: #ff0000; stroke-width: 1.5; stroke-linecap: square"/>
   </g>
   <g id="line2d_21">
    <path d="M 57.6 77.769677 
L 61.207273 83.629145 
L 64.814545 89.244086 
L 68.421818 94.619764 
L 72.029091 99.761445 
L 75.636364 104.674396 
L 79.243636 109.363881 
L 82.850909 113.835167 
L 86.458182 118.093519 
L 90.065455 122.144203 
L 93.672727 125.992485 
L 97.28 129.64363 
L 100.887273 133.102905 
L 104.494545 136.375574 
L 108.101818 139.466905 
L 111.709091 142.382162 
L 115.316364 145.126611 
L 118.923636 147.705519 
L 122.530909 150.12415 
L 126.138182 152.387771 
L 129.745455 154.501647 
L 133.352727 156.471044 
L 136.96 158.301228 
L 140.567273 159.997464 
L 144.174545 161.565019 
L 147.781818 163.009157 
L 151.389091 164.335146 
L 154.996364 165.548249 
L 158.603636 166.653735 
L 162.210909 167.656867 
L 165.818182 168.562912 
L 169.425455 169.377135 
L 173.032727 170.104803 
L 176.64 170.751181 
L 180.247273 171.321534 
L 183.854545 171.821129 
L 187.461818 172.255232 
L 191.069091 172.629107 
L 194.676364 172.948021 
L 198.283636 173.217239 
L 201.890909 173.442028 
L 205.498182 173.627653 
L 209.105455 173.779379 
L 212.712727 173.902473 
L 216.32 174.002201 
L 219.927273 174.083827 
L 223.534545 174.152618 
L 227.141818 174.213839 
L 230.749091 174.272757 
L 234.356364 174.334637 
L 237.963636 174.404744 
L 241.570909 174.488345 
L 245.178182 174.590705 
L 248.785455 174.71709 
L 252.392727 174.872766 
L 256 175.062998 
L 259.607273 175.293053 
L 263.214545 175.568195 
L 266.821818 175.893691 
L 270.429091 176.274807 
L 274.036364 176.716808 
L 277.643636 177.22496 
L 281.250909 177.804528 
L 284.858182 178.460779 
L 288.465455 179.198979 
L 292.072727 180.024392 
L 295.68 180.942285 
L 299.287273 181.957923 
L 302.894545 183.076573 
L 306.501818 184.303499 
L 310.109091 185.643968 
L 313.716364 187.103246 
L 317.323636 188.686598 
L 320.930909 190.39929 
L 324.538182 192.246587 
L 328.145455 194.233756 
L 331.752727 196.366062 
L 335.36 198.648771 
L 338.967273 201.087149 
L 342.574545 203.686461 
L 346.181818 206.451974 
L 349.789091 209.388952 
L 353.396364 212.502662 
L 357.003636 215.798369 
L 360.610909 219.28134 
L 364.218182 222.956839 
L 367.825455 226.830134 
L 371.432727 230.906488 
L 375.04 235.191169 
L 378.647273 239.689442 
L 382.254545 244.406572 
L 385.861818 249.347826 
L 389.469091 254.518469 
L 393.076364 259.923767 
L 396.683636 265.568985 
L 400.290909 271.45939 
L 403.898182 277.600247 
L 407.505455 283.996822 
L 411.112727 290.654381 
L 414.72 297.578189 
" clip-path="url(#p2973bf34f8)" style="fill: none; stroke: #008000; stroke-width: 1.5; stroke-linecap: square"/>
   </g>
   <g id="line2d_22">
    <path d="M 57.6 130.254287 
L 61.207273 130.254287 
L 64.814545 130.254287 
L 68.421818 130.254287 
L 72.029091 130.254287 
L 75.636364 130.254287 
L 79.243636 130.254287 
L 82.850909 130.254287 
L 86.458182 130.254287 
L 90.065455 130.254287 
L 93.672727 130.254287 
L 97.28 117.585019 
L 100.887273 117.585019 
L 104.494545 141.536617 
L 108.101818 141.536617 
L 111.709091 141.536617 
L 115.316364 150.271837 
L 118.923636 150.271837 
L 122.530909 148.668083 
L 126.138182 148.668083 
L 129.745455 148.668083 
L 133.352727 144.571948 
L 136.96 163.194116 
L 140.567273 163.194116 
L 144.174545 163.194116 
L 147.781818 163.194116 
L 151.389091 163.194116 
L 154.996364 163.194116 
L 158.603636 163.194116 
L 162.210909 163.194116 
L 165.818182 163.194116 
L 169.425455 163.194116 
L 173.032727 163.194116 
L 176.64 163.194116 
L 180.247273 163.194116 
L 183.854545 180.886742 
L 187.461818 180.886742 
L 191.069091 180.886742 
L 194.676364 180.886742 
L 198.283636 180.886742 
L 201.890909 180.886742 
L 205.498182 180.886742 
L 209.105455 180.886742 
L 212.712727 180.886742 
L 216.32 180.886742 
L 219.927273 180.886742 
L 223.534545 180.886742 
L 227.141818 180.886742 
L 230.749091 180.886742 
L 234.356364 180.886742 
L 237.963636 186.249072 
L 241.570909 186.249072 
L 245.178182 186.249072 
L 248.785455 186.249072 
L 252.392727 186.249072 
L 256 186.249072 
L 259.607273 186.249072 
L 263.214545 186.249072 
L 266.821818 188.139711 
L 270.429091 188.139711 
L 274.036364 188.139711 
L 277.643636 174.075145 
L 281.250909 174.075145 
L 284.858182 174.075145 
L 288.465455 174.075145 
L 292.072727 174.075145 
L 295.68 177.490654 
L 299.287273 177.490654 
L 302.894545 177.490654 
L 306.501818 177.490654 
L 310.109091 177.490654 
L 313.716364 177.490654 
L 317.323636 177.490654 
L 320.930909 177.490654 
L 324.538182 212.150825 
L 328.145455 212.150825 
L 331.752727 212.150825 
L 335.36 212.150825 
L 338.967273 212.150825 
L 342.574545 212.150825 
L 346.181818 212.150825 
L 349.789091 212.150825 
L 353.396364 219.643469 
L 357.003636 219.643469 
L 360.610909 219.643469 
L 364.218182 219.643469 
L 367.825455 219.643469 
L 371.432727 239.921547 
L 375.04 239.921547 
L 378.647273 239.921547 
L 382.254545 239.921547 
L 385.861818 247.447915 
L 389.469091 247.447915 
L 393.076364 259.953761 
L 396.683636 259.953761 
L 400.290909 259.953761 
L 403.898182 302.852162 
L 407.505455 302.852162 
L 411.112727 302.852162 
L 414.72 308.805208 
" clip-path="url(#p2973bf34f8)" style="fill: none; stroke: #ff0000; stroke-width: 1.5; stroke-linecap: square"/>
   </g>
   <g id="line2d_23">
    <path d="M 57.6 77.769677 
L 61.207273 83.629145 
L 64.814545 89.244086 
L 68.421818 94.619764 
L 72.029091 99.761445 
L 75.636364 104.674396 
L 79.243636 109.363881 
L 82.850909 113.835167 
L 86.458182 118.093519 
L 90.065455 122.144203 
L 93.672727 125.992485 
L 97.28 129.64363 
L 100.887273 133.102905 
L 104.494545 136.375574 
L 108.101818 139.466905 
L 111.709091 142.382162 
L 115.316364 145.126611 
L 118.923636 147.705519 
L 122.530909 150.12415 
L 126.138182 152.387771 
L 129.745455 154.501647 
L 133.352727 156.471044 
L 136.96 158.301228 
L 140.567273 159.997464 
L 144.174545 161.565019 
L 147.781818 163.009157 
L 151.389091 164.335146 
L 154.996364 165.548249 
L 158.603636 166.653735 
L 162.210909 167.656867 
L 165.818182 168.562912 
L 169.425455 169.377135 
L 173.032727 170.104803 
L 176.64 170.751181 
L 180.247273 171.321534 
L 183.854545 171.821129 
L 187.461818 172.255232 
L 191.069091 172.629107 
L 194.676364 172.948021 
L 198.283636 173.217239 
L 201.890909 173.442028 
L 205.498182 173.627653 
L 209.105455 173.779379 
L 212.712727 173.902473 
L 216.32 174.002201 
L 219.927273 174.083827 
L 223.534545 174.152618 
L 227.141818 174.213839 
L 230.749091 174.272757 
L 234.356364 174.334637 
L 237.963636 174.404744 
L 241.570909 174.488345 
L 245.178182 174.590705 
L 248.785455 174.71709 
L 252.392727 174.872766 
L 256 175.062998 
L 259.607273 175.293053 
L 263.214545 175.568195 
L 266.821818 175.893691 
L 270.429091 176.274807 
L 274.036364 176.716808 
L 277.643636 177.22496 
L 281.250909 177.804528 
L 284.858182 178.460779 
L 288.465455 179.198979 
L 292.072727 180.024392 
L 295.68 180.942285 
L 299.287273 181.957923 
L 302.894545 183.076573 
L 306.501818 184.303499 
L 310.109091 185.643968 
L 313.716364 187.103246 
L 317.323636 188.686598 
L 320.930909 190.39929 
L 324.538182 192.246587 
L 328.145455 194.233756 
L 331.752727 196.366062 
L 335.36 198.648771 
L 338.967273 201.087149 
L 342.574545 203.686461 
L 346.181818 206.451974 
L 349.789091 209.388952 
L 353.396364 212.502662 
L 357.003636 215.798369 
L 360.610909 219.28134 
L 364.218182 222.956839 
L 367.825455 226.830134 
L 371.432727 230.906488 
L 375.04 235.191169 
L 378.647273 239.689442 
L 382.254545 244.406572 
L 385.861818 249.347826 
L 389.469091 254.518469 
L 393.076364 259.923767 
L 396.683636 265.568985 
L 400.290909 271.45939 
L 403.898182 277.600247 
L 407.505455 283.996822 
L 411.112727 290.654381 
L 414.72 297.578189 
" clip-path="url(#p2973bf34f8)" style="fill: none; stroke: #008000; stroke-width: 1.5; stroke-linecap: square"/>
   </g>
   <g id="line2d_24">
    <path d="M 57.6 95.483094 
L 61.207273 95.483094 
L 64.814545 95.483094 
L 68.421818 95.483094 
L 72.029091 95.483094 
L 75.636364 95.483094 
L 79.243636 105.136783 
L 82.850909 105.136783 
L 86.458182 105.136783 
L 90.065455 105.136783 
L 93.672727 105.136783 
L 97.28 135.741567 
L 100.887273 135.741567 
L 104.494545 135.741567 
L 108.101818 135.741567 
L 111.709091 136.872511 
L 115.316364 150.39366 
L 118.923636 150.39366 
L 122.530909 150.39366 
L 126.138182 164.967412 
L 129.745455 164.967412 
L 133.352727 163.766492 
L 136.96 163.766492 
L 140.567273 165.328495 
L 144.174545 165.328495 
L 147.781818 165.328495 
L 151.389091 165.328495 
L 154.996364 165.328495 
L 158.603636 165.328495 
L 162.210909 165.328495 
L 165.818182 165.328495 
L 169.425455 165.328495 
L 173.032727 184.357356 
L 176.64 184.357356 
L 180.247273 184.357356 
L 183.854545 184.357356 
L 187.461818 184.357356 
L 191.069091 184.357356 
L 194.676364 184.357356 
L 198.283636 184.357356 
L 201.890909 184.357356 
L 205.498182 184.357356 
L 209.105455 169.48215 
L 212.712727 169.48215 
L 216.32 161.864314 
L 219.927273 185.687514 
L 223.534545 168.126666 
L 227.141818 168.126666 
L 230.749091 168.126666 
L 234.356364 168.126666 
L 237.963636 174.808992 
L 241.570909 174.808992 
L 245.178182 174.808992 
L 248.785455 174.808992 
L 252.392727 174.808992 
L 256 174.808992 
L 259.607273 174.808992 
L 263.214545 174.808992 
L 266.821818 174.808992 
L 270.429091 193.746412 
L 274.036364 193.746412 
L 277.643636 193.746412 
L 281.250909 193.746412 
L 284.858182 193.746412 
L 288.465455 193.746412 
L 292.072727 193.746412 
L 295.68 193.746412 
L 299.287273 187.733739 
L 302.894545 187.733739 
L 306.501818 192.156398 
L 310.109091 192.156398 
L 313.716364 192.156398 
L 317.323636 192.156398 
L 320.930909 192.156398 
L 324.538182 192.156398 
L 328.145455 192.156398 
L 331.752727 192.156398 
L 335.36 192.156398 
L 338.967273 192.156398 
L 342.574545 192.156398 
L 346.181818 192.156398 
L 349.789091 192.156398 
L 353.396364 192.156398 
L 357.003636 264.799161 
L 360.610909 264.799161 
L 364.218182 264.799161 
L 367.825455 264.799161 
L 371.432727 264.799161 
L 375.04 264.799161 
L 378.647273 264.799161 
L 382.254545 264.799161 
L 385.861818 264.799161 
L 389.469091 264.799161 
L 393.076364 264.799161 
L 396.683636 264.799161 
L 400.290909 264.799161 
L 403.898182 264.799161 
L 407.505455 264.799161 
L 411.112727 264.799161 
L 414.72 264.799161 
" clip-path="url(#p2973bf34f8)" style="fill: none; stroke: #ff0000; stroke-width: 1.5; stroke-linecap: square"/>
   </g>
   <g id="line2d_25">
    <path d="M 57.6 77.769677 
L 61.207273 83.629145 
L 64.814545 89.244086 
L 68.421818 94.619764 
L 72.029091 99.761445 
L 75.636364 104.674396 
L 79.243636 109.363881 
L 82.850909 113.835167 
L 86.458182 118.093519 
L 90.065455 122.144203 
L 93.672727 125.992485 
L 97.28 129.64363 
L 100.887273 133.102905 
L 104.494545 136.375574 
L 108.101818 139.466905 
L 111.709091 142.382162 
L 115.316364 145.126611 
L 118.923636 147.705519 
L 122.530909 150.12415 
L 126.138182 152.387771 
L 129.745455 154.501647 
L 133.352727 156.471044 
L 136.96 158.301228 
L 140.567273 159.997464 
L 144.174545 161.565019 
L 147.781818 163.009157 
L 151.389091 164.335146 
L 154.996364 165.548249 
L 158.603636 166.653735 
L 162.210909 167.656867 
L 165.818182 168.562912 
L 169.425455 169.377135 
L 173.032727 170.104803 
L 176.64 170.751181 
L 180.247273 171.321534 
L 183.854545 171.821129 
L 187.461818 172.255232 
L 191.069091 172.629107 
L 194.676364 172.948021 
L 198.283636 173.217239 
L 201.890909 173.442028 
L 205.498182 173.627653 
L 209.105455 173.779379 
L 212.712727 173.902473 
L 216.32 174.002201 
L 219.927273 174.083827 
L 223.534545 174.152618 
L 227.141818 174.213839 
L 230.749091 174.272757 
L 234.356364 174.334637 
L 237.963636 174.404744 
L 241.570909 174.488345 
L 245.178182 174.590705 
L 248.785455 174.71709 
L 252.392727 174.872766 
L 256 175.062998 
L 259.607273 175.293053 
L 263.214545 175.568195 
L 266.821818 175.893691 
L 270.429091 176.274807 
L 274.036364 176.716808 
L 277.643636 177.22496 
L 281.250909 177.804528 
L 284.858182 178.460779 
L 288.465455 179.198979 
L 292.072727 180.024392 
L 295.68 180.942285 
L 299.287273 181.957923 
L 302.894545 183.076573 
L 306.501818 184.303499 
L 310.109091 185.643968 
L 313.716364 187.103246 
L 317.323636 188.686598 
L 320.930909 190.39929 
L 324.538182 192.246587 
L 328.145455 194.233756 
L 331.752727 196.366062 
L 335.36 198.648771 
L 338.967273 201.087149 
L 342.574545 203.686461 
L 346.181818 206.451974 
L 349.789091 209.388952 
L 353.396364 212.502662 
L 357.003636 215.798369 
L 360.610909 219.28134 
L 364.218182 222.956839 
L 367.825455 226.830134 
L 371.432727 230.906488 
L 375.04 235.191169 
L 378.647273 239.689442 
L 382.254545 244.406572 
L 385.861818 249.347826 
L 389.469091 254.518469 
L 393.076364 259.923767 
L 396.683636 265.568985 
L 400.290909 271.45939 
L 403.898182 277.600247 
L 407.505455 283.996822 
L 411.112727 290.654381 
L 414.72 297.578189 
" clip-path="url(#p2973bf34f8)" style="fill: none; stroke: #008000; stroke-width: 1.5; stroke-linecap: square"/>
   </g>
   <g id="line2d_26">
    <path d="M 57.6 80.494831 
L 61.207273 80.494831 
L 64.814545 80.494831 
L 68.421818 80.494831 
L 72.029091 109.176549 
L 75.636364 109.176549 
L 79.243636 109.176549 
L 82.850909 109.176549 
L 86.458182 109.176549 
L 90.065455 109.176549 
L 93.672727 109.176549 
L 97.28 109.176549 
L 100.887273 109.176549 
L 104.494545 161.16563 
L 108.101818 161.16563 
L 111.709091 161.16563 
L 115.316364 161.16563 
L 118.923636 161.16563 
L 122.530909 161.16563 
L 126.138182 161.16563 
L 129.745455 164.157189 
L 133.352727 164.157189 
L 136.96 164.157189 
L 140.567273 164.157189 
L 144.174545 154.777106 
L 147.781818 154.777106 
L 151.389091 154.777106 
L 154.996364 154.777106 
L 158.603636 154.777106 
L 162.210909 154.777106 
L 165.818182 184.396416 
L 169.425455 184.396416 
L 173.032727 184.396416 
L 176.64 184.396416 
L 180.247273 184.396416 
L 183.854545 184.396416 
L 187.461818 164.425384 
L 191.069091 164.425384 
L 194.676364 164.425384 
L 198.283636 185.583705 
L 201.890909 185.583705 
L 205.498182 185.583705 
L 209.105455 185.583705 
L 212.712727 185.583705 
L 216.32 185.583705 
L 219.927273 185.583705 
L 223.534545 185.583705 
L 227.141818 175.149401 
L 230.749091 175.149401 
L 234.356364 175.149401 
L 237.963636 175.149401 
L 241.570909 175.149401 
L 245.178182 175.149401 
L 248.785455 175.149401 
L 252.392727 175.149401 
L 256 175.149401 
L 259.607273 165.410722 
L 263.214545 165.410722 
L 266.821818 165.410722 
L 270.429091 165.410722 
L 274.036364 165.410722 
L 277.643636 165.410722 
L 281.250909 165.410722 
L 284.858182 165.410722 
L 288.465455 165.410722 
L 292.072727 165.410722 
L 295.68 177.568723 
L 299.287273 177.568723 
L 302.894545 177.568723 
L 306.501818 177.568723 
L 310.109091 177.568723 
L 313.716364 177.568723 
L 317.323636 177.568723 
L 320.930909 177.568723 
L 324.538182 195.586633 
L 328.145455 195.586633 
L 331.752727 203.409474 
L 335.36 192.003168 
L 338.967273 192.003168 
L 342.574545 192.003168 
L 346.181818 192.003168 
L 349.789091 192.003168 
L 353.396364 237.410197 
L 357.003636 237.410197 
L 360.610909 237.410197 
L 364.218182 237.410197 
L 367.825455 237.410197 
L 371.432727 237.410197 
L 375.04 246.033161 
L 378.647273 246.033161 
L 382.254545 246.033161 
L 385.861818 256.195264 
L 389.469091 256.195264 
L 393.076364 262.373664 
L 396.683636 262.373664 
L 400.290909 262.373664 
L 403.898182 272.516648 
L 407.505455 272.516648 
L 411.112727 272.516648 
L 414.72 272.516648 
" clip-path="url(#p2973bf34f8)" style="fill: none; stroke: #ff0000; stroke-width: 1.5; stroke-linecap: square"/>
   </g>
   <g id="line2d_27">
    <path d="M 57.6 77.769677 
L 61.207273 83.629145 
L 64.814545 89.244086 
L 68.421818 94.619764 
L 72.029091 99.761445 
L 75.636364 104.674396 
L 79.243636 109.363881 
L 82.850909 113.835167 
L 86.458182 118.093519 
L 90.065455 122.144203 
L 93.672727 125.992485 
L 97.28 129.64363 
L 100.887273 133.102905 
L 104.494545 136.375574 
L 108.101818 139.466905 
L 111.709091 142.382162 
L 115.316364 145.126611 
L 118.923636 147.705519 
L 122.530909 150.12415 
L 126.138182 152.387771 
L 129.745455 154.501647 
L 133.352727 156.471044 
L 136.96 158.301228 
L 140.567273 159.997464 
L 144.174545 161.565019 
L 147.781818 163.009157 
L 151.389091 164.335146 
L 154.996364 165.548249 
L 158.603636 166.653735 
L 162.210909 167.656867 
L 165.818182 168.562912 
L 169.425455 169.377135 
L 173.032727 170.104803 
L 176.64 170.751181 
L 180.247273 171.321534 
L 183.854545 171.821129 
L 187.461818 172.255232 
L 191.069091 172.629107 
L 194.676364 172.948021 
L 198.283636 173.217239 
L 201.890909 173.442028 
L 205.498182 173.627653 
L 209.105455 173.779379 
L 212.712727 173.902473 
L 216.32 174.002201 
L 219.927273 174.083827 
L 223.534545 174.152618 
L 227.141818 174.213839 
L 230.749091 174.272757 
L 234.356364 174.334637 
L 237.963636 174.404744 
L 241.570909 174.488345 
L 245.178182 174.590705 
L 248.785455 174.71709 
L 252.392727 174.872766 
L 256 175.062998 
L 259.607273 175.293053 
L 263.214545 175.568195 
L 266.821818 175.893691 
L 270.429091 176.274807 
L 274.036364 176.716808 
L 277.643636 177.22496 
L 281.250909 177.804528 
L 284.858182 178.460779 
L 288.465455 179.198979 
L 292.072727 180.024392 
L 295.68 180.942285 
L 299.287273 181.957923 
L 302.894545 183.076573 
L 306.501818 184.303499 
L 310.109091 185.643968 
L 313.716364 187.103246 
L 317.323636 188.686598 
L 320.930909 190.39929 
L 324.538182 192.246587 
L 328.145455 194.233756 
L 331.752727 196.366062 
L 335.36 198.648771 
L 338.967273 201.087149 
L 342.574545 203.686461 
L 346.181818 206.451974 
L 349.789091 209.388952 
L 353.396364 212.502662 
L 357.003636 215.798369 
L 360.610909 219.28134 
L 364.218182 222.956839 
L 367.825455 226.830134 
L 371.432727 230.906488 
L 375.04 235.191169 
L 378.647273 239.689442 
L 382.254545 244.406572 
L 385.861818 249.347826 
L 389.469091 254.518469 
L 393.076364 259.923767 
L 396.683636 265.568985 
L 400.290909 271.45939 
L 403.898182 277.600247 
L 407.505455 283.996822 
L 411.112727 290.654381 
L 414.72 297.578189 
" clip-path="url(#p2973bf34f8)" style="fill: none; stroke: #008000; stroke-width: 1.5; stroke-linecap: square"/>
   </g>
   <g id="line2d_28">
    <path d="M 57.6 101.581002 
L 61.207273 101.581002 
L 64.814545 101.581002 
L 68.421818 101.581002 
L 72.029091 101.581002 
L 75.636364 101.581002 
L 79.243636 101.581002 
L 82.850909 101.581002 
L 86.458182 101.581002 
L 90.065455 132.391216 
L 93.672727 132.391216 
L 97.28 132.391216 
L 100.887273 132.391216 
L 104.494545 132.391216 
L 108.101818 132.391216 
L 111.709091 132.391216 
L 115.316364 153.104982 
L 118.923636 153.104982 
L 122.530909 158.314928 
L 126.138182 158.314928 
L 129.745455 152.271307 
L 133.352727 152.271307 
L 136.96 167.380429 
L 140.567273 146.188759 
L 144.174545 146.188759 
L 147.781818 146.188759 
L 151.389091 146.188759 
L 154.996364 146.188759 
L 158.603636 146.188759 
L 162.210909 146.188759 
L 165.818182 146.188759 
L 169.425455 146.188759 
L 173.032727 163.034204 
L 176.64 163.034204 
L 180.247273 163.034204 
L 183.854545 163.034204 
L 187.461818 163.034204 
L 191.069091 163.034204 
L 194.676364 163.034204 
L 198.283636 163.034204 
L 201.890909 163.034204 
L 205.498182 163.034204 
L 209.105455 163.034204 
L 212.712727 168.274625 
L 216.32 168.274625 
L 219.927273 168.274625 
L 223.534545 166.094086 
L 227.141818 166.094086 
L 230.749091 166.094086 
L 234.356364 166.094086 
L 237.963636 166.094086 
L 241.570909 166.094086 
L 245.178182 166.094086 
L 248.785455 186.465481 
L 252.392727 186.465481 
L 256 186.465481 
L 259.607273 186.465481 
L 263.214545 186.465481 
L 266.821818 170.537195 
L 270.429091 170.537195 
L 274.036364 170.537195 
L 277.643636 169.29108 
L 281.250909 169.29108 
L 284.858182 169.29108 
L 288.465455 177.298052 
L 292.072727 168.114574 
L 295.68 168.114574 
L 299.287273 168.114574 
L 302.894545 168.114574 
L 306.501818 183.127823 
L 310.109091 183.127823 
L 313.716364 183.127823 
L 317.323636 183.127823 
L 320.930909 183.127823 
L 324.538182 183.127823 
L 328.145455 198.678829 
L 331.752727 198.678829 
L 335.36 198.678829 
L 338.967273 198.678829 
L 342.574545 198.678829 
L 346.181818 198.678829 
L 349.789091 198.678829 
L 353.396364 198.678829 
L 357.003636 198.678829 
L 360.610909 198.678829 
L 364.218182 243.81961 
L 367.825455 243.81961 
L 371.432727 243.81961 
L 375.04 243.81961 
L 378.647273 243.81961 
L 382.254545 243.81961 
L 385.861818 243.81961 
L 389.469091 262.103466 
L 393.076364 262.103466 
L 396.683636 262.103466 
L 400.290909 262.103466 
L 403.898182 262.103466 
L 407.505455 262.103466 
L 411.112727 262.103466 
L 414.72 262.103466 
" clip-path="url(#p2973bf34f8)" style="fill: none; stroke: #ff0000; stroke-width: 1.5; stroke-linecap: square"/>
   </g>
   <g id="line2d_29">
    <path d="M 57.6 77.769677 
L 61.207273 83.629145 
L 64.814545 89.244086 
L 68.421818 94.619764 
L 72.029091 99.761445 
L 75.636364 104.674396 
L 79.243636 109.363881 
L 82.850909 113.835167 
L 86.458182 118.093519 
L 90.065455 122.144203 
L 93.672727 125.992485 
L 97.28 129.64363 
L 100.887273 133.102905 
L 104.494545 136.375574 
L 108.101818 139.466905 
L 111.709091 142.382162 
L 115.316364 145.126611 
L 118.923636 147.705519 
L 122.530909 150.12415 
L 126.138182 152.387771 
L 129.745455 154.501647 
L 133.352727 156.471044 
L 136.96 158.301228 
L 140.567273 159.997464 
L 144.174545 161.565019 
L 147.781818 163.009157 
L 151.389091 164.335146 
L 154.996364 165.548249 
L 158.603636 166.653735 
L 162.210909 167.656867 
L 165.818182 168.562912 
L 169.425455 169.377135 
L 173.032727 170.104803 
L 176.64 170.751181 
L 180.247273 171.321534 
L 183.854545 171.821129 
L 187.461818 172.255232 
L 191.069091 172.629107 
L 194.676364 172.948021 
L 198.283636 173.217239 
L 201.890909 173.442028 
L 205.498182 173.627653 
L 209.105455 173.779379 
L 212.712727 173.902473 
L 216.32 174.002201 
L 219.927273 174.083827 
L 223.534545 174.152618 
L 227.141818 174.213839 
L 230.749091 174.272757 
L 234.356364 174.334637 
L 237.963636 174.404744 
L 241.570909 174.488345 
L 245.178182 174.590705 
L 248.785455 174.71709 
L 252.392727 174.872766 
L 256 175.062998 
L 259.607273 175.293053 
L 263.214545 175.568195 
L 266.821818 175.893691 
L 270.429091 176.274807 
L 274.036364 176.716808 
L 277.643636 177.22496 
L 281.250909 177.804528 
L 284.858182 178.460779 
L 288.465455 179.198979 
L 292.072727 180.024392 
L 295.68 180.942285 
L 299.287273 181.957923 
L 302.894545 183.076573 
L 306.501818 184.303499 
L 310.109091 185.643968 
L 313.716364 187.103246 
L 317.323636 188.686598 
L 320.930909 190.39929 
L 324.538182 192.246587 
L 328.145455 194.233756 
L 331.752727 196.366062 
L 335.36 198.648771 
L 338.967273 201.087149 
L 342.574545 203.686461 
L 346.181818 206.451974 
L 349.789091 209.388952 
L 353.396364 212.502662 
L 357.003636 215.798369 
L 360.610909 219.28134 
L 364.218182 222.956839 
L 367.825455 226.830134 
L 371.432727 230.906488 
L 375.04 235.191169 
L 378.647273 239.689442 
L 382.254545 244.406572 
L 385.861818 249.347826 
L 389.469091 254.518469 
L 393.076364 259.923767 
L 396.683636 265.568985 
L 400.290909 271.45939 
L 403.898182 277.600247 
L 407.505455 283.996822 
L 411.112727 290.654381 
L 414.72 297.578189 
" clip-path="url(#p2973bf34f8)" style="fill: none; stroke: #008000; stroke-width: 1.5; stroke-linecap: square"/>
   </g>
   <g id="line2d_30">
    <path d="M 57.6 91.599617 
L 61.207273 91.599617 
L 64.814545 91.599617 
L 68.421818 91.599617 
L 72.029091 91.599617 
L 75.636364 111.679837 
L 79.243636 111.679837 
L 82.850909 102.027963 
L 86.458182 103.90404 
L 90.065455 119.174119 
L 93.672727 119.174119 
L 97.28 130.940942 
L 100.887273 130.940942 
L 104.494545 130.940942 
L 108.101818 135.130232 
L 111.709091 150.661077 
L 115.316364 150.661077 
L 118.923636 150.661077 
L 122.530909 150.661077 
L 126.138182 156.234348 
L 129.745455 156.234348 
L 133.352727 156.234348 
L 136.96 156.234348 
L 140.567273 149.150824 
L 144.174545 149.150824 
L 147.781818 149.150824 
L 151.389091 149.150824 
L 154.996364 149.150824 
L 158.603636 172.28198 
L 162.210909 172.28198 
L 165.818182 172.28198 
L 169.425455 172.28198 
L 173.032727 172.28198 
L 176.64 181.897153 
L 180.247273 181.897153 
L 183.854545 181.897153 
L 187.461818 181.897153 
L 191.069091 181.897153 
L 194.676364 181.897153 
L 198.283636 181.897153 
L 201.890909 181.897153 
L 205.498182 181.897153 
L 209.105455 181.897153 
L 212.712727 181.897153 
L 216.32 181.897153 
L 219.927273 172.486931 
L 223.534545 172.486931 
L 227.141818 172.486931 
L 230.749091 172.486931 
L 234.356364 172.486931 
L 237.963636 172.486931 
L 241.570909 172.486931 
L 245.178182 172.486931 
L 248.785455 172.486931 
L 252.392727 172.486931 
L 256 172.486931 
L 259.607273 172.486931 
L 263.214545 172.486931 
L 266.821818 172.486931 
L 270.429091 172.486931 
L 274.036364 165.241512 
L 277.643636 165.241512 
L 281.250909 165.241512 
L 284.858182 165.241512 
L 288.465455 165.241512 
L 292.072727 165.241512 
L 295.68 180.936558 
L 299.287273 180.936558 
L 302.894545 180.936558 
L 306.501818 180.936558 
L 310.109091 180.936558 
L 313.716364 200.654985 
L 317.323636 200.654985 
L 320.930909 178.976821 
L 324.538182 185.480216 
L 328.145455 185.480216 
L 331.752727 185.480216 
L 335.36 185.480216 
L 338.967273 212.27499 
L 342.574545 212.27499 
L 346.181818 212.27499 
L 349.789091 212.27499 
L 353.396364 212.27499 
L 357.003636 212.27499 
L 360.610909 212.27499 
L 364.218182 212.27499 
L 367.825455 231.300954 
L 371.432727 231.300954 
L 375.04 231.300954 
L 378.647273 231.300954 
L 382.254545 231.300954 
L 385.861818 231.300954 
L 389.469091 231.300954 
L 393.076364 231.300954 
L 396.683636 231.300954 
L 400.290909 231.300954 
L 403.898182 231.300954 
L 407.505455 231.300954 
L 411.112727 231.300954 
L 414.72 231.300954 
" clip-path="url(#p2973bf34f8)" style="fill: none; stroke: #ff0000; stroke-width: 1.5; stroke-linecap: square"/>
   </g>
   <g id="line2d_31">
    <path d="M 57.6 77.769677 
L 61.207273 83.629145 
L 64.814545 89.244086 
L 68.421818 94.619764 
L 72.029091 99.761445 
L 75.636364 104.674396 
L 79.243636 109.363881 
L 82.850909 113.835167 
L 86.458182 118.093519 
L 90.065455 122.144203 
L 93.672727 125.992485 
L 97.28 129.64363 
L 100.887273 133.102905 
L 104.494545 136.375574 
L 108.101818 139.466905 
L 111.709091 142.382162 
L 115.316364 145.126611 
L 118.923636 147.705519 
L 122.530909 150.12415 
L 126.138182 152.387771 
L 129.745455 154.501647 
L 133.352727 156.471044 
L 136.96 158.301228 
L 140.567273 159.997464 
L 144.174545 161.565019 
L 147.781818 163.009157 
L 151.389091 164.335146 
L 154.996364 165.548249 
L 158.603636 166.653735 
L 162.210909 167.656867 
L 165.818182 168.562912 
L 169.425455 169.377135 
L 173.032727 170.104803 
L 176.64 170.751181 
L 180.247273 171.321534 
L 183.854545 171.821129 
L 187.461818 172.255232 
L 191.069091 172.629107 
L 194.676364 172.948021 
L 198.283636 173.217239 
L 201.890909 173.442028 
L 205.498182 173.627653 
L 209.105455 173.779379 
L 212.712727 173.902473 
L 216.32 174.002201 
L 219.927273 174.083827 
L 223.534545 174.152618 
L 227.141818 174.213839 
L 230.749091 174.272757 
L 234.356364 174.334637 
L 237.963636 174.404744 
L 241.570909 174.488345 
L 245.178182 174.590705 
L 248.785455 174.71709 
L 252.392727 174.872766 
L 256 175.062998 
L 259.607273 175.293053 
L 263.214545 175.568195 
L 266.821818 175.893691 
L 270.429091 176.274807 
L 274.036364 176.716808 
L 277.643636 177.22496 
L 281.250909 177.804528 
L 284.858182 178.460779 
L 288.465455 179.198979 
L 292.072727 180.024392 
L 295.68 180.942285 
L 299.287273 181.957923 
L 302.894545 183.076573 
L 306.501818 184.303499 
L 310.109091 185.643968 
L 313.716364 187.103246 
L 317.323636 188.686598 
L 320.930909 190.39929 
L 324.538182 192.246587 
L 328.145455 194.233756 
L 331.752727 196.366062 
L 335.36 198.648771 
L 338.967273 201.087149 
L 342.574545 203.686461 
L 346.181818 206.451974 
L 349.789091 209.388952 
L 353.396364 212.502662 
L 357.003636 215.798369 
L 360.610909 219.28134 
L 364.218182 222.956839 
L 367.825455 226.830134 
L 371.432727 230.906488 
L 375.04 235.191169 
L 378.647273 239.689442 
L 382.254545 244.406572 
L 385.861818 249.347826 
L 389.469091 254.518469 
L 393.076364 259.923767 
L 396.683636 265.568985 
L 400.290909 271.45939 
L 403.898182 277.600247 
L 407.505455 283.996822 
L 411.112727 290.654381 
L 414.72 297.578189 
" clip-path="url(#p2973bf34f8)" style="fill: none; stroke: #008000; stroke-width: 1.5; stroke-linecap: square"/>
   </g>
   <g id="line2d_32">
    <path d="M 57.6 129.28746 
L 61.207273 129.28746 
L 64.814545 129.28746 
L 68.421818 129.28746 
L 72.029091 129.28746 
L 75.636364 129.28746 
L 79.243636 129.28746 
L 82.850909 129.28746 
L 86.458182 129.28746 
L 90.065455 129.28746 
L 93.672727 129.28746 
L 97.28 129.28746 
L 100.887273 129.28746 
L 104.494545 129.28746 
L 108.101818 129.28746 
L 111.709091 129.28746 
L 115.316364 129.28746 
L 118.923636 129.28746 
L 122.530909 165.522475 
L 126.138182 165.522475 
L 129.745455 165.522475 
L 133.352727 165.522475 
L 136.96 165.522475 
L 140.567273 165.522475 
L 144.174545 165.522475 
L 147.781818 172.498663 
L 151.389091 172.498663 
L 154.996364 172.498663 
L 158.603636 172.498663 
L 162.210909 175.318848 
L 165.818182 175.318848 
L 169.425455 175.318848 
L 173.032727 168.837588 
L 176.64 159.011664 
L 180.247273 159.011664 
L 183.854545 159.011664 
L 187.461818 159.011664 
L 191.069091 159.011664 
L 194.676364 181.282347 
L 198.283636 181.282347 
L 201.890909 181.282347 
L 205.498182 181.282347 
L 209.105455 181.282347 
L 212.712727 178.390181 
L 216.32 184.232213 
L 219.927273 174.271702 
L 223.534545 174.271702 
L 227.141818 174.271702 
L 230.749091 174.271702 
L 234.356364 174.271702 
L 237.963636 174.271702 
L 241.570909 179.365863 
L 245.178182 179.365863 
L 248.785455 179.365863 
L 252.392727 179.365863 
L 256 179.365863 
L 259.607273 179.365863 
L 263.214545 176.679409 
L 266.821818 176.679409 
L 270.429091 176.679409 
L 274.036364 176.679409 
L 277.643636 165.951652 
L 281.250909 165.951652 
L 284.858182 165.951652 
L 288.465455 165.951652 
L 292.072727 183.634202 
L 295.68 184.091116 
L 299.287273 184.091116 
L 302.894545 184.091116 
L 306.501818 184.091116 
L 310.109091 184.091116 
L 313.716364 181.487561 
L 317.323636 181.487561 
L 320.930909 181.487561 
L 324.538182 181.487561 
L 328.145455 181.487561 
L 331.752727 196.71934 
L 335.36 196.71934 
L 338.967273 196.71934 
L 342.574545 196.71934 
L 346.181818 196.71934 
L 349.789091 196.71934 
L 353.396364 196.71934 
L 357.003636 218.18068 
L 360.610909 218.18068 
L 364.218182 218.18068 
L 367.825455 218.18068 
L 371.432727 218.18068 
L 375.04 218.18068 
L 378.647273 236.366551 
L 382.254545 236.366551 
L 385.861818 236.366551 
L 389.469091 236.366551 
L 393.076364 236.366551 
L 396.683636 290.565533 
L 400.290909 290.565533 
L 403.898182 290.565533 
L 407.505455 290.565533 
L 411.112727 290.565533 
L 414.72 290.565533 
" clip-path="url(#p2973bf34f8)" style="fill: none; stroke: #ff0000; stroke-width: 1.5; stroke-linecap: square"/>
   </g>
   <g id="line2d_33">
    <path d="M 57.6 77.769677 
L 61.207273 83.629145 
L 64.814545 89.244086 
L 68.421818 94.619764 
L 72.029091 99.761445 
L 75.636364 104.674396 
L 79.243636 109.363881 
L 82.850909 113.835167 
L 86.458182 118.093519 
L 90.065455 122.144203 
L 93.672727 125.992485 
L 97.28 129.64363 
L 100.887273 133.102905 
L 104.494545 136.375574 
L 108.101818 139.466905 
L 111.709091 142.382162 
L 115.316364 145.126611 
L 118.923636 147.705519 
L 122.530909 150.12415 
L 126.138182 152.387771 
L 129.745455 154.501647 
L 133.352727 156.471044 
L 136.96 158.301228 
L 140.567273 159.997464 
L 144.174545 161.565019 
L 147.781818 163.009157 
L 151.389091 164.335146 
L 154.996364 165.548249 
L 158.603636 166.653735 
L 162.210909 167.656867 
L 165.818182 168.562912 
L 169.425455 169.377135 
L 173.032727 170.104803 
L 176.64 170.751181 
L 180.247273 171.321534 
L 183.854545 171.821129 
L 187.461818 172.255232 
L 191.069091 172.629107 
L 194.676364 172.948021 
L 198.283636 173.217239 
L 201.890909 173.442028 
L 205.498182 173.627653 
L 209.105455 173.779379 
L 212.712727 173.902473 
L 216.32 174.002201 
L 219.927273 174.083827 
L 223.534545 174.152618 
L 227.141818 174.213839 
L 230.749091 174.272757 
L 234.356364 174.334637 
L 237.963636 174.404744 
L 241.570909 174.488345 
L 245.178182 174.590705 
L 248.785455 174.71709 
L 252.392727 174.872766 
L 256 175.062998 
L 259.607273 175.293053 
L 263.214545 175.568195 
L 266.821818 175.893691 
L 270.429091 176.274807 
L 274.036364 176.716808 
L 277.643636 177.22496 
L 281.250909 177.804528 
L 284.858182 178.460779 
L 288.465455 179.198979 
L 292.072727 180.024392 
L 295.68 180.942285 
L 299.287273 181.957923 
L 302.894545 183.076573 
L 306.501818 184.303499 
L 310.109091 185.643968 
L 313.716364 187.103246 
L 317.323636 188.686598 
L 320.930909 190.39929 
L 324.538182 192.246587 
L 328.145455 194.233756 
L 331.752727 196.366062 
L 335.36 198.648771 
L 338.967273 201.087149 
L 342.574545 203.686461 
L 346.181818 206.451974 
L 349.789091 209.388952 
L 353.396364 212.502662 
L 357.003636 215.798369 
L 360.610909 219.28134 
L 364.218182 222.956839 
L 367.825455 226.830134 
L 371.432727 230.906488 
L 375.04 235.191169 
L 378.647273 239.689442 
L 382.254545 244.406572 
L 385.861818 249.347826 
L 389.469091 254.518469 
L 393.076364 259.923767 
L 396.683636 265.568985 
L 400.290909 271.45939 
L 403.898182 277.600247 
L 407.505455 283.996822 
L 411.112727 290.654381 
L 414.72 297.578189 
" clip-path="url(#p2973bf34f8)" style="fill: none; stroke: #008000; stroke-width: 1.5; stroke-linecap: square"/>
   </g>
   <g id="line2d_34">
    <path d="M 57.6 117.627744 
L 61.207273 117.627744 
L 64.814545 117.627744 
L 68.421818 117.627744 
L 72.029091 117.627744 
L 75.636364 117.627744 
L 79.243636 117.627744 
L 82.850909 115.725446 
L 86.458182 115.725446 
L 90.065455 115.725446 
L 93.672727 115.725446 
L 97.28 115.725446 
L 100.887273 115.725446 
L 104.494545 115.725446 
L 108.101818 161.887353 
L 111.709091 161.887353 
L 115.316364 161.887353 
L 118.923636 161.887353 
L 122.530909 161.887353 
L 126.138182 161.887353 
L 129.745455 157.636909 
L 133.352727 157.636909 
L 136.96 158.258571 
L 140.567273 158.258571 
L 144.174545 158.258571 
L 147.781818 158.258571 
L 151.389091 158.258571 
L 154.996364 158.258571 
L 158.603636 158.258571 
L 162.210909 177.997883 
L 165.818182 177.997883 
L 169.425455 177.997883 
L 173.032727 177.997883 
L 176.64 177.997883 
L 180.247273 177.997883 
L 183.854545 177.997883 
L 187.461818 176.514131 
L 191.069091 160.258361 
L 194.676364 160.258361 
L 198.283636 160.258361 
L 201.890909 177.070238 
L 205.498182 177.070238 
L 209.105455 177.070238 
L 212.712727 161.286744 
L 216.32 161.286744 
L 219.927273 161.286744 
L 223.534545 162.077176 
L 227.141818 162.077176 
L 230.749091 162.077176 
L 234.356364 162.077176 
L 237.963636 162.077176 
L 241.570909 162.077176 
L 245.178182 162.077176 
L 248.785455 162.077176 
L 252.392727 165.410942 
L 256 165.410942 
L 259.607273 165.410942 
L 263.214545 165.410942 
L 266.821818 165.410942 
L 270.429091 165.410942 
L 274.036364 165.410942 
L 277.643636 165.410942 
L 281.250909 165.410942 
L 284.858182 165.410942 
L 288.465455 193.093741 
L 292.072727 193.093741 
L 295.68 193.093741 
L 299.287273 179.933069 
L 302.894545 179.933069 
L 306.501818 179.933069 
L 310.109091 179.616448 
L 313.716364 179.616448 
L 317.323636 179.616448 
L 320.930909 179.616448 
L 324.538182 179.616448 
L 328.145455 184.133472 
L 331.752727 194.730879 
L 335.36 194.730879 
L 338.967273 194.730879 
L 342.574545 210.142759 
L 346.181818 210.142759 
L 349.789091 210.142759 
L 353.396364 215.148978 
L 357.003636 215.148978 
L 360.610909 212.095064 
L 364.218182 212.095064 
L 367.825455 212.095064 
L 371.432727 212.095064 
L 375.04 212.095064 
L 378.647273 212.095064 
L 382.254545 212.095064 
L 385.861818 212.095064 
L 389.469091 212.095064 
L 393.076364 212.095064 
L 396.683636 212.095064 
L 400.290909 212.095064 
L 403.898182 212.095064 
L 407.505455 212.095064 
L 411.112727 212.095064 
L 414.72 212.095064 
" clip-path="url(#p2973bf34f8)" style="fill: none; stroke: #ff0000; stroke-width: 1.5; stroke-linecap: square"/>
   </g>
   <g id="patch_3">
    <path d="M 57.6 307.584 
L 57.6 41.472 
" style="fill: none; stroke: #000000; stroke-width: 0.8; stroke-linejoin: miter; stroke-linecap: square"/>
   </g>
   <g id="patch_4">
    <path d="M 414.72 307.584 
L 414.72 41.472 
" style="fill: none; stroke: #000000; stroke-width: 0.8; stroke-linejoin: miter; stroke-linecap: square"/>
   </g>
   <g id="patch_5">
    <path d="M 57.6 307.584 
L 414.72 307.584 
" style="fill: none; stroke: #000000; stroke-width: 0.8; stroke-linejoin: miter; stroke-linecap: square"/>
   </g>
   <g id="patch_6">
    <path d="M 57.6 41.472 
L 414.72 41.472 
" style="fill: none; stroke: #000000; stroke-width: 0.8; stroke-linejoin: miter; stroke-linecap: square"/>
   </g>
  </g>
 </g>
 <defs>
  <clipPath id="p2973bf34f8">
   <rect x="57.6" y="41.472" width="357.12" height="266.112"/>
  </clipPath>
 </defs>
</svg>
