<?xml version="1.0" encoding="utf-8" standalone="no"?>
<!DOCTYPE svg PUBLIC "-//W3C//DTD SVG 1.1//EN"
  "http://www.w3.org/Graphics/SVG/1.1/DTD/svg11.dtd">
<svg xmlns:xlink="http://www.w3.org/1999/xlink" width="460.8pt" height="345.6pt" viewBox="0 0 460.8 345.6" xmlns="http://www.w3.org/2000/svg" version="1.1">
 <metadata>
  <rdf:RDF xmlns:dc="http://purl.org/dc/elements/1.1/" xmlns:cc="http://creativecommons.org/ns#" xmlns:rdf="http://www.w3.org/1999/02/22-rdf-syntax-ns#">
   <cc:Work>
    <dc:type rdf:resource="http://purl.org/dc/dcmitype/StillImage"/>
    <dc:date>2026-04-08T10:21:53.479173</dc:date>
    <dc:format>image/svg+xml</dc:format>
    <dc:creator>
     <cc:Agent>
      <dc:title>Matplotlib v3.10.0, https://matplotlib.org/</dc:title>
     </cc:Agent>
    </dc:creator>
   </cc:Work>
  </rdf:RDF>
 </metadata>
 <defs>
  <style type="text/css">*{stroke-linejoin: round; stroke-linecap: butt}</style>
 </defs>
 <g id="figure_1">
  <g id="patch_1">
   <path d="M 0 345.6 
L 460.8 345.6 
L 460.8 0 
L 0 0 
z
" style="fill: #ffffff"/>
  </g>
  <g id="axes_1">
   <g id="patch_2">
    <path d="M 57.6 307.584 
L 414.72 307.584 
L 414.72 41.472 
L 57.6 41.472 
z
" style="fill: #ffffff"/>
   </g>
   <g id="PathCollection_1">
    <defs>
     <path id="m3ffa19277d" d="M 0 3 
C 0.795609 3 1.55874 2.683901 2.12132 2.12132 
C 2.683901 1.55874 3 0.795609 3 0 
C 3 -0.795609 2.683901 -1.55874 2.12132 -2.12132 
C 1.55874 -2.683901 0.795609 -3 0 -3 
C -0.795609 -3 -1.55874 -2.683901 -2.12132 -2.12132 
C -2.683901 -1.55874 -3 -0.795609 -3 0 
C -3 0.795609 -2.683901 1.55874 -2.12132 2.12132 
C -1.55874 2.683901 -0.795609 3 0 3 
z
" style="stroke: #1f77b4"/>
    </defs>
    <g clip-path="url(#p726fd91e88)">
     <use xlink:href="#m3ffa19277d" x="331.923924" y="189.184618" style="fill: #1f77b4; stroke: #1f77b4"/>
     <use xlink:href="#m3ffa19277d" x="203.3143" y="165.193893" style="fill: #1f77b4; stroke: #1f77b4"/>
     <use xlink:href="#m3ffa19277d" x="381.947745" y="233.532095" style="fill: #1f77b4; stroke: #1f77b4"/>
     <use xlink:href="#m3ffa19277d" x="344.336421" y="213.196807" style="fill: #1f77b4; stroke: #1f77b4"/>
     <use xlink:href="#m3ffa19277d" x="343.465212" y="214.324053" style="fill: #1f77b4; stroke: #1f77b4"/>
     <use xlink:href="#m3ffa19277d" x="85.724636" y="104.303778" style="fill: #1f77b4; stroke: #1f77b4"/>
     <use xlink:href="#m3ffa19277d" x="327.619904" y="197.348519" style="fill: #1f77b4; stroke: #1f77b4"/>
     <use xlink:href="#m3ffa19277d" x="238.224599" y="187.52062" style="fill: #1f77b4; stroke: #1f77b4"/>
     <use xlink:href="#m3ffa19277d" x="93.312402" y="125.530763" style="fill: #1f77b4; stroke: #1f77b4"/>
     <use xlink:href="#m3ffa19277d" x="338.111891" y="198.529563" style="fill: #1f77b4; stroke: #1f77b4"/>
     <use xlink:href="#m3ffa19277d" x="93.265738" y="116.415162" style="fill: #1f77b4; stroke: #1f77b4"/>
     <use xlink:href="#m3ffa19277d" x="164.442991" y="157.917619" style="fill: #1f77b4; stroke: #1f77b4"/>
     <use xlink:href="#m3ffa19277d" x="229.848669" y="179.30682" style="fill: #1f77b4; stroke: #1f77b4"/>
     <use xlink:href="#m3ffa19277d" x="124.329993" y="157.745707" style="fill: #1f77b4; stroke: #1f77b4"/>
     <use xlink:href="#m3ffa19277d" x="344.45603" y="202.373531" style="fill: #1f77b4; stroke: #1f77b4"/>
     <use xlink:href="#m3ffa19277d" x="247.087826" y="183.601869" style="fill: #1f77b4; stroke: #1f77b4"/>
     <use xlink:href="#m3ffa19277d" x="355.228143" y="203.331657" style="fill: #1f77b4; stroke: #1f77b4"/>
     <use xlink:href="#m3ffa19277d" x="164.323357" y="159.99883" style="fill: #1f77b4; stroke: #1f77b4"/>
     <use xlink:href="#m3ffa19277d" x="308.294815" y="175.531127" style="fill: #1f77b4; stroke: #1f77b4"/>
     <use xlink:href="#m3ffa19277d" x="131.505672" y="161.126667" style="fill: #1f77b4; stroke: #1f77b4"/>
    </g>
   </g>
   <g id="PathCollection_2">
    <defs>
     <path id="m7f60fb36b8" d="M 0 3 
C 0.795609 3 1.55874 2.683901 2.12132 2.12132 
C 2.683901 1.55874 3 0.795609 3 0 
C 3 -0.795609 2.683901 -1.55874 2.12132 -2.12132 
C 1.55874 -2.683901 0.795609 -3 0 -3 
C -0.795609 -3 -1.55874 -2.683901 -2.12132 -2.12132 
C -2.683901 -1.55874 -3 -0.795609 -3 0 
C -3 0.795609 -2.683901 1.55874 -2.12132 2.12132 
C -1.55874 2.683901 -0.795609 3 0 3 
z
" style="stroke: #ff7f0e"/>
    </defs>
    <g clip-path="url(#p726fd91e88)">
     <use xlink:href="#m7f60fb36b8" x="272.263596" y="179.982018" style="fill: #ff7f0e; stroke: #ff7f0e"/>
     <use xlink:href="#m7f60fb36b8" x="154.328483" y="158.125892" style="fill: #ff7f0e; stroke: #ff7f0e"/>
     <use xlink:href="#m7f60fb36b8" x="214.147037" y="180.843506" style="fill: #ff7f0e; stroke: #ff7f0e"/>
     <use xlink:href="#m7f60fb36b8" x="196.694018" y="166.847783" style="fill: #ff7f0e; stroke: #ff7f0e"/>
     <use xlink:href="#m7f60fb36b8" x="95.028173" y="136.625193" style="fill: #ff7f0e; stroke: #ff7f0e"/>
     <use xlink:href="#m7f60fb36b8" x="131.536241" y="145.783298" style="fill: #ff7f0e; stroke: #ff7f0e"/>
     <use xlink:href="#m7f60fb36b8" x="303.754412" y="179.772891" style="fill: #ff7f0e; stroke: #ff7f0e"/>
     <use xlink:href="#m7f60fb36b8" x="288.106526" y="189.266565" style="fill: #ff7f0e; stroke: #ff7f0e"/>
     <use xlink:href="#m7f60fb36b8" x="204.308028" y="167.567814" style="fill: #ff7f0e; stroke: #ff7f0e"/>
     <use xlink:href="#m7f60fb36b8" x="278.625706" y="178.416922" style="fill: #ff7f0e; stroke: #ff7f0e"/>
     <use xlink:href="#m7f60fb36b8" x="280.209333" y="171.100827" style="fill: #ff7f0e; stroke: #ff7f0e"/>
     <use xlink:href="#m7f60fb36b8" x="362.309427" y="225.006378" style="fill: #ff7f0e; stroke: #ff7f0e"/>
     <use xlink:href="#m7f60fb36b8" x="139.926109" y="147.795479" style="fill: #ff7f0e; stroke: #ff7f0e"/>
     <use xlink:href="#m7f60fb36b8" x="316.754603" y="183.765159" style="fill: #ff7f0e; stroke: #ff7f0e"/>
     <use xlink:href="#m7f60fb36b8" x="212.704092" y="162.78444" style="fill: #ff7f0e; stroke: #ff7f0e"/>
     <use xlink:href="#m7f60fb36b8" x="347.159735" y="202.561775" style="fill: #ff7f0e; stroke: #ff7f0e"/>
     <use xlink:href="#m7f60fb36b8" x="138.83093" y="155.1204" style="fill: #ff7f0e; stroke: #ff7f0e"/>
     <use xlink:href="#m7f60fb36b8" x="137.168973" y="162.377926" style="fill: #ff7f0e; stroke: #ff7f0e"/>
     <use xlink:href="#m7f60fb36b8" x="114.11504" y="138.763723" style="fill: #ff7f0e; stroke: #ff7f0e"/>
     <use xlink:href="#m7f60fb36b8" x="406.026155" y="290.905703" style="fill: #ff7f0e; stroke: #ff7f0e"/>
    </g>
   </g>
   <g id="PathCollection_3">
    <defs>
     <path id="m58efc8e88a" d="M 0 3 
C 0.795609 3 1.55874 2.683901 2.12132 2.12132 
C 2.683901 1.55874 3 0.795609 3 0 
C 3 -0.795609 2.683901 -1.55874 2.12132 -2.12132 
C 1.55874 -2.683901 0.795609 -3 0 -3 
C -0.795609 -3 -1.55874 -2.683901 -2.12132 -2.12132 
C -2.683901 -1.55874 -3 -0.795609 -3 0 
C -3 0.795609 -2.683901 1.55874 -2.12132 2.12132 
C -1.55874 2.683901 -0.795609 3 0 3 
z
" style="stroke: #2ca02c"/>
    </defs>
    <g clip-path="url(#p726fd91e88)">
     <use xlink:href="#m58efc8e88a" x="293.297204" y="189.271194" style="fill: #2ca02c; stroke: #2ca02c"/>
     <use xlink:href="#m58efc8e88a" x="138.296374" y="154.963" style="fill: #2ca02c; stroke: #2ca02c"/>
     <use xlink:href="#m58efc8e88a" x="274.271076" y="176.492905" style="fill: #2ca02c; stroke: #2ca02c"/>
     <use xlink:href="#m58efc8e88a" x="232.968862" y="167.556591" style="fill: #2ca02c; stroke: #2ca02c"/>
     <use xlink:href="#m58efc8e88a" x="406.256095" y="283.555208" style="fill: #2ca02c; stroke: #2ca02c"/>
     <use xlink:href="#m58efc8e88a" x="100.286059" y="127.689017" style="fill: #2ca02c; stroke: #2ca02c"/>
     <use xlink:href="#m58efc8e88a" x="242.803871" y="174.815215" style="fill: #2ca02c; stroke: #2ca02c"/>
     <use xlink:href="#m58efc8e88a" x="58.626136" y="70.977381" style="fill: #2ca02c; stroke: #2ca02c"/>
     <use xlink:href="#m58efc8e88a" x="85.020463" y="116.964818" style="fill: #2ca02c; stroke: #2ca02c"/>
     <use xlink:href="#m58efc8e88a" x="312.627051" y="198.560922" style="fill: #2ca02c; stroke: #2ca02c"/>
     <use xlink:href="#m58efc8e88a" x="78.740924" y="103.073768" style="fill: #2ca02c; stroke: #2ca02c"/>
     <use xlink:href="#m58efc8e88a" x="84.287702" y="106.284936" style="fill: #2ca02c; stroke: #2ca02c"/>
     <use xlink:href="#m58efc8e88a" x="248.668571" y="177.651764" style="fill: #2ca02c; stroke: #2ca02c"/>
     <use xlink:href="#m58efc8e88a" x="243.486203" y="164.222244" style="fill: #2ca02c; stroke: #2ca02c"/>
     <use xlink:href="#m58efc8e88a" x="84.64048" y="104.925462" style="fill: #2ca02c; stroke: #2ca02c"/>
     <use xlink:href="#m58efc8e88a" x="185.300368" y="182.324961" style="fill: #2ca02c; stroke: #2ca02c"/>
     <use xlink:href="#m58efc8e88a" x="65.872864" y="101.417869" style="fill: #2ca02c; stroke: #2ca02c"/>
     <use xlink:href="#m58efc8e88a" x="155.81021" y="156.769319" style="fill: #2ca02c; stroke: #2ca02c"/>
     <use xlink:href="#m58efc8e88a" x="297.478127" y="188.952854" style="fill: #2ca02c; stroke: #2ca02c"/>
     <use xlink:href="#m58efc8e88a" x="93.930948" y="135.058535" style="fill: #2ca02c; stroke: #2ca02c"/>
    </g>
   </g>
   <g id="PathCollection_4">
    <defs>
     <path id="ma37a5976fc" d="M 0 3 
C 0.795609 3 1.55874 2.683901 2.12132 2.12132 
C 2.683901 1.55874 3 0.795609 3 0 
C 3 -0.795609 2.683901 -1.55874 2.12132 -2.12132 
C 1.55874 -2.683901 0.795609 -3 0 -3 
C -0.795609 -3 -1.55874 -2.683901 -2.12132 -2.12132 
C -2.683901 -1.55874 -3 -0.795609 -3 0 
C -3 0.795609 -2.683901 1.55874 -2.12132 2.12132 
C -1.55874 2.683901 -0.795609 3 0 3 
z
" style="stroke: #d62728"/>
    </defs>
    <g clip-path="url(#p726fd91e88)">
     <use xlink:href="#ma37a5976fc" x="129.717756" y="148.668083" style="fill: #d62728; stroke: #d62728"/>
     <use xlink:href="#ma37a5976fc" x="411.061673" y="302.852162" style="fill: #d62728; stroke: #d62728"/>
     <use xlink:href="#ma37a5976fc" x="414.636891" y="308.805208" style="fill: #d62728; stroke: #d62728"/>
     <use xlink:href="#ma37a5976fc" x="94.000157" y="130.254287" style="fill: #d62728; stroke: #d62728"/>
     <use xlink:href="#ma37a5976fc" x="306.568485" y="177.490654" style="fill: #d62728; stroke: #d62728"/>
     <use xlink:href="#ma37a5976fc" x="109.698848" y="141.536617" style="fill: #d62728; stroke: #d62728"/>
     <use xlink:href="#ma37a5976fc" x="275.52017" y="188.139711" style="fill: #d62728; stroke: #d62728"/>
     <use xlink:href="#ma37a5976fc" x="278.013524" y="174.075145" style="fill: #d62728; stroke: #d62728"/>
     <use xlink:href="#ma37a5976fc" x="131.184105" y="144.571948" style="fill: #d62728; stroke: #d62728"/>
     <use xlink:href="#ma37a5976fc" x="257.304626" y="186.249072" style="fill: #d62728; stroke: #d62728"/>
     <use xlink:href="#ma37a5976fc" x="218.265191" y="180.886742" style="fill: #d62728; stroke: #d62728"/>
     <use xlink:href="#ma37a5976fc" x="388.713583" y="247.447915" style="fill: #d62728; stroke: #d62728"/>
     <use xlink:href="#ma37a5976fc" x="359.844586" y="219.643469" style="fill: #d62728; stroke: #d62728"/>
     <use xlink:href="#ma37a5976fc" x="97.522324" y="117.585019" style="fill: #d62728; stroke: #d62728"/>
     <use xlink:href="#ma37a5976fc" x="391.877727" y="259.953761" style="fill: #d62728; stroke: #d62728"/>
     <use xlink:href="#ma37a5976fc" x="413.520269" y="301.731127" style="fill: #d62728; stroke: #d62728"/>
     <use xlink:href="#ma37a5976fc" x="114.211829" y="150.271837" style="fill: #d62728; stroke: #d62728"/>
     <use xlink:href="#ma37a5976fc" x="341.388" y="212.150825" style="fill: #d62728; stroke: #d62728"/>
     <use xlink:href="#ma37a5976fc" x="142.47325" y="163.194116" style="fill: #d62728; stroke: #d62728"/>
     <use xlink:href="#ma37a5976fc" x="377.098925" y="239.921547" style="fill: #d62728; stroke: #d62728"/>
    </g>
   </g>
   <g id="PathCollection_5">
    <defs>
     <path id="m0aec2424ec" d="M 0 3 
C 0.795609 3 1.55874 2.683901 2.12132 2.12132 
C 2.683901 1.55874 3 0.795609 3 0 
C 3 -0.795609 2.683901 -1.55874 2.12132 -2.12132 
C 1.55874 -2.683901 0.795609 -3 0 -3 
C -0.795609 -3 -1.55874 -2.683901 -2.12132 -2.12132 
C -2.683901 -1.55874 -3 -0.795609 -3 0 
C -3 0.795609 -2.683901 1.55874 -2.12132 2.12132 
C -1.55874 2.683901 -0.795609 3 0 3 
z
" style="stroke: #9467bd"/>
    </defs>
    <g clip-path="url(#p726fd91e88)">
     <use xlink:href="#m0aec2424ec" x="306.810322" y="192.156398" style="fill: #9467bd; stroke: #9467bd"/>
     <use xlink:href="#m0aec2424ec" x="300.955892" y="187.733739" style="fill: #9467bd; stroke: #9467bd"/>
     <use xlink:href="#m0aec2424ec" x="217.056784" y="185.687514" style="fill: #9467bd; stroke: #9467bd"/>
     <use xlink:href="#m0aec2424ec" x="112.482734" y="139.452675" style="fill: #9467bd; stroke: #9467bd"/>
     <use xlink:href="#m0aec2424ec" x="400.053301" y="264.799161" style="fill: #9467bd; stroke: #9467bd"/>
     <use xlink:href="#m0aec2424ec" x="216.914835" y="161.864314" style="fill: #9467bd; stroke: #9467bd"/>
     <use xlink:href="#m0aec2424ec" x="107.414608" y="135.741567" style="fill: #9467bd; stroke: #9467bd"/>
     <use xlink:href="#m0aec2424ec" x="116.760449" y="150.39366" style="fill: #9467bd; stroke: #9467bd"/>
     <use xlink:href="#m0aec2424ec" x="139.845441" y="165.328495" style="fill: #9467bd; stroke: #9467bd"/>
     <use xlink:href="#m0aec2424ec" x="205.325748" y="184.357356" style="fill: #9467bd; stroke: #9467bd"/>
     <use xlink:href="#m0aec2424ec" x="80.899109" y="105.136783" style="fill: #9467bd; stroke: #9467bd"/>
     <use xlink:href="#m0aec2424ec" x="112.419951" y="136.872511" style="fill: #9467bd; stroke: #9467bd"/>
     <use xlink:href="#m0aec2424ec" x="209.033876" y="169.48215" style="fill: #9467bd; stroke: #9467bd"/>
     <use xlink:href="#m0aec2424ec" x="134.340583" y="163.766492" style="fill: #9467bd; stroke: #9467bd"/>
     <use xlink:href="#m0aec2424ec" x="207.105225" y="173.141517" style="fill: #9467bd; stroke: #9467bd"/>
     <use xlink:href="#m0aec2424ec" x="293.995256" y="193.746412" style="fill: #9467bd; stroke: #9467bd"/>
     <use xlink:href="#m0aec2424ec" x="130.522341" y="164.967412" style="fill: #9467bd; stroke: #9467bd"/>
     <use xlink:href="#m0aec2424ec" x="73.89109" y="95.483094" style="fill: #9467bd; stroke: #9467bd"/>
     <use xlink:href="#m0aec2424ec" x="228.764961" y="168.126666" style="fill: #9467bd; stroke: #9467bd"/>
     <use xlink:href="#m0aec2424ec" x="242.432134" y="174.808992" style="fill: #9467bd; stroke: #9467bd"/>
    </g>
   </g>
   <g id="PathCollection_6">
    <defs>
     <path id="m889e34a507" d="M 0 3 
C 0.795609 3 1.55874 2.683901 2.12132 2.12132 
C 2.683901 1.55874 3 0.795609 3 0 
C 3 -0.795609 2.683901 -1.55874 2.12132 -2.12132 
C 1.55874 -2.683901 0.795609 -3 0 -3 
C -0.795609 -3 -1.55874 -2.683901 -2.12132 -2.12132 
C -2.683901 -1.55874 -3 -0.795609 -3 0 
C -3 0.795609 -2.683901 1.55874 -2.12132 2.12132 
C -1.55874 2.683901 -0.795609 3 0 3 
z
" style="stroke: #8c564b"/>
    </defs>
    <g clip-path="url(#p726fd91e88)">
     <use xlink:href="#m889e34a507" x="82.071899" y="109.176549" style="fill: #8c564b; stroke: #8c564b"/>
     <use xlink:href="#m889e34a507" x="338.112361" y="192.003168" style="fill: #8c564b; stroke: #8c564b"/>
     <use xlink:href="#m889e34a507" x="331.236179" y="203.409474" style="fill: #8c564b; stroke: #8c564b"/>
     <use xlink:href="#m889e34a507" x="383.84709" y="249.534486" style="fill: #8c564b; stroke: #8c564b"/>
     <use xlink:href="#m889e34a507" x="137.252352" y="164.157189" style="fill: #8c564b; stroke: #8c564b"/>
     <use xlink:href="#m889e34a507" x="246.997311" y="175.149401" style="fill: #8c564b; stroke: #8c564b"/>
     <use xlink:href="#m889e34a507" x="315.734412" y="177.568723" style="fill: #8c564b; stroke: #8c564b"/>
     <use xlink:href="#m889e34a507" x="190.145822" y="164.425384" style="fill: #8c564b; stroke: #8c564b"/>
     <use xlink:href="#m889e34a507" x="381.231769" y="246.033161" style="fill: #8c564b; stroke: #8c564b"/>
     <use xlink:href="#m889e34a507" x="148.259258" y="154.777106" style="fill: #8c564b; stroke: #8c564b"/>
     <use xlink:href="#m889e34a507" x="121.456567" y="161.16563" style="fill: #8c564b; stroke: #8c564b"/>
     <use xlink:href="#m889e34a507" x="59.11002" y="80.494831" style="fill: #8c564b; stroke: #8c564b"/>
     <use xlink:href="#m889e34a507" x="271.60743" y="165.410722" style="fill: #8c564b; stroke: #8c564b"/>
     <use xlink:href="#m889e34a507" x="200.3947" y="185.583705" style="fill: #8c564b; stroke: #8c564b"/>
     <use xlink:href="#m889e34a507" x="408.04191" y="272.516648" style="fill: #8c564b; stroke: #8c564b"/>
     <use xlink:href="#m889e34a507" x="328.709839" y="195.586633" style="fill: #8c564b; stroke: #8c564b"/>
     <use xlink:href="#m889e34a507" x="385.269125" y="256.195264" style="fill: #8c564b; stroke: #8c564b"/>
     <use xlink:href="#m889e34a507" x="365.356432" y="237.410197" style="fill: #8c564b; stroke: #8c564b"/>
     <use xlink:href="#m889e34a507" x="395.959701" y="262.373664" style="fill: #8c564b; stroke: #8c564b"/>
     <use xlink:href="#m889e34a507" x="181.592145" y="184.396416" style="fill: #8c564b; stroke: #8c564b"/>
    </g>
   </g>
   <g id="PathCollection_7">
    <defs>
     <path id="m6be5bf1279" d="M 0 3 
C 0.795609 3 1.55874 2.683901 2.12132 2.12132 
C 2.683901 1.55874 3 0.795609 3 0 
C 3 -0.795609 2.683901 -1.55874 2.12132 -2.12132 
C 1.55874 -2.683901 0.795609 -3 0 -3 
C -0.795609 -3 -1.55874 -2.683901 -2.12132 -2.12132 
C -2.683901 -1.55874 -3 -0.795609 -3 0 
C -3 0.795609 -2.683901 1.55874 -2.12132 2.12132 
C -1.55874 2.683901 -0.795609 3 0 3 
z
" style="stroke: #e377c2"/>
    </defs>
    <g clip-path="url(#p726fd91e88)">
     <use xlink:href="#m6be5bf1279" x="338.457616" y="198.678829" style="fill: #e377c2; stroke: #e377c2"/>
     <use xlink:href="#m6be5bf1279" x="313.066626" y="183.127823" style="fill: #e377c2; stroke: #e377c2"/>
     <use xlink:href="#m6be5bf1279" x="206.128934" y="163.034204" style="fill: #e377c2; stroke: #e377c2"/>
     <use xlink:href="#m6be5bf1279" x="121.40726" y="153.104982" style="fill: #e377c2; stroke: #e377c2"/>
     <use xlink:href="#m6be5bf1279" x="138.630609" y="167.380429" style="fill: #e377c2; stroke: #e377c2"/>
     <use xlink:href="#m6be5bf1279" x="70.091162" y="101.581002" style="fill: #e377c2; stroke: #e377c2"/>
     <use xlink:href="#m6be5bf1279" x="265.863241" y="170.537195" style="fill: #e377c2; stroke: #e377c2"/>
     <use xlink:href="#m6be5bf1279" x="388.833144" y="262.103466" style="fill: #e377c2; stroke: #e377c2"/>
     <use xlink:href="#m6be5bf1279" x="384.375671" y="243.81961" style="fill: #e377c2; stroke: #e377c2"/>
     <use xlink:href="#m6be5bf1279" x="122.813928" y="158.314928" style="fill: #e377c2; stroke: #e377c2"/>
     <use xlink:href="#m6be5bf1279" x="139.345407" y="146.188759" style="fill: #e377c2; stroke: #e377c2"/>
     <use xlink:href="#m6be5bf1279" x="286.641189" y="177.298052" style="fill: #e377c2; stroke: #e377c2"/>
     <use xlink:href="#m6be5bf1279" x="105.5495" y="132.391216" style="fill: #e377c2; stroke: #e377c2"/>
     <use xlink:href="#m6be5bf1279" x="283.817401" y="169.29108" style="fill: #e377c2; stroke: #e377c2"/>
     <use xlink:href="#m6be5bf1279" x="218.966075" y="168.274625" style="fill: #e377c2; stroke: #e377c2"/>
     <use xlink:href="#m6be5bf1279" x="228.035954" y="166.094086" style="fill: #e377c2; stroke: #e377c2"/>
     <use xlink:href="#m6be5bf1279" x="265.80383" y="186.465481" style="fill: #e377c2; stroke: #e377c2"/>
     <use xlink:href="#m6be5bf1279" x="296.741787" y="168.114574" style="fill: #e377c2; stroke: #e377c2"/>
     <use xlink:href="#m6be5bf1279" x="121.748461" y="158.44272" style="fill: #e377c2; stroke: #e377c2"/>
     <use xlink:href="#m6be5bf1279" x="131.671192" y="152.271307" style="fill: #e377c2; stroke: #e377c2"/>
    </g>
   </g>
   <g id="PathCollection_8">
    <defs>
     <path id="m58ca526fea" d="M 0 3 
C 0.795609 3 1.55874 2.683901 2.12132 2.12132 
C 2.683901 1.55874 3 0.795609 3 0 
C 3 -0.795609 2.683901 -1.55874 2.12132 -2.12132 
C 1.55874 -2.683901 0.795609 -3 0 -3 
C -0.795609 -3 -1.55874 -2.683901 -2.12132 -2.12132 
C -2.683901 -1.55874 -3 -0.795609 -3 0 
C -3 0.795609 -2.683901 1.55874 -2.12132 2.12132 
C -1.55874 2.683901 -0.795609 3 0 3 
z
" style="stroke: #7f7f7f"/>
    </defs>
    <g clip-path="url(#p726fd91e88)">
     <use xlink:href="#m58ca526fea" x="76.687609" y="111.679837" style="fill: #7f7f7f; stroke: #7f7f7f"/>
     <use xlink:href="#m58ca526fea" x="82.990869" y="102.027963" style="fill: #7f7f7f; stroke: #7f7f7f"/>
     <use xlink:href="#m58ca526fea" x="85.658868" y="103.90404" style="fill: #7f7f7f; stroke: #7f7f7f"/>
     <use xlink:href="#m58ca526fea" x="257.915638" y="172.486931" style="fill: #7f7f7f; stroke: #7f7f7f"/>
     <use xlink:href="#m58ca526fea" x="112.125744" y="150.661077" style="fill: #7f7f7f; stroke: #7f7f7f"/>
     <use xlink:href="#m58ca526fea" x="319.788167" y="178.976821" style="fill: #7f7f7f; stroke: #7f7f7f"/>
     <use xlink:href="#m58ca526fea" x="142.179263" y="149.150824" style="fill: #7f7f7f; stroke: #7f7f7f"/>
     <use xlink:href="#m58ca526fea" x="173.622976" y="172.28198" style="fill: #7f7f7f; stroke: #7f7f7f"/>
     <use xlink:href="#m58ca526fea" x="379.686392" y="231.300954" style="fill: #7f7f7f; stroke: #7f7f7f"/>
     <use xlink:href="#m58ca526fea" x="100.142994" y="130.940942" style="fill: #7f7f7f; stroke: #7f7f7f"/>
     <use xlink:href="#m58ca526fea" x="325.294756" y="185.480216" style="fill: #7f7f7f; stroke: #7f7f7f"/>
     <use xlink:href="#m58ca526fea" x="109.883766" y="135.130232" style="fill: #7f7f7f; stroke: #7f7f7f"/>
     <use xlink:href="#m58ca526fea" x="304.953483" y="180.936558" style="fill: #7f7f7f; stroke: #7f7f7f"/>
     <use xlink:href="#m58ca526fea" x="133.680356" y="156.234348" style="fill: #7f7f7f; stroke: #7f7f7f"/>
     <use xlink:href="#m58ca526fea" x="177.372927" y="181.897153" style="fill: #7f7f7f; stroke: #7f7f7f"/>
     <use xlink:href="#m58ca526fea" x="317.498317" y="200.654985" style="fill: #7f7f7f; stroke: #7f7f7f"/>
     <use xlink:href="#m58ca526fea" x="284.106167" y="165.241512" style="fill: #7f7f7f; stroke: #7f7f7f"/>
     <use xlink:href="#m58ca526fea" x="89.545541" y="119.174119" style="fill: #7f7f7f; stroke: #7f7f7f"/>
     <use xlink:href="#m58ca526fea" x="351.3724" y="212.27499" style="fill: #7f7f7f; stroke: #7f7f7f"/>
     <use xlink:href="#m58ca526fea" x="67.844848" y="91.599617" style="fill: #7f7f7f; stroke: #7f7f7f"/>
    </g>
   </g>
   <g id="PathCollection_9">
    <defs>
     <path id="m898197382d" d="M 0 3 
C 0.795609 3 1.55874 2.683901 2.12132 2.12132 
C 2.683901 1.55874 3 0.795609 3 0 
C 3 -0.795609 2.683901 -1.55874 2.12132 -2.12132 
C 1.55874 -2.683901 0.795609 -3 0 -3 
C -0.795609 -3 -1.55874 -2.683901 -2.12132 -2.12132 
C -2.683901 -1.55874 -3 -0.795609 -3 0 
C -3 0.795609 -2.683901 1.55874 -2.12132 2.12132 
C -1.55874 2.683901 -0.795609 3 0 3 
z
" style="stroke: #bcbd22"/>
    </defs>
    <g clip-path="url(#p726fd91e88)">
     <use xlink:href="#m898197382d" x="288.345713" y="165.951652" style="fill: #bcbd22; stroke: #bcbd22"/>
     <use xlink:href="#m898197382d" x="379.411923" y="236.366551" style="fill: #bcbd22; stroke: #bcbd22"/>
     <use xlink:href="#m898197382d" x="260.083145" y="176.679409" style="fill: #bcbd22; stroke: #bcbd22"/>
     <use xlink:href="#m898197382d" x="176.030955" y="159.011664" style="fill: #bcbd22; stroke: #bcbd22"/>
     <use xlink:href="#m898197382d" x="322.773873" y="181.487561" style="fill: #bcbd22; stroke: #bcbd22"/>
     <use xlink:href="#m898197382d" x="102.413026" y="129.28746" style="fill: #bcbd22; stroke: #bcbd22"/>
     <use xlink:href="#m898197382d" x="169.050184" y="175.318848" style="fill: #bcbd22; stroke: #bcbd22"/>
     <use xlink:href="#m898197382d" x="173.54751" y="168.837588" style="fill: #bcbd22; stroke: #bcbd22"/>
     <use xlink:href="#m898197382d" x="408.174229" y="290.565533" style="fill: #bcbd22; stroke: #bcbd22"/>
     <use xlink:href="#m898197382d" x="207.527377" y="181.282347" style="fill: #bcbd22; stroke: #bcbd22"/>
     <use xlink:href="#m898197382d" x="140.058221" y="165.522475" style="fill: #bcbd22; stroke: #bcbd22"/>
     <use xlink:href="#m898197382d" x="371.383998" y="218.18068" style="fill: #bcbd22; stroke: #bcbd22"/>
     <use xlink:href="#m898197382d" x="152.046222" y="172.498663" style="fill: #bcbd22; stroke: #bcbd22"/>
     <use xlink:href="#m898197382d" x="259.763319" y="179.365863" style="fill: #bcbd22; stroke: #bcbd22"/>
     <use xlink:href="#m898197382d" x="298.436662" y="184.091116" style="fill: #bcbd22; stroke: #bcbd22"/>
     <use xlink:href="#m898197382d" x="339.230958" y="196.71934" style="fill: #bcbd22; stroke: #bcbd22"/>
     <use xlink:href="#m898197382d" x="212.054564" y="178.390181" style="fill: #bcbd22; stroke: #bcbd22"/>
     <use xlink:href="#m898197382d" x="216.889684" y="184.232213" style="fill: #bcbd22; stroke: #bcbd22"/>
     <use xlink:href="#m898197382d" x="219.64418" y="174.271702" style="fill: #bcbd22; stroke: #bcbd22"/>
     <use xlink:href="#m898197382d" x="292.158989" y="183.634202" style="fill: #bcbd22; stroke: #bcbd22"/>
    </g>
   </g>
   <g id="PathCollection_10">
    <defs>
     <path id="m3339405f29" d="M 0 3 
C 0.795609 3 1.55874 2.683901 2.12132 2.12132 
C 2.683901 1.55874 3 0.795609 3 0 
C 3 -0.795609 2.683901 -1.55874 2.12132 -2.12132 
C 1.55874 -2.683901 0.795609 -3 0 -3 
C -0.795609 -3 -1.55874 -2.683901 -2.12132 -2.12132 
C -2.683901 -1.55874 -3 -0.795609 -3 0 
C -3 0.795609 -2.683901 1.55874 -2.12132 2.12132 
C -1.55874 2.683901 -0.795609 3 0 3 
z
" style="stroke: #17becf"/>
    </defs>
    <g clip-path="url(#p726fd91e88)">
     <use xlink:href="#m3339405f29" x="218.826159" y="161.286744" style="fill: #17becf; stroke: #17becf"/>
     <use xlink:href="#m3339405f29" x="330.080568" y="194.730879" style="fill: #17becf; stroke: #17becf"/>
     <use xlink:href="#m3339405f29" x="193.049459" y="160.258361" style="fill: #17becf; stroke: #17becf"/>
     <use xlink:href="#m3339405f29" x="358.968157" y="212.095064" style="fill: #17becf; stroke: #17becf"/>
     <use xlink:href="#m3339405f29" x="76.066096" y="117.627744" style="fill: #17becf; stroke: #17becf"/>
     <use xlink:href="#m3339405f29" x="189.017593" y="176.514131" style="fill: #17becf; stroke: #17becf"/>
     <use xlink:href="#m3339405f29" x="223.306634" y="162.077176" style="fill: #17becf; stroke: #17becf"/>
     <use xlink:href="#m3339405f29" x="183.89941" y="177.997883" style="fill: #17becf; stroke: #17becf"/>
     <use xlink:href="#m3339405f29" x="125.853957" y="161.887353" style="fill: #17becf; stroke: #17becf"/>
     <use xlink:href="#m3339405f29" x="329.61707" y="184.133472" style="fill: #17becf; stroke: #17becf"/>
     <use xlink:href="#m3339405f29" x="319.704838" y="179.616448" style="fill: #17becf; stroke: #17becf"/>
     <use xlink:href="#m3339405f29" x="131.657362" y="157.636909" style="fill: #17becf; stroke: #17becf"/>
     <use xlink:href="#m3339405f29" x="348.044549" y="210.142759" style="fill: #17becf; stroke: #17becf"/>
     <use xlink:href="#m3339405f29" x="295.040291" y="193.093741" style="fill: #17becf; stroke: #17becf"/>
     <use xlink:href="#m3339405f29" x="86.43744" y="115.725446" style="fill: #17becf; stroke: #17becf"/>
     <use xlink:href="#m3339405f29" x="137.403018" y="158.258571" style="fill: #17becf; stroke: #17becf"/>
     <use xlink:href="#m3339405f29" x="206.10138" y="177.070238" style="fill: #17becf; stroke: #17becf"/>
     <use xlink:href="#m3339405f29" x="279.26386" y="165.410942" style="fill: #17becf; stroke: #17becf"/>
     <use xlink:href="#m3339405f29" x="297.817425" y="179.933069" style="fill: #17becf; stroke: #17becf"/>
     <use xlink:href="#m3339405f29" x="358.204728" y="215.148978" style="fill: #17becf; stroke: #17becf"/>
    </g>
   </g>
   <g id="matplotlib.axis_1">
    <g id="xtick_1">
     <g id="line2d_1">
      <defs>
       <path id="m506db55150" d="M 0 0 
L 0 3.5 
" style="stroke: #000000; stroke-width: 0.8"/>
      </defs>
      <g>
       <use xlink:href="#m506db55150" x="57.6" y="307.584" style="stroke: #000000; stroke-width: 0.8"/>
      </g>
     </g>
     <g id="text_1">
      <!-- −10.0 -->
      <g transform="translate(42.277344 322.182437) scale(0.1 -0.1)">
       <defs>
        <path id="DejaVuSans-2212" d="M 678 2272 
L 4684 2272 
L 4684 1741 
L 678 1741 
L 678 2272 
z
" transform="scale(0.015625)"/>
        <path id="DejaVuSans-31" d="M 794 531 
L 1825 531 
L 1825 4091 
L 703 3866 
L 703 4441 
L 1819 4666 
L 2450 4666 
L 2450 531 
L 3481 531 
L 3481 0 
L 794 0 
L 794 531 
z
" transform="scale(0.015625)"/>
        <path id="DejaVuSans-30" d="M 2034 4250 
Q 1547 4250 1301 3770 
Q 1056 3291 1056 2328 
Q 1056 1369 1301 889 
Q 1547 409 2034 409 
Q 2525 409 2770 889 
Q 3016 1369 3016 2328 
Q 3016 3291 2770 3770 
Q 2525 4250 2034 4250 
z
M 2034 4750 
Q 2819 4750 3233 4129 
Q 3647 3509 3647 2328 
Q 3647 1150 3233 529 
Q 2819 -91 2034 -91 
Q 1250 -91 836 529 
Q 422 1150 422 2328 
Q 422 3509 836 4129 
Q 1250 4750 2034 4750 
z
" transform="scale(0.015625)"/>
        <path id="DejaVuSans-2e" d="M 684 794 
L 1344 794 
L 1344 0 
L 684 0 
L 684 794 
z
" transform="scale(0.015625)"/>
       </defs>
       <use xlink:href="#DejaVuSans-2212"/>
       <use xlink:href="#DejaVuSans-31" transform="translate(83.789062 0)"/>
       <use xlink:href="#DejaVuSans-30" transform="translate(147.412109 0)"/>
       <use xlink:href="#DejaVuSans-2e" transform="translate(211.035156 0)"/>
       <use xlink:href="#DejaVuSans-30" transform="translate(242.822266 0)"/>
      </g>
     </g>
    </g>
    <g id="xtick_2">
     <g id="line2d_2">
      <g>
       <use xlink:href="#m506db55150" x="102.24" y="307.584" style="stroke: #000000; stroke-width: 0.8"/>
      </g>
     </g>
     <g id="text_2">
      <!-- −7.5 -->
      <g transform="translate(90.098594 322.182437) scale(0.1 -0.1)">
       <defs>
        <path id="DejaVuSans-37" d="M 525 4666 
L 3525 4666 
L 3525 4397 
L 1831 0 
L 1172 0 
L 2766 4134 
L 525 4134 
L 525 4666 
z
" transform="scale(0.015625)"/>
        <path id="DejaVuSans-35" d="M 691 4666 
L 3169 4666 
L 3169 4134 
L 1269 4134 
L 1269 2991 
Q 1406 3038 1543 3061 
Q 1681 3084 1819 3084 
Q 2600 3084 3056 2656 
Q 3513 2228 3513 1497 
Q 3513 744 3044 326 
Q 2575 -91 1722 -91 
Q 1428 -91 1123 -41 
Q 819 9 494 109 
L 494 744 
Q 775 591 1075 516 
Q 1375 441 1709 441 
Q 2250 441 2565 725 
Q 2881 1009 2881 1497 
Q 2881 1984 2565 2268 
Q 2250 2553 1709 2553 
Q 1456 2553 1204 2497 
Q 953 2441 691 2322 
L 691 4666 
z
" transform="scale(0.015625)"/>
       </defs>
       <use xlink:href="#DejaVuSans-2212"/>
       <use xlink:href="#DejaVuSans-37" transform="translate(83.789062 0)"/>
       <use xlink:href="#DejaVuSans-2e" transform="translate(147.412109 0)"/>
       <use xlink:href="#DejaVuSans-35" transform="translate(179.199219 0)"/>
      </g>
     </g>
    </g>
    <g id="xtick_3">
     <g id="line2d_3">
      <g>
       <use xlink:href="#m506db55150" x="146.88" y="307.584" style="stroke: #000000; stroke-width: 0.8"/>
      </g>
     </g>
     <g id="text_3">
      <!-- −5.0 -->
      <g transform="translate(134.738594 322.182437) scale(0.1 -0.1)">
       <use xlink:href="#DejaVuSans-2212"/>
       <use xlink:href="#DejaVuSans-35" transform="translate(83.789062 0)"/>
       <use xlink:href="#DejaVuSans-2e" transform="translate(147.412109 0)"/>
       <use xlink:href="#DejaVuSans-30" transform="translate(179.199219 0)"/>
      </g>
     </g>
    </g>
    <g id="xtick_4">
     <g id="line2d_4">
      <g>
       <use xlink:href="#m506db55150" x="191.52" y="307.584" style="stroke: #000000; stroke-width: 0.8"/>
      </g>
     </g>
     <g id="text_4">
      <!-- −2.5 -->
      <g transform="translate(179.378594 322.182437) scale(0.1 -0.1)">
       <defs>
        <path id="DejaVuSans-32" d="M 1228 531 
L 3431 531 
L 3431 0 
L 469 0 
L 469 531 
Q 828 903 1448 1529 
Q 2069 2156 2228 2338 
Q 2531 2678 2651 2914 
Q 2772 3150 2772 3378 
Q 2772 3750 2511 3984 
Q 2250 4219 1831 4219 
Q 1534 4219 1204 4116 
Q 875 4013 500 3803 
L 500 4441 
Q 881 4594 1212 4672 
Q 1544 4750 1819 4750 
Q 2544 4750 2975 4387 
Q 3406 4025 3406 3419 
Q 3406 3131 3298 2873 
Q 3191 2616 2906 2266 
Q 2828 2175 2409 1742 
Q 1991 1309 1228 531 
z
" transform="scale(0.015625)"/>
       </defs>
       <use xlink:href="#DejaVuSans-2212"/>
       <use xlink:href="#DejaVuSans-32" transform="translate(83.789062 0)"/>
       <use xlink:href="#DejaVuSans-2e" transform="translate(147.412109 0)"/>
       <use xlink:href="#DejaVuSans-35" transform="translate(179.199219 0)"/>
      </g>
     </g>
    </g>
    <g id="xtick_5">
     <g id="line2d_5">
      <g>
       <use xlink:href="#m506db55150" x="236.16" y="307.584" style="stroke: #000000; stroke-width: 0.8"/>
      </g>
     </g>
     <g id="text_5">
      <!-- 0.0 -->
      <g transform="translate(228.208438 322.182437) scale(0.1 -0.1)">
       <use xlink:href="#DejaVuSans-30"/>
       <use xlink:href="#DejaVuSans-2e" transform="translate(63.623047 0)"/>
       <use xlink:href="#DejaVuSans-30" transform="translate(95.410156 0)"/>
      </g>
     </g>
    </g>
    <g id="xtick_6">
     <g id="line2d_6">
      <g>
       <use xlink:href="#m506db55150" x="280.8" y="307.584" style="stroke: #000000; stroke-width: 0.8"/>
      </g>
     </g>
     <g id="text_6">
      <!-- 2.5 -->
      <g transform="translate(272.848437 322.182437) scale(0.1 -0.1)">
       <use xlink:href="#DejaVuSans-32"/>
       <use xlink:href="#DejaVuSans-2e" transform="translate(63.623047 0)"/>
       <use xlink:href="#DejaVuSans-35" transform="translate(95.410156 0)"/>
      </g>
     </g>
    </g>
    <g id="xtick_7">
     <g id="line2d_7">
      <g>
       <use xlink:href="#m506db55150" x="325.44" y="307.584" style="stroke: #000000; stroke-width: 0.8"/>
      </g>
     </g>
     <g id="text_7">
      <!-- 5.0 -->
      <g transform="translate(317.488437 322.182437) scale(0.1 -0.1)">
       <use xlink:href="#DejaVuSans-35"/>
       <use xlink:href="#DejaVuSans-2e" transform="translate(63.623047 0)"/>
       <use xlink:href="#DejaVuSans-30" transform="translate(95.410156 0)"/>
      </g>
     </g>
    </g>
    <g id="xtick_8">
     <g id="line2d_8">
      <g>
       <use xlink:href="#m506db55150" x="370.08" y="307.584" style="stroke: #000000; stroke-width: 0.8"/>
      </g>
     </g>
     <g id="text_8">
      <!-- 7.5 -->
      <g transform="translate(362.128438 322.182437) scale(0.1 -0.1)">
       <use xlink:href="#DejaVuSans-37"/>
       <use xlink:href="#DejaVuSans-2e" transform="translate(63.623047 0)"/>
       <use xlink:href="#DejaVuSans-35" transform="translate(95.410156 0)"/>
      </g>
     </g>
    </g>
    <g id="xtick_9">
     <g id="line2d_9">
      <g>
       <use xlink:href="#m506db55150" x="414.72" y="307.584" style="stroke: #000000; stroke-width: 0.8"/>
      </g>
     </g>
     <g id="text_9">
      <!-- 10.0 -->
      <g transform="translate(403.587188 322.182437) scale(0.1 -0.1)">
       <use xlink:href="#DejaVuSans-31"/>
       <use xlink:href="#DejaVuSans-30" transform="translate(63.623047 0)"/>
       <use xlink:href="#DejaVuSans-2e" transform="translate(127.246094 0)"/>
       <use xlink:href="#DejaVuSans-30" transform="translate(159.033203 0)"/>
      </g>
     </g>
    </g>
    <g id="text_10">
     <!-- x -->
     <g transform="translate(233.200625 335.860562) scale(0.1 -0.1)">
      <defs>
       <path id="DejaVuSans-78" d="M 3513 3500 
L 2247 1797 
L 3578 0 
L 2900 0 
L 1881 1375 
L 863 0 
L 184 0 
L 1544 1831 
L 300 3500 
L 978 3500 
L 1906 2253 
L 2834 3500 
L 3513 3500 
z
" transform="scale(0.015625)"/>
      </defs>
      <use xlink:href="#DejaVuSans-78"/>
     </g>
    </g>
   </g>
   <g id="matplotlib.axis_2">
    <g id="ytick_1">
     <g id="line2d_10">
      <defs>
       <path id="mfb1f0591ee" d="M 0 0 
L -3.5 0 
" style="stroke: #000000; stroke-width: 0.8"/>
      </defs>
      <g>
       <use xlink:href="#mfb1f0591ee" x="57.6" y="280.9728" style="stroke: #000000; stroke-width: 0.8"/>
      </g>
     </g>
     <g id="text_11">
      <!-- −4000 -->
      <g transform="translate(16.770313 284.772019) scale(0.1 -0.1)">
       <defs>
        <path id="DejaVuSans-34" d="M 2419 4116 
L 825 1625 
L 2419 1625 
L 2419 4116 
z
M 2253 4666 
L 3047 4666 
L 3047 1625 
L 3713 1625 
L 3713 1100 
L 3047 1100 
L 3047 0 
L 2419 0 
L 2419 1100 
L 313 1100 
L 313 1709 
L 2253 4666 
z
" transform="scale(0.015625)"/>
       </defs>
       <use xlink:href="#DejaVuSans-2212"/>
       <use xlink:href="#DejaVuSans-34" transform="translate(83.789062 0)"/>
       <use xlink:href="#DejaVuSans-30" transform="translate(147.412109 0)"/>
       <use xlink:href="#DejaVuSans-30" transform="translate(211.035156 0)"/>
       <use xlink:href="#DejaVuSans-30" transform="translate(274.658203 0)"/>
      </g>
     </g>
    </g>
    <g id="ytick_2">
     <g id="line2d_11">
      <g>
       <use xlink:href="#mfb1f0591ee" x="57.6" y="227.7504" style="stroke: #000000; stroke-width: 0.8"/>
      </g>
     </g>
     <g id="text_12">
      <!-- −2000 -->
      <g transform="translate(16.770313 231.549619) scale(0.1 -0.1)">
       <use xlink:href="#DejaVuSans-2212"/>
       <use xlink:href="#DejaVuSans-32" transform="translate(83.789062 0)"/>
       <use xlink:href="#DejaVuSans-30" transform="translate(147.412109 0)"/>
       <use xlink:href="#DejaVuSans-30" transform="translate(211.035156 0)"/>
       <use xlink:href="#DejaVuSans-30" transform="translate(274.658203 0)"/>
      </g>
     </g>
    </g>
    <g id="ytick_3">
     <g id="line2d_12">
      <g>
       <use xlink:href="#mfb1f0591ee" x="57.6" y="174.528" style="stroke: #000000; stroke-width: 0.8"/>
      </g>
     </g>
     <g id="text_13">
      <!-- 0 -->
      <g transform="translate(44.2375 178.327219) scale(0.1 -0.1)">
       <use xlink:href="#DejaVuSans-30"/>
      </g>
     </g>
    </g>
    <g id="ytick_4">
     <g id="line2d_13">
      <g>
       <use xlink:href="#mfb1f0591ee" x="57.6" y="121.3056" style="stroke: #000000; stroke-width: 0.8"/>
      </g>
     </g>
     <g id="text_14">
      <!-- 2000 -->
      <g transform="translate(25.15 125.104819) scale(0.1 -0.1)">
       <use xlink:href="#DejaVuSans-32"/>
       <use xlink:href="#DejaVuSans-30" transform="translate(63.623047 0)"/>
       <use xlink:href="#DejaVuSans-30" transform="translate(127.246094 0)"/>
       <use xlink:href="#DejaVuSans-30" transform="translate(190.869141 0)"/>
      </g>
     </g>
    </g>
    <g id="ytick_5">
     <g id="line2d_14">
      <g>
       <use xlink:href="#mfb1f0591ee" x="57.6" y="68.0832" style="stroke: #000000; stroke-width: 0.8"/>
      </g>
     </g>
     <g id="text_15">
      <!-- 4000 -->
      <g transform="translate(25.15 71.882419) scale(0.1 -0.1)">
       <use xlink:href="#DejaVuSans-34"/>
       <use xlink:href="#DejaVuSans-30" transform="translate(63.623047 0)"/>
       <use xlink:href="#DejaVuSans-30" transform="translate(127.246094 0)"/>
       <use xlink:href="#DejaVuSans-30" transform="translate(190.869141 0)"/>
      </g>
     </g>
    </g>
    <g id="text_16">
     <!-- f(x) -->
     <g transform="translate(10.690625 183.149094) rotate(-90) scale(0.1 -0.1)">
      <defs>
       <path id="DejaVuSans-66" d="M 2375 4863 
L 2375 4384 
L 1825 4384 
Q 1516 4384 1395 4259 
Q 1275 4134 1275 3809 
L 1275 3500 
L 2222 3500 
L 2222 3053 
L 1275 3053 
L 1275 0 
L 697 0 
L 697 3053 
L 147 3053 
L 147 3500 
L 697 3500 
L 697 3744 
Q 697 4328 969 4595 
Q 1241 4863 1831 4863 
L 2375 4863 
z
" transform="scale(0.015625)"/>
       <path id="DejaVuSans-28" d="M 1984 4856 
Q 1566 4138 1362 3434 
Q 1159 2731 1159 2009 
Q 1159 1288 1364 580 
Q 1569 -128 1984 -844 
L 1484 -844 
Q 1016 -109 783 600 
Q 550 1309 550 2009 
Q 550 2706 781 3412 
Q 1013 4119 1484 4856 
L 1984 4856 
z
" transform="scale(0.015625)"/>
       <path id="DejaVuSans-29" d="M 513 4856 
L 1013 4856 
Q 1481 4119 1714 3412 
Q 1947 2706 1947 2009 
Q 1947 1309 1714 600 
Q 1481 -109 1013 -844 
L 513 -844 
Q 928 -128 1133 580 
Q 1338 1288 1338 2009 
Q 1338 2731 1133 3434 
Q 928 4138 513 4856 
z
" transform="scale(0.015625)"/>
      </defs>
      <use xlink:href="#DejaVuSans-66"/>
      <use xlink:href="#DejaVuSans-28" transform="translate(35.205078 0)"/>
      <use xlink:href="#DejaVuSans-78" transform="translate(74.21875 0)"/>
      <use xlink:href="#DejaVuSans-29" transform="translate(133.398438 0)"/>
     </g>
    </g>
   </g>
   <g id="line2d_15">
    <path d="M 57.6 77.769677 
L 61.207273 83.629145 
L 64.814545 89.244086 
L 68.421818 94.619764 
L 72.029091 99.761445 
L 75.636364 104.674396 
L 79.243636 109.363881 
L 82.850909 113.835167 
L 86.458182 118.093519 
L 90.065455 122.144203 
L 93.672727 125.992485 
L 97.28 129.64363 
L 100.887273 133.102905 
L 104.494545 136.375574 
L 108.101818 139.466905 
L 111.709091 142.382162 
L 115.316364 145.126611 
L 118.923636 147.705519 
L 122.530909 150.12415 
L 126.138182 152.387771 
L 129.745455 154.501647 
L 133.352727 156.471044 
L 136.96 158.301228 
L 140.567273 159.997464 
L 144.174545 161.565019 
L 147.781818 163.009157 
L 151.389091 164.335146 
L 154.996364 165.548249 
L 158.603636 166.653735 
L 162.210909 167.656867 
L 165.818182 168.562912 
L 169.425455 169.377135 
L 173.032727 170.104803 
L 176.64 170.751181 
L 180.247273 171.321534 
L 183.854545 171.821129 
L 187.461818 172.255232 
L 191.069091 172.629107 
L 194.676364 172.948021 
L 198.283636 173.217239 
L 201.890909 173.442028 
L 205.498182 173.627653 
L 209.105455 173.779379 
L 212.712727 173.902473 
L 216.32 174.002201 
L 219.927273 174.083827 
L 223.534545 174.152618 
L 227.141818 174.213839 
L 230.749091 174.272757 
L 234.356364 174.334637 
L 237.963636 174.404744 
L 241.570909 174.488345 
L 245.178182 174.590705 
L 248.785455 174.71709 
L 252.392727 174.872766 
L 256 175.062998 
L 259.607273 175.293053 
L 263.214545 175.568195 
L 266.821818 175.893691 
L 270.429091 176.274807 
L 274.036364 176.716808 
L 277.643636 177.22496 
L 281.250909 177.804528 
L 284.858182 178.460779 
L 288.465455 179.198979 
L 292.072727 180.024392 
L 295.68 180.942285 
L 299.287273 181.957923 
L 302.894545 183.076573 
L 306.501818 184.303499 
L 310.109091 185.643968 
L 313.716364 187.103246 
L 317.323636 188.686598 
L 320.930909 190.39929 
L 324.538182 192.246587 
L 328.145455 194.233756 
L 331.752727 196.366062 
L 335.36 198.648771 
L 338.967273 201.087149 
L 342.574545 203.686461 
L 346.181818 206.451974 
L 349.789091 209.388952 
L 353.396364 212.502662 
L 357.003636 215.798369 
L 360.610909 219.28134 
L 364.218182 222.956839 
L 367.825455 226.830134 
L 371.432727 230.906488 
L 375.04 235.191169 
L 378.647273 239.689442 
L 382.254545 244.406572 
L 385.861818 249.347826 
L 389.469091 254.518469 
L 393.076364 259.923767 
L 396.683636 265.568985 
L 400.290909 271.45939 
L 403.898182 277.600247 
L 407.505455 283.996822 
L 411.112727 290.654381 
L 414.72 297.578189 
" clip-path="url(#p726fd91e88)" style="fill: none; stroke: #008000; stroke-width: 1.5; stroke-linecap: square"/>
   </g>
   <g id="line2d_16">
    <path d="M 57.6 120.155411 
L 61.207273 121.250541 
L 64.814545 122.345671 
L 68.421818 123.4408 
L 72.029091 124.53593 
L 75.636364 125.631059 
L 79.243636 126.726189 
L 82.850909 127.821319 
L 86.458182 128.916448 
L 90.065455 130.011578 
L 93.672727 131.106707 
L 97.28 132.201837 
L 100.887273 133.296967 
L 104.494545 134.392096 
L 108.101818 135.487226 
L 111.709091 136.582356 
L 115.316364 137.677485 
L 118.923636 138.772615 
L 122.530909 139.867744 
L 126.138182 140.962874 
L 129.745455 142.058004 
L 133.352727 143.153133 
L 136.96 144.248263 
L 140.567273 145.343392 
L 144.174545 146.438522 
L 147.781818 147.533652 
L 151.389091 148.628781 
L 154.996364 149.723911 
L 158.603636 150.819041 
L 162.210909 151.91417 
L 165.818182 153.0093 
L 169.425455 154.104429 
L 173.032727 155.199559 
L 176.64 156.294689 
L 180.247273 157.389818 
L 183.854545 158.484948 
L 187.461818 159.580077 
L 191.069091 160.675207 
L 194.676364 161.770337 
L 198.283636 162.865466 
L 201.890909 163.960596 
L 205.498182 165.055726 
L 209.105455 166.150855 
L 212.712727 167.245985 
L 216.32 168.341114 
L 219.927273 169.436244 
L 223.534545 170.531374 
L 227.141818 171.626503 
L 230.749091 172.721633 
L 234.356364 173.816762 
L 237.963636 174.911892 
L 241.570909 176.007022 
L 245.178182 177.102151 
L 248.785455 178.197281 
L 252.392727 179.29241 
L 256 180.38754 
L 259.607273 181.48267 
L 263.214545 182.577799 
L 266.821818 183.672929 
L 270.429091 184.768059 
L 274.036364 185.863188 
L 277.643636 186.958318 
L 281.250909 188.053447 
L 284.858182 189.148577 
L 288.465455 190.243707 
L 292.072727 191.338836 
L 295.68 192.433966 
L 299.287273 193.529095 
L 302.894545 194.624225 
L 306.501818 195.719355 
L 310.109091 196.814484 
L 313.716364 197.909614 
L 317.323636 199.004744 
L 320.930909 200.099873 
L 324.538182 201.195003 
L 328.145455 202.290132 
L 331.752727 203.385262 
L 335.36 204.480392 
L 338.967273 205.575521 
L 342.574545 206.670651 
L 346.181818 207.76578 
L 349.789091 208.86091 
L 353.396364 209.95604 
L 357.003636 211.051169 
L 360.610909 212.146299 
L 364.218182 213.241429 
L 367.825455 214.336558 
L 371.432727 215.431688 
L 375.04 216.526817 
L 378.647273 217.621947 
L 382.254545 218.717077 
L 385.861818 219.812206 
L 389.469091 220.907336 
L 393.076364 222.002465 
L 396.683636 223.097595 
L 400.290909 224.192725 
L 403.898182 225.287854 
L 407.505455 226.382984 
L 411.112727 227.478113 
L 414.72 228.573243 
" clip-path="url(#p726fd91e88)" style="fill: none; stroke: #ff0000; stroke-width: 1.5; stroke-linecap: square"/>
   </g>
   <g id="line2d_17">
    <path d="M 57.6 77.769677 
L 61.207273 83.629145 
L 64.814545 89.244086 
L 68.421818 94.619764 
L 72.029091 99.761445 
L 75.636364 104.674396 
L 79.243636 109.363881 
L 82.850909 113.835167 
L 86.458182 118.093519 
L 90.065455 122.144203 
L 93.672727 125.992485 
L 97.28 129.64363 
L 100.887273 133.102905 
L 104.494545 136.375574 
L 108.101818 139.466905 
L 111.709091 142.382162 
L 115.316364 145.126611 
L 118.923636 147.705519 
L 122.530909 150.12415 
L 126.138182 152.387771 
L 129.745455 154.501647 
L 133.352727 156.471044 
L 136.96 158.301228 
L 140.567273 159.997464 
L 144.174545 161.565019 
L 147.781818 163.009157 
L 151.389091 164.335146 
L 154.996364 165.548249 
L 158.603636 166.653735 
L 162.210909 167.656867 
L 165.818182 168.562912 
L 169.425455 169.377135 
L 173.032727 170.104803 
L 176.64 170.751181 
L 180.247273 171.321534 
L 183.854545 171.821129 
L 187.461818 172.255232 
L 191.069091 172.629107 
L 194.676364 172.948021 
L 198.283636 173.217239 
L 201.890909 173.442028 
L 205.498182 173.627653 
L 209.105455 173.779379 
L 212.712727 173.902473 
L 216.32 174.002201 
L 219.927273 174.083827 
L 223.534545 174.152618 
L 227.141818 174.213839 
L 230.749091 174.272757 
L 234.356364 174.334637 
L 237.963636 174.404744 
L 241.570909 174.488345 
L 245.178182 174.590705 
L 248.785455 174.71709 
L 252.392727 174.872766 
L 256 175.062998 
L 259.607273 175.293053 
L 263.214545 175.568195 
L 266.821818 175.893691 
L 270.429091 176.274807 
L 274.036364 176.716808 
L 277.643636 177.22496 
L 281.250909 177.804528 
L 284.858182 178.460779 
L 288.465455 179.198979 
L 292.072727 180.024392 
L 295.68 180.942285 
L 299.287273 181.957923 
L 302.894545 183.076573 
L 306.501818 184.303499 
L 310.109091 185.643968 
L 313.716364 187.103246 
L 317.323636 188.686598 
L 320.930909 190.39929 
L 324.538182 192.246587 
L 328.145455 194.233756 
L 331.752727 196.366062 
L 335.36 198.648771 
L 338.967273 201.087149 
L 342.574545 203.686461 
L 346.181818 206.451974 
L 349.789091 209.388952 
L 353.396364 212.502662 
L 357.003636 215.798369 
L 360.610909 219.28134 
L 364.218182 222.956839 
L 367.825455 226.830134 
L 371.432727 230.906488 
L 375.04 235.191169 
L 378.647273 239.689442 
L 382.254545 244.406572 
L 385.861818 249.347826 
L 389.469091 254.518469 
L 393.076364 259.923767 
L 396.683636 265.568985 
L 400.290909 271.45939 
L 403.898182 277.600247 
L 407.505455 283.996822 
L 411.112727 290.654381 
L 414.72 297.578189 
" clip-path="url(#p726fd91e88)" style="fill: none; stroke: #008000; stroke-width: 1.5; stroke-linecap: square"/>
   </g>
   <g id="line2d_18">
    <path d="M 57.6 120.199682 
L 61.207273 121.372854 
L 64.814545 122.546026 
L 68.421818 123.719198 
L 72.029091 124.892369 
L 75.636364 126.065541 
L 79.243636 127.238713 
L 82.850909 128.411885 
L 86.458182 129.585057 
L 90.065455 130.758228 
L 93.672727 131.9314 
L 97.28 133.104572 
L 100.887273 134.277744 
L 104.494545 135.450916 
L 108.101818 136.624088 
L 111.709091 137.797259 
L 115.316364 138.970431 
L 118.923636 140.143603 
L 122.530909 141.316775 
L 126.138182 142.489947 
L 129.745455 143.663118 
L 133.352727 144.83629 
L 136.96 146.009462 
L 140.567273 147.182634 
L 144.174545 148.355806 
L 147.781818 149.528977 
L 151.389091 150.702149 
L 154.996364 151.875321 
L 158.603636 153.048493 
L 162.210909 154.221665 
L 165.818182 155.394837 
L 169.425455 156.568008 
L 173.032727 157.74118 
L 176.64 158.914352 
L 180.247273 160.087524 
L 183.854545 161.260696 
L 187.461818 162.433867 
L 191.069091 163.607039 
L 194.676364 164.780211 
L 198.283636 165.953383 
L 201.890909 167.126555 
L 205.498182 168.299727 
L 209.105455 169.472898 
L 212.712727 170.64607 
L 216.32 171.819242 
L 219.927273 172.992414 
L 223.534545 174.165586 
L 227.141818 175.338757 
L 230.749091 176.511929 
L 234.356364 177.685101 
L 237.963636 178.858273 
L 241.570909 180.031445 
L 245.178182 181.204616 
L 248.785455 182.377788 
L 252.392727 183.55096 
L 256 184.724132 
L 259.607273 185.897304 
L 263.214545 187.070476 
L 266.821818 188.243647 
L 270.429091 189.416819 
L 274.036364 190.589991 
L 277.643636 191.763163 
L 281.250909 192.936335 
L 284.858182 194.109506 
L 288.465455 195.282678 
L 292.072727 196.45585 
L 295.68 197.629022 
L 299.287273 198.802194 
L 302.894545 199.975366 
L 306.501818 201.148537 
L 310.109091 202.321709 
L 313.716364 203.494881 
L 317.323636 204.668053 
L 320.930909 205.841225 
L 324.538182 207.014396 
L 328.145455 208.187568 
L 331.752727 209.36074 
L 335.36 210.533912 
L 338.967273 211.707084 
L 342.574545 212.880255 
L 346.181818 214.053427 
L 349.789091 215.226599 
L 353.396364 216.399771 
L 357.003636 217.572943 
L 360.610909 218.746115 
L 364.218182 219.919286 
L 367.825455 221.092458 
L 371.432727 222.26563 
L 375.04 223.438802 
L 378.647273 224.611974 
L 382.254545 225.785145 
L 385.861818 226.958317 
L 389.469091 228.131489 
L 393.076364 229.304661 
L 396.683636 230.477833 
L 400.290909 231.651005 
L 403.898182 232.824176 
L 407.505455 233.997348 
L 411.112727 235.17052 
L 414.72 236.343692 
" clip-path="url(#p726fd91e88)" style="fill: none; stroke: #ff0000; stroke-width: 1.5; stroke-linecap: square"/>
   </g>
   <g id="line2d_19">
    <path d="M 57.6 77.769677 
L 61.207273 83.629145 
L 64.814545 89.244086 
L 68.421818 94.619764 
L 72.029091 99.761445 
L 75.636364 104.674396 
L 79.243636 109.363881 
L 82.850909 113.835167 
L 86.458182 118.093519 
L 90.065455 122.144203 
L 93.672727 125.992485 
L 97.28 129.64363 
L 100.887273 133.102905 
L 104.494545 136.375574 
L 108.101818 139.466905 
L 111.709091 142.382162 
L 115.316364 145.126611 
L 118.923636 147.705519 
L 122.530909 150.12415 
L 126.138182 152.387771 
L 129.745455 154.501647 
L 133.352727 156.471044 
L 136.96 158.301228 
L 140.567273 159.997464 
L 144.174545 161.565019 
L 147.781818 163.009157 
L 151.389091 164.335146 
L 154.996364 165.548249 
L 158.603636 166.653735 
L 162.210909 167.656867 
L 165.818182 168.562912 
L 169.425455 169.377135 
L 173.032727 170.104803 
L 176.64 170.751181 
L 180.247273 171.321534 
L 183.854545 171.821129 
L 187.461818 172.255232 
L 191.069091 172.629107 
L 194.676364 172.948021 
L 198.283636 173.217239 
L 201.890909 173.442028 
L 205.498182 173.627653 
L 209.105455 173.779379 
L 212.712727 173.902473 
L 216.32 174.002201 
L 219.927273 174.083827 
L 223.534545 174.152618 
L 227.141818 174.213839 
L 230.749091 174.272757 
L 234.356364 174.334637 
L 237.963636 174.404744 
L 241.570909 174.488345 
L 245.178182 174.590705 
L 248.785455 174.71709 
L 252.392727 174.872766 
L 256 175.062998 
L 259.607273 175.293053 
L 263.214545 175.568195 
L 266.821818 175.893691 
L 270.429091 176.274807 
L 274.036364 176.716808 
L 277.643636 177.22496 
L 281.250909 177.804528 
L 284.858182 178.460779 
L 288.465455 179.198979 
L 292.072727 180.024392 
L 295.68 180.942285 
L 299.287273 181.957923 
L 302.894545 183.076573 
L 306.501818 184.303499 
L 310.109091 185.643968 
L 313.716364 187.103246 
L 317.323636 188.686598 
L 320.930909 190.39929 
L 324.538182 192.246587 
L 328.145455 194.233756 
L 331.752727 196.366062 
L 335.36 198.648771 
L 338.967273 201.087149 
L 342.574545 203.686461 
L 346.181818 206.451974 
L 349.789091 209.388952 
L 353.396364 212.502662 
L 357.003636 215.798369 
L 360.610909 219.28134 
L 364.218182 222.956839 
L 367.825455 226.830134 
L 371.432727 230.906488 
L 375.04 235.191169 
L 378.647273 239.689442 
L 382.254545 244.406572 
L 385.861818 249.347826 
L 389.469091 254.518469 
L 393.076364 259.923767 
L 396.683636 265.568985 
L 400.290909 271.45939 
L 403.898182 277.600247 
L 407.505455 283.996822 
L 411.112727 290.654381 
L 414.72 297.578189 
" clip-path="url(#p726fd91e88)" style="fill: none; stroke: #008000; stroke-width: 1.5; stroke-linecap: square"/>
   </g>
   <g id="line2d_20">
    <path d="M 57.6 98.950757 
L 61.207273 100.522303 
L 64.814545 102.093849 
L 68.421818 103.665396 
L 72.029091 105.236942 
L 75.636364 106.808488 
L 79.243636 108.380035 
L 82.850909 109.951581 
L 86.458182 111.523127 
L 90.065455 113.094673 
L 93.672727 114.66622 
L 97.28 116.237766 
L 100.887273 117.809312 
L 104.494545 119.380859 
L 108.101818 120.952405 
L 111.709091 122.523951 
L 115.316364 124.095498 
L 118.923636 125.667044 
L 122.530909 127.23859 
L 126.138182 128.810137 
L 129.745455 130.381683 
L 133.352727 131.953229 
L 136.96 133.524776 
L 140.567273 135.096322 
L 144.174545 136.667868 
L 147.781818 138.239415 
L 151.389091 139.810961 
L 154.996364 141.382507 
L 158.603636 142.954053 
L 162.210909 144.5256 
L 165.818182 146.097146 
L 169.425455 147.668692 
L 173.032727 149.240239 
L 176.64 150.811785 
L 180.247273 152.383331 
L 183.854545 153.954878 
L 187.461818 155.526424 
L 191.069091 157.09797 
L 194.676364 158.669517 
L 198.283636 160.241063 
L 201.890909 161.812609 
L 205.498182 163.384156 
L 209.105455 164.955702 
L 212.712727 166.527248 
L 216.32 168.098795 
L 219.927273 169.670341 
L 223.534545 171.241887 
L 227.141818 172.813433 
L 230.749091 174.38498 
L 234.356364 175.956526 
L 237.963636 177.528072 
L 241.570909 179.099619 
L 245.178182 180.671165 
L 248.785455 182.242711 
L 252.392727 183.814258 
L 256 185.385804 
L 259.607273 186.95735 
L 263.214545 188.528897 
L 266.821818 190.100443 
L 270.429091 191.671989 
L 274.036364 193.243536 
L 277.643636 194.815082 
L 281.250909 196.386628 
L 284.858182 197.958175 
L 288.465455 199.529721 
L 292.072727 201.101267 
L 295.68 202.672813 
L 299.287273 204.24436 
L 302.894545 205.815906 
L 306.501818 207.387452 
L 310.109091 208.958999 
L 313.716364 210.530545 
L 317.323636 212.102091 
L 320.930909 213.673638 
L 324.538182 215.245184 
L 328.145455 216.81673 
L 331.752727 218.388277 
L 335.36 219.959823 
L 338.967273 221.531369 
L 342.574545 223.102916 
L 346.181818 224.674462 
L 349.789091 226.246008 
L 353.396364 227.817555 
L 357.003636 229.389101 
L 360.610909 230.960647 
L 364.218182 232.532194 
L 367.825455 234.10374 
L 371.432727 235.675286 
L 375.04 237.246832 
L 378.647273 238.818379 
L 382.254545 240.389925 
L 385.861818 241.961471 
L 389.469091 243.533018 
L 393.076364 245.104564 
L 396.683636 246.67611 
L 400.290909 248.247657 
L 403.898182 249.819203 
L 407.505455 251.390749 
L 411.112727 252.962296 
L 414.72 254.533842 
" clip-path="url(#p726fd91e88)" style="fill: none; stroke: #ff0000; stroke-width: 1.5; stroke-linecap: square"/>
   </g>
   <g id="line2d_21">
    <path d="M 57.6 77.769677 
L 61.207273 83.629145 
L 64.814545 89.244086 
L 68.421818 94.619764 
L 72.029091 99.761445 
L 75.636364 104.674396 
L 79.243636 109.363881 
L 82.850909 113.835167 
L 86.458182 118.093519 
L 90.065455 122.144203 
L 93.672727 125.992485 
L 97.28 129.64363 
L 100.887273 133.102905 
L 104.494545 136.375574 
L 108.101818 139.466905 
L 111.709091 142.382162 
L 115.316364 145.126611 
L 118.923636 147.705519 
L 122.530909 150.12415 
L 126.138182 152.387771 
L 129.745455 154.501647 
L 133.352727 156.471044 
L 136.96 158.301228 
L 140.567273 159.997464 
L 144.174545 161.565019 
L 147.781818 163.009157 
L 151.389091 164.335146 
L 154.996364 165.548249 
L 158.603636 166.653735 
L 162.210909 167.656867 
L 165.818182 168.562912 
L 169.425455 169.377135 
L 173.032727 170.104803 
L 176.64 170.751181 
L 180.247273 171.321534 
L 183.854545 171.821129 
L 187.461818 172.255232 
L 191.069091 172.629107 
L 194.676364 172.948021 
L 198.283636 173.217239 
L 201.890909 173.442028 
L 205.498182 173.627653 
L 209.105455 173.779379 
L 212.712727 173.902473 
L 216.32 174.002201 
L 219.927273 174.083827 
L 223.534545 174.152618 
L 227.141818 174.213839 
L 230.749091 174.272757 
L 234.356364 174.334637 
L 237.963636 174.404744 
L 241.570909 174.488345 
L 245.178182 174.590705 
L 248.785455 174.71709 
L 252.392727 174.872766 
L 256 175.062998 
L 259.607273 175.293053 
L 263.214545 175.568195 
L 266.821818 175.893691 
L 270.429091 176.274807 
L 274.036364 176.716808 
L 277.643636 177.22496 
L 281.250909 177.804528 
L 284.858182 178.460779 
L 288.465455 179.198979 
L 292.072727 180.024392 
L 295.68 180.942285 
L 299.287273 181.957923 
L 302.894545 183.076573 
L 306.501818 184.303499 
L 310.109091 185.643968 
L 313.716364 187.103246 
L 317.323636 188.686598 
L 320.930909 190.39929 
L 324.538182 192.246587 
L 328.145455 194.233756 
L 331.752727 196.366062 
L 335.36 198.648771 
L 338.967273 201.087149 
L 342.574545 203.686461 
L 346.181818 206.451974 
L 349.789091 209.388952 
L 353.396364 212.502662 
L 357.003636 215.798369 
L 360.610909 219.28134 
L 364.218182 222.956839 
L 367.825455 226.830134 
L 371.432727 230.906488 
L 375.04 235.191169 
L 378.647273 239.689442 
L 382.254545 244.406572 
L 385.861818 249.347826 
L 389.469091 254.518469 
L 393.076364 259.923767 
L 396.683636 265.568985 
L 400.290909 271.45939 
L 403.898182 277.600247 
L 407.505455 283.996822 
L 411.112727 290.654381 
L 414.72 297.578189 
" clip-path="url(#p726fd91e88)" style="fill: none; stroke: #008000; stroke-width: 1.5; stroke-linecap: square"/>
   </g>
   <g id="line2d_22">
    <path d="M 57.6 107.446012 
L 61.207273 109.070366 
L 64.814545 110.69472 
L 68.421818 112.319074 
L 72.029091 113.943428 
L 75.636364 115.567782 
L 79.243636 117.192136 
L 82.850909 118.81649 
L 86.458182 120.440844 
L 90.065455 122.065198 
L 93.672727 123.689552 
L 97.28 125.313906 
L 100.887273 126.93826 
L 104.494545 128.562614 
L 108.101818 130.186968 
L 111.709091 131.811322 
L 115.316364 133.435676 
L 118.923636 135.06003 
L 122.530909 136.684384 
L 126.138182 138.308738 
L 129.745455 139.933092 
L 133.352727 141.557446 
L 136.96 143.1818 
L 140.567273 144.806154 
L 144.174545 146.430508 
L 147.781818 148.054862 
L 151.389091 149.679216 
L 154.996364 151.30357 
L 158.603636 152.927924 
L 162.210909 154.552278 
L 165.818182 156.176632 
L 169.425455 157.800986 
L 173.032727 159.42534 
L 176.64 161.049694 
L 180.247273 162.674048 
L 183.854545 164.298402 
L 187.461818 165.922756 
L 191.069091 167.54711 
L 194.676364 169.171464 
L 198.283636 170.795818 
L 201.890909 172.420172 
L 205.498182 174.044526 
L 209.105455 175.66888 
L 212.712727 177.293234 
L 216.32 178.917587 
L 219.927273 180.541941 
L 223.534545 182.166295 
L 227.141818 183.790649 
L 230.749091 185.415003 
L 234.356364 187.039357 
L 237.963636 188.663711 
L 241.570909 190.288065 
L 245.178182 191.912419 
L 248.785455 193.536773 
L 252.392727 195.161127 
L 256 196.785481 
L 259.607273 198.409835 
L 263.214545 200.034189 
L 266.821818 201.658543 
L 270.429091 203.282897 
L 274.036364 204.907251 
L 277.643636 206.531605 
L 281.250909 208.155959 
L 284.858182 209.780313 
L 288.465455 211.404667 
L 292.072727 213.029021 
L 295.68 214.653375 
L 299.287273 216.277729 
L 302.894545 217.902083 
L 306.501818 219.526437 
L 310.109091 221.150791 
L 313.716364 222.775145 
L 317.323636 224.399499 
L 320.930909 226.023853 
L 324.538182 227.648207 
L 328.145455 229.272561 
L 331.752727 230.896915 
L 335.36 232.521269 
L 338.967273 234.145623 
L 342.574545 235.769977 
L 346.181818 237.394331 
L 349.789091 239.018685 
L 353.396364 240.643039 
L 357.003636 242.267393 
L 360.610909 243.891747 
L 364.218182 245.516101 
L 367.825455 247.140455 
L 371.432727 248.764809 
L 375.04 250.389163 
L 378.647273 252.013517 
L 382.254545 253.637871 
L 385.861818 255.262225 
L 389.469091 256.886579 
L 393.076364 258.510933 
L 396.683636 260.135287 
L 400.290909 261.759641 
L 403.898182 263.383995 
L 407.505455 265.008349 
L 411.112727 266.632703 
L 414.72 268.257057 
" clip-path="url(#p726fd91e88)" style="fill: none; stroke: #ff0000; stroke-width: 1.5; stroke-linecap: square"/>
   </g>
   <g id="line2d_23">
    <path d="M 57.6 77.769677 
L 61.207273 83.629145 
L 64.814545 89.244086 
L 68.421818 94.619764 
L 72.029091 99.761445 
L 75.636364 104.674396 
L 79.243636 109.363881 
L 82.850909 113.835167 
L 86.458182 118.093519 
L 90.065455 122.144203 
L 93.672727 125.992485 
L 97.28 129.64363 
L 100.887273 133.102905 
L 104.494545 136.375574 
L 108.101818 139.466905 
L 111.709091 142.382162 
L 115.316364 145.126611 
L 118.923636 147.705519 
L 122.530909 150.12415 
L 126.138182 152.387771 
L 129.745455 154.501647 
L 133.352727 156.471044 
L 136.96 158.301228 
L 140.567273 159.997464 
L 144.174545 161.565019 
L 147.781818 163.009157 
L 151.389091 164.335146 
L 154.996364 165.548249 
L 158.603636 166.653735 
L 162.210909 167.656867 
L 165.818182 168.562912 
L 169.425455 169.377135 
L 173.032727 170.104803 
L 176.64 170.751181 
L 180.247273 171.321534 
L 183.854545 171.821129 
L 187.461818 172.255232 
L 191.069091 172.629107 
L 194.676364 172.948021 
L 198.283636 173.217239 
L 201.890909 173.442028 
L 205.498182 173.627653 
L 209.105455 173.779379 
L 212.712727 173.902473 
L 216.32 174.002201 
L 219.927273 174.083827 
L 223.534545 174.152618 
L 227.141818 174.213839 
L 230.749091 174.272757 
L 234.356364 174.334637 
L 237.963636 174.404744 
L 241.570909 174.488345 
L 245.178182 174.590705 
L 248.785455 174.71709 
L 252.392727 174.872766 
L 256 175.062998 
L 259.607273 175.293053 
L 263.214545 175.568195 
L 266.821818 175.893691 
L 270.429091 176.274807 
L 274.036364 176.716808 
L 277.643636 177.22496 
L 281.250909 177.804528 
L 284.858182 178.460779 
L 288.465455 179.198979 
L 292.072727 180.024392 
L 295.68 180.942285 
L 299.287273 181.957923 
L 302.894545 183.076573 
L 306.501818 184.303499 
L 310.109091 185.643968 
L 313.716364 187.103246 
L 317.323636 188.686598 
L 320.930909 190.39929 
L 324.538182 192.246587 
L 328.145455 194.233756 
L 331.752727 196.366062 
L 335.36 198.648771 
L 338.967273 201.087149 
L 342.574545 203.686461 
L 346.181818 206.451974 
L 349.789091 209.388952 
L 353.396364 212.502662 
L 357.003636 215.798369 
L 360.610909 219.28134 
L 364.218182 222.956839 
L 367.825455 226.830134 
L 371.432727 230.906488 
L 375.04 235.191169 
L 378.647273 239.689442 
L 382.254545 244.406572 
L 385.861818 249.347826 
L 389.469091 254.518469 
L 393.076364 259.923767 
L 396.683636 265.568985 
L 400.290909 271.45939 
L 403.898182 277.600247 
L 407.505455 283.996822 
L 411.112727 290.654381 
L 414.72 297.578189 
" clip-path="url(#p726fd91e88)" style="fill: none; stroke: #008000; stroke-width: 1.5; stroke-linecap: square"/>
   </g>
   <g id="line2d_24">
    <path d="M 57.6 116.459211 
L 61.207273 117.781009 
L 64.814545 119.102808 
L 68.421818 120.424606 
L 72.029091 121.746404 
L 75.636364 123.068203 
L 79.243636 124.390001 
L 82.850909 125.711799 
L 86.458182 127.033597 
L 90.065455 128.355396 
L 93.672727 129.677194 
L 97.28 130.998992 
L 100.887273 132.320791 
L 104.494545 133.642589 
L 108.101818 134.964387 
L 111.709091 136.286186 
L 115.316364 137.607984 
L 118.923636 138.929782 
L 122.530909 140.251581 
L 126.138182 141.573379 
L 129.745455 142.895177 
L 133.352727 144.216976 
L 136.96 145.538774 
L 140.567273 146.860572 
L 144.174545 148.182371 
L 147.781818 149.504169 
L 151.389091 150.825967 
L 154.996364 152.147765 
L 158.603636 153.469564 
L 162.210909 154.791362 
L 165.818182 156.11316 
L 169.425455 157.434959 
L 173.032727 158.756757 
L 176.64 160.078555 
L 180.247273 161.400354 
L 183.854545 162.722152 
L 187.461818 164.04395 
L 191.069091 165.365749 
L 194.676364 166.687547 
L 198.283636 168.009345 
L 201.890909 169.331144 
L 205.498182 170.652942 
L 209.105455 171.97474 
L 212.712727 173.296539 
L 216.32 174.618337 
L 219.927273 175.940135 
L 223.534545 177.261934 
L 227.141818 178.583732 
L 230.749091 179.90553 
L 234.356364 181.227328 
L 237.963636 182.549127 
L 241.570909 183.870925 
L 245.178182 185.192723 
L 248.785455 186.514522 
L 252.392727 187.83632 
L 256 189.158118 
L 259.607273 190.479917 
L 263.214545 191.801715 
L 266.821818 193.123513 
L 270.429091 194.445312 
L 274.036364 195.76711 
L 277.643636 197.088908 
L 281.250909 198.410707 
L 284.858182 199.732505 
L 288.465455 201.054303 
L 292.072727 202.376102 
L 295.68 203.6979 
L 299.287273 205.019698 
L 302.894545 206.341496 
L 306.501818 207.663295 
L 310.109091 208.985093 
L 313.716364 210.306891 
L 317.323636 211.62869 
L 320.930909 212.950488 
L 324.538182 214.272286 
L 328.145455 215.594085 
L 331.752727 216.915883 
L 335.36 218.237681 
L 338.967273 219.55948 
L 342.574545 220.881278 
L 346.181818 222.203076 
L 349.789091 223.524875 
L 353.396364 224.846673 
L 357.003636 226.168471 
L 360.610909 227.49027 
L 364.218182 228.812068 
L 367.825455 230.133866 
L 371.432727 231.455665 
L 375.04 232.777463 
L 378.647273 234.099261 
L 382.254545 235.421059 
L 385.861818 236.742858 
L 389.469091 238.064656 
L 393.076364 239.386454 
L 396.683636 240.708253 
L 400.290909 242.030051 
L 403.898182 243.351849 
L 407.505455 244.673648 
L 411.112727 245.995446 
L 414.72 247.317244 
" clip-path="url(#p726fd91e88)" style="fill: none; stroke: #ff0000; stroke-width: 1.5; stroke-linecap: square"/>
   </g>
   <g id="line2d_25">
    <path d="M 57.6 77.769677 
L 61.207273 83.629145 
L 64.814545 89.244086 
L 68.421818 94.619764 
L 72.029091 99.761445 
L 75.636364 104.674396 
L 79.243636 109.363881 
L 82.850909 113.835167 
L 86.458182 118.093519 
L 90.065455 122.144203 
L 93.672727 125.992485 
L 97.28 129.64363 
L 100.887273 133.102905 
L 104.494545 136.375574 
L 108.101818 139.466905 
L 111.709091 142.382162 
L 115.316364 145.126611 
L 118.923636 147.705519 
L 122.530909 150.12415 
L 126.138182 152.387771 
L 129.745455 154.501647 
L 133.352727 156.471044 
L 136.96 158.301228 
L 140.567273 159.997464 
L 144.174545 161.565019 
L 147.781818 163.009157 
L 151.389091 164.335146 
L 154.996364 165.548249 
L 158.603636 166.653735 
L 162.210909 167.656867 
L 165.818182 168.562912 
L 169.425455 169.377135 
L 173.032727 170.104803 
L 176.64 170.751181 
L 180.247273 171.321534 
L 183.854545 171.821129 
L 187.461818 172.255232 
L 191.069091 172.629107 
L 194.676364 172.948021 
L 198.283636 173.217239 
L 201.890909 173.442028 
L 205.498182 173.627653 
L 209.105455 173.779379 
L 212.712727 173.902473 
L 216.32 174.002201 
L 219.927273 174.083827 
L 223.534545 174.152618 
L 227.141818 174.213839 
L 230.749091 174.272757 
L 234.356364 174.334637 
L 237.963636 174.404744 
L 241.570909 174.488345 
L 245.178182 174.590705 
L 248.785455 174.71709 
L 252.392727 174.872766 
L 256 175.062998 
L 259.607273 175.293053 
L 263.214545 175.568195 
L 266.821818 175.893691 
L 270.429091 176.274807 
L 274.036364 176.716808 
L 277.643636 177.22496 
L 281.250909 177.804528 
L 284.858182 178.460779 
L 288.465455 179.198979 
L 292.072727 180.024392 
L 295.68 180.942285 
L 299.287273 181.957923 
L 302.894545 183.076573 
L 306.501818 184.303499 
L 310.109091 185.643968 
L 313.716364 187.103246 
L 317.323636 188.686598 
L 320.930909 190.39929 
L 324.538182 192.246587 
L 328.145455 194.233756 
L 331.752727 196.366062 
L 335.36 198.648771 
L 338.967273 201.087149 
L 342.574545 203.686461 
L 346.181818 206.451974 
L 349.789091 209.388952 
L 353.396364 212.502662 
L 357.003636 215.798369 
L 360.610909 219.28134 
L 364.218182 222.956839 
L 367.825455 226.830134 
L 371.432727 230.906488 
L 375.04 235.191169 
L 378.647273 239.689442 
L 382.254545 244.406572 
L 385.861818 249.347826 
L 389.469091 254.518469 
L 393.076364 259.923767 
L 396.683636 265.568985 
L 400.290909 271.45939 
L 403.898182 277.600247 
L 407.505455 283.996822 
L 411.112727 290.654381 
L 414.72 297.578189 
" clip-path="url(#p726fd91e88)" style="fill: none; stroke: #008000; stroke-width: 1.5; stroke-linecap: square"/>
   </g>
   <g id="line2d_26">
    <path d="M 57.6 109.288457 
L 61.207273 110.734381 
L 64.814545 112.180306 
L 68.421818 113.626231 
L 72.029091 115.072156 
L 75.636364 116.518081 
L 79.243636 117.964005 
L 82.850909 119.40993 
L 86.458182 120.855855 
L 90.065455 122.30178 
L 93.672727 123.747705 
L 97.28 125.19363 
L 100.887273 126.639554 
L 104.494545 128.085479 
L 108.101818 129.531404 
L 111.709091 130.977329 
L 115.316364 132.423254 
L 118.923636 133.869178 
L 122.530909 135.315103 
L 126.138182 136.761028 
L 129.745455 138.206953 
L 133.352727 139.652878 
L 136.96 141.098802 
L 140.567273 142.544727 
L 144.174545 143.990652 
L 147.781818 145.436577 
L 151.389091 146.882502 
L 154.996364 148.328427 
L 158.603636 149.774351 
L 162.210909 151.220276 
L 165.818182 152.666201 
L 169.425455 154.112126 
L 173.032727 155.558051 
L 176.64 157.003975 
L 180.247273 158.4499 
L 183.854545 159.895825 
L 187.461818 161.34175 
L 191.069091 162.787675 
L 194.676364 164.233599 
L 198.283636 165.679524 
L 201.890909 167.125449 
L 205.498182 168.571374 
L 209.105455 170.017299 
L 212.712727 171.463224 
L 216.32 172.909148 
L 219.927273 174.355073 
L 223.534545 175.800998 
L 227.141818 177.246923 
L 230.749091 178.692848 
L 234.356364 180.138772 
L 237.963636 181.584697 
L 241.570909 183.030622 
L 245.178182 184.476547 
L 248.785455 185.922472 
L 252.392727 187.368396 
L 256 188.814321 
L 259.607273 190.260246 
L 263.214545 191.706171 
L 266.821818 193.152096 
L 270.429091 194.598021 
L 274.036364 196.043945 
L 277.643636 197.48987 
L 281.250909 198.935795 
L 284.858182 200.38172 
L 288.465455 201.827645 
L 292.072727 203.273569 
L 295.68 204.719494 
L 299.287273 206.165419 
L 302.894545 207.611344 
L 306.501818 209.057269 
L 310.109091 210.503193 
L 313.716364 211.949118 
L 317.323636 213.395043 
L 320.930909 214.840968 
L 324.538182 216.286893 
L 328.145455 217.732818 
L 331.752727 219.178742 
L 335.36 220.624667 
L 338.967273 222.070592 
L 342.574545 223.516517 
L 346.181818 224.962442 
L 349.789091 226.408366 
L 353.396364 227.854291 
L 357.003636 229.300216 
L 360.610909 230.746141 
L 364.218182 232.192066 
L 367.825455 233.63799 
L 371.432727 235.083915 
L 375.04 236.52984 
L 378.647273 237.975765 
L 382.254545 239.42169 
L 385.861818 240.867615 
L 389.469091 242.313539 
L 393.076364 243.759464 
L 396.683636 245.205389 
L 400.290909 246.651314 
L 403.898182 248.097239 
L 407.505455 249.543163 
L 411.112727 250.989088 
L 414.72 252.435013 
" clip-path="url(#p726fd91e88)" style="fill: none; stroke: #ff0000; stroke-width: 1.5; stroke-linecap: square"/>
   </g>
   <g id="line2d_27">
    <path d="M 57.6 77.769677 
L 61.207273 83.629145 
L 64.814545 89.244086 
L 68.421818 94.619764 
L 72.029091 99.761445 
L 75.636364 104.674396 
L 79.243636 109.363881 
L 82.850909 113.835167 
L 86.458182 118.093519 
L 90.065455 122.144203 
L 93.672727 125.992485 
L 97.28 129.64363 
L 100.887273 133.102905 
L 104.494545 136.375574 
L 108.101818 139.466905 
L 111.709091 142.382162 
L 115.316364 145.126611 
L 118.923636 147.705519 
L 122.530909 150.12415 
L 126.138182 152.387771 
L 129.745455 154.501647 
L 133.352727 156.471044 
L 136.96 158.301228 
L 140.567273 159.997464 
L 144.174545 161.565019 
L 147.781818 163.009157 
L 151.389091 164.335146 
L 154.996364 165.548249 
L 158.603636 166.653735 
L 162.210909 167.656867 
L 165.818182 168.562912 
L 169.425455 169.377135 
L 173.032727 170.104803 
L 176.64 170.751181 
L 180.247273 171.321534 
L 183.854545 171.821129 
L 187.461818 172.255232 
L 191.069091 172.629107 
L 194.676364 172.948021 
L 198.283636 173.217239 
L 201.890909 173.442028 
L 205.498182 173.627653 
L 209.105455 173.779379 
L 212.712727 173.902473 
L 216.32 174.002201 
L 219.927273 174.083827 
L 223.534545 174.152618 
L 227.141818 174.213839 
L 230.749091 174.272757 
L 234.356364 174.334637 
L 237.963636 174.404744 
L 241.570909 174.488345 
L 245.178182 174.590705 
L 248.785455 174.71709 
L 252.392727 174.872766 
L 256 175.062998 
L 259.607273 175.293053 
L 263.214545 175.568195 
L 266.821818 175.893691 
L 270.429091 176.274807 
L 274.036364 176.716808 
L 277.643636 177.22496 
L 281.250909 177.804528 
L 284.858182 178.460779 
L 288.465455 179.198979 
L 292.072727 180.024392 
L 295.68 180.942285 
L 299.287273 181.957923 
L 302.894545 183.076573 
L 306.501818 184.303499 
L 310.109091 185.643968 
L 313.716364 187.103246 
L 317.323636 188.686598 
L 320.930909 190.39929 
L 324.538182 192.246587 
L 328.145455 194.233756 
L 331.752727 196.366062 
L 335.36 198.648771 
L 338.967273 201.087149 
L 342.574545 203.686461 
L 346.181818 206.451974 
L 349.789091 209.388952 
L 353.396364 212.502662 
L 357.003636 215.798369 
L 360.610909 219.28134 
L 364.218182 222.956839 
L 367.825455 226.830134 
L 371.432727 230.906488 
L 375.04 235.191169 
L 378.647273 239.689442 
L 382.254545 244.406572 
L 385.861818 249.347826 
L 389.469091 254.518469 
L 393.076364 259.923767 
L 396.683636 265.568985 
L 400.290909 271.45939 
L 403.898182 277.600247 
L 407.505455 283.996822 
L 411.112727 290.654381 
L 414.72 297.578189 
" clip-path="url(#p726fd91e88)" style="fill: none; stroke: #008000; stroke-width: 1.5; stroke-linecap: square"/>
   </g>
   <g id="line2d_28">
    <path d="M 57.6 121.379337 
L 61.207273 122.479281 
L 64.814545 123.579225 
L 68.421818 124.679169 
L 72.029091 125.779113 
L 75.636364 126.879057 
L 79.243636 127.979001 
L 82.850909 129.078945 
L 86.458182 130.178889 
L 90.065455 131.278833 
L 93.672727 132.378777 
L 97.28 133.478721 
L 100.887273 134.578665 
L 104.494545 135.678609 
L 108.101818 136.778553 
L 111.709091 137.878497 
L 115.316364 138.978441 
L 118.923636 140.078385 
L 122.530909 141.178329 
L 126.138182 142.278273 
L 129.745455 143.378217 
L 133.352727 144.478161 
L 136.96 145.578105 
L 140.567273 146.678049 
L 144.174545 147.777993 
L 147.781818 148.877937 
L 151.389091 149.977881 
L 154.996364 151.077825 
L 158.603636 152.177769 
L 162.210909 153.277713 
L 165.818182 154.377657 
L 169.425455 155.477601 
L 173.032727 156.577545 
L 176.64 157.677489 
L 180.247273 158.777433 
L 183.854545 159.877377 
L 187.461818 160.977321 
L 191.069091 162.077265 
L 194.676364 163.177209 
L 198.283636 164.277153 
L 201.890909 165.377097 
L 205.498182 166.47704 
L 209.105455 167.576984 
L 212.712727 168.676928 
L 216.32 169.776872 
L 219.927273 170.876816 
L 223.534545 171.97676 
L 227.141818 173.076704 
L 230.749091 174.176648 
L 234.356364 175.276592 
L 237.963636 176.376536 
L 241.570909 177.47648 
L 245.178182 178.576424 
L 248.785455 179.676368 
L 252.392727 180.776312 
L 256 181.876256 
L 259.607273 182.9762 
L 263.214545 184.076144 
L 266.821818 185.176088 
L 270.429091 186.276032 
L 274.036364 187.375976 
L 277.643636 188.47592 
L 281.250909 189.575864 
L 284.858182 190.675808 
L 288.465455 191.775752 
L 292.072727 192.875696 
L 295.68 193.97564 
L 299.287273 195.075584 
L 302.894545 196.175528 
L 306.501818 197.275472 
L 310.109091 198.375416 
L 313.716364 199.47536 
L 317.323636 200.575304 
L 320.930909 201.675248 
L 324.538182 202.775192 
L 328.145455 203.875136 
L 331.752727 204.97508 
L 335.36 206.075024 
L 338.967273 207.174968 
L 342.574545 208.274912 
L 346.181818 209.374856 
L 349.789091 210.4748 
L 353.396364 211.574744 
L 357.003636 212.674688 
L 360.610909 213.774632 
L 364.218182 214.874575 
L 367.825455 215.974519 
L 371.432727 217.074463 
L 375.04 218.174407 
L 378.647273 219.274351 
L 382.254545 220.374295 
L 385.861818 221.474239 
L 389.469091 222.574183 
L 393.076364 223.674127 
L 396.683636 224.774071 
L 400.290909 225.874015 
L 403.898182 226.973959 
L 407.505455 228.073903 
L 411.112727 229.173847 
L 414.72 230.273791 
" clip-path="url(#p726fd91e88)" style="fill: none; stroke: #ff0000; stroke-width: 1.5; stroke-linecap: square"/>
   </g>
   <g id="line2d_29">
    <path d="M 57.6 77.769677 
L 61.207273 83.629145 
L 64.814545 89.244086 
L 68.421818 94.619764 
L 72.029091 99.761445 
L 75.636364 104.674396 
L 79.243636 109.363881 
L 82.850909 113.835167 
L 86.458182 118.093519 
L 90.065455 122.144203 
L 93.672727 125.992485 
L 97.28 129.64363 
L 100.887273 133.102905 
L 104.494545 136.375574 
L 108.101818 139.466905 
L 111.709091 142.382162 
L 115.316364 145.126611 
L 118.923636 147.705519 
L 122.530909 150.12415 
L 126.138182 152.387771 
L 129.745455 154.501647 
L 133.352727 156.471044 
L 136.96 158.301228 
L 140.567273 159.997464 
L 144.174545 161.565019 
L 147.781818 163.009157 
L 151.389091 164.335146 
L 154.996364 165.548249 
L 158.603636 166.653735 
L 162.210909 167.656867 
L 165.818182 168.562912 
L 169.425455 169.377135 
L 173.032727 170.104803 
L 176.64 170.751181 
L 180.247273 171.321534 
L 183.854545 171.821129 
L 187.461818 172.255232 
L 191.069091 172.629107 
L 194.676364 172.948021 
L 198.283636 173.217239 
L 201.890909 173.442028 
L 205.498182 173.627653 
L 209.105455 173.779379 
L 212.712727 173.902473 
L 216.32 174.002201 
L 219.927273 174.083827 
L 223.534545 174.152618 
L 227.141818 174.213839 
L 230.749091 174.272757 
L 234.356364 174.334637 
L 237.963636 174.404744 
L 241.570909 174.488345 
L 245.178182 174.590705 
L 248.785455 174.71709 
L 252.392727 174.872766 
L 256 175.062998 
L 259.607273 175.293053 
L 263.214545 175.568195 
L 266.821818 175.893691 
L 270.429091 176.274807 
L 274.036364 176.716808 
L 277.643636 177.22496 
L 281.250909 177.804528 
L 284.858182 178.460779 
L 288.465455 179.198979 
L 292.072727 180.024392 
L 295.68 180.942285 
L 299.287273 181.957923 
L 302.894545 183.076573 
L 306.501818 184.303499 
L 310.109091 185.643968 
L 313.716364 187.103246 
L 317.323636 188.686598 
L 320.930909 190.39929 
L 324.538182 192.246587 
L 328.145455 194.233756 
L 331.752727 196.366062 
L 335.36 198.648771 
L 338.967273 201.087149 
L 342.574545 203.686461 
L 346.181818 206.451974 
L 349.789091 209.388952 
L 353.396364 212.502662 
L 357.003636 215.798369 
L 360.610909 219.28134 
L 364.218182 222.956839 
L 367.825455 226.830134 
L 371.432727 230.906488 
L 375.04 235.191169 
L 378.647273 239.689442 
L 382.254545 244.406572 
L 385.861818 249.347826 
L 389.469091 254.518469 
L 393.076364 259.923767 
L 396.683636 265.568985 
L 400.290909 271.45939 
L 403.898182 277.600247 
L 407.505455 283.996822 
L 411.112727 290.654381 
L 414.72 297.578189 
" clip-path="url(#p726fd91e88)" style="fill: none; stroke: #008000; stroke-width: 1.5; stroke-linecap: square"/>
   </g>
   <g id="line2d_30">
    <path d="M 57.6 112.594461 
L 61.207273 113.753045 
L 64.814545 114.911629 
L 68.421818 116.070213 
L 72.029091 117.228796 
L 75.636364 118.38738 
L 79.243636 119.545964 
L 82.850909 120.704548 
L 86.458182 121.863131 
L 90.065455 123.021715 
L 93.672727 124.180299 
L 97.28 125.338883 
L 100.887273 126.497466 
L 104.494545 127.65605 
L 108.101818 128.814634 
L 111.709091 129.973217 
L 115.316364 131.131801 
L 118.923636 132.290385 
L 122.530909 133.448969 
L 126.138182 134.607552 
L 129.745455 135.766136 
L 133.352727 136.92472 
L 136.96 138.083304 
L 140.567273 139.241887 
L 144.174545 140.400471 
L 147.781818 141.559055 
L 151.389091 142.717639 
L 154.996364 143.876222 
L 158.603636 145.034806 
L 162.210909 146.19339 
L 165.818182 147.351974 
L 169.425455 148.510557 
L 173.032727 149.669141 
L 176.64 150.827725 
L 180.247273 151.986308 
L 183.854545 153.144892 
L 187.461818 154.303476 
L 191.069091 155.46206 
L 194.676364 156.620643 
L 198.283636 157.779227 
L 201.890909 158.937811 
L 205.498182 160.096395 
L 209.105455 161.254978 
L 212.712727 162.413562 
L 216.32 163.572146 
L 219.927273 164.73073 
L 223.534545 165.889313 
L 227.141818 167.047897 
L 230.749091 168.206481 
L 234.356364 169.365065 
L 237.963636 170.523648 
L 241.570909 171.682232 
L 245.178182 172.840816 
L 248.785455 173.999399 
L 252.392727 175.157983 
L 256 176.316567 
L 259.607273 177.475151 
L 263.214545 178.633734 
L 266.821818 179.792318 
L 270.429091 180.950902 
L 274.036364 182.109486 
L 277.643636 183.268069 
L 281.250909 184.426653 
L 284.858182 185.585237 
L 288.465455 186.743821 
L 292.072727 187.902404 
L 295.68 189.060988 
L 299.287273 190.219572 
L 302.894545 191.378156 
L 306.501818 192.536739 
L 310.109091 193.695323 
L 313.716364 194.853907 
L 317.323636 196.01249 
L 320.930909 197.171074 
L 324.538182 198.329658 
L 328.145455 199.488242 
L 331.752727 200.646825 
L 335.36 201.805409 
L 338.967273 202.963993 
L 342.574545 204.122577 
L 346.181818 205.28116 
L 349.789091 206.439744 
L 353.396364 207.598328 
L 357.003636 208.756912 
L 360.610909 209.915495 
L 364.218182 211.074079 
L 367.825455 212.232663 
L 371.432727 213.391247 
L 375.04 214.54983 
L 378.647273 215.708414 
L 382.254545 216.866998 
L 385.861818 218.025581 
L 389.469091 219.184165 
L 393.076364 220.342749 
L 396.683636 221.501333 
L 400.290909 222.659916 
L 403.898182 223.8185 
L 407.505455 224.977084 
L 411.112727 226.135668 
L 414.72 227.294251 
" clip-path="url(#p726fd91e88)" style="fill: none; stroke: #ff0000; stroke-width: 1.5; stroke-linecap: square"/>
   </g>
   <g id="line2d_31">
    <path d="M 57.6 77.769677 
L 61.207273 83.629145 
L 64.814545 89.244086 
L 68.421818 94.619764 
L 72.029091 99.761445 
L 75.636364 104.674396 
L 79.243636 109.363881 
L 82.850909 113.835167 
L 86.458182 118.093519 
L 90.065455 122.144203 
L 93.672727 125.992485 
L 97.28 129.64363 
L 100.887273 133.102905 
L 104.494545 136.375574 
L 108.101818 139.466905 
L 111.709091 142.382162 
L 115.316364 145.126611 
L 118.923636 147.705519 
L 122.530909 150.12415 
L 126.138182 152.387771 
L 129.745455 154.501647 
L 133.352727 156.471044 
L 136.96 158.301228 
L 140.567273 159.997464 
L 144.174545 161.565019 
L 147.781818 163.009157 
L 151.389091 164.335146 
L 154.996364 165.548249 
L 158.603636 166.653735 
L 162.210909 167.656867 
L 165.818182 168.562912 
L 169.425455 169.377135 
L 173.032727 170.104803 
L 176.64 170.751181 
L 180.247273 171.321534 
L 183.854545 171.821129 
L 187.461818 172.255232 
L 191.069091 172.629107 
L 194.676364 172.948021 
L 198.283636 173.217239 
L 201.890909 173.442028 
L 205.498182 173.627653 
L 209.105455 173.779379 
L 212.712727 173.902473 
L 216.32 174.002201 
L 219.927273 174.083827 
L 223.534545 174.152618 
L 227.141818 174.213839 
L 230.749091 174.272757 
L 234.356364 174.334637 
L 237.963636 174.404744 
L 241.570909 174.488345 
L 245.178182 174.590705 
L 248.785455 174.71709 
L 252.392727 174.872766 
L 256 175.062998 
L 259.607273 175.293053 
L 263.214545 175.568195 
L 266.821818 175.893691 
L 270.429091 176.274807 
L 274.036364 176.716808 
L 277.643636 177.22496 
L 281.250909 177.804528 
L 284.858182 178.460779 
L 288.465455 179.198979 
L 292.072727 180.024392 
L 295.68 180.942285 
L 299.287273 181.957923 
L 302.894545 183.076573 
L 306.501818 184.303499 
L 310.109091 185.643968 
L 313.716364 187.103246 
L 317.323636 188.686598 
L 320.930909 190.39929 
L 324.538182 192.246587 
L 328.145455 194.233756 
L 331.752727 196.366062 
L 335.36 198.648771 
L 338.967273 201.087149 
L 342.574545 203.686461 
L 346.181818 206.451974 
L 349.789091 209.388952 
L 353.396364 212.502662 
L 357.003636 215.798369 
L 360.610909 219.28134 
L 364.218182 222.956839 
L 367.825455 226.830134 
L 371.432727 230.906488 
L 375.04 235.191169 
L 378.647273 239.689442 
L 382.254545 244.406572 
L 385.861818 249.347826 
L 389.469091 254.518469 
L 393.076364 259.923767 
L 396.683636 265.568985 
L 400.290909 271.45939 
L 403.898182 277.600247 
L 407.505455 283.996822 
L 411.112727 290.654381 
L 414.72 297.578189 
" clip-path="url(#p726fd91e88)" style="fill: none; stroke: #008000; stroke-width: 1.5; stroke-linecap: square"/>
   </g>
   <g id="line2d_32">
    <path d="M 57.6 126.393956 
L 61.207273 127.497487 
L 64.814545 128.601017 
L 68.421818 129.704548 
L 72.029091 130.808078 
L 75.636364 131.911609 
L 79.243636 133.01514 
L 82.850909 134.11867 
L 86.458182 135.222201 
L 90.065455 136.325731 
L 93.672727 137.429262 
L 97.28 138.532793 
L 100.887273 139.636323 
L 104.494545 140.739854 
L 108.101818 141.843384 
L 111.709091 142.946915 
L 115.316364 144.050446 
L 118.923636 145.153976 
L 122.530909 146.257507 
L 126.138182 147.361037 
L 129.745455 148.464568 
L 133.352727 149.568099 
L 136.96 150.671629 
L 140.567273 151.77516 
L 144.174545 152.87869 
L 147.781818 153.982221 
L 151.389091 155.085751 
L 154.996364 156.189282 
L 158.603636 157.292813 
L 162.210909 158.396343 
L 165.818182 159.499874 
L 169.425455 160.603404 
L 173.032727 161.706935 
L 176.64 162.810466 
L 180.247273 163.913996 
L 183.854545 165.017527 
L 187.461818 166.121057 
L 191.069091 167.224588 
L 194.676364 168.328119 
L 198.283636 169.431649 
L 201.890909 170.53518 
L 205.498182 171.63871 
L 209.105455 172.742241 
L 212.712727 173.845772 
L 216.32 174.949302 
L 219.927273 176.052833 
L 223.534545 177.156363 
L 227.141818 178.259894 
L 230.749091 179.363425 
L 234.356364 180.466955 
L 237.963636 181.570486 
L 241.570909 182.674016 
L 245.178182 183.777547 
L 248.785455 184.881078 
L 252.392727 185.984608 
L 256 187.088139 
L 259.607273 188.191669 
L 263.214545 189.2952 
L 266.821818 190.398731 
L 270.429091 191.502261 
L 274.036364 192.605792 
L 277.643636 193.709322 
L 281.250909 194.812853 
L 284.858182 195.916384 
L 288.465455 197.019914 
L 292.072727 198.123445 
L 295.68 199.226975 
L 299.287273 200.330506 
L 302.894545 201.434036 
L 306.501818 202.537567 
L 310.109091 203.641098 
L 313.716364 204.744628 
L 317.323636 205.848159 
L 320.930909 206.951689 
L 324.538182 208.05522 
L 328.145455 209.158751 
L 331.752727 210.262281 
L 335.36 211.365812 
L 338.967273 212.469342 
L 342.574545 213.572873 
L 346.181818 214.676404 
L 349.789091 215.779934 
L 353.396364 216.883465 
L 357.003636 217.986995 
L 360.610909 219.090526 
L 364.218182 220.194057 
L 367.825455 221.297587 
L 371.432727 222.401118 
L 375.04 223.504648 
L 378.647273 224.608179 
L 382.254545 225.71171 
L 385.861818 226.81524 
L 389.469091 227.918771 
L 393.076364 229.022301 
L 396.683636 230.125832 
L 400.290909 231.229363 
L 403.898182 232.332893 
L 407.505455 233.436424 
L 411.112727 234.539954 
L 414.72 235.643485 
" clip-path="url(#p726fd91e88)" style="fill: none; stroke: #ff0000; stroke-width: 1.5; stroke-linecap: square"/>
   </g>
   <g id="line2d_33">
    <path d="M 57.6 77.769677 
L 61.207273 83.629145 
L 64.814545 89.244086 
L 68.421818 94.619764 
L 72.029091 99.761445 
L 75.636364 104.674396 
L 79.243636 109.363881 
L 82.850909 113.835167 
L 86.458182 118.093519 
L 90.065455 122.144203 
L 93.672727 125.992485 
L 97.28 129.64363 
L 100.887273 133.102905 
L 104.494545 136.375574 
L 108.101818 139.466905 
L 111.709091 142.382162 
L 115.316364 145.126611 
L 118.923636 147.705519 
L 122.530909 150.12415 
L 126.138182 152.387771 
L 129.745455 154.501647 
L 133.352727 156.471044 
L 136.96 158.301228 
L 140.567273 159.997464 
L 144.174545 161.565019 
L 147.781818 163.009157 
L 151.389091 164.335146 
L 154.996364 165.548249 
L 158.603636 166.653735 
L 162.210909 167.656867 
L 165.818182 168.562912 
L 169.425455 169.377135 
L 173.032727 170.104803 
L 176.64 170.751181 
L 180.247273 171.321534 
L 183.854545 171.821129 
L 187.461818 172.255232 
L 191.069091 172.629107 
L 194.676364 172.948021 
L 198.283636 173.217239 
L 201.890909 173.442028 
L 205.498182 173.627653 
L 209.105455 173.779379 
L 212.712727 173.902473 
L 216.32 174.002201 
L 219.927273 174.083827 
L 223.534545 174.152618 
L 227.141818 174.213839 
L 230.749091 174.272757 
L 234.356364 174.334637 
L 237.963636 174.404744 
L 241.570909 174.488345 
L 245.178182 174.590705 
L 248.785455 174.71709 
L 252.392727 174.872766 
L 256 175.062998 
L 259.607273 175.293053 
L 263.214545 175.568195 
L 266.821818 175.893691 
L 270.429091 176.274807 
L 274.036364 176.716808 
L 277.643636 177.22496 
L 281.250909 177.804528 
L 284.858182 178.460779 
L 288.465455 179.198979 
L 292.072727 180.024392 
L 295.68 180.942285 
L 299.287273 181.957923 
L 302.894545 183.076573 
L 306.501818 184.303499 
L 310.109091 185.643968 
L 313.716364 187.103246 
L 317.323636 188.686598 
L 320.930909 190.39929 
L 324.538182 192.246587 
L 328.145455 194.233756 
L 331.752727 196.366062 
L 335.36 198.648771 
L 338.967273 201.087149 
L 342.574545 203.686461 
L 346.181818 206.451974 
L 349.789091 209.388952 
L 353.396364 212.502662 
L 357.003636 215.798369 
L 360.610909 219.28134 
L 364.218182 222.956839 
L 367.825455 226.830134 
L 371.432727 230.906488 
L 375.04 235.191169 
L 378.647273 239.689442 
L 382.254545 244.406572 
L 385.861818 249.347826 
L 389.469091 254.518469 
L 393.076364 259.923767 
L 396.683636 265.568985 
L 400.290909 271.45939 
L 403.898182 277.600247 
L 407.505455 283.996822 
L 411.112727 290.654381 
L 414.72 297.578189 
" clip-path="url(#p726fd91e88)" style="fill: none; stroke: #008000; stroke-width: 1.5; stroke-linecap: square"/>
   </g>
   <g id="line2d_34">
    <path d="M 57.6 129.042746 
L 61.207273 129.940179 
L 64.814545 130.837612 
L 68.421818 131.735045 
L 72.029091 132.632478 
L 75.636364 133.529911 
L 79.243636 134.427344 
L 82.850909 135.324777 
L 86.458182 136.22221 
L 90.065455 137.119643 
L 93.672727 138.017076 
L 97.28 138.914509 
L 100.887273 139.811942 
L 104.494545 140.709375 
L 108.101818 141.606808 
L 111.709091 142.504241 
L 115.316364 143.401674 
L 118.923636 144.299107 
L 122.530909 145.19654 
L 126.138182 146.093973 
L 129.745455 146.991406 
L 133.352727 147.888839 
L 136.96 148.786271 
L 140.567273 149.683704 
L 144.174545 150.581137 
L 147.781818 151.47857 
L 151.389091 152.376003 
L 154.996364 153.273436 
L 158.603636 154.170869 
L 162.210909 155.068302 
L 165.818182 155.965735 
L 169.425455 156.863168 
L 173.032727 157.760601 
L 176.64 158.658034 
L 180.247273 159.555467 
L 183.854545 160.4529 
L 187.461818 161.350333 
L 191.069091 162.247766 
L 194.676364 163.145199 
L 198.283636 164.042632 
L 201.890909 164.940065 
L 205.498182 165.837498 
L 209.105455 166.734931 
L 212.712727 167.632364 
L 216.32 168.529797 
L 219.927273 169.42723 
L 223.534545 170.324662 
L 227.141818 171.222095 
L 230.749091 172.119528 
L 234.356364 173.016961 
L 237.963636 173.914394 
L 241.570909 174.811827 
L 245.178182 175.70926 
L 248.785455 176.606693 
L 252.392727 177.504126 
L 256 178.401559 
L 259.607273 179.298992 
L 263.214545 180.196425 
L 266.821818 181.093858 
L 270.429091 181.991291 
L 274.036364 182.888724 
L 277.643636 183.786157 
L 281.250909 184.68359 
L 284.858182 185.581023 
L 288.465455 186.478456 
L 292.072727 187.375889 
L 295.68 188.273322 
L 299.287273 189.170755 
L 302.894545 190.068188 
L 306.501818 190.965621 
L 310.109091 191.863054 
L 313.716364 192.760486 
L 317.323636 193.657919 
L 320.930909 194.555352 
L 324.538182 195.452785 
L 328.145455 196.350218 
L 331.752727 197.247651 
L 335.36 198.145084 
L 338.967273 199.042517 
L 342.574545 199.93995 
L 346.181818 200.837383 
L 349.789091 201.734816 
L 353.396364 202.632249 
L 357.003636 203.529682 
L 360.610909 204.427115 
L 364.218182 205.324548 
L 367.825455 206.221981 
L 371.432727 207.119414 
L 375.04 208.016847 
L 378.647273 208.91428 
L 382.254545 209.811713 
L 385.861818 210.709146 
L 389.469091 211.606579 
L 393.076364 212.504012 
L 396.683636 213.401445 
L 400.290909 214.298877 
L 403.898182 215.19631 
L 407.505455 216.093743 
L 411.112727 216.991176 
L 414.72 217.888609 
" clip-path="url(#p726fd91e88)" style="fill: none; stroke: #ff0000; stroke-width: 1.5; stroke-linecap: square"/>
   </g>
   <g id="patch_3">
    <path d="M 57.6 307.584 
L 57.6 41.472 
" style="fill: none; stroke: #000000; stroke-width: 0.8; stroke-linejoin: miter; stroke-linecap: square"/>
   </g>
   <g id="patch_4">
    <path d="M 414.72 307.584 
L 414.72 41.472 
" style="fill: none; stroke: #000000; stroke-width: 0.8; stroke-linejoin: miter; stroke-linecap: square"/>
   </g>
   <g id="patch_5">
    <path d="M 57.6 307.584 
L 414.72 307.584 
" style="fill: none; stroke: #000000; stroke-width: 0.8; stroke-linejoin: miter; stroke-linecap: square"/>
   </g>
   <g id="patch_6">
    <path d="M 57.6 41.472 
L 414.72 41.472 
" style="fill: none; stroke: #000000; stroke-width: 0.8; stroke-linejoin: miter; stroke-linecap: square"/>
   </g>
  </g>
 </g>
 <defs>
  <clipPath id="p726fd91e88">
   <rect x="57.6" y="41.472" width="357.12" height="266.112"/>
  </clipPath>
 </defs>
</svg>
