<?xml version="1.0" encoding="utf-8" standalone="no"?>
<!DOCTYPE svg PUBLIC "-//W3C//DTD SVG 1.1//EN"
  "http://www.w3.org/Graphics/SVG/1.1/DTD/svg11.dtd">
<svg xmlns:xlink="http://www.w3.org/1999/xlink" width="648pt" height="576pt" viewBox="0 0 648 576" xmlns="http://www.w3.org/2000/svg" version="1.1">
 <metadata>
  <rdf:RDF xmlns:dc="http://purl.org/dc/elements/1.1/" xmlns:cc="http://creativecommons.org/ns#" xmlns:rdf="http://www.w3.org/1999/02/22-rdf-syntax-ns#">
   <cc:Work>
    <dc:type rdf:resource="http://purl.org/dc/dcmitype/StillImage"/>
    <dc:date>2026-04-06T12:44:29.402435</dc:date>
    <dc:format>image/svg+xml</dc:format>
    <dc:creator>
     <cc:Agent>
      <dc:title>Matplotlib v3.10.0, https://matplotlib.org/</dc:title>
     </cc:Agent>
    </dc:creator>
   </cc:Work>
  </rdf:RDF>
 </metadata>
 <defs>
  <style type="text/css">*{stroke-linejoin: round; stroke-linecap: butt}</style>
 </defs>
 <g id="figure_1">
  <g id="patch_1">
   <path d="M 0 576 
L 648 576 
L 648 0 
L 0 0 
z
" style="fill: #ffffff"/>
  </g>
  <g id="axes_1">
   <g id="patch_2">
    <path d="M 81 512.64 
L 583.2 512.64 
L 583.2 69.12 
L 81 69.12 
z
" style="fill: #ffffff"/>
   </g>
   <g id="patch_3">
    <path d="M 103.570963 512.64 
L 108.085155 512.64 
L 108.085155 489.683478 
L 103.570963 489.683478 
z
" clip-path="url(#p47fa2a32f8)" style="fill: #1f77b4; fill-opacity: 0.5; stroke: #000000; stroke-width: 0.456545; stroke-linejoin: miter"/>
   </g>
   <g id="patch_4">
    <path d="M 108.085155 512.64 
L 112.599348 512.64 
L 112.599348 512.64 
L 108.085155 512.64 
z
" clip-path="url(#p47fa2a32f8)" style="fill: #1f77b4; fill-opacity: 0.5; stroke: #000000; stroke-width: 0.456545; stroke-linejoin: miter"/>
   </g>
   <g id="patch_5">
    <path d="M 112.599348 512.64 
L 117.11354 512.64 
L 117.11354 489.683478 
L 112.599348 489.683478 
z
" clip-path="url(#p47fa2a32f8)" style="fill: #1f77b4; fill-opacity: 0.5; stroke: #000000; stroke-width: 0.456545; stroke-linejoin: miter"/>
   </g>
   <g id="patch_6">
    <path d="M 117.11354 512.64 
L 121.627733 512.64 
L 121.627733 485.092174 
L 117.11354 485.092174 
z
" clip-path="url(#p47fa2a32f8)" style="fill: #1f77b4; fill-opacity: 0.5; stroke: #000000; stroke-width: 0.456545; stroke-linejoin: miter"/>
   </g>
   <g id="patch_7">
    <path d="M 121.627733 512.64 
L 126.141925 512.64 
L 126.141925 485.092174 
L 121.627733 485.092174 
z
" clip-path="url(#p47fa2a32f8)" style="fill: #1f77b4; fill-opacity: 0.5; stroke: #000000; stroke-width: 0.456545; stroke-linejoin: miter"/>
   </g>
   <g id="patch_8">
    <path d="M 126.141925 512.64 
L 130.656118 512.64 
L 130.656118 480.50087 
L 126.141925 480.50087 
z
" clip-path="url(#p47fa2a32f8)" style="fill: #1f77b4; fill-opacity: 0.5; stroke: #000000; stroke-width: 0.456545; stroke-linejoin: miter"/>
   </g>
   <g id="patch_9">
    <path d="M 130.656118 512.64 
L 135.17031 512.64 
L 135.17031 365.718261 
L 130.656118 365.718261 
z
" clip-path="url(#p47fa2a32f8)" style="fill: #1f77b4; fill-opacity: 0.5; stroke: #000000; stroke-width: 0.456545; stroke-linejoin: miter"/>
   </g>
   <g id="patch_10">
    <path d="M 135.17031 512.64 
L 139.684503 512.64 
L 139.684503 379.492174 
L 135.17031 379.492174 
z
" clip-path="url(#p47fa2a32f8)" style="fill: #1f77b4; fill-opacity: 0.5; stroke: #000000; stroke-width: 0.456545; stroke-linejoin: miter"/>
   </g>
   <g id="patch_11">
    <path d="M 139.684503 512.64 
L 144.198695 512.64 
L 144.198695 407.04 
L 139.684503 407.04 
z
" clip-path="url(#p47fa2a32f8)" style="fill: #1f77b4; fill-opacity: 0.5; stroke: #000000; stroke-width: 0.456545; stroke-linejoin: miter"/>
   </g>
   <g id="patch_12">
    <path d="M 144.198695 512.64 
L 148.712888 512.64 
L 148.712888 351.944348 
L 144.198695 351.944348 
z
" clip-path="url(#p47fa2a32f8)" style="fill: #1f77b4; fill-opacity: 0.5; stroke: #000000; stroke-width: 0.456545; stroke-linejoin: miter"/>
   </g>
   <g id="patch_13">
    <path d="M 148.712888 512.64 
L 153.22708 512.64 
L 153.22708 241.753043 
L 148.712888 241.753043 
z
" clip-path="url(#p47fa2a32f8)" style="fill: #1f77b4; fill-opacity: 0.5; stroke: #000000; stroke-width: 0.456545; stroke-linejoin: miter"/>
   </g>
   <g id="patch_14">
    <path d="M 153.22708 512.64 
L 157.741273 512.64 
L 157.741273 205.022609 
L 153.22708 205.022609 
z
" clip-path="url(#p47fa2a32f8)" style="fill: #1f77b4; fill-opacity: 0.5; stroke: #000000; stroke-width: 0.456545; stroke-linejoin: miter"/>
   </g>
   <g id="patch_15">
    <path d="M 157.741273 512.64 
L 162.255465 512.64 
L 162.255465 177.474783 
L 157.741273 177.474783 
z
" clip-path="url(#p47fa2a32f8)" style="fill: #1f77b4; fill-opacity: 0.5; stroke: #000000; stroke-width: 0.456545; stroke-linejoin: miter"/>
   </g>
   <g id="patch_16">
    <path d="M 162.255465 512.64 
L 166.769658 512.64 
L 166.769658 90.24 
L 162.255465 90.24 
z
" clip-path="url(#p47fa2a32f8)" style="fill: #1f77b4; fill-opacity: 0.5; stroke: #000000; stroke-width: 0.456545; stroke-linejoin: miter"/>
   </g>
   <g id="patch_17">
    <path d="M 166.769658 512.64 
L 171.28385 512.64 
L 171.28385 104.013913 
L 166.769658 104.013913 
z
" clip-path="url(#p47fa2a32f8)" style="fill: #1f77b4; fill-opacity: 0.5; stroke: #000000; stroke-width: 0.456545; stroke-linejoin: miter"/>
   </g>
   <g id="patch_18">
    <path d="M 171.28385 512.64 
L 175.798043 512.64 
L 175.798043 94.831304 
L 171.28385 94.831304 
z
" clip-path="url(#p47fa2a32f8)" style="fill: #1f77b4; fill-opacity: 0.5; stroke: #000000; stroke-width: 0.456545; stroke-linejoin: miter"/>
   </g>
   <g id="patch_19">
    <path d="M 175.798043 512.64 
L 180.312235 512.64 
L 180.312235 227.97913 
L 175.798043 227.97913 
z
" clip-path="url(#p47fa2a32f8)" style="fill: #1f77b4; fill-opacity: 0.5; stroke: #000000; stroke-width: 0.456545; stroke-linejoin: miter"/>
   </g>
   <g id="patch_20">
    <path d="M 180.312235 512.64 
L 184.826428 512.64 
L 184.826428 237.161739 
L 180.312235 237.161739 
z
" clip-path="url(#p47fa2a32f8)" style="fill: #1f77b4; fill-opacity: 0.5; stroke: #000000; stroke-width: 0.456545; stroke-linejoin: miter"/>
   </g>
   <g id="patch_21">
    <path d="M 184.826428 512.64 
L 189.340621 512.64 
L 189.340621 250.935652 
L 184.826428 250.935652 
z
" clip-path="url(#p47fa2a32f8)" style="fill: #1f77b4; fill-opacity: 0.5; stroke: #000000; stroke-width: 0.456545; stroke-linejoin: miter"/>
   </g>
   <g id="patch_22">
    <path d="M 189.340621 512.64 
L 193.854813 512.64 
L 193.854813 177.474783 
L 189.340621 177.474783 
z
" clip-path="url(#p47fa2a32f8)" style="fill: #1f77b4; fill-opacity: 0.5; stroke: #000000; stroke-width: 0.456545; stroke-linejoin: miter"/>
   </g>
   <g id="patch_23">
    <path d="M 193.854813 512.64 
L 198.369006 512.64 
L 198.369006 205.022609 
L 193.854813 205.022609 
z
" clip-path="url(#p47fa2a32f8)" style="fill: #1f77b4; fill-opacity: 0.5; stroke: #000000; stroke-width: 0.456545; stroke-linejoin: miter"/>
   </g>
   <g id="patch_24">
    <path d="M 198.369006 512.64 
L 202.883198 512.64 
L 202.883198 264.709565 
L 198.369006 264.709565 
z
" clip-path="url(#p47fa2a32f8)" style="fill: #1f77b4; fill-opacity: 0.5; stroke: #000000; stroke-width: 0.456545; stroke-linejoin: miter"/>
   </g>
   <g id="patch_25">
    <path d="M 202.883198 512.64 
L 207.397391 512.64 
L 207.397391 306.031304 
L 202.883198 306.031304 
z
" clip-path="url(#p47fa2a32f8)" style="fill: #1f77b4; fill-opacity: 0.5; stroke: #000000; stroke-width: 0.456545; stroke-linejoin: miter"/>
   </g>
   <g id="patch_26">
    <path d="M 207.397391 512.64 
L 211.911583 512.64 
L 211.911583 361.126957 
L 207.397391 361.126957 
z
" clip-path="url(#p47fa2a32f8)" style="fill: #1f77b4; fill-opacity: 0.5; stroke: #000000; stroke-width: 0.456545; stroke-linejoin: miter"/>
   </g>
   <g id="patch_27">
    <path d="M 211.911583 512.64 
L 216.425776 512.64 
L 216.425776 374.90087 
L 211.911583 374.90087 
z
" clip-path="url(#p47fa2a32f8)" style="fill: #1f77b4; fill-opacity: 0.5; stroke: #000000; stroke-width: 0.456545; stroke-linejoin: miter"/>
   </g>
   <g id="patch_28">
    <path d="M 216.425776 512.64 
L 220.939968 512.64 
L 220.939968 370.309565 
L 216.425776 370.309565 
z
" clip-path="url(#p47fa2a32f8)" style="fill: #1f77b4; fill-opacity: 0.5; stroke: #000000; stroke-width: 0.456545; stroke-linejoin: miter"/>
   </g>
   <g id="patch_29">
    <path d="M 220.939968 512.64 
L 225.454161 512.64 
L 225.454161 370.309565 
L 220.939968 370.309565 
z
" clip-path="url(#p47fa2a32f8)" style="fill: #1f77b4; fill-opacity: 0.5; stroke: #000000; stroke-width: 0.456545; stroke-linejoin: miter"/>
   </g>
   <g id="patch_30">
    <path d="M 225.454161 512.64 
L 229.968353 512.64 
L 229.968353 361.126957 
L 225.454161 361.126957 
z
" clip-path="url(#p47fa2a32f8)" style="fill: #1f77b4; fill-opacity: 0.5; stroke: #000000; stroke-width: 0.456545; stroke-linejoin: miter"/>
   </g>
   <g id="patch_31">
    <path d="M 229.968353 512.64 
L 234.482546 512.64 
L 234.482546 393.266087 
L 229.968353 393.266087 
z
" clip-path="url(#p47fa2a32f8)" style="fill: #1f77b4; fill-opacity: 0.5; stroke: #000000; stroke-width: 0.456545; stroke-linejoin: miter"/>
   </g>
   <g id="patch_32">
    <path d="M 234.482546 512.64 
L 238.996738 512.64 
L 238.996738 407.04 
L 234.482546 407.04 
z
" clip-path="url(#p47fa2a32f8)" style="fill: #1f77b4; fill-opacity: 0.5; stroke: #000000; stroke-width: 0.456545; stroke-linejoin: miter"/>
   </g>
   <g id="patch_33">
    <path d="M 238.996738 512.64 
L 243.510931 512.64 
L 243.510931 434.587826 
L 238.996738 434.587826 
z
" clip-path="url(#p47fa2a32f8)" style="fill: #1f77b4; fill-opacity: 0.5; stroke: #000000; stroke-width: 0.456545; stroke-linejoin: miter"/>
   </g>
   <g id="patch_34">
    <path d="M 243.510931 512.64 
L 248.025123 512.64 
L 248.025123 425.405217 
L 243.510931 425.405217 
z
" clip-path="url(#p47fa2a32f8)" style="fill: #1f77b4; fill-opacity: 0.5; stroke: #000000; stroke-width: 0.456545; stroke-linejoin: miter"/>
   </g>
   <g id="patch_35">
    <path d="M 248.025123 512.64 
L 252.539316 512.64 
L 252.539316 429.996522 
L 248.025123 429.996522 
z
" clip-path="url(#p47fa2a32f8)" style="fill: #1f77b4; fill-opacity: 0.5; stroke: #000000; stroke-width: 0.456545; stroke-linejoin: miter"/>
   </g>
   <g id="patch_36">
    <path d="M 252.539316 512.64 
L 257.053508 512.64 
L 257.053508 429.996522 
L 252.539316 429.996522 
z
" clip-path="url(#p47fa2a32f8)" style="fill: #1f77b4; fill-opacity: 0.5; stroke: #000000; stroke-width: 0.456545; stroke-linejoin: miter"/>
   </g>
   <g id="patch_37">
    <path d="M 257.053508 512.64 
L 261.567701 512.64 
L 261.567701 448.361739 
L 257.053508 448.361739 
z
" clip-path="url(#p47fa2a32f8)" style="fill: #1f77b4; fill-opacity: 0.5; stroke: #000000; stroke-width: 0.456545; stroke-linejoin: miter"/>
   </g>
   <g id="patch_38">
    <path d="M 261.567701 512.64 
L 266.081893 512.64 
L 266.081893 462.135652 
L 261.567701 462.135652 
z
" clip-path="url(#p47fa2a32f8)" style="fill: #1f77b4; fill-opacity: 0.5; stroke: #000000; stroke-width: 0.456545; stroke-linejoin: miter"/>
   </g>
   <g id="patch_39">
    <path d="M 266.081893 512.64 
L 270.596086 512.64 
L 270.596086 489.683478 
L 266.081893 489.683478 
z
" clip-path="url(#p47fa2a32f8)" style="fill: #1f77b4; fill-opacity: 0.5; stroke: #000000; stroke-width: 0.456545; stroke-linejoin: miter"/>
   </g>
   <g id="patch_40">
    <path d="M 270.596086 512.64 
L 275.110278 512.64 
L 275.110278 475.909565 
L 270.596086 475.909565 
z
" clip-path="url(#p47fa2a32f8)" style="fill: #1f77b4; fill-opacity: 0.5; stroke: #000000; stroke-width: 0.456545; stroke-linejoin: miter"/>
   </g>
   <g id="patch_41">
    <path d="M 275.110278 512.64 
L 279.624471 512.64 
L 279.624471 452.953043 
L 275.110278 452.953043 
z
" clip-path="url(#p47fa2a32f8)" style="fill: #1f77b4; fill-opacity: 0.5; stroke: #000000; stroke-width: 0.456545; stroke-linejoin: miter"/>
   </g>
   <g id="patch_42">
    <path d="M 279.624471 512.64 
L 284.138663 512.64 
L 284.138663 457.544348 
L 279.624471 457.544348 
z
" clip-path="url(#p47fa2a32f8)" style="fill: #1f77b4; fill-opacity: 0.5; stroke: #000000; stroke-width: 0.456545; stroke-linejoin: miter"/>
   </g>
   <g id="patch_43">
    <path d="M 284.138663 512.64 
L 288.652856 512.64 
L 288.652856 466.726957 
L 284.138663 466.726957 
z
" clip-path="url(#p47fa2a32f8)" style="fill: #1f77b4; fill-opacity: 0.5; stroke: #000000; stroke-width: 0.456545; stroke-linejoin: miter"/>
   </g>
   <g id="patch_44">
    <path d="M 288.652856 512.64 
L 293.167049 512.64 
L 293.167049 485.092174 
L 288.652856 485.092174 
z
" clip-path="url(#p47fa2a32f8)" style="fill: #1f77b4; fill-opacity: 0.5; stroke: #000000; stroke-width: 0.456545; stroke-linejoin: miter"/>
   </g>
   <g id="patch_45">
    <path d="M 293.167049 512.64 
L 297.681241 512.64 
L 297.681241 485.092174 
L 293.167049 485.092174 
z
" clip-path="url(#p47fa2a32f8)" style="fill: #1f77b4; fill-opacity: 0.5; stroke: #000000; stroke-width: 0.456545; stroke-linejoin: miter"/>
   </g>
   <g id="patch_46">
    <path d="M 297.681241 512.64 
L 302.195434 512.64 
L 302.195434 489.683478 
L 297.681241 489.683478 
z
" clip-path="url(#p47fa2a32f8)" style="fill: #1f77b4; fill-opacity: 0.5; stroke: #000000; stroke-width: 0.456545; stroke-linejoin: miter"/>
   </g>
   <g id="patch_47">
    <path d="M 302.195434 512.64 
L 306.709626 512.64 
L 306.709626 508.048696 
L 302.195434 508.048696 
z
" clip-path="url(#p47fa2a32f8)" style="fill: #1f77b4; fill-opacity: 0.5; stroke: #000000; stroke-width: 0.456545; stroke-linejoin: miter"/>
   </g>
   <g id="patch_48">
    <path d="M 306.709626 512.64 
L 311.223819 512.64 
L 311.223819 498.866087 
L 306.709626 498.866087 
z
" clip-path="url(#p47fa2a32f8)" style="fill: #1f77b4; fill-opacity: 0.5; stroke: #000000; stroke-width: 0.456545; stroke-linejoin: miter"/>
   </g>
   <g id="patch_49">
    <path d="M 311.223819 512.64 
L 315.738011 512.64 
L 315.738011 489.683478 
L 311.223819 489.683478 
z
" clip-path="url(#p47fa2a32f8)" style="fill: #1f77b4; fill-opacity: 0.5; stroke: #000000; stroke-width: 0.456545; stroke-linejoin: miter"/>
   </g>
   <g id="patch_50">
    <path d="M 315.738011 512.64 
L 320.252204 512.64 
L 320.252204 485.092174 
L 315.738011 485.092174 
z
" clip-path="url(#p47fa2a32f8)" style="fill: #1f77b4; fill-opacity: 0.5; stroke: #000000; stroke-width: 0.456545; stroke-linejoin: miter"/>
   </g>
   <g id="patch_51">
    <path d="M 320.252204 512.64 
L 324.766396 512.64 
L 324.766396 489.683478 
L 320.252204 489.683478 
z
" clip-path="url(#p47fa2a32f8)" style="fill: #1f77b4; fill-opacity: 0.5; stroke: #000000; stroke-width: 0.456545; stroke-linejoin: miter"/>
   </g>
   <g id="patch_52">
    <path d="M 324.766396 512.64 
L 329.280589 512.64 
L 329.280589 494.274783 
L 324.766396 494.274783 
z
" clip-path="url(#p47fa2a32f8)" style="fill: #1f77b4; fill-opacity: 0.5; stroke: #000000; stroke-width: 0.456545; stroke-linejoin: miter"/>
   </g>
   <g id="patch_53">
    <path d="M 329.280589 512.64 
L 333.794781 512.64 
L 333.794781 498.866087 
L 329.280589 498.866087 
z
" clip-path="url(#p47fa2a32f8)" style="fill: #1f77b4; fill-opacity: 0.5; stroke: #000000; stroke-width: 0.456545; stroke-linejoin: miter"/>
   </g>
   <g id="patch_54">
    <path d="M 333.794781 512.64 
L 338.308974 512.64 
L 338.308974 503.457391 
L 333.794781 503.457391 
z
" clip-path="url(#p47fa2a32f8)" style="fill: #1f77b4; fill-opacity: 0.5; stroke: #000000; stroke-width: 0.456545; stroke-linejoin: miter"/>
   </g>
   <g id="patch_55">
    <path d="M 338.308974 512.64 
L 342.823166 512.64 
L 342.823166 498.866087 
L 338.308974 498.866087 
z
" clip-path="url(#p47fa2a32f8)" style="fill: #1f77b4; fill-opacity: 0.5; stroke: #000000; stroke-width: 0.456545; stroke-linejoin: miter"/>
   </g>
   <g id="patch_56">
    <path d="M 342.823166 512.64 
L 347.337359 512.64 
L 347.337359 508.048696 
L 342.823166 508.048696 
z
" clip-path="url(#p47fa2a32f8)" style="fill: #1f77b4; fill-opacity: 0.5; stroke: #000000; stroke-width: 0.456545; stroke-linejoin: miter"/>
   </g>
   <g id="patch_57">
    <path d="M 347.337359 512.64 
L 351.851551 512.64 
L 351.851551 498.866087 
L 347.337359 498.866087 
z
" clip-path="url(#p47fa2a32f8)" style="fill: #1f77b4; fill-opacity: 0.5; stroke: #000000; stroke-width: 0.456545; stroke-linejoin: miter"/>
   </g>
   <g id="patch_58">
    <path d="M 351.851551 512.64 
L 356.365744 512.64 
L 356.365744 508.048696 
L 351.851551 508.048696 
z
" clip-path="url(#p47fa2a32f8)" style="fill: #1f77b4; fill-opacity: 0.5; stroke: #000000; stroke-width: 0.456545; stroke-linejoin: miter"/>
   </g>
   <g id="patch_59">
    <path d="M 356.365744 512.64 
L 360.879936 512.64 
L 360.879936 503.457391 
L 356.365744 503.457391 
z
" clip-path="url(#p47fa2a32f8)" style="fill: #1f77b4; fill-opacity: 0.5; stroke: #000000; stroke-width: 0.456545; stroke-linejoin: miter"/>
   </g>
   <g id="patch_60">
    <path d="M 360.879936 512.64 
L 365.394129 512.64 
L 365.394129 503.457391 
L 360.879936 503.457391 
z
" clip-path="url(#p47fa2a32f8)" style="fill: #1f77b4; fill-opacity: 0.5; stroke: #000000; stroke-width: 0.456545; stroke-linejoin: miter"/>
   </g>
   <g id="patch_61">
    <path d="M 365.394129 512.64 
L 369.908321 512.64 
L 369.908321 512.64 
L 365.394129 512.64 
z
" clip-path="url(#p47fa2a32f8)" style="fill: #1f77b4; fill-opacity: 0.5; stroke: #000000; stroke-width: 0.456545; stroke-linejoin: miter"/>
   </g>
   <g id="patch_62">
    <path d="M 369.908321 512.64 
L 374.422514 512.64 
L 374.422514 503.457391 
L 369.908321 503.457391 
z
" clip-path="url(#p47fa2a32f8)" style="fill: #1f77b4; fill-opacity: 0.5; stroke: #000000; stroke-width: 0.456545; stroke-linejoin: miter"/>
   </g>
   <g id="patch_63">
    <path d="M 374.422514 512.64 
L 378.936706 512.64 
L 378.936706 512.64 
L 374.422514 512.64 
z
" clip-path="url(#p47fa2a32f8)" style="fill: #1f77b4; fill-opacity: 0.5; stroke: #000000; stroke-width: 0.456545; stroke-linejoin: miter"/>
   </g>
   <g id="patch_64">
    <path d="M 378.936706 512.64 
L 383.450899 512.64 
L 383.450899 508.048696 
L 378.936706 508.048696 
z
" clip-path="url(#p47fa2a32f8)" style="fill: #1f77b4; fill-opacity: 0.5; stroke: #000000; stroke-width: 0.456545; stroke-linejoin: miter"/>
   </g>
   <g id="patch_65">
    <path d="M 383.450899 512.64 
L 387.965091 512.64 
L 387.965091 508.048696 
L 383.450899 508.048696 
z
" clip-path="url(#p47fa2a32f8)" style="fill: #1f77b4; fill-opacity: 0.5; stroke: #000000; stroke-width: 0.456545; stroke-linejoin: miter"/>
   </g>
   <g id="patch_66">
    <path d="M 387.965091 512.64 
L 392.479284 512.64 
L 392.479284 512.64 
L 387.965091 512.64 
z
" clip-path="url(#p47fa2a32f8)" style="fill: #1f77b4; fill-opacity: 0.5; stroke: #000000; stroke-width: 0.456545; stroke-linejoin: miter"/>
   </g>
   <g id="patch_67">
    <path d="M 392.479284 512.64 
L 396.993477 512.64 
L 396.993477 508.048696 
L 392.479284 508.048696 
z
" clip-path="url(#p47fa2a32f8)" style="fill: #1f77b4; fill-opacity: 0.5; stroke: #000000; stroke-width: 0.456545; stroke-linejoin: miter"/>
   </g>
   <g id="patch_68">
    <path d="M 396.993477 512.64 
L 401.507669 512.64 
L 401.507669 512.64 
L 396.993477 512.64 
z
" clip-path="url(#p47fa2a32f8)" style="fill: #1f77b4; fill-opacity: 0.5; stroke: #000000; stroke-width: 0.456545; stroke-linejoin: miter"/>
   </g>
   <g id="patch_69">
    <path d="M 401.507669 512.64 
L 406.021862 512.64 
L 406.021862 512.64 
L 401.507669 512.64 
z
" clip-path="url(#p47fa2a32f8)" style="fill: #1f77b4; fill-opacity: 0.5; stroke: #000000; stroke-width: 0.456545; stroke-linejoin: miter"/>
   </g>
   <g id="patch_70">
    <path d="M 406.021862 512.64 
L 410.536054 512.64 
L 410.536054 512.64 
L 406.021862 512.64 
z
" clip-path="url(#p47fa2a32f8)" style="fill: #1f77b4; fill-opacity: 0.5; stroke: #000000; stroke-width: 0.456545; stroke-linejoin: miter"/>
   </g>
   <g id="patch_71">
    <path d="M 410.536054 512.64 
L 415.050247 512.64 
L 415.050247 512.64 
L 410.536054 512.64 
z
" clip-path="url(#p47fa2a32f8)" style="fill: #1f77b4; fill-opacity: 0.5; stroke: #000000; stroke-width: 0.456545; stroke-linejoin: miter"/>
   </g>
   <g id="patch_72">
    <path d="M 415.050247 512.64 
L 419.564439 512.64 
L 419.564439 508.048696 
L 415.050247 508.048696 
z
" clip-path="url(#p47fa2a32f8)" style="fill: #1f77b4; fill-opacity: 0.5; stroke: #000000; stroke-width: 0.456545; stroke-linejoin: miter"/>
   </g>
   <g id="patch_73">
    <path d="M 419.564439 512.64 
L 424.078632 512.64 
L 424.078632 512.64 
L 419.564439 512.64 
z
" clip-path="url(#p47fa2a32f8)" style="fill: #1f77b4; fill-opacity: 0.5; stroke: #000000; stroke-width: 0.456545; stroke-linejoin: miter"/>
   </g>
   <g id="patch_74">
    <path d="M 424.078632 512.64 
L 428.592824 512.64 
L 428.592824 512.64 
L 424.078632 512.64 
z
" clip-path="url(#p47fa2a32f8)" style="fill: #1f77b4; fill-opacity: 0.5; stroke: #000000; stroke-width: 0.456545; stroke-linejoin: miter"/>
   </g>
   <g id="patch_75">
    <path d="M 428.592824 512.64 
L 433.107017 512.64 
L 433.107017 503.457391 
L 428.592824 503.457391 
z
" clip-path="url(#p47fa2a32f8)" style="fill: #1f77b4; fill-opacity: 0.5; stroke: #000000; stroke-width: 0.456545; stroke-linejoin: miter"/>
   </g>
   <g id="patch_76">
    <path d="M 433.107017 512.64 
L 437.621209 512.64 
L 437.621209 512.64 
L 433.107017 512.64 
z
" clip-path="url(#p47fa2a32f8)" style="fill: #1f77b4; fill-opacity: 0.5; stroke: #000000; stroke-width: 0.456545; stroke-linejoin: miter"/>
   </g>
   <g id="patch_77">
    <path d="M 437.621209 512.64 
L 442.135402 512.64 
L 442.135402 512.64 
L 437.621209 512.64 
z
" clip-path="url(#p47fa2a32f8)" style="fill: #1f77b4; fill-opacity: 0.5; stroke: #000000; stroke-width: 0.456545; stroke-linejoin: miter"/>
   </g>
   <g id="patch_78">
    <path d="M 442.135402 512.64 
L 446.649594 512.64 
L 446.649594 512.64 
L 442.135402 512.64 
z
" clip-path="url(#p47fa2a32f8)" style="fill: #1f77b4; fill-opacity: 0.5; stroke: #000000; stroke-width: 0.456545; stroke-linejoin: miter"/>
   </g>
   <g id="patch_79">
    <path d="M 446.649594 512.64 
L 451.163787 512.64 
L 451.163787 508.048696 
L 446.649594 508.048696 
z
" clip-path="url(#p47fa2a32f8)" style="fill: #1f77b4; fill-opacity: 0.5; stroke: #000000; stroke-width: 0.456545; stroke-linejoin: miter"/>
   </g>
   <g id="patch_80">
    <path d="M 451.163787 512.64 
L 455.677979 512.64 
L 455.677979 512.64 
L 451.163787 512.64 
z
" clip-path="url(#p47fa2a32f8)" style="fill: #1f77b4; fill-opacity: 0.5; stroke: #000000; stroke-width: 0.456545; stroke-linejoin: miter"/>
   </g>
   <g id="patch_81">
    <path d="M 455.677979 512.64 
L 460.192172 512.64 
L 460.192172 512.64 
L 455.677979 512.64 
z
" clip-path="url(#p47fa2a32f8)" style="fill: #1f77b4; fill-opacity: 0.5; stroke: #000000; stroke-width: 0.456545; stroke-linejoin: miter"/>
   </g>
   <g id="patch_82">
    <path d="M 460.192172 512.64 
L 464.706364 512.64 
L 464.706364 512.64 
L 460.192172 512.64 
z
" clip-path="url(#p47fa2a32f8)" style="fill: #1f77b4; fill-opacity: 0.5; stroke: #000000; stroke-width: 0.456545; stroke-linejoin: miter"/>
   </g>
   <g id="patch_83">
    <path d="M 464.706364 512.64 
L 469.220557 512.64 
L 469.220557 508.048696 
L 464.706364 508.048696 
z
" clip-path="url(#p47fa2a32f8)" style="fill: #1f77b4; fill-opacity: 0.5; stroke: #000000; stroke-width: 0.456545; stroke-linejoin: miter"/>
   </g>
   <g id="patch_84">
    <path d="M 469.220557 512.64 
L 473.734749 512.64 
L 473.734749 508.048696 
L 469.220557 508.048696 
z
" clip-path="url(#p47fa2a32f8)" style="fill: #1f77b4; fill-opacity: 0.5; stroke: #000000; stroke-width: 0.456545; stroke-linejoin: miter"/>
   </g>
   <g id="patch_85">
    <path d="M 473.734749 512.64 
L 478.248942 512.64 
L 478.248942 512.64 
L 473.734749 512.64 
z
" clip-path="url(#p47fa2a32f8)" style="fill: #1f77b4; fill-opacity: 0.5; stroke: #000000; stroke-width: 0.456545; stroke-linejoin: miter"/>
   </g>
   <g id="patch_86">
    <path d="M 478.248942 512.64 
L 482.763134 512.64 
L 482.763134 512.64 
L 478.248942 512.64 
z
" clip-path="url(#p47fa2a32f8)" style="fill: #1f77b4; fill-opacity: 0.5; stroke: #000000; stroke-width: 0.456545; stroke-linejoin: miter"/>
   </g>
   <g id="patch_87">
    <path d="M 482.763134 512.64 
L 487.277327 512.64 
L 487.277327 512.64 
L 482.763134 512.64 
z
" clip-path="url(#p47fa2a32f8)" style="fill: #1f77b4; fill-opacity: 0.5; stroke: #000000; stroke-width: 0.456545; stroke-linejoin: miter"/>
   </g>
   <g id="patch_88">
    <path d="M 487.277327 512.64 
L 491.791519 512.64 
L 491.791519 512.64 
L 487.277327 512.64 
z
" clip-path="url(#p47fa2a32f8)" style="fill: #1f77b4; fill-opacity: 0.5; stroke: #000000; stroke-width: 0.456545; stroke-linejoin: miter"/>
   </g>
   <g id="patch_89">
    <path d="M 491.791519 512.64 
L 496.305712 512.64 
L 496.305712 512.64 
L 491.791519 512.64 
z
" clip-path="url(#p47fa2a32f8)" style="fill: #1f77b4; fill-opacity: 0.5; stroke: #000000; stroke-width: 0.456545; stroke-linejoin: miter"/>
   </g>
   <g id="patch_90">
    <path d="M 496.305712 512.64 
L 500.819905 512.64 
L 500.819905 512.64 
L 496.305712 512.64 
z
" clip-path="url(#p47fa2a32f8)" style="fill: #1f77b4; fill-opacity: 0.5; stroke: #000000; stroke-width: 0.456545; stroke-linejoin: miter"/>
   </g>
   <g id="patch_91">
    <path d="M 500.819905 512.64 
L 505.334097 512.64 
L 505.334097 512.64 
L 500.819905 512.64 
z
" clip-path="url(#p47fa2a32f8)" style="fill: #1f77b4; fill-opacity: 0.5; stroke: #000000; stroke-width: 0.456545; stroke-linejoin: miter"/>
   </g>
   <g id="patch_92">
    <path d="M 505.334097 512.64 
L 509.84829 512.64 
L 509.84829 512.64 
L 505.334097 512.64 
z
" clip-path="url(#p47fa2a32f8)" style="fill: #1f77b4; fill-opacity: 0.5; stroke: #000000; stroke-width: 0.456545; stroke-linejoin: miter"/>
   </g>
   <g id="patch_93">
    <path d="M 509.84829 512.64 
L 514.362482 512.64 
L 514.362482 512.64 
L 509.84829 512.64 
z
" clip-path="url(#p47fa2a32f8)" style="fill: #1f77b4; fill-opacity: 0.5; stroke: #000000; stroke-width: 0.456545; stroke-linejoin: miter"/>
   </g>
   <g id="patch_94">
    <path d="M 514.362482 512.64 
L 518.876675 512.64 
L 518.876675 512.64 
L 514.362482 512.64 
z
" clip-path="url(#p47fa2a32f8)" style="fill: #1f77b4; fill-opacity: 0.5; stroke: #000000; stroke-width: 0.456545; stroke-linejoin: miter"/>
   </g>
   <g id="patch_95">
    <path d="M 518.876675 512.64 
L 523.390867 512.64 
L 523.390867 512.64 
L 518.876675 512.64 
z
" clip-path="url(#p47fa2a32f8)" style="fill: #1f77b4; fill-opacity: 0.5; stroke: #000000; stroke-width: 0.456545; stroke-linejoin: miter"/>
   </g>
   <g id="patch_96">
    <path d="M 523.390867 512.64 
L 527.90506 512.64 
L 527.90506 512.64 
L 523.390867 512.64 
z
" clip-path="url(#p47fa2a32f8)" style="fill: #1f77b4; fill-opacity: 0.5; stroke: #000000; stroke-width: 0.456545; stroke-linejoin: miter"/>
   </g>
   <g id="patch_97">
    <path d="M 527.90506 512.64 
L 532.419252 512.64 
L 532.419252 512.64 
L 527.90506 512.64 
z
" clip-path="url(#p47fa2a32f8)" style="fill: #1f77b4; fill-opacity: 0.5; stroke: #000000; stroke-width: 0.456545; stroke-linejoin: miter"/>
   </g>
   <g id="patch_98">
    <path d="M 532.419252 512.64 
L 536.933445 512.64 
L 536.933445 512.64 
L 532.419252 512.64 
z
" clip-path="url(#p47fa2a32f8)" style="fill: #1f77b4; fill-opacity: 0.5; stroke: #000000; stroke-width: 0.456545; stroke-linejoin: miter"/>
   </g>
   <g id="patch_99">
    <path d="M 536.933445 512.64 
L 541.447637 512.64 
L 541.447637 512.64 
L 536.933445 512.64 
z
" clip-path="url(#p47fa2a32f8)" style="fill: #1f77b4; fill-opacity: 0.5; stroke: #000000; stroke-width: 0.456545; stroke-linejoin: miter"/>
   </g>
   <g id="patch_100">
    <path d="M 541.447637 512.64 
L 545.96183 512.64 
L 545.96183 512.64 
L 541.447637 512.64 
z
" clip-path="url(#p47fa2a32f8)" style="fill: #1f77b4; fill-opacity: 0.5; stroke: #000000; stroke-width: 0.456545; stroke-linejoin: miter"/>
   </g>
   <g id="patch_101">
    <path d="M 545.96183 512.64 
L 550.476022 512.64 
L 550.476022 508.048696 
L 545.96183 508.048696 
z
" clip-path="url(#p47fa2a32f8)" style="fill: #1f77b4; fill-opacity: 0.5; stroke: #000000; stroke-width: 0.456545; stroke-linejoin: miter"/>
   </g>
   <g id="patch_102">
    <path d="M 550.476022 512.64 
L 554.990215 512.64 
L 554.990215 508.048696 
L 550.476022 508.048696 
z
" clip-path="url(#p47fa2a32f8)" style="fill: #1f77b4; fill-opacity: 0.5; stroke: #000000; stroke-width: 0.456545; stroke-linejoin: miter"/>
   </g>
   <g id="matplotlib.axis_1">
    <g id="xtick_1">
     <g id="line2d_1">
      <defs>
       <path id="mfa61c7361d" d="M 0 0 
L 0 3.5 
" style="stroke: #000000; stroke-width: 0.8"/>
      </defs>
      <g>
       <use xlink:href="#mfa61c7361d" x="81.692707" y="512.64" style="stroke: #000000; stroke-width: 0.8"/>
      </g>
     </g>
     <g id="text_1">
      <!-- 0 -->
      <g transform="translate(78.511457 527.238438) scale(0.1 -0.1)">
       <defs>
        <path id="DejaVuSans-30" d="M 2034 4250 
Q 1547 4250 1301 3770 
Q 1056 3291 1056 2328 
Q 1056 1369 1301 889 
Q 1547 409 2034 409 
Q 2525 409 2770 889 
Q 3016 1369 3016 2328 
Q 3016 3291 2770 3770 
Q 2525 4250 2034 4250 
z
M 2034 4750 
Q 2819 4750 3233 4129 
Q 3647 3509 3647 2328 
Q 3647 1150 3233 529 
Q 2819 -91 2034 -91 
Q 1250 -91 836 529 
Q 422 1150 422 2328 
Q 422 3509 836 4129 
Q 1250 4750 2034 4750 
z
" transform="scale(0.015625)"/>
       </defs>
       <use xlink:href="#DejaVuSans-30"/>
      </g>
     </g>
    </g>
    <g id="xtick_2">
     <g id="line2d_2">
      <g>
       <use xlink:href="#mfa61c7361d" x="144.381119" y="512.64" style="stroke: #000000; stroke-width: 0.8"/>
      </g>
     </g>
     <g id="text_2">
      <!-- 100000 -->
      <g transform="translate(125.293619 527.238438) scale(0.1 -0.1)">
       <defs>
        <path id="DejaVuSans-31" d="M 794 531 
L 1825 531 
L 1825 4091 
L 703 3866 
L 703 4441 
L 1819 4666 
L 2450 4666 
L 2450 531 
L 3481 531 
L 3481 0 
L 794 0 
L 794 531 
z
" transform="scale(0.015625)"/>
       </defs>
       <use xlink:href="#DejaVuSans-31"/>
       <use xlink:href="#DejaVuSans-30" transform="translate(63.623047 0)"/>
       <use xlink:href="#DejaVuSans-30" transform="translate(127.246094 0)"/>
       <use xlink:href="#DejaVuSans-30" transform="translate(190.869141 0)"/>
       <use xlink:href="#DejaVuSans-30" transform="translate(254.492188 0)"/>
       <use xlink:href="#DejaVuSans-30" transform="translate(318.115234 0)"/>
      </g>
     </g>
    </g>
    <g id="xtick_3">
     <g id="line2d_3">
      <g>
       <use xlink:href="#mfa61c7361d" x="207.06953" y="512.64" style="stroke: #000000; stroke-width: 0.8"/>
      </g>
     </g>
     <g id="text_3">
      <!-- 200000 -->
      <g transform="translate(187.98203 527.238438) scale(0.1 -0.1)">
       <defs>
        <path id="DejaVuSans-32" d="M 1228 531 
L 3431 531 
L 3431 0 
L 469 0 
L 469 531 
Q 828 903 1448 1529 
Q 2069 2156 2228 2338 
Q 2531 2678 2651 2914 
Q 2772 3150 2772 3378 
Q 2772 3750 2511 3984 
Q 2250 4219 1831 4219 
Q 1534 4219 1204 4116 
Q 875 4013 500 3803 
L 500 4441 
Q 881 4594 1212 4672 
Q 1544 4750 1819 4750 
Q 2544 4750 2975 4387 
Q 3406 4025 3406 3419 
Q 3406 3131 3298 2873 
Q 3191 2616 2906 2266 
Q 2828 2175 2409 1742 
Q 1991 1309 1228 531 
z
" transform="scale(0.015625)"/>
       </defs>
       <use xlink:href="#DejaVuSans-32"/>
       <use xlink:href="#DejaVuSans-30" transform="translate(63.623047 0)"/>
       <use xlink:href="#DejaVuSans-30" transform="translate(127.246094 0)"/>
       <use xlink:href="#DejaVuSans-30" transform="translate(190.869141 0)"/>
       <use xlink:href="#DejaVuSans-30" transform="translate(254.492188 0)"/>
       <use xlink:href="#DejaVuSans-30" transform="translate(318.115234 0)"/>
      </g>
     </g>
    </g>
    <g id="xtick_4">
     <g id="line2d_4">
      <g>
       <use xlink:href="#mfa61c7361d" x="269.757942" y="512.64" style="stroke: #000000; stroke-width: 0.8"/>
      </g>
     </g>
     <g id="text_4">
      <!-- 300000 -->
      <g transform="translate(250.670442 527.238438) scale(0.1 -0.1)">
       <defs>
        <path id="DejaVuSans-33" d="M 2597 2516 
Q 3050 2419 3304 2112 
Q 3559 1806 3559 1356 
Q 3559 666 3084 287 
Q 2609 -91 1734 -91 
Q 1441 -91 1130 -33 
Q 819 25 488 141 
L 488 750 
Q 750 597 1062 519 
Q 1375 441 1716 441 
Q 2309 441 2620 675 
Q 2931 909 2931 1356 
Q 2931 1769 2642 2001 
Q 2353 2234 1838 2234 
L 1294 2234 
L 1294 2753 
L 1863 2753 
Q 2328 2753 2575 2939 
Q 2822 3125 2822 3475 
Q 2822 3834 2567 4026 
Q 2313 4219 1838 4219 
Q 1578 4219 1281 4162 
Q 984 4106 628 3988 
L 628 4550 
Q 988 4650 1302 4700 
Q 1616 4750 1894 4750 
Q 2613 4750 3031 4423 
Q 3450 4097 3450 3541 
Q 3450 3153 3228 2886 
Q 3006 2619 2597 2516 
z
" transform="scale(0.015625)"/>
       </defs>
       <use xlink:href="#DejaVuSans-33"/>
       <use xlink:href="#DejaVuSans-30" transform="translate(63.623047 0)"/>
       <use xlink:href="#DejaVuSans-30" transform="translate(127.246094 0)"/>
       <use xlink:href="#DejaVuSans-30" transform="translate(190.869141 0)"/>
       <use xlink:href="#DejaVuSans-30" transform="translate(254.492188 0)"/>
       <use xlink:href="#DejaVuSans-30" transform="translate(318.115234 0)"/>
      </g>
     </g>
    </g>
    <g id="xtick_5">
     <g id="line2d_5">
      <g>
       <use xlink:href="#mfa61c7361d" x="332.446353" y="512.64" style="stroke: #000000; stroke-width: 0.8"/>
      </g>
     </g>
     <g id="text_5">
      <!-- 400000 -->
      <g transform="translate(313.358853 527.238438) scale(0.1 -0.1)">
       <defs>
        <path id="DejaVuSans-34" d="M 2419 4116 
L 825 1625 
L 2419 1625 
L 2419 4116 
z
M 2253 4666 
L 3047 4666 
L 3047 1625 
L 3713 1625 
L 3713 1100 
L 3047 1100 
L 3047 0 
L 2419 0 
L 2419 1100 
L 313 1100 
L 313 1709 
L 2253 4666 
z
" transform="scale(0.015625)"/>
       </defs>
       <use xlink:href="#DejaVuSans-34"/>
       <use xlink:href="#DejaVuSans-30" transform="translate(63.623047 0)"/>
       <use xlink:href="#DejaVuSans-30" transform="translate(127.246094 0)"/>
       <use xlink:href="#DejaVuSans-30" transform="translate(190.869141 0)"/>
       <use xlink:href="#DejaVuSans-30" transform="translate(254.492188 0)"/>
       <use xlink:href="#DejaVuSans-30" transform="translate(318.115234 0)"/>
      </g>
     </g>
    </g>
    <g id="xtick_6">
     <g id="line2d_6">
      <g>
       <use xlink:href="#mfa61c7361d" x="395.134765" y="512.64" style="stroke: #000000; stroke-width: 0.8"/>
      </g>
     </g>
     <g id="text_6">
      <!-- 500000 -->
      <g transform="translate(376.047265 527.238438) scale(0.1 -0.1)">
       <defs>
        <path id="DejaVuSans-35" d="M 691 4666 
L 3169 4666 
L 3169 4134 
L 1269 4134 
L 1269 2991 
Q 1406 3038 1543 3061 
Q 1681 3084 1819 3084 
Q 2600 3084 3056 2656 
Q 3513 2228 3513 1497 
Q 3513 744 3044 326 
Q 2575 -91 1722 -91 
Q 1428 -91 1123 -41 
Q 819 9 494 109 
L 494 744 
Q 775 591 1075 516 
Q 1375 441 1709 441 
Q 2250 441 2565 725 
Q 2881 1009 2881 1497 
Q 2881 1984 2565 2268 
Q 2250 2553 1709 2553 
Q 1456 2553 1204 2497 
Q 953 2441 691 2322 
L 691 4666 
z
" transform="scale(0.015625)"/>
       </defs>
       <use xlink:href="#DejaVuSans-35"/>
       <use xlink:href="#DejaVuSans-30" transform="translate(63.623047 0)"/>
       <use xlink:href="#DejaVuSans-30" transform="translate(127.246094 0)"/>
       <use xlink:href="#DejaVuSans-30" transform="translate(190.869141 0)"/>
       <use xlink:href="#DejaVuSans-30" transform="translate(254.492188 0)"/>
       <use xlink:href="#DejaVuSans-30" transform="translate(318.115234 0)"/>
      </g>
     </g>
    </g>
    <g id="xtick_7">
     <g id="line2d_7">
      <g>
       <use xlink:href="#mfa61c7361d" x="457.823177" y="512.64" style="stroke: #000000; stroke-width: 0.8"/>
      </g>
     </g>
     <g id="text_7">
      <!-- 600000 -->
      <g transform="translate(438.735677 527.238438) scale(0.1 -0.1)">
       <defs>
        <path id="DejaVuSans-36" d="M 2113 2584 
Q 1688 2584 1439 2293 
Q 1191 2003 1191 1497 
Q 1191 994 1439 701 
Q 1688 409 2113 409 
Q 2538 409 2786 701 
Q 3034 994 3034 1497 
Q 3034 2003 2786 2293 
Q 2538 2584 2113 2584 
z
M 3366 4563 
L 3366 3988 
Q 3128 4100 2886 4159 
Q 2644 4219 2406 4219 
Q 1781 4219 1451 3797 
Q 1122 3375 1075 2522 
Q 1259 2794 1537 2939 
Q 1816 3084 2150 3084 
Q 2853 3084 3261 2657 
Q 3669 2231 3669 1497 
Q 3669 778 3244 343 
Q 2819 -91 2113 -91 
Q 1303 -91 875 529 
Q 447 1150 447 2328 
Q 447 3434 972 4092 
Q 1497 4750 2381 4750 
Q 2619 4750 2861 4703 
Q 3103 4656 3366 4563 
z
" transform="scale(0.015625)"/>
       </defs>
       <use xlink:href="#DejaVuSans-36"/>
       <use xlink:href="#DejaVuSans-30" transform="translate(63.623047 0)"/>
       <use xlink:href="#DejaVuSans-30" transform="translate(127.246094 0)"/>
       <use xlink:href="#DejaVuSans-30" transform="translate(190.869141 0)"/>
       <use xlink:href="#DejaVuSans-30" transform="translate(254.492188 0)"/>
       <use xlink:href="#DejaVuSans-30" transform="translate(318.115234 0)"/>
      </g>
     </g>
    </g>
    <g id="xtick_8">
     <g id="line2d_8">
      <g>
       <use xlink:href="#mfa61c7361d" x="520.511588" y="512.64" style="stroke: #000000; stroke-width: 0.8"/>
      </g>
     </g>
     <g id="text_8">
      <!-- 700000 -->
      <g transform="translate(501.424088 527.238438) scale(0.1 -0.1)">
       <defs>
        <path id="DejaVuSans-37" d="M 525 4666 
L 3525 4666 
L 3525 4397 
L 1831 0 
L 1172 0 
L 2766 4134 
L 525 4134 
L 525 4666 
z
" transform="scale(0.015625)"/>
       </defs>
       <use xlink:href="#DejaVuSans-37"/>
       <use xlink:href="#DejaVuSans-30" transform="translate(63.623047 0)"/>
       <use xlink:href="#DejaVuSans-30" transform="translate(127.246094 0)"/>
       <use xlink:href="#DejaVuSans-30" transform="translate(190.869141 0)"/>
       <use xlink:href="#DejaVuSans-30" transform="translate(254.492188 0)"/>
       <use xlink:href="#DejaVuSans-30" transform="translate(318.115234 0)"/>
      </g>
     </g>
    </g>
    <g id="xtick_9">
     <g id="line2d_9">
      <g>
       <use xlink:href="#mfa61c7361d" x="583.2" y="512.64" style="stroke: #000000; stroke-width: 0.8"/>
      </g>
     </g>
     <g id="text_9">
      <!-- 800000 -->
      <g transform="translate(564.1125 527.238438) scale(0.1 -0.1)">
       <defs>
        <path id="DejaVuSans-38" d="M 2034 2216 
Q 1584 2216 1326 1975 
Q 1069 1734 1069 1313 
Q 1069 891 1326 650 
Q 1584 409 2034 409 
Q 2484 409 2743 651 
Q 3003 894 3003 1313 
Q 3003 1734 2745 1975 
Q 2488 2216 2034 2216 
z
M 1403 2484 
Q 997 2584 770 2862 
Q 544 3141 544 3541 
Q 544 4100 942 4425 
Q 1341 4750 2034 4750 
Q 2731 4750 3128 4425 
Q 3525 4100 3525 3541 
Q 3525 3141 3298 2862 
Q 3072 2584 2669 2484 
Q 3125 2378 3379 2068 
Q 3634 1759 3634 1313 
Q 3634 634 3220 271 
Q 2806 -91 2034 -91 
Q 1263 -91 848 271 
Q 434 634 434 1313 
Q 434 1759 690 2068 
Q 947 2378 1403 2484 
z
M 1172 3481 
Q 1172 3119 1398 2916 
Q 1625 2713 2034 2713 
Q 2441 2713 2670 2916 
Q 2900 3119 2900 3481 
Q 2900 3844 2670 4047 
Q 2441 4250 2034 4250 
Q 1625 4250 1398 4047 
Q 1172 3844 1172 3481 
z
" transform="scale(0.015625)"/>
       </defs>
       <use xlink:href="#DejaVuSans-38"/>
       <use xlink:href="#DejaVuSans-30" transform="translate(63.623047 0)"/>
       <use xlink:href="#DejaVuSans-30" transform="translate(127.246094 0)"/>
       <use xlink:href="#DejaVuSans-30" transform="translate(190.869141 0)"/>
       <use xlink:href="#DejaVuSans-30" transform="translate(254.492188 0)"/>
       <use xlink:href="#DejaVuSans-30" transform="translate(318.115234 0)"/>
      </g>
     </g>
    </g>
    <g id="text_10">
     <!-- Цена жилого помещения, $ -->
     <g transform="translate(251.785391 541.676406) scale(0.11 -0.11)">
      <defs>
       <path id="DejaVuSans-426" d="M 4184 0 
L 628 0 
L 628 4666 
L 1259 4666 
L 1259 531 
L 3553 531 
L 3553 4666 
L 4184 4666 
L 4184 531 
L 4716 531 
L 4716 -1003 
L 4184 -1003 
L 4184 0 
z
" transform="scale(0.015625)"/>
       <path id="DejaVuSans-435" d="M 3597 1894 
L 3597 1613 
L 953 1613 
Q 991 1019 1311 708 
Q 1631 397 2203 397 
Q 2534 397 2845 478 
Q 3156 559 3463 722 
L 3463 178 
Q 3153 47 2828 -22 
Q 2503 -91 2169 -91 
Q 1331 -91 842 396 
Q 353 884 353 1716 
Q 353 2575 817 3079 
Q 1281 3584 2069 3584 
Q 2775 3584 3186 3129 
Q 3597 2675 3597 1894 
z
M 3022 2063 
Q 3016 2534 2758 2815 
Q 2500 3097 2075 3097 
Q 1594 3097 1305 2825 
Q 1016 2553 972 2059 
L 3022 2063 
z
" transform="scale(0.015625)"/>
       <path id="DejaVuSans-43d" d="M 581 3500 
L 1159 3500 
L 1159 2072 
L 3025 2072 
L 3025 3500 
L 3603 3500 
L 3603 0 
L 3025 0 
L 3025 1613 
L 1159 1613 
L 1159 0 
L 581 0 
L 581 3500 
z
" transform="scale(0.015625)"/>
       <path id="DejaVuSans-430" d="M 2194 1759 
Q 1497 1759 1228 1600 
Q 959 1441 959 1056 
Q 959 750 1161 570 
Q 1363 391 1709 391 
Q 2188 391 2477 730 
Q 2766 1069 2766 1631 
L 2766 1759 
L 2194 1759 
z
M 3341 1997 
L 3341 0 
L 2766 0 
L 2766 531 
Q 2569 213 2275 61 
Q 1981 -91 1556 -91 
Q 1019 -91 701 211 
Q 384 513 384 1019 
Q 384 1609 779 1909 
Q 1175 2209 1959 2209 
L 2766 2209 
L 2766 2266 
Q 2766 2663 2505 2880 
Q 2244 3097 1772 3097 
Q 1472 3097 1187 3025 
Q 903 2953 641 2809 
L 641 3341 
Q 956 3463 1253 3523 
Q 1550 3584 1831 3584 
Q 2591 3584 2966 3190 
Q 3341 2797 3341 1997 
z
" transform="scale(0.015625)"/>
       <path id="DejaVuSans-20" transform="scale(0.015625)"/>
       <path id="DejaVuSans-436" d="M 2597 3500 
L 3169 3500 
L 3169 1856 
L 4697 3500 
L 5366 3500 
L 4109 2153 
L 5547 0 
L 4931 0 
L 3753 1769 
L 3169 1141 
L 3169 0 
L 2597 0 
L 2597 1141 
L 2013 1769 
L 834 0 
L 219 0 
L 1656 2153 
L 400 3500 
L 1069 3500 
L 2597 1856 
L 2597 3500 
z
" transform="scale(0.015625)"/>
       <path id="DejaVuSans-438" d="M 3578 3500 
L 3578 0 
L 3006 0 
L 3006 2809 
L 1319 0 
L 581 0 
L 581 3500 
L 1153 3500 
L 1153 697 
L 2838 3500 
L 3578 3500 
z
" transform="scale(0.015625)"/>
       <path id="DejaVuSans-43b" d="M 238 0 
L 238 478 
Q 806 566 981 959 
Q 1194 1513 1194 2928 
L 1194 3500 
L 3559 3500 
L 3559 0 
L 2984 0 
L 2984 3041 
L 1769 3041 
L 1769 2694 
Q 1769 1344 1494 738 
Q 1200 91 238 0 
z
" transform="scale(0.015625)"/>
       <path id="DejaVuSans-43e" d="M 1959 3097 
Q 1497 3097 1228 2736 
Q 959 2375 959 1747 
Q 959 1119 1226 758 
Q 1494 397 1959 397 
Q 2419 397 2687 759 
Q 2956 1122 2956 1747 
Q 2956 2369 2687 2733 
Q 2419 3097 1959 3097 
z
M 1959 3584 
Q 2709 3584 3137 3096 
Q 3566 2609 3566 1747 
Q 3566 888 3137 398 
Q 2709 -91 1959 -91 
Q 1206 -91 779 398 
Q 353 888 353 1747 
Q 353 2609 779 3096 
Q 1206 3584 1959 3584 
z
" transform="scale(0.015625)"/>
       <path id="DejaVuSans-433" d="M 581 0 
L 581 3500 
L 3050 3500 
L 3050 3041 
L 1159 3041 
L 1159 0 
L 581 0 
z
" transform="scale(0.015625)"/>
       <path id="DejaVuSans-43f" d="M 3603 3500 
L 3603 0 
L 3025 0 
L 3025 3041 
L 1159 3041 
L 1159 0 
L 581 0 
L 581 3500 
L 3603 3500 
z
" transform="scale(0.015625)"/>
       <path id="DejaVuSans-43c" d="M 581 3500 
L 1422 3500 
L 2416 1156 
L 3413 3500 
L 4247 3500 
L 4247 0 
L 3669 0 
L 3669 2950 
L 2703 672 
L 2128 672 
L 1159 2950 
L 1159 0 
L 581 0 
L 581 3500 
z
" transform="scale(0.015625)"/>
       <path id="DejaVuSans-449" d="M 5275 0 
L 581 0 
L 581 3500 
L 1159 3500 
L 1159 459 
L 2638 459 
L 2638 3500 
L 3216 3500 
L 3216 459 
L 4697 459 
L 4697 3500 
L 5275 3500 
L 5275 459 
L 5734 459 
L 5734 -884 
L 5275 -884 
L 5275 0 
z
" transform="scale(0.015625)"/>
       <path id="DejaVuSans-44f" d="M 1181 2491 
Q 1181 2231 1381 2084 
Q 1581 1938 1953 1938 
L 2728 1938 
L 2728 3041 
L 1953 3041 
Q 1581 3041 1381 2897 
Q 1181 2753 1181 2491 
z
M 363 0 
L 1431 1534 
Q 1069 1616 828 1830 
Q 588 2044 588 2491 
Q 588 2997 923 3248 
Q 1259 3500 1938 3500 
L 3306 3500 
L 3306 0 
L 2728 0 
L 2728 1478 
L 2013 1478 
L 981 0 
L 363 0 
z
" transform="scale(0.015625)"/>
       <path id="DejaVuSans-2c" d="M 750 794 
L 1409 794 
L 1409 256 
L 897 -744 
L 494 -744 
L 750 256 
L 750 794 
z
" transform="scale(0.015625)"/>
       <path id="DejaVuSans-24" d="M 2163 -941 
L 1850 -941 
L 1847 0 
Q 1519 6 1191 76 
Q 863 147 531 288 
L 531 850 
Q 850 650 1176 548 
Q 1503 447 1850 444 
L 1850 1869 
Q 1159 1981 845 2250 
Q 531 2519 531 2988 
Q 531 3497 872 3790 
Q 1213 4084 1850 4128 
L 1850 4863 
L 2163 4863 
L 2163 4138 
Q 2453 4125 2725 4076 
Q 2997 4028 3256 3944 
L 3256 3397 
Q 2997 3528 2723 3600 
Q 2450 3672 2163 3684 
L 2163 2350 
Q 2872 2241 3206 1959 
Q 3541 1678 3541 1191 
Q 3541 663 3186 358 
Q 2831 53 2163 6 
L 2163 -941 
z
M 1850 2406 
L 1850 3688 
Q 1488 3647 1297 3481 
Q 1106 3316 1106 3041 
Q 1106 2772 1282 2622 
Q 1459 2472 1850 2406 
z
M 2163 1806 
L 2163 453 
Q 2559 506 2761 678 
Q 2963 850 2963 1131 
Q 2963 1406 2770 1568 
Q 2578 1731 2163 1806 
z
" transform="scale(0.015625)"/>
      </defs>
      <use xlink:href="#DejaVuSans-426"/>
      <use xlink:href="#DejaVuSans-435" transform="translate(77.636719 0)"/>
      <use xlink:href="#DejaVuSans-43d" transform="translate(139.160156 0)"/>
      <use xlink:href="#DejaVuSans-430" transform="translate(204.541016 0)"/>
      <use xlink:href="#DejaVuSans-20" transform="translate(265.820312 0)"/>
      <use xlink:href="#DejaVuSans-436" transform="translate(297.607422 0)"/>
      <use xlink:href="#DejaVuSans-438" transform="translate(387.695312 0)"/>
      <use xlink:href="#DejaVuSans-43b" transform="translate(452.685547 0)"/>
      <use xlink:href="#DejaVuSans-43e" transform="translate(516.601562 0)"/>
      <use xlink:href="#DejaVuSans-433" transform="translate(577.783203 0)"/>
      <use xlink:href="#DejaVuSans-43e" transform="translate(630.322266 0)"/>
      <use xlink:href="#DejaVuSans-20" transform="translate(691.503906 0)"/>
      <use xlink:href="#DejaVuSans-43f" transform="translate(723.291016 0)"/>
      <use xlink:href="#DejaVuSans-43e" transform="translate(788.671875 0)"/>
      <use xlink:href="#DejaVuSans-43c" transform="translate(849.853516 0)"/>
      <use xlink:href="#DejaVuSans-435" transform="translate(925.292969 0)"/>
      <use xlink:href="#DejaVuSans-449" transform="translate(986.816406 0)"/>
      <use xlink:href="#DejaVuSans-435" transform="translate(1081.005859 0)"/>
      <use xlink:href="#DejaVuSans-43d" transform="translate(1142.529297 0)"/>
      <use xlink:href="#DejaVuSans-438" transform="translate(1207.910156 0)"/>
      <use xlink:href="#DejaVuSans-44f" transform="translate(1272.900391 0)"/>
      <use xlink:href="#DejaVuSans-2c" transform="translate(1333.056641 0)"/>
      <use xlink:href="#DejaVuSans-20" transform="translate(1364.84375 0)"/>
      <use xlink:href="#DejaVuSans-24" transform="translate(1396.630859 0)"/>
     </g>
    </g>
   </g>
   <g id="matplotlib.axis_2">
    <g id="ytick_1">
     <g id="line2d_10">
      <defs>
       <path id="m8b36285480" d="M 0 0 
L -3.5 0 
" style="stroke: #000000; stroke-width: 0.8"/>
      </defs>
      <g>
       <use xlink:href="#m8b36285480" x="81" y="512.64" style="stroke: #000000; stroke-width: 0.8"/>
      </g>
     </g>
     <g id="text_11">
      <!-- 0 -->
      <g transform="translate(67.6375 516.439219) scale(0.1 -0.1)">
       <use xlink:href="#DejaVuSans-30"/>
      </g>
     </g>
    </g>
    <g id="ytick_2">
     <g id="line2d_11">
      <g>
       <use xlink:href="#m8b36285480" x="81" y="420.813913" style="stroke: #000000; stroke-width: 0.8"/>
      </g>
     </g>
     <g id="text_12">
      <!-- 20 -->
      <g transform="translate(61.275 424.613132) scale(0.1 -0.1)">
       <use xlink:href="#DejaVuSans-32"/>
       <use xlink:href="#DejaVuSans-30" transform="translate(63.623047 0)"/>
      </g>
     </g>
    </g>
    <g id="ytick_3">
     <g id="line2d_12">
      <g>
       <use xlink:href="#m8b36285480" x="81" y="328.987826" style="stroke: #000000; stroke-width: 0.8"/>
      </g>
     </g>
     <g id="text_13">
      <!-- 40 -->
      <g transform="translate(61.275 332.787045) scale(0.1 -0.1)">
       <use xlink:href="#DejaVuSans-34"/>
       <use xlink:href="#DejaVuSans-30" transform="translate(63.623047 0)"/>
      </g>
     </g>
    </g>
    <g id="ytick_4">
     <g id="line2d_13">
      <g>
       <use xlink:href="#m8b36285480" x="81" y="237.161739" style="stroke: #000000; stroke-width: 0.8"/>
      </g>
     </g>
     <g id="text_14">
      <!-- 60 -->
      <g transform="translate(61.275 240.960958) scale(0.1 -0.1)">
       <use xlink:href="#DejaVuSans-36"/>
       <use xlink:href="#DejaVuSans-30" transform="translate(63.623047 0)"/>
      </g>
     </g>
    </g>
    <g id="ytick_5">
     <g id="line2d_14">
      <g>
       <use xlink:href="#m8b36285480" x="81" y="145.335652" style="stroke: #000000; stroke-width: 0.8"/>
      </g>
     </g>
     <g id="text_15">
      <!-- 80 -->
      <g transform="translate(61.275 149.134871) scale(0.1 -0.1)">
       <use xlink:href="#DejaVuSans-38"/>
       <use xlink:href="#DejaVuSans-30" transform="translate(63.623047 0)"/>
      </g>
     </g>
    </g>
    <g id="text_16">
     <!-- Количество жилых помещений -->
     <g transform="translate(54.987344 381.649766) rotate(-90) scale(0.11 -0.11)">
      <defs>
       <path id="DejaVuSans-41a" d="M 628 4666 
L 1259 4666 
L 1259 2359 
L 3516 4666 
L 4325 4666 
L 2522 2822 
L 4419 0 
L 3731 0 
L 2113 2403 
L 1259 1531 
L 1259 0 
L 628 0 
L 628 4666 
z
" transform="scale(0.015625)"/>
       <path id="DejaVuSans-447" d="M 2625 0 
L 2625 1472 
L 1553 1472 
Q 1075 1472 756 1769 
Q 469 2038 469 2613 
L 469 3500 
L 1044 3500 
L 1044 2666 
Q 1044 2300 1206 2116 
Q 1372 1931 1697 1931 
L 2625 1931 
L 2625 3500 
L 3200 3500 
L 3200 0 
L 2625 0 
z
" transform="scale(0.015625)"/>
       <path id="DejaVuSans-441" d="M 3122 3366 
L 3122 2828 
Q 2878 2963 2633 3030 
Q 2388 3097 2138 3097 
Q 1578 3097 1268 2742 
Q 959 2388 959 1747 
Q 959 1106 1268 751 
Q 1578 397 2138 397 
Q 2388 397 2633 464 
Q 2878 531 3122 666 
L 3122 134 
Q 2881 22 2623 -34 
Q 2366 -91 2075 -91 
Q 1284 -91 818 406 
Q 353 903 353 1747 
Q 353 2603 823 3093 
Q 1294 3584 2113 3584 
Q 2378 3584 2631 3529 
Q 2884 3475 3122 3366 
z
" transform="scale(0.015625)"/>
       <path id="DejaVuSans-442" d="M 188 3500 
L 3541 3500 
L 3541 3041 
L 2147 3041 
L 2147 0 
L 1581 0 
L 1581 3041 
L 188 3041 
L 188 3500 
z
" transform="scale(0.015625)"/>
       <path id="DejaVuSans-432" d="M 1156 1613 
L 1156 459 
L 1975 459 
Q 2369 459 2575 607 
Q 2781 756 2781 1038 
Q 2781 1319 2575 1466 
Q 2369 1613 1975 1613 
L 1156 1613 
z
M 1156 3041 
L 1156 2072 
L 1913 2072 
Q 2238 2072 2444 2201 
Q 2650 2331 2650 2563 
Q 2650 2794 2444 2917 
Q 2238 3041 1913 3041 
L 1156 3041 
z
M 581 3500 
L 1950 3500 
Q 2566 3500 2897 3275 
Q 3228 3050 3228 2634 
Q 3228 2313 3059 2123 
Q 2891 1934 2559 1888 
Q 2956 1813 3175 1575 
Q 3394 1338 3394 981 
Q 3394 513 3033 256 
Q 2672 0 2003 0 
L 581 0 
L 581 3500 
z
" transform="scale(0.015625)"/>
       <path id="DejaVuSans-44b" d="M 3907 3500 
L 4482 3500 
L 4482 0 
L 3907 0 
L 3907 3500 
z
M 4195 3584 
L 4195 3584 
z
M 2781 1038 
Q 2781 1319 2576 1466 
Q 2372 1613 1978 1613 
L 1159 1613 
L 1159 459 
L 1978 459 
Q 2372 459 2576 607 
Q 2781 756 2781 1038 
z
M 581 3500 
L 1159 3500 
L 1159 2072 
L 2003 2072 
Q 2672 2072 3033 1817 
Q 3394 1563 3394 1038 
Q 3394 513 3033 256 
Q 2672 0 2003 0 
L 581 0 
L 581 3500 
z
" transform="scale(0.015625)"/>
       <path id="DejaVuSans-445" d="M 3513 3500 
L 2247 1797 
L 3578 0 
L 2900 0 
L 1881 1375 
L 863 0 
L 184 0 
L 1544 1831 
L 300 3500 
L 978 3500 
L 1906 2253 
L 2834 3500 
L 3513 3500 
z
" transform="scale(0.015625)"/>
       <path id="DejaVuSans-439" d="M 3578 3500 
L 3578 0 
L 3006 0 
L 3006 2809 
L 1319 0 
L 581 0 
L 581 3500 
L 1153 3500 
L 1153 697 
L 2838 3500 
L 3578 3500 
z
M 1102 4833 
L 1471 4833 
Q 1505 4599 1656 4481 
Q 1808 4364 2080 4364 
Q 2349 4364 2499 4480 
Q 2649 4596 2689 4833 
L 3058 4833 
Q 3027 4386 2780 4161 
Q 2533 3936 2080 3936 
Q 1627 3936 1380 4161 
Q 1133 4386 1102 4833 
z
" transform="scale(0.015625)"/>
      </defs>
      <use xlink:href="#DejaVuSans-41a"/>
      <use xlink:href="#DejaVuSans-43e" transform="translate(70.996094 0)"/>
      <use xlink:href="#DejaVuSans-43b" transform="translate(132.177734 0)"/>
      <use xlink:href="#DejaVuSans-438" transform="translate(196.09375 0)"/>
      <use xlink:href="#DejaVuSans-447" transform="translate(261.083984 0)"/>
      <use xlink:href="#DejaVuSans-435" transform="translate(320.166016 0)"/>
      <use xlink:href="#DejaVuSans-441" transform="translate(381.689453 0)"/>
      <use xlink:href="#DejaVuSans-442" transform="translate(436.669922 0)"/>
      <use xlink:href="#DejaVuSans-432" transform="translate(494.921875 0)"/>
      <use xlink:href="#DejaVuSans-43e" transform="translate(553.857422 0)"/>
      <use xlink:href="#DejaVuSans-20" transform="translate(615.039062 0)"/>
      <use xlink:href="#DejaVuSans-436" transform="translate(646.826172 0)"/>
      <use xlink:href="#DejaVuSans-438" transform="translate(736.914062 0)"/>
      <use xlink:href="#DejaVuSans-43b" transform="translate(801.904297 0)"/>
      <use xlink:href="#DejaVuSans-44b" transform="translate(865.820312 0)"/>
      <use xlink:href="#DejaVuSans-445" transform="translate(944.775391 0)"/>
      <use xlink:href="#DejaVuSans-20" transform="translate(1003.955078 0)"/>
      <use xlink:href="#DejaVuSans-43f" transform="translate(1035.742188 0)"/>
      <use xlink:href="#DejaVuSans-43e" transform="translate(1101.123047 0)"/>
      <use xlink:href="#DejaVuSans-43c" transform="translate(1162.304688 0)"/>
      <use xlink:href="#DejaVuSans-435" transform="translate(1237.744141 0)"/>
      <use xlink:href="#DejaVuSans-449" transform="translate(1299.267578 0)"/>
      <use xlink:href="#DejaVuSans-435" transform="translate(1393.457031 0)"/>
      <use xlink:href="#DejaVuSans-43d" transform="translate(1454.980469 0)"/>
      <use xlink:href="#DejaVuSans-438" transform="translate(1520.361328 0)"/>
      <use xlink:href="#DejaVuSans-439" transform="translate(1585.351562 0)"/>
     </g>
    </g>
   </g>
   <g id="line2d_15">
    <path d="M 103.570963 502.599705 
L 105.839401 500.194381 
L 108.10784 497.306229 
L 110.376278 493.834558 
L 112.644716 489.66692 
L 114.913155 484.687047 
L 117.181593 478.785348 
L 119.450032 471.870135 
L 121.71847 463.87702 
L 123.986909 454.773793 
L 126.255347 444.558834 
L 128.523786 433.252828 
L 130.792224 420.885792 
L 133.060662 407.483487 
L 135.329101 393.058419 
L 137.597539 377.610115 
L 139.865978 361.137202 
L 142.134416 343.660617 
L 146.671293 306.074378 
L 153.476609 247.137679 
L 155.745047 228.653382 
L 158.013485 211.74537 
L 160.281924 197.017419 
L 162.550362 184.989654 
L 164.818801 176.036633 
L 167.087239 170.339652 
L 169.355678 167.863195 
L 171.624116 168.362096 
L 173.892555 171.420495 
L 176.160993 176.517044 
L 178.429432 183.104737 
L 180.69787 190.689907 
L 185.234747 207.490652 
L 189.771624 225.655874 
L 192.040062 235.362415 
L 194.308501 245.617917 
L 196.576939 256.466634 
L 201.113816 279.652503 
L 205.650693 303.433541 
L 207.919131 314.847345 
L 210.18757 325.597146 
L 212.456008 335.509414 
L 214.724447 344.505456 
L 216.992885 352.602057 
L 219.261324 359.89573 
L 221.529762 366.535441 
L 223.798201 372.690295 
L 228.335078 384.145873 
L 235.140393 400.374422 
L 239.67727 410.594519 
L 244.214147 420.140778 
L 248.751024 429.105325 
L 255.556339 441.939297 
L 260.093216 449.935156 
L 262.361654 453.567686 
L 264.630093 456.846109 
L 266.898531 459.711661 
L 269.16697 462.145273 
L 271.435408 464.176317 
L 273.703847 465.881278 
L 282.7776 471.814662 
L 285.046039 473.603319 
L 287.314477 475.606803 
L 291.851354 480.09819 
L 296.388231 484.680135 
L 298.65667 486.760868 
L 300.925108 488.589685 
L 303.193546 490.112714 
L 305.461985 491.307335 
L 307.730423 492.183713 
L 309.998862 492.782308 
L 312.2673 493.167673 
L 321.341054 494.167496 
L 323.609493 494.613668 
L 325.877931 495.203944 
L 330.414808 496.768608 
L 341.757 501.242308 
L 346.293877 502.635757 
L 350.830754 503.763232 
L 359.904508 505.653822 
L 368.978262 507.315718 
L 378.052015 508.660355 
L 391.662646 510.365892 
L 398.467962 511.01432 
L 403.004838 511.276827 
L 407.541715 511.357088 
L 412.078592 511.252175 
L 427.957661 510.507442 
L 434.762977 510.610948 
L 450.642046 511.214975 
L 459.7158 511.196667 
L 468.789554 511.174928 
L 475.594869 511.428397 
L 493.742377 512.450447 
L 502.81613 512.606866 
L 518.6952 512.609322 
L 527.768953 512.455197 
L 534.574269 512.149788 
L 548.184899 511.327626 
L 552.721776 511.268792 
L 554.990215 511.311009 
L 554.990215 511.311009 
" clip-path="url(#p47fa2a32f8)" style="fill: none; stroke: #1f77b4; stroke-width: 1.5; stroke-linecap: square"/>
   </g>
   <g id="patch_103">
    <path d="M 81 512.64 
L 81 69.12 
" style="fill: none; stroke: #000000; stroke-width: 0.8; stroke-linejoin: miter; stroke-linecap: square"/>
   </g>
   <g id="patch_104">
    <path d="M 583.2 512.64 
L 583.2 69.12 
" style="fill: none; stroke: #000000; stroke-width: 0.8; stroke-linejoin: miter; stroke-linecap: square"/>
   </g>
   <g id="patch_105">
    <path d="M 81 512.64 
L 583.2 512.64 
" style="fill: none; stroke: #000000; stroke-width: 0.8; stroke-linejoin: miter; stroke-linecap: square"/>
   </g>
   <g id="patch_106">
    <path d="M 81 69.12 
L 583.2 69.12 
" style="fill: none; stroke: #000000; stroke-width: 0.8; stroke-linejoin: miter; stroke-linecap: square"/>
   </g>
   <g id="text_17">
    <!-- Распределение цен жилых помещений -->
    <g transform="translate(186.708906 63.12) scale(0.14 -0.14)">
     <defs>
      <path id="DejaVuSans-420" d="M 1259 4147 
L 1259 2394 
L 2053 2394 
Q 2494 2394 2734 2622 
Q 2975 2850 2975 3272 
Q 2975 3691 2734 3919 
Q 2494 4147 2053 4147 
L 1259 4147 
z
M 628 4666 
L 2053 4666 
Q 2838 4666 3239 4311 
Q 3641 3956 3641 3272 
Q 3641 2581 3239 2228 
Q 2838 1875 2053 1875 
L 1259 1875 
L 1259 0 
L 628 0 
L 628 4666 
z
" transform="scale(0.015625)"/>
      <path id="DejaVuSans-440" d="M 1159 525 
L 1159 -1331 
L 581 -1331 
L 581 3500 
L 1159 3500 
L 1159 2969 
Q 1341 3281 1617 3432 
Q 1894 3584 2278 3584 
Q 2916 3584 3314 3078 
Q 3713 2572 3713 1747 
Q 3713 922 3314 415 
Q 2916 -91 2278 -91 
Q 1894 -91 1617 61 
Q 1341 213 1159 525 
z
M 3116 1747 
Q 3116 2381 2855 2742 
Q 2594 3103 2138 3103 
Q 1681 3103 1420 2742 
Q 1159 2381 1159 1747 
Q 1159 1113 1420 752 
Q 1681 391 2138 391 
Q 2594 391 2855 752 
Q 3116 1113 3116 1747 
z
" transform="scale(0.015625)"/>
      <path id="DejaVuSans-434" d="M 1384 459 
L 3053 459 
L 3053 3041 
L 1844 3041 
L 1844 2603 
Q 1844 1316 1475 628 
L 1384 459 
z
M 550 459 
Q 834 584 959 850 
Q 1266 1509 1266 2838 
L 1266 3500 
L 3631 3500 
L 3631 459 
L 4091 459 
L 4091 -884 
L 3631 -884 
L 3631 0 
L 794 0 
L 794 -884 
L 334 -884 
L 334 459 
L 550 459 
z
" transform="scale(0.015625)"/>
      <path id="DejaVuSans-446" d="M 3603 0 
L 581 0 
L 581 3500 
L 1159 3500 
L 1159 459 
L 3025 459 
L 3025 3500 
L 3603 3500 
L 3603 459 
L 4063 459 
L 4063 -884 
L 3603 -884 
L 3603 0 
z
" transform="scale(0.015625)"/>
     </defs>
     <use xlink:href="#DejaVuSans-420"/>
     <use xlink:href="#DejaVuSans-430" transform="translate(60.302734 0)"/>
     <use xlink:href="#DejaVuSans-441" transform="translate(121.582031 0)"/>
     <use xlink:href="#DejaVuSans-43f" transform="translate(176.5625 0)"/>
     <use xlink:href="#DejaVuSans-440" transform="translate(241.943359 0)"/>
     <use xlink:href="#DejaVuSans-435" transform="translate(305.419922 0)"/>
     <use xlink:href="#DejaVuSans-434" transform="translate(366.943359 0)"/>
     <use xlink:href="#DejaVuSans-435" transform="translate(436.083984 0)"/>
     <use xlink:href="#DejaVuSans-43b" transform="translate(497.607422 0)"/>
     <use xlink:href="#DejaVuSans-435" transform="translate(561.523438 0)"/>
     <use xlink:href="#DejaVuSans-43d" transform="translate(623.046875 0)"/>
     <use xlink:href="#DejaVuSans-438" transform="translate(688.427734 0)"/>
     <use xlink:href="#DejaVuSans-435" transform="translate(753.417969 0)"/>
     <use xlink:href="#DejaVuSans-20" transform="translate(814.941406 0)"/>
     <use xlink:href="#DejaVuSans-446" transform="translate(846.728516 0)"/>
     <use xlink:href="#DejaVuSans-435" transform="translate(914.794922 0)"/>
     <use xlink:href="#DejaVuSans-43d" transform="translate(976.318359 0)"/>
     <use xlink:href="#DejaVuSans-20" transform="translate(1041.699219 0)"/>
     <use xlink:href="#DejaVuSans-436" transform="translate(1073.486328 0)"/>
     <use xlink:href="#DejaVuSans-438" transform="translate(1163.574219 0)"/>
     <use xlink:href="#DejaVuSans-43b" transform="translate(1228.564453 0)"/>
     <use xlink:href="#DejaVuSans-44b" transform="translate(1292.480469 0)"/>
     <use xlink:href="#DejaVuSans-445" transform="translate(1371.435547 0)"/>
     <use xlink:href="#DejaVuSans-20" transform="translate(1430.615234 0)"/>
     <use xlink:href="#DejaVuSans-43f" transform="translate(1462.402344 0)"/>
     <use xlink:href="#DejaVuSans-43e" transform="translate(1527.783203 0)"/>
     <use xlink:href="#DejaVuSans-43c" transform="translate(1588.964844 0)"/>
     <use xlink:href="#DejaVuSans-435" transform="translate(1664.404297 0)"/>
     <use xlink:href="#DejaVuSans-449" transform="translate(1725.927734 0)"/>
     <use xlink:href="#DejaVuSans-435" transform="translate(1820.117188 0)"/>
     <use xlink:href="#DejaVuSans-43d" transform="translate(1881.640625 0)"/>
     <use xlink:href="#DejaVuSans-438" transform="translate(1947.021484 0)"/>
     <use xlink:href="#DejaVuSans-439" transform="translate(2012.011719 0)"/>
    </g>
   </g>
  </g>
 </g>
 <defs>
  <clipPath id="p47fa2a32f8">
   <rect x="81" y="69.12" width="502.2" height="443.52"/>
  </clipPath>
 </defs>
</svg>
